<?xml version="1.0" standalone="no"?>
<!DOCTYPE svg PUBLIC "-//W3C//DTD SVG 1.1//EN" "http://www.w3.org/Graphics/SVG/1.1/DTD/svg11.dtd" >
<svg xmlns="http://www.w3.org/2000/svg" xmlns:xlink="http://www.w3.org/1999/xlink" version="1.1">
<metadata>
Created by FontForge 20170731 at Thu Sep  1 22:47:42 2016
 By Aleksey,,,
Copyright (c) 2016 by Typetype. Designer Ivan Gladkikh, technical designers Olga Yumartova, Olexa Volochay. All rights reserved.
</metadata>
<defs>
<font id="TTLakes-DemiBold" horiz-adv-x="595" >
  <font-face 
    font-family="TT Lakes DemiBold"
    font-weight="600"
    font-stretch="normal"
    units-per-em="1000"
    panose-1="2 0 5 3 3 0 0 2 0 4"
    ascent="800"
    descent="-200"
    x-height="510"
    cap-height="700"
    bbox="-119.632 -310 1130 985"
    underline-thickness="50"
    underline-position="-200"
    unicode-range="U+000D-F6D4"
  />
<missing-glyph horiz-adv-x="0" 
 />
    <glyph glyph-name=".notdef" horiz-adv-x="0" 
 />
    <glyph glyph-name=".null" horiz-adv-x="0" 
 />
    <glyph glyph-name=".null" horiz-adv-x="0" 
 />
    <glyph glyph-name="nonmarkingreturn" unicode="&#xd;" horiz-adv-x="0" 
 />
    <glyph glyph-name="space" unicode=" " horiz-adv-x="200" 
 />
    <glyph glyph-name="exclam" unicode="!" horiz-adv-x="295" 
d="M205 25q0 -25 -25 -25h-65q-25 0 -25 25v65q0 25 25 25h65q25 0 25 -25v-65zM85 675q0 25 25 25h75q25 0 25 -25v-285l-20 -160q-3 -25 -25 -25h-35q-22 0 -25 25l-20 160v285z" />
    <glyph glyph-name="quotedbl" unicode="&#x22;" horiz-adv-x="405" 
d="M70 675q0 25 25 25h45q25 0 25 -25v-180q0 -25 -25 -25h-45q-25 0 -25 25v180zM240 675q0 25 25 25h45q25 0 25 -25v-180q0 -25 -25 -25h-45q-25 0 -25 25v180z" />
    <glyph glyph-name="numbersign" unicode="#" horiz-adv-x="710" 
d="M260 265h140l50 170h-140zM475 540l40 135q7 25 35 25h70q22 0 15 -25l-40 -135h70q25 0 25 -25v-55q0 -25 -25 -25h-95l-50 -170h70q25 0 25 -25v-55q0 -25 -25 -25h-95l-40 -135q-7 -25 -35 -25h-70q-22 0 -15 25l40 135h-140l-40 -135q-7 -25 -35 -25h-70
q-22 0 -15 25l40 135h-70q-25 0 -25 25v55q0 25 25 25h95l50 170h-70q-25 0 -25 25v55q0 25 25 25h95l40 135q7 25 35 25h70q22 0 15 -25l-40 -135h140z" />
    <glyph glyph-name="dollar" unicode="$" horiz-adv-x="705" 
d="M305 -10h-65q-180 0 -180 180v35q0 25 25 25h75q25 0 25 -25v-30q0 -70 70 -70h195q70 0 70 70v25q0 23 -13.5 38t-36.5 22l-285 90q-49 15 -79.5 49t-30.5 91v40q0 180 180 180h50v60q0 25 25 25h65q25 0 25 -25v-60h35q180 0 180 -180v-35q0 -25 -25 -25h-75
q-25 0 -25 25v30q0 70 -70 70h-170q-70 0 -70 -70v-15q0 -23 13.5 -37.5t36.5 -22.5l285 -90q49 -16 79.5 -49.5t30.5 -90.5v-50q0 -180 -180 -180h-45v-60q0 -25 -25 -25h-65q-25 0 -25 25v60z" />
    <glyph glyph-name="percent" unicode="%" horiz-adv-x="810" 
d="M600 700q11 0 15.5 -7t-0.5 -18l-300 -650q-5 -11 -15 -18t-25 -7h-65q-11 0 -15.5 7t0.5 18l300 650q5 11 15 18t25 7h65zM645 330q125 0 125 -125v-80q0 -125 -125 -125h-50q-125 0 -125 125v80q0 125 125 125h50zM610 245q-45 0 -45 -45v-70q0 -45 45 -45h20
q45 0 45 45v70q0 45 -45 45h-20zM210 0q-11 0 -15.5 7t0.5 18l300 650q5 11 15 18t25 7h65q11 0 15.5 -7t-0.5 -18l-300 -650q-5 -11 -15 -18t-25 -7h-65zM165 370q-125 0 -125 125v80q0 125 125 125h50q125 0 125 -125v-80q0 -125 -125 -125h-50zM200 455q45 0 45 45v70
q0 45 -45 45h-20q-45 0 -45 -45v-70q0 -45 45 -45h20z" />
    <glyph glyph-name="ampersand" unicode="&#x26;" horiz-adv-x="691" 
d="M255 290q-34 0 -52 -18.5t-18 -51.5v-45q0 -70 70 -70h55q23 0 40.5 7.5t29.5 17.5q14 11 25 25l-140 135h-10zM245 505q0 -15 7.5 -29.5t17.5 -25.5q11 -13 25 -25l195 -185l45 50q14 16 30 0l55 -50q14 -14 0 -30l-45 -50l140 -135q8 -8 4.5 -16.5t-14.5 -8.5h-115
q-19 0 -29 7t-21 18l-45 45q-21 -22 -48 -40q-23 -15 -55.5 -27.5t-71.5 -12.5h-80q-180 0 -180 180v50q0 49 18.5 78.5t41.5 45.5q26 18 60 26v5q-17 11 -30 28q-11 14 -20.5 37t-9.5 55v35q0 180 180 180h75q180 0 180 -180v-10q0 -25 -25 -25h-75q-25 0 -25 25v5
q0 70 -70 70h-45q-70 0 -70 -70v-20z" />
    <glyph glyph-name="quotesingle" unicode="'" horiz-adv-x="235" 
d="M70 675q0 25 25 25h45q25 0 25 -25v-180q0 -25 -25 -25h-45q-25 0 -25 25v180z" />
    <glyph glyph-name="parenleft" unicode="(" horiz-adv-x="375" 
d="M205 30q0 -42 24 -66t66 -24h25q25 0 25 -25v-60q0 -25 -25 -25h-40q-98 0 -149 51t-51 149v500q0 98 51 149t149 51h40q25 0 25 -25v-60q0 -25 -25 -25h-25q-42 0 -66 -24t-24 -66v-500z" />
    <glyph glyph-name="parenright" unicode=")" horiz-adv-x="375" 
d="M170 530q0 42 -24 66t-66 24h-25q-25 0 -25 25v60q0 25 25 25h40q98 0 149 -51t51 -149v-500q0 -98 -51 -149t-149 -51h-40q-25 0 -25 25v60q0 25 25 25h25q42 0 66 24t24 66v500z" />
    <glyph glyph-name="asterisk" unicode="*" horiz-adv-x="380" 
d="M205 700q25 0 25 -25v-80h95q25 0 25 -25v-35q0 -25 -25 -25h-65l55 -60q8 -8 8 -17.5t-8 -17.5l-30 -30q-15 -15 -30 0l-65 75l-65 -75q-15 -15 -30 0l-30 30q-8 8 -8 17.5t8 17.5l55 60h-65q-25 0 -25 25v35q0 25 25 25h95v80q0 25 25 25h30z" />
    <glyph glyph-name="plus" unicode="+" horiz-adv-x="470" 
d="M290 365h125q25 0 25 -25v-60q0 -25 -25 -25h-125v-130q0 -25 -25 -25h-60q-25 0 -25 25v130h-125q-25 0 -25 25v60q0 25 25 25h125v130q0 25 25 25h60q25 0 25 -25v-130z" />
    <glyph glyph-name="comma" unicode="," horiz-adv-x="195" 
d="M155 30q0 -10 -2.5 -18.5t-5.5 -15.5q-4 -8 -7 -16l-30 -60q-4 -8 -11.5 -14t-18.5 -6h-20q-11 0 -12.5 6t2.5 14l40 80h-25q-25 0 -25 25v65q0 25 25 25h65q25 0 25 -25v-60z" />
    <glyph glyph-name="hyphen" unicode="-" horiz-adv-x="450" 
d="M395 365q25 0 25 -25v-60q0 -25 -25 -25h-340q-25 0 -25 25v60q0 25 25 25h340z" />
    <glyph glyph-name="period" unicode="." horiz-adv-x="195" 
d="M155 25q0 -25 -25 -25h-65q-25 0 -25 25v65q0 25 25 25h65q25 0 25 -25v-65z" />
    <glyph glyph-name="slash" unicode="/" horiz-adv-x="404" 
d="M147 25q-4 -11 -12 -18t-23 -7h-75q-23 0 -15 25l235 650q4 11 12 18t23 7h75q23 0 15 -25z" />
    <glyph glyph-name="zero" unicode="0" horiz-adv-x="740" 
d="M260 -10q-180 0 -180 180v360q0 180 180 180h220q180 0 180 -180v-360q0 -180 -180 -180h-220zM465 105q70 0 70 70v350q0 70 -70 70h-190q-70 0 -70 -70v-350q0 -70 70 -70h190z" />
    <glyph glyph-name="one" unicode="1" horiz-adv-x="380" 
d="M165 585h-130q-25 0 -25 25v65q0 25 25 25h230q25 0 25 -25v-650q0 -25 -25 -25h-75q-25 0 -25 25v560z" />
    <glyph glyph-name="two" unicode="2" horiz-adv-x="660" 
d="M590 485q0 -26 -7 -47.5t-18 -39t-25.5 -32t-29.5 -26.5l-270 -220v-5h325q25 0 25 -25v-65q0 -25 -25 -25h-480q-25 0 -25 25v65q0 19 8 28.5t22 21.5l335 280q19 16 29.5 30.5t10.5 44.5v30q0 70 -70 70h-135q-70 0 -70 -70v-30q0 -25 -25 -25h-75q-25 0 -25 25v35
q0 180 180 180h165q180 0 180 -180v-45z" />
    <glyph glyph-name="three" unicode="3" horiz-adv-x="660" 
d="M405 585h-310q-25 0 -25 25v65q0 25 25 25h460q25 0 25 -25v-45q0 -19 -8.5 -30.5t-16.5 -19.5l-170 -155v-5h25q180 0 180 -180v-70q0 -180 -180 -180h-180q-180 0 -180 180v30q0 25 25 25h75q25 0 25 -25v-25q0 -70 70 -70h150q70 0 70 70v70q0 70 -70 70h-160
q-25 0 -25 25v35q0 19 8.5 30.5t16.5 19.5l170 155v5z" />
    <glyph glyph-name="four" unicode="4" horiz-adv-x="635" 
d="M615 185q0 -25 -25 -25h-60v-135q0 -25 -25 -25h-75q-25 0 -25 25v135h-360q-25 0 -25 25v55q0 19 8 31.5t17 23.5l300 380q9 11 17 18t23 7h120q25 0 25 -25v-400h60q25 0 25 -25v-65zM175 280v-5h230v290h-5z" />
    <glyph glyph-name="five" unicode="5" horiz-adv-x="660" 
d="M215 440h205q180 0 180 -180v-90q0 -180 -180 -180h-180q-180 0 -180 180v30q0 25 25 25h75q25 0 25 -25v-25q0 -70 70 -70h150q70 0 70 70v80q0 70 -70 70h-290q-25 0 -25 25v325q0 25 25 25h435q25 0 25 -25v-65q0 -25 -25 -25h-335v-145z" />
    <glyph glyph-name="six" unicode="6" horiz-adv-x="685" 
d="M615 170q0 -180 -180 -180h-175q-180 0 -180 180v360q0 180 180 180h160q180 0 180 -180v-25q0 -25 -25 -25h-75q-25 0 -25 25v20q0 70 -70 70h-130q-70 0 -70 -70v-100h230q180 0 180 -180v-75zM490 240q0 70 -70 70h-215v-135q0 -70 70 -70h145q70 0 70 70v65z" />
    <glyph glyph-name="seven" unicode="7" horiz-adv-x="555" 
d="M535 630q0 -15 -1.5 -25t-5 -19t-8 -18.5t-10.5 -22.5l-240 -520q-5 -11 -15 -18t-25 -7h-80q-11 0 -15.5 7t0.5 18l260 555v5h-350q-25 0 -25 25v65q0 25 25 25h465q25 0 25 -25v-45z" />
    <glyph glyph-name="eight" unicode="8" horiz-adv-x="700" 
d="M250 -10q-180 0 -180 180v60q0 43 15.5 70t34.5 41q22 17 50 24v5q-25 7 -43 22q-16 13 -29 35t-13 58v45q0 180 180 180h170q180 0 180 -180v-45q0 -36 -13.5 -58t-29.5 -35q-18 -15 -42 -22v-5q28 -7 50 -24q19 -14 34.5 -41t15.5 -70v-60q0 -180 -180 -180h-200z
M505 230q0 70 -70 70h-170q-70 0 -70 -70v-55q0 -70 70 -70h170q70 0 70 70v55zM280 595q-70 0 -70 -70v-40q0 -70 70 -70h140q70 0 70 70v40q0 70 -70 70h-140z" />
    <glyph glyph-name="nine" unicode="9" horiz-adv-x="685" 
d="M70 530q0 180 180 180h175q180 0 180 -180v-360q0 -180 -180 -180h-160q-180 0 -180 180v25q0 25 25 25h75q25 0 25 -25v-20q0 -70 70 -70h130q70 0 70 70v100h-230q-180 0 -180 180v75zM195 460q0 -70 70 -70h215v135q0 70 -70 70h-145q-70 0 -70 -70v-65z" />
    <glyph glyph-name="colon" unicode=":" horiz-adv-x="195" 
d="M155 25q0 -25 -25 -25h-65q-25 0 -25 25v65q0 25 25 25h65q25 0 25 -25v-65zM155 420q0 -25 -25 -25h-65q-25 0 -25 25v65q0 25 25 25h65q25 0 25 -25v-65z" />
    <glyph glyph-name="semicolon" unicode=";" horiz-adv-x="195" 
d="M155 420q0 -25 -25 -25h-65q-25 0 -25 25v65q0 25 25 25h65q25 0 25 -25v-65zM155 30q0 -10 -2.5 -18.5t-5.5 -15.5q-4 -8 -7 -16l-30 -60q-4 -8 -11.5 -14t-18.5 -6h-20q-11 0 -12.5 6t2.5 14l40 80h-25q-25 0 -25 25v65q0 25 25 25h65q25 0 25 -25v-60z" />
    <glyph glyph-name="less" unicode="&#x3c;" horiz-adv-x="535" 
d="M40 275q0 15 7 22.5t18 12.5l405 175q25 8 25 -15v-65q0 -15 -7 -22.5t-18 -12.5l-275 -117v-6l275 -117q11 -5 18 -12.5t7 -22.5v-65q0 -23 -25 -15l-405 175q-11 5 -18 12.5t-7 22.5v50z" />
    <glyph glyph-name="equal" unicode="=" horiz-adv-x="455" 
d="M65 355q-25 0 -25 25v60q0 25 25 25h325q25 0 25 -25v-60q0 -25 -25 -25h-325zM65 140q-25 0 -25 25v60q0 25 25 25h325q25 0 25 -25v-60q0 -25 -25 -25h-325z" />
    <glyph glyph-name="greater" unicode="&#x3e;" horiz-adv-x="535" 
d="M495 225q0 -15 -7 -22.5t-18 -12.5l-405 -175q-25 -8 -25 15v65q0 15 7 22.5t18 12.5l275 117v6l-275 117q-11 5 -18 12.5t-7 22.5v65q0 23 25 15l405 -175q11 -5 18 -12.5t7 -22.5v-50z" />
    <glyph glyph-name="question" unicode="?" horiz-adv-x="620" 
d="M40 530q0 180 180 180h170q180 0 180 -180v-85q0 -180 -180 -180h-45l-5 -35q-3 -25 -25 -25h-35q-22 0 -25 25l-20 125q0 25 25 25h115q70 0 70 70v75q0 70 -70 70h-140q-70 0 -70 -70v-10q0 -25 -25 -25h-75q-25 0 -25 25v15zM240 90q0 25 25 25h65q25 0 25 -25v-65
q0 -25 -25 -25h-65q-25 0 -25 25v65z" />
    <glyph glyph-name="at" unicode="@" horiz-adv-x="995" 
d="M575 330q0 40 -40 40h-65q-45 0 -45 -45v-130q0 -45 45 -45h65q40 0 40 40v140zM660 465q25 0 25 -25v-280h55q75 0 75 75v275q0 75 -75 75h-475q-75 0 -75 -75v-500q0 -75 75 -75h545q25 0 25 -25v-55q0 -25 -25 -25h-560q-170 0 -170 170v520q0 170 170 170h505
q170 0 170 -170v-295q0 -170 -170 -170h-155q-25 0 -25 25v10h-5q-5 -11 -14 -20q-8 -8 -20 -14t-31 -6h-60q-60 0 -95 35t-35 95v160q0 60 35 95t95 35h60q19 0 31 -6t20 -14q9 -9 14 -20h5v10q0 25 25 25h60z" />
    <glyph glyph-name="A" unicode="A" horiz-adv-x="696" 
d="M493 165h-290l-50 -140q-8 -25 -30 -25h-95q-25 0 -15 25l250 650q10 25 30 25h110q20 0 30 -25l250 -650q10 -25 -15 -25h-95q-22 0 -30 25zM453 280l-103 275h-4l-103 -275h210z" />
    <glyph glyph-name="B" unicode="B" horiz-adv-x="735" 
d="M510 515q0 70 -70 70h-225v-155h225q70 0 70 70v15zM675 180q0 -180 -180 -180h-380q-25 0 -25 25v650q0 25 25 25h340q180 0 180 -180v-20q0 -36 -11 -58t-24 -35q-16 -15 -35 -22v-5q30 -7 55 -24q20 -14 37.5 -41t17.5 -70v-65zM550 245q0 70 -70 70h-265v-200h265
q70 0 70 70v60z" />
    <glyph glyph-name="C" unicode="C" horiz-adv-x="765" 
d="M695 495q0 -25 -25 -25h-75q-25 0 -25 25v30q0 70 -70 70h-225q-70 0 -70 -70v-350q0 -70 70 -70h225q70 0 70 70v30q0 25 25 25h75q25 0 25 -25v-35q0 -180 -180 -180h-255q-180 0 -180 180v360q0 180 180 180h255q180 0 180 -180v-35z" />
    <glyph glyph-name="D" unicode="D" horiz-adv-x="785" 
d="M115 0q-25 0 -25 25v650q0 25 25 25h410q180 0 180 -180v-340q0 -180 -180 -180h-410zM215 115h295q70 0 70 70v330q0 70 -70 70h-295v-470z" />
    <glyph glyph-name="E" unicode="E" horiz-adv-x="680" 
d="M215 415h310q25 0 25 -25v-65q0 -25 -25 -25h-310v-185h410q25 0 25 -25v-65q0 -25 -25 -25h-510q-25 0 -25 25v650q0 25 25 25h500q25 0 25 -25v-65q0 -25 -25 -25h-400v-170z" />
    <glyph glyph-name="F" unicode="F" horiz-adv-x="660" 
d="M215 25q0 -25 -25 -25h-75q-25 0 -25 25v650q0 25 25 25h500q25 0 25 -25v-65q0 -25 -25 -25h-400v-200h270q25 0 25 -25v-65q0 -25 -25 -25h-270v-245z" />
    <glyph glyph-name="G" unicode="G" horiz-adv-x="775" 
d="M695 495q0 -25 -25 -25h-75q-25 0 -25 25v30q0 70 -70 70h-225q-70 0 -70 -70v-350q0 -70 70 -70h225q70 0 70 70v90h-135q-25 0 -25 25v65q0 25 25 25h235q25 0 25 -25v-185q0 -180 -180 -180h-255q-180 0 -180 180v360q0 180 180 180h255q180 0 180 -180v-35z" />
    <glyph glyph-name="H" unicode="H" horiz-adv-x="770" 
d="M90 675q0 25 25 25h75q25 0 25 -25v-265h340v265q0 25 25 25h75q25 0 25 -25v-650q0 -25 -25 -25h-75q-25 0 -25 25v270h-340v-270q0 -25 -25 -25h-75q-25 0 -25 25v650z" />
    <glyph glyph-name="I" unicode="I" horiz-adv-x="305" 
d="M90 675q0 25 25 25h75q25 0 25 -25v-650q0 -25 -25 -25h-75q-25 0 -25 25v650z" />
    <glyph glyph-name="J" unicode="J" horiz-adv-x="670" 
d="M455 675q0 25 25 25h75q25 0 25 -25v-505q0 -180 -180 -180h-190q-180 0 -180 180v55q0 25 25 25h75q25 0 25 -25v-50q0 -70 70 -70h160q70 0 70 70v500z" />
    <glyph glyph-name="K" unicode="K" horiz-adv-x="703" 
d="M215 25q0 -25 -25 -25h-75q-25 0 -25 25v650q0 25 25 25h75q25 0 25 -25v-255h165l135 255q6 11 15.5 18t24.5 7h90q15 0 17 -8.5t-2 -16.5l-170 -305l190 -345q4 -8 2 -16.5t-17 -8.5h-90q-15 0 -24.5 7t-15.5 18l-150 280h-170v-280z" />
    <glyph glyph-name="L" unicode="L" horiz-adv-x="650" 
d="M215 115h390q25 0 25 -25v-65q0 -25 -25 -25h-490q-25 0 -25 25v650q0 25 25 25h75q25 0 25 -25v-560z" />
    <glyph glyph-name="M" unicode="M" horiz-adv-x="985" 
d="M465 0q-15 0 -22.5 7t-12.5 18l-210 450h-5v-450q0 -25 -25 -25h-75q-25 0 -25 25v650q0 25 25 25h105q15 0 22.5 -7t12.5 -18l235 -500h5l235 500q5 11 12.5 18t22.5 7h105q25 0 25 -25v-650q0 -25 -25 -25h-75q-25 0 -25 25v450h-5l-210 -450q-5 -11 -12.5 -18
t-22.5 -7h-55z" />
    <glyph glyph-name="N" unicode="N" horiz-adv-x="790" 
d="M575 190v485q0 25 25 25h75q25 0 25 -25v-650q0 -25 -25 -25h-100q-15 0 -23.5 7t-16.5 18l-315 485h-5v-485q0 -25 -25 -25h-75q-25 0 -25 25v650q0 25 25 25h100q15 0 23.5 -7t16.5 -18l315 -485h5z" />
    <glyph glyph-name="O" unicode="O" horiz-adv-x="790" 
d="M260 -10q-180 0 -180 180v360q0 180 180 180h270q180 0 180 -180v-360q0 -180 -180 -180h-270zM515 105q70 0 70 70v350q0 70 -70 70h-240q-70 0 -70 -70v-350q0 -70 70 -70h240z" />
    <glyph glyph-name="P" unicode="P" horiz-adv-x="735" 
d="M90 675q0 25 25 25h380q180 0 180 -180v-130q0 -180 -180 -180h-280v-185q0 -25 -25 -25h-75q-25 0 -25 25v650zM215 585v-260h265q70 0 70 70v120q0 70 -70 70h-265z" />
    <glyph glyph-name="Q" unicode="Q" horiz-adv-x="793" 
d="M260 -10q-180 0 -180 180v360q0 180 180 180h270q180 0 180 -180v-360q0 -23 -2.5 -40t-5.5 -28q-4 -13 -7 -22l80 -85q8 -8 8 -17.5t-8 -17.5l-55 -50q-8 -8 -17.5 -8t-17.5 8l-85 90q-9 -3 -20 -5q-22 -5 -50 -5h-270zM585 195v330q0 70 -70 70h-240q-70 0 -70 -70
v-350q0 -70 70 -70h224l-24 25q-8 8 -8 17.5t8 17.5l55 50q8 8 17.5 8t17.5 -8z" />
    <glyph glyph-name="R" unicode="R" horiz-adv-x="743" 
d="M90 675q0 25 25 25h375q180 0 180 -180v-110q0 -57 -17.5 -90t-37.5 -51q-25 -21 -55 -29l120 -215q4 -8 2 -16.5t-17 -8.5h-85q-15 0 -24.5 7t-15.5 18l-110 205h-215v-205q0 -25 -25 -25h-75q-25 0 -25 25v650zM215 585v-240h260q70 0 70 70v100q0 70 -70 70h-260z" />
    <glyph glyph-name="S" unicode="S" horiz-adv-x="705" 
d="M645 170q0 -180 -180 -180h-225q-180 0 -180 180v35q0 25 25 25h75q25 0 25 -25v-30q0 -70 70 -70h195q70 0 70 70v25q0 23 -13.5 38t-36.5 22l-285 90q-49 15 -79.5 49t-30.5 91v40q0 180 180 180h200q180 0 180 -180v-35q0 -25 -25 -25h-75q-25 0 -25 25v30
q0 70 -70 70h-170q-70 0 -70 -70v-15q0 -23 13.5 -37.5t36.5 -22.5l285 -90q49 -16 79.5 -49.5t30.5 -90.5v-50z" />
    <glyph glyph-name="T" unicode="T" horiz-adv-x="605" 
d="M365 25q0 -25 -25 -25h-75q-25 0 -25 25v560h-205q-25 0 -25 25v65q0 25 25 25h535q25 0 25 -25v-65q0 -25 -25 -25h-205v-560z" />
    <glyph glyph-name="U" unicode="U" horiz-adv-x="785" 
d="M695 170q0 -180 -180 -180h-245q-180 0 -180 180v505q0 25 25 25h75q25 0 25 -25v-500q0 -70 70 -70h215q70 0 70 70v500q0 25 25 25h75q25 0 25 -25v-505z" />
    <glyph glyph-name="V" unicode="V" horiz-adv-x="671" 
d="M298 0q-20 0 -30 25l-255 650q-10 25 15 25h95q20 0 30 -25l180 -480h5l180 480q10 25 30 25h95q25 0 15 -25l-255 -650q-10 -25 -30 -25h-75z" />
    <glyph glyph-name="W" unicode="W" horiz-adv-x="934" 
d="M502 700q23 0 30 -25l125 -450h5l125 450q7 25 30 25h90q22 0 15 -25l-190 -650q-7 -25 -30 -25h-66q-22 0 -29 25l-138 475h-4l-138 -475q-7 -25 -29 -25h-66q-23 0 -30 25l-190 650q-7 25 15 25h90q23 0 30 -25l125 -450h5l125 450q7 25 30 25h70z" />
    <glyph glyph-name="X" unicode="X" horiz-adv-x="648" 
d="M39 675q-5 8 -2.5 16.5t17.5 8.5h90q15 0 23.5 -7t16.5 -18l140 -205l140 205q8 11 16.5 18t23.5 7h90q15 0 17.5 -8.5t-2.5 -16.5l-205 -305l230 -345q5 -8 2.5 -16.5t-17.5 -8.5h-90q-15 0 -23.5 7t-16.5 18l-165 245l-165 -245q-8 -11 -16.5 -18t-23.5 -7h-90
q-15 0 -17.5 8.5t2.5 16.5l230 345z" />
    <glyph glyph-name="Y" unicode="Y" horiz-adv-x="658" 
d="M294 0q-25 0 -25 25v215l-265 435q-5 8 -2.5 16.5t17.5 8.5h90q15 0 24 -7t16 -18l180 -300l180 300q7 11 16 18t24 7h90q15 0 17.5 -8.5t-2.5 -16.5l-265 -435v-215q0 -25 -25 -25h-70z" />
    <glyph glyph-name="Z" unicode="Z" horiz-adv-x="630" 
d="M440 585h-375q-25 0 -25 25v65q0 25 25 25h510q25 0 25 -25v-75q0 -19 -8.5 -30.5t-16.5 -19.5l-385 -430v-5h385q25 0 25 -25v-65q0 -25 -25 -25h-520q-25 0 -25 25v75q0 19 8.5 30.5t16.5 19.5l385 430v5z" />
    <glyph glyph-name="bracketleft" unicode="[" horiz-adv-x="370" 
d="M215 -60h100q25 0 25 -25v-60q0 -25 -25 -25h-200q-25 0 -25 25v850q0 25 25 25h200q25 0 25 -25v-60q0 -25 -25 -25h-100v-680z" />
    <glyph glyph-name="backslash" unicode="\" horiz-adv-x="404" 
d="M22 675q-8 25 15 25h75q15 0 23 -7t12 -18l235 -650q8 -25 -15 -25h-75q-15 0 -23 7t-12 18z" />
    <glyph glyph-name="bracketright" unicode="]" horiz-adv-x="370" 
d="M155 620h-100q-25 0 -25 25v60q0 25 25 25h200q25 0 25 -25v-850q0 -25 -25 -25h-200q-25 0 -25 25v60q0 25 25 25h100v680z" />
    <glyph glyph-name="asciicircum" unicode="^" horiz-adv-x="501" 
d="M278 700q15 0 22.5 -7t12.5 -18l155 -310q5 -11 0.5 -18t-15.5 -7h-65q-15 0 -22 7t-13 18l-100 205h-5l-100 -205q-6 -11 -13 -18t-22 -7h-65q-11 0 -15.5 7t0.5 18l155 310q5 11 12.5 18t22.5 7h55z" />
    <glyph glyph-name="underscore" unicode="_" horiz-adv-x="390" 
d="M365 -100q25 0 25 -25v-60q0 -25 -25 -25h-340q-25 0 -25 25v60q0 25 25 25h340z" />
    <glyph glyph-name="grave" unicode="`" horiz-adv-x="238" 
d="M35 675q-8 11 -2 18t17 7h75q20 0 30 -25l50 -120q10 -25 -15 -25h-45q-11 0 -19 7t-16 18z" />
    <glyph glyph-name="a" unicode="a" horiz-adv-x="560" 
d="M295 90q38 0 61.5 23.5t23.5 61.5v35h-165q-55 0 -55 -55v-10q0 -55 55 -55h80zM490 25q0 -25 -25 -25h-60q-25 0 -25 25v25h-5q-8 -17 -22 -30q-12 -11 -31 -20.5t-47 -9.5h-75q-150 0 -150 150v15q0 150 150 150h180v50q0 30 -17.5 47.5t-47.5 17.5h-70q-55 0 -55 -55
q0 -25 -25 -25h-60q-25 0 -25 25q0 75 40.5 115t119.5 40h90q160 0 160 -160v-335z" />
    <glyph glyph-name="b" unicode="b" 
d="M370 510q160 0 160 -160v-190q0 -160 -160 -160h-270q-25 0 -25 25v650q0 25 25 25h60q25 0 25 -25v-165h185zM185 100h170q30 0 47.5 17.5t17.5 47.5v180q0 30 -17.5 47.5t-47.5 17.5h-170v-310z" />
    <glyph glyph-name="c" unicode="c" horiz-adv-x="575" 
d="M410 170q0 25 25 25h60q25 0 25 -25v-20q0 -160 -160 -160h-135q-160 0 -160 160v210q0 160 160 160h135q160 0 160 -160v-20q0 -25 -25 -25h-60q-25 0 -25 25v15q0 30 -17.5 47.5t-47.5 17.5h-105q-30 0 -47.5 -17.5t-17.5 -47.5v-200q0 -30 17.5 -47.5t47.5 -17.5h105
q30 0 47.5 17.5t17.5 47.5v15z" />
    <glyph glyph-name="d" unicode="d" 
d="M410 510v165q0 25 25 25h60q25 0 25 -25v-650q0 -25 -25 -25h-60q-25 0 -25 25v25h-5q-8 -17 -22 -30q-12 -11 -31 -20.5t-47 -9.5h-80q-160 0 -160 160v200q0 160 160 160h185zM410 410h-170q-30 0 -47.5 -17.5t-17.5 -47.5v-190q0 -30 17.5 -47.5t47.5 -17.5h85
q38 0 61.5 23.5t23.5 61.5v235z" />
    <glyph glyph-name="e" unicode="e" horiz-adv-x="585" 
d="M410 145q0 25 25 25h60q25 0 25 -25q0 -75 -40.5 -115t-119.5 -40h-135q-160 0 -160 160v210q0 160 160 160h135q160 0 160 -160v-120q0 -25 -25 -25h-320v-60q0 -30 17.5 -47.5t47.5 -17.5h115q55 0 55 55zM175 310h235v45q0 30 -17.5 47.5t-47.5 17.5h-105
q-30 0 -47.5 -17.5t-17.5 -47.5v-45z" />
    <glyph glyph-name="f" unicode="f" horiz-adv-x="360" 
d="M55 380q-25 0 -25 25v50q0 25 25 25h60v70q0 150 150 150h70q25 0 25 -25v-55q0 -25 -25 -25h-55q-55 0 -55 -55v-60h85q25 0 25 -25v-50q0 -25 -25 -25h-85v-355q0 -25 -25 -25h-60q-25 0 -25 25v355h-60z" />
    <glyph glyph-name="g" unicode="g" horiz-adv-x="590" 
d="M185 -35q0 -30 17.5 -47.5t47.5 -17.5h95q30 0 47.5 17.5t17.5 47.5v75h-185q-160 0 -160 160v160q0 160 160 160h80q28 0 47 -9.5t31 -20.5q14 -13 22 -30h5v25q0 25 25 25h60q25 0 25 -25v-525q0 -160 -160 -160h-125q-160 0 -160 160v10q0 25 25 25h60q25 0 25 -25v-5
zM410 335q0 38 -23.5 61.5t-61.5 23.5h-85q-30 0 -47.5 -17.5t-17.5 -47.5v-150q0 -30 17.5 -47.5t47.5 -17.5h170v195z" />
    <glyph glyph-name="h" unicode="h" horiz-adv-x="600" 
d="M530 25q0 -25 -25 -25h-60q-25 0 -25 25v320q0 30 -17.5 47.5t-47.5 17.5h-170v-385q0 -25 -25 -25h-60q-25 0 -25 25v650q0 25 25 25h60q25 0 25 -25v-165h185q160 0 160 -160v-325z" />
    <glyph glyph-name="i" unicode="i" horiz-adv-x="250" 
d="M180 25q0 -25 -25 -25h-60q-25 0 -25 25v460q0 25 25 25h60q25 0 25 -25v-460zM180 615q0 -25 -25 -25h-60q-25 0 -25 25v60q0 25 25 25h60q25 0 25 -25v-60z" />
    <glyph glyph-name="j" unicode="j" horiz-adv-x="255" 
d="M20 -95q55 0 55 55v525q0 25 25 25h60q25 0 25 -25v-535q0 -150 -150 -150h-70q-25 0 -25 25v55q0 25 25 25h55zM185 615q0 -25 -25 -25h-60q-25 0 -25 25v60q0 25 25 25h60q25 0 25 -25v-60z" />
    <glyph glyph-name="k" unicode="k" horiz-adv-x="538" 
d="M185 320h105l85 165q6 11 15.5 18t24.5 7h70q15 0 17 -8.5t-2 -16.5l-120 -215l135 -245q4 -8 2 -16.5t-17 -8.5h-70q-15 0 -24.5 7t-15.5 18l-100 195h-105v-195q0 -25 -25 -25h-60q-25 0 -25 25v650q0 25 25 25h60q25 0 25 -25v-355z" />
    <glyph glyph-name="l" unicode="l" horiz-adv-x="260" 
d="M185 25q0 -25 -25 -25h-60q-25 0 -25 25v650q0 25 25 25h60q25 0 25 -25v-650z" />
    <glyph glyph-name="m" unicode="m" horiz-adv-x="840" 
d="M610 520q160 0 160 -160v-335q0 -25 -25 -25h-60q-25 0 -25 25v330q0 30 -17.5 47.5t-47.5 17.5h-55q-30 0 -47.5 -17.5t-17.5 -47.5v-330q0 -25 -25 -25h-60q-25 0 -25 25v330q0 30 -17.5 47.5t-47.5 17.5h-35q-38 0 -61.5 -23.5t-23.5 -61.5v-310q0 -25 -25 -25h-60
q-25 0 -25 25v460q0 25 25 25h60q25 0 25 -25v-25h5q8 17 22 30q12 11 30.5 20.5t47.5 9.5h40q32 0 52 -9.5t32 -20.5q14 -13 21 -30h5q7 17 21 30q12 11 32 20.5t52 9.5h70z" />
    <glyph glyph-name="n" unicode="n" 
d="M525 25q0 -25 -25 -25h-60q-25 0 -25 25v330q0 30 -17.5 47.5t-47.5 17.5h-85q-38 0 -61.5 -23.5t-23.5 -61.5v-310q0 -25 -25 -25h-60q-25 0 -25 25v460q0 25 25 25h60q25 0 25 -25v-25h5q8 17 22 30q12 11 30.5 20.5t47.5 9.5h80q160 0 160 -160v-335z" />
    <glyph glyph-name="o" unicode="o" 
d="M175 155q0 -30 17.5 -47.5t47.5 -17.5h115q30 0 47.5 17.5t17.5 47.5v200q0 30 -17.5 47.5t-47.5 17.5h-115q-30 0 -47.5 -17.5t-17.5 -47.5v-200zM65 360q0 160 160 160h145q160 0 160 -160v-210q0 -160 -160 -160h-145q-160 0 -160 160v210z" />
    <glyph glyph-name="p" unicode="p" horiz-adv-x="590" 
d="M180 0v-165q0 -25 -25 -25h-60q-25 0 -25 25v650q0 25 25 25h60q25 0 25 -25v-25h5q8 17 22 30q12 11 30.5 20.5t47.5 9.5h80q160 0 160 -160v-200q0 -160 -160 -160h-185zM180 100h170q30 0 47.5 17.5t17.5 47.5v190q0 30 -17.5 47.5t-47.5 17.5h-85q-38 0 -61.5 -23.5
t-23.5 -61.5v-235z" />
    <glyph glyph-name="q" unicode="q" horiz-adv-x="590" 
d="M225 0q-160 0 -160 160v190q0 160 160 160h270q25 0 25 -25v-650q0 -25 -25 -25h-60q-25 0 -25 25v165h-185zM410 410h-170q-30 0 -47.5 -17.5t-17.5 -47.5v-180q0 -30 17.5 -47.5t47.5 -17.5h170v310z" />
    <glyph glyph-name="r" unicode="r" horiz-adv-x="370" 
d="M335 520q25 0 25 -25v-55q0 -25 -25 -25h-70q-38 0 -61.5 -23.5t-23.5 -61.5v-305q0 -25 -25 -25h-60q-25 0 -25 25v460q0 25 25 25h60q25 0 25 -25v-25h5q8 17 22 30q12 11 30.5 20.5t47.5 9.5h50z" />
    <glyph glyph-name="s" unicode="s" horiz-adv-x="545" 
d="M385 140q0 31 -30 40l-205 65q-38 12 -64 41.5t-26 78.5v5q0 150 150 150h125q150 0 150 -150v-10q0 -25 -25 -25h-60q-25 0 -25 25v5q0 55 -55 55h-105q-19 0 -32 -13t-13 -32q0 -31 30 -40l205 -65q38 -12 64 -41.5t26 -78.5v-10q0 -150 -150 -150h-145
q-150 0 -150 150v10q0 25 25 25h60q25 0 25 -25v-5q0 -55 55 -55h120q23 0 36.5 13.5t13.5 36.5z" />
    <glyph glyph-name="t" unicode="t" horiz-adv-x="400" 
d="M115 510v95q0 25 25 25h60q25 0 25 -25v-95h85q25 0 25 -25v-50q0 -25 -25 -25h-85v-250q0 -55 55 -55h55q25 0 25 -25v-55q0 -25 -25 -25h-70q-150 0 -150 150v260h-60q-25 0 -25 25v50q0 25 25 25h60z" />
    <glyph glyph-name="u" unicode="u" 
d="M70 485q0 25 25 25h60q25 0 25 -25v-330q0 -30 17.5 -47.5t47.5 -17.5h85q38 0 61.5 23.5t23.5 61.5v310q0 25 25 25h60q25 0 25 -25v-460q0 -25 -25 -25h-60q-25 0 -25 25v25h-5q-8 -17 -22 -30q-12 -11 -31 -20.5t-47 -9.5h-80q-160 0 -160 160v335z" />
    <glyph glyph-name="v" unicode="v" horiz-adv-x="521" 
d="M228 0q-20 0 -30 25l-185 460q-10 25 15 25h80q20 0 30 -25l120 -315h5l120 315q10 25 30 25h80q25 0 15 -25l-185 -460q-10 -25 -30 -25h-65z" />
    <glyph glyph-name="w" unicode="w" horiz-adv-x="709" 
d="M382 510q23 0 30 -25l80 -295h5l80 295q7 25 30 25h75q22 0 15 -25l-135 -460q-7 -25 -30 -25h-56q-22 0 -29 25l-90 315h-5l-90 -315q-7 -25 -29 -25h-56q-23 0 -30 25l-135 460q-7 25 15 25h75q23 0 30 -25l80 -295h5l80 295q7 25 30 25h55z" />
    <glyph glyph-name="x" unicode="x" horiz-adv-x="498" 
d="M249 345l90 140q8 11 16.5 18t23.5 7h75q15 0 17.5 -8.5t-2.5 -16.5l-145 -220l160 -240q5 -8 2.5 -16.5t-17.5 -8.5h-75q-15 0 -23.5 7t-16.5 18l-105 160l-105 -160q-8 -11 -16.5 -18t-23.5 -7h-75q-15 0 -17.5 8.5t2.5 16.5l160 240l-145 220q-5 8 -2.5 16.5t17.5 8.5
h75q15 0 23.5 -7t16.5 -18z" />
    <glyph glyph-name="y" unicode="y" horiz-adv-x="521" 
d="M383 485q8 25 30 25h80q25 0 15 -25l-195 -500q-34 -87 -81 -131t-119 -44h-25q-25 0 -25 25v55q0 25 25 25h25q59 0 90 85l-190 485q-10 25 15 25h80q22 0 30 -25l120 -325h5z" />
    <glyph glyph-name="z" unicode="z" horiz-adv-x="485" 
d="M310 410h-245q-25 0 -25 25v50q0 25 25 25h365q25 0 25 -25v-60q0 -19 -8.5 -30.5t-16.5 -19.5l-255 -270v-5h255q25 0 25 -25v-50q0 -25 -25 -25h-375q-25 0 -25 25v60q0 19 8.5 30.5t16.5 19.5l255 270v5z" />
    <glyph glyph-name="braceleft" unicode="{" horiz-adv-x="420" 
d="M200 277q20 -6 37 -21q14 -13 26 -35.5t12 -60.5v-140q0 -38 21 -59t59 -21h10q25 0 25 -25v-60q0 -25 -25 -25h-25q-190 0 -190 190v130q0 34 -20.5 54.5t-54.5 20.5h-10q-25 0 -25 25v60q0 25 25 25h10q34 0 54.5 20.5t20.5 54.5v130q0 190 190 190h25q25 0 25 -25v-60
q0 -25 -25 -25h-10q-38 0 -59 -21t-21 -59v-140q0 -38 -12 -60.5t-26 -35.5q-17 -15 -37 -21v-6z" />
    <glyph glyph-name="bar" unicode="|" horiz-adv-x="345" 
d="M110 675q0 25 25 25h75q25 0 25 -25v-840q0 -25 -25 -25h-75q-25 0 -25 25v840z" />
    <glyph glyph-name="braceright" unicode="}" horiz-adv-x="420" 
d="M220 283q-21 6 -38 21q-14 13 -25.5 35.5t-11.5 60.5v140q0 38 -21 59t-59 21h-10q-25 0 -25 25v60q0 25 25 25h25q190 0 190 -190v-130q0 -34 20.5 -54.5t54.5 -20.5h10q25 0 25 -25v-60q0 -25 -25 -25h-10q-34 0 -54.5 -20.5t-20.5 -54.5v-130q0 -190 -190 -190h-25
q-25 0 -25 25v60q0 25 25 25h10q38 0 59 21t21 59v140q0 38 11.5 60.5t25.5 35.5q17 15 38 21v6z" />
    <glyph glyph-name="asciitilde" unicode="~" horiz-adv-x="440" 
d="M410 320q0 -42 -26.5 -68.5t-68.5 -26.5q-30 0 -54.5 13.5t-45 29t-36.5 29t-29 13.5q-8 0 -14 -6t-6 -14v-40q0 -25 -25 -25h-50q-25 0 -25 25v75q0 42 26.5 68.5t68.5 26.5q30 0 54.5 -13.5t45 -29t36.5 -29t29 -13.5q8 0 14 6t6 14v40q0 25 25 25h50q25 0 25 -25v-75z
" />
    <glyph glyph-name="nonbreakingspace" unicode="&#xa0;" horiz-adv-x="200" 
 />
    <glyph glyph-name="exclamdown" unicode="&#xa1;" horiz-adv-x="295" 
d="M205 420q0 -25 -25 -25h-65q-25 0 -25 25v65q0 25 25 25h65q25 0 25 -25v-65zM85 120l20 160q3 25 25 25h35q22 0 25 -25l20 -160v-285q0 -25 -25 -25h-75q-25 0 -25 25v285z" />
    <glyph glyph-name="cent" unicode="&#xa2;" horiz-adv-x="575" 
d="M350 -65q0 -25 -25 -25h-60q-25 0 -25 25v55h-15q-160 0 -160 160v210q0 160 160 160h15v55q0 25 25 25h60q25 0 25 -25v-55h10q160 0 160 -160v-20q0 -25 -25 -25h-60q-25 0 -25 25v15q0 30 -17.5 47.5t-47.5 17.5h-105q-30 0 -47.5 -17.5t-17.5 -47.5v-200
q0 -30 17.5 -47.5t47.5 -17.5h105q30 0 47.5 17.5t17.5 47.5v15q0 25 25 25h60q25 0 25 -25v-20q0 -160 -160 -160h-10v-55z" />
    <glyph glyph-name="sterling" unicode="&#xa3;" horiz-adv-x="570" 
d="M150 110v190h-45q-25 0 -25 25v60q0 25 25 25h45v110q0 180 180 180h85q25 0 25 -25v-60q0 -25 -25 -25h-75q-70 0 -70 -70v-110h100q25 0 25 -25v-60q0 -25 -25 -25h-100v-190h265q25 0 25 -25v-60q0 -25 -25 -25h-480q-25 0 -25 25v60q0 25 25 25h95z" />
    <glyph glyph-name="currency" unicode="&#xa4;" horiz-adv-x="710" 
d="M240 120v-95q0 -25 -25 -25h-75q-25 0 -25 25v95h-50q-25 0 -25 25v55q0 25 25 25h50v55h-50q-25 0 -25 25v55q0 25 25 25h50v290q0 25 25 25h330q90 0 135 -37.5t45 -127.5v-75q0 -180 -180 -180h-230v-55h290q25 0 25 -25v-55q0 -25 -25 -25h-290zM240 585v-200h215
q70 0 70 70v60q0 70 -70 70h-215z" />
    <glyph glyph-name="yen" unicode="&#xa5;" horiz-adv-x="658" 
d="M139 95q-25 0 -25 25v45q0 25 25 25h130v50h-130q-25 0 -25 25v45q0 25 25 25h75l-210 340q-5 8 -2.5 16.5t17.5 8.5h90q15 0 24 -7t16 -18l180 -300l180 300q7 11 16 18t24 7h90q15 0 17.5 -8.5t-2.5 -16.5l-210 -340h75q25 0 25 -25v-45q0 -25 -25 -25h-130v-50h130
q25 0 25 -25v-45q0 -25 -25 -25h-130v-70q0 -25 -25 -25h-70q-25 0 -25 25v70h-130z" />
    <glyph glyph-name="brokenbar" unicode="&#xa6;" horiz-adv-x="345" 
d="M110 675q0 25 25 25h75q25 0 25 -25v-320q0 -25 -25 -25h-75q-25 0 -25 25v320zM110 155q0 25 25 25h75q25 0 25 -25v-320q0 -25 -25 -25h-75q-25 0 -25 25v320z" />
    <glyph glyph-name="section" unicode="&#xa7;" 
d="M405 540q0 55 -55 55h-110q-19 0 -32 -13t-13 -32v-30q0 -31 30 -40l210 -65q38 -11 64 -41t26 -79v-75q0 -34 -12 -55.5t-26 -33.5q-17 -14 -37 -21v-5q18 -7 32 -21q12 -12 22.5 -32t10.5 -52v-50q0 -150 -150 -150h-135q-150 0 -150 150v15q0 25 25 25h60q25 0 25 -25
v-5q0 -55 55 -55h110q19 0 32 13t13 32v40q0 31 -30 40l-210 65q-38 11 -64 41t-26 79v75q0 34 11.5 55.5t25.5 33.5q17 14 38 21v5q-19 7 -33 21q-12 12 -22 32t-10 52v40q0 150 150 150h135q150 0 150 -150v-15q0 -25 -25 -25h-60q-25 0 -25 25v5zM185 230q0 -31 30 -40
l145 -45q14 6 25 16q9 8 17 20t8 29v70q0 31 -30 40l-145 45q-14 -6 -25 -16q-10 -8 -17.5 -20t-7.5 -29v-70z" />
    <glyph glyph-name="dieresis" unicode="&#xa8;" horiz-adv-x="365" 
d="M140 615q0 -25 -25 -25h-60q-25 0 -25 25v60q0 25 25 25h60q25 0 25 -25v-60zM335 615q0 -25 -25 -25h-60q-25 0 -25 25v60q0 25 25 25h60q25 0 25 -25v-60z" />
    <glyph glyph-name="copyright" unicode="&#xa9;" horiz-adv-x="895" 
d="M805 170q0 -170 -170 -170h-375q-170 0 -170 170v360q0 170 170 170h375q170 0 170 -170v-360zM275 600q-75 0 -75 -75v-350q0 -75 75 -75h345q75 0 75 75v350q0 75 -75 75h-345zM600 280q0 -100 -100 -100h-100q-100 0 -100 100v140q0 100 100 100h100q100 0 100 -100
v-10q0 -20 -20 -20h-50q-20 0 -20 20q0 25 -25 25h-70q-25 0 -25 -25v-120q0 -25 25 -25h70q25 0 25 25q0 20 20 20h50q20 0 20 -20v-10z" />
    <glyph glyph-name="ordfeminine" unicode="&#xaa;" horiz-adv-x="375" 
d="M240 505h-85q-30 0 -30 -30t30 -30h45q40 0 40 40v20zM165 620q-17 0 -22.5 -5.5t-8.5 -12t-7 -12t-17 -5.5h-45q-20 0 -20 20q0 49 25 72t85 23h60q64 0 92 -28t28 -92v-185q0 -20 -20 -20h-55q-20 0 -20 20v10h-5q-5 -10 -14 -18q-8 -7 -20 -12t-31 -5h-30
q-110 0 -110 100t110 100h100v10q0 40 -40 40h-35z" />
    <glyph glyph-name="guillemotleft" unicode="&#xab;" horiz-adv-x="504" 
d="M30 255l120 190q8 11 16.5 18t23.5 7h65q15 0 17.5 -8.5t-2.5 -16.5l-120 -190l120 -190q5 -8 2.5 -16.5t-17.5 -8.5h-65q-15 0 -23.5 7t-16.5 18zM230 255l120 190q8 11 16.5 18t23.5 7h65q15 0 17.5 -8.5t-2.5 -16.5l-120 -190l120 -190q5 -8 2.5 -16.5t-17.5 -8.5h-65
q-15 0 -23.5 7t-16.5 18z" />
    <glyph glyph-name="logicalnot" unicode="&#xac;" horiz-adv-x="465" 
d="M410 420q25 0 25 -25v-170q0 -25 -25 -25h-60q-25 0 -25 25v85h-270q-25 0 -25 25v60q0 25 25 25h355z" />
    <glyph glyph-name="uni00AD" unicode="&#xad;" horiz-adv-x="450" 
d="M395 365q25 0 25 -25v-60q0 -25 -25 -25h-340q-25 0 -25 25v60q0 25 25 25h340z" />
    <glyph glyph-name="registered" unicode="&#xae;" horiz-adv-x="895" 
d="M510 410q0 25 -25 25h-95v-70h95q25 0 25 25v20zM465 280h-75v-85q0 -15 -15 -15h-60q-15 0 -15 15v310q0 15 15 15h185q100 0 100 -100v-40q0 -26 -8.5 -42t-19.5 -24q-12 -10 -27 -14l60 -105q5 -8 1.5 -11.5t-11.5 -3.5h-60q-11 0 -16 4t-9 11zM805 170
q0 -170 -170 -170h-375q-170 0 -170 170v360q0 170 170 170h375q170 0 170 -170v-360zM275 600q-75 0 -75 -75v-350q0 -75 75 -75h345q75 0 75 75v350q0 75 -75 75h-345z" />
    <glyph glyph-name="macron" unicode="&#xaf;" horiz-adv-x="350" 
d="M295 700q25 0 25 -25v-35q0 -25 -25 -25h-240q-25 0 -25 25v35q0 25 25 25h240z" />
    <glyph glyph-name="degree" unicode="&#xb0;" horiz-adv-x="410" 
d="M175 370q-125 0 -125 125v80q0 125 125 125h60q125 0 125 -125v-80q0 -125 -125 -125h-60zM220 455q45 0 45 45v70q0 45 -45 45h-30q-45 0 -45 -45v-70q0 -45 45 -45h30z" />
    <glyph glyph-name="plusminus" unicode="&#xb1;" horiz-adv-x="470" 
d="M290 420h125q25 0 25 -25v-60q0 -25 -25 -25h-125v-135h115q25 0 25 -25v-60q0 -25 -25 -25h-340q-25 0 -25 25v60q0 25 25 25h115v135h-125q-25 0 -25 25v60q0 25 25 25h125v130q0 25 25 25h60q25 0 25 -25v-130z" />
    <glyph glyph-name="twosuperior" unicode="&#xb2;" horiz-adv-x="335" 
d="M195 800q60 0 85 -25t25 -85q0 -34 -16.5 -53.5t-38.5 -31.5l-90 -50v-5h115q20 0 20 -20v-40q0 -20 -20 -20h-225q-20 0 -20 20v60q0 11 4.5 17t15.5 13l130 75q15 8 22.5 16t7.5 19q0 30 -30 30h-30q-17 0 -22.5 -5.5t-8.5 -12t-7 -12t-17 -5.5h-45q-20 0 -20 20
q0 49 25 72t85 23h55z" />
    <glyph glyph-name="threesuperior" unicode="&#xb3;" horiz-adv-x="335" 
d="M305 570q0 -53 -25 -76.5t-85 -23.5h-55q-60 0 -85 23t-25 72q0 20 20 20h45q13 0 17 -5.5t7 -12t8.5 -12t22.5 -5.5h30q30 0 30 30v5q0 30 -30 30h-60q-20 0 -20 20v20q0 11 4.5 17.5t15.5 12.5l55 30v5h-120q-20 0 -20 20v40q0 20 20 20h225q20 0 20 -20v-45
q0 -11 -4.5 -17t-15.5 -13l-55 -32v-6q22 -2 40 -13q15 -9 27.5 -29t12.5 -55z" />
    <glyph glyph-name="acute" unicode="&#xb4;" horiz-adv-x="238" 
d="M128 555q-8 -11 -16 -18t-19 -7h-45q-25 0 -15 25l50 120q10 25 30 25h75q11 0 17 -7t-2 -18z" />
    <glyph glyph-name="mu" unicode="&#xb5;" 
d="M70 485q0 25 25 25h60q25 0 25 -25v-336q2 -28 19 -43.5t46 -15.5h85q38 0 61.5 23.5t23.5 61.5v310q0 25 25 25h60q25 0 25 -25v-460q0 -25 -25 -25h-60q-25 0 -25 25v25h-5q-8 -17 -22 -30q-12 -11 -31 -20.5t-47 -9.5h-70q-14 0 -24.5 3.5t-18.5 8.5q-10 5 -17 13
v-180q0 -25 -25 -25h-60q-25 0 -25 25v650z" />
    <glyph glyph-name="paragraph" unicode="&#xb6;" horiz-adv-x="670" 
d="M230 320q-170 0 -170 170v40q0 170 170 170h325q25 0 25 -25v-705q0 -170 -170 -170h-235q-25 0 -25 25v55q0 25 25 25h30q25 0 25 25v390zM340 -95h55q38 0 56.5 20.5t18.5 54.5v620h-130v-695z" />
    <glyph glyph-name="periodcentered" unicode="&#xb7;" horiz-adv-x="195" 
d="M155 265q0 -25 -25 -25h-65q-25 0 -25 25v65q0 25 25 25h65q25 0 25 -25v-65z" />
    <glyph glyph-name="cedilla" unicode="&#xb8;" horiz-adv-x="255" 
d="M155 -160q0 30 -35 30h-60q-8 0 -14 6t-6 14v35q0 15 6 24.5t14 20.5l19 30h61l-35 -60h20q45 0 72.5 -27.5t27.5 -72.5v-10q0 -45 -27.5 -72.5t-72.5 -27.5h-75q-8 0 -14 6t-6 14v35q0 8 6 14t14 6h70q35 0 35 30v5z" />
    <glyph glyph-name="onesuperior" unicode="&#xb9;" horiz-adv-x="250" 
d="M50 715q-20 0 -20 20v45q0 20 20 20h140q20 0 20 -20v-290q0 -20 -20 -20h-55q-20 0 -20 20v225h-65z" />
    <glyph glyph-name="ordmasculine" unicode="&#xba;" horiz-adv-x="380" 
d="M165 370q-125 0 -125 125v80q0 125 125 125h50q125 0 125 -125v-80q0 -125 -125 -125h-50zM200 455q45 0 45 45v70q0 45 -45 45h-20q-45 0 -45 -45v-70q0 -45 45 -45h20z" />
    <glyph glyph-name="guillemotright" unicode="&#xbb;" horiz-adv-x="504" 
d="M354 65q-8 -11 -16.5 -18t-23.5 -7h-65q-15 0 -17.5 8.5t2.5 16.5l120 190l-120 190q-5 8 -2.5 16.5t17.5 8.5h65q15 0 23.5 -7t16.5 -18l120 -190zM154 65q-8 -11 -16.5 -18t-23.5 -7h-65q-15 0 -17.5 8.5t2.5 16.5l120 190l-120 190q-5 8 -2.5 16.5t17.5 8.5h65
q15 0 23.5 -7t16.5 -18l120 -190z" />
    <glyph glyph-name="onequarter" unicode="&#xbc;" horiz-adv-x="730" 
d="M545 700q11 0 15.5 -7t-0.5 -18l-300 -650q-5 -11 -15 -18t-25 -7h-65q-11 0 -15.5 7t0.5 18l300 650q5 11 15 18t25 7h65zM155 0q-11 0 -15.5 7t0.5 18l300 650q5 11 15 18t25 7h65q11 0 15.5 -7t-0.5 -18l-300 -650q-5 -11 -15 -18t-25 -7h-65zM40 615q-20 0 -20 20v45
q0 20 20 20h140q20 0 20 -20v-290q0 -20 -20 -20h-55q-20 0 -20 20v225h-65zM670 145h20q20 0 20 -20v-35q0 -20 -20 -20h-20v-50q0 -20 -20 -20h-55q-20 0 -20 20v50h-145q-20 0 -20 20v35q0 11 6 20t14 20l105 145q6 8 13.5 14t26.5 6h75q20 0 20 -20v-165zM575 145v95h-5
l-65 -90v-5h70z" />
    <glyph glyph-name="onehalf" unicode="&#xbd;" horiz-adv-x="765" 
d="M545 700q11 0 15.5 -7t-0.5 -18l-300 -650q-5 -11 -15 -18t-25 -7h-65q-11 0 -15.5 7t0.5 18l300 650q5 11 15 18t25 7h65zM155 0q-11 0 -15.5 7t0.5 18l300 650q5 11 15 18t25 7h65q11 0 15.5 -7t-0.5 -18l-300 -650q-5 -11 -15 -18t-25 -7h-65zM40 615q-20 0 -20 20v45
q0 20 20 20h140q20 0 20 -20v-290q0 -20 -20 -20h-55q-20 0 -20 20v225h-65zM615 330q60 0 85 -25t25 -85q0 -34 -16.5 -53.5t-38.5 -31.5l-90 -50v-5h115q20 0 20 -20v-40q0 -20 -20 -20h-225q-20 0 -20 20v60q0 11 4.5 17t15.5 13l130 75q15 8 22.5 16t7.5 19q0 30 -30 30
h-30q-17 0 -22.5 -5.5t-8.5 -12t-7 -12t-17 -5.5h-45q-20 0 -20 20q0 49 25 72t85 23h55z" />
    <glyph glyph-name="threequarters" unicode="&#xbe;" horiz-adv-x="780" 
d="M595 700q11 0 15.5 -7t-0.5 -18l-300 -650q-5 -11 -15 -18t-25 -7h-65q-11 0 -15.5 7t0.5 18l300 650q5 11 15 18t25 7h65zM205 0q-11 0 -15.5 7t0.5 18l300 650q5 11 15 18t25 7h65q11 0 15.5 -7t-0.5 -18l-300 -650q-5 -11 -15 -18t-25 -7h-65zM720 145h20q20 0 20 -20
v-35q0 -20 -20 -20h-20v-50q0 -20 -20 -20h-55q-20 0 -20 20v50h-145q-20 0 -20 20v35q0 11 6 20t14 20l105 145q6 8 13.5 14t26.5 6h75q20 0 20 -20v-165zM625 145v95h-5l-65 -90v-5h70zM295 470q0 -53 -25 -76.5t-85 -23.5h-55q-60 0 -85 23t-25 72q0 20 20 20h45
q13 0 17 -5.5t7 -12t8.5 -12t22.5 -5.5h30q30 0 30 30v5q0 30 -30 30h-60q-20 0 -20 20v20q0 11 4.5 17.5t15.5 12.5l55 30v5h-120q-20 0 -20 20v40q0 20 20 20h225q20 0 20 -20v-45q0 -11 -4.5 -17t-15.5 -13l-55 -32v-6q22 -2 40 -13q15 -9 27.5 -29t12.5 -55z" />
    <glyph glyph-name="questiondown" unicode="&#xbf;" horiz-adv-x="590" 
d="M580 -20q0 -180 -180 -180h-170q-180 0 -180 180v85q0 180 180 180h45l5 35q3 25 25 25h35q22 0 25 -25l20 -125q0 -25 -25 -25h-115q-70 0 -70 -70v-75q0 -70 70 -70h140q70 0 70 70v10q0 25 25 25h75q25 0 25 -25v-15zM380 420q0 -25 -25 -25h-65q-25 0 -25 25v65
q0 25 25 25h65q25 0 25 -25v-65z" />
    <glyph glyph-name="Agrave" unicode="&#xc0;" horiz-adv-x="696" 
d="M493 165h-290l-50 -140q-8 -25 -30 -25h-95q-25 0 -15 25l250 650q10 25 30 25h110q20 0 30 -25l250 -650q10 -25 -15 -25h-95q-22 0 -30 25zM453 280l-103 275h-4l-103 -275h210zM215 915q-8 11 -2 18t17 7h75q20 0 30 -25l50 -120q10 -25 -15 -25h-45q-11 0 -19 7
t-16 18z" />
    <glyph glyph-name="Aacute" unicode="&#xc1;" horiz-adv-x="696" 
d="M493 165h-290l-50 -140q-8 -25 -30 -25h-95q-25 0 -15 25l250 650q10 25 30 25h110q20 0 30 -25l250 -650q10 -25 -15 -25h-95q-22 0 -30 25zM453 280l-103 275h-4l-103 -275h210zM410 795q-8 -11 -16 -18t-19 -7h-45q-25 0 -15 25l50 120q10 25 30 25h75q11 0 17 -7
t-2 -18z" />
    <glyph glyph-name="Acircumflex" unicode="&#xc2;" horiz-adv-x="696" 
d="M493 165h-290l-50 -140q-8 -25 -30 -25h-95q-25 0 -15 25l250 650q10 25 30 25h110q20 0 30 -25l250 -650q10 -25 -15 -25h-95q-22 0 -30 25zM453 280l-103 275h-4l-103 -275h210zM375 945q15 0 23 -7t17 -18l95 -125q8 -11 2 -18t-17 -7h-55q-11 0 -19 7t-16 18l-55 75
h-5l-55 -75q-8 -11 -16 -18t-19 -7h-55q-11 0 -17 7t2 18l95 125q9 11 17 18t23 7h55z" />
    <glyph glyph-name="Atilde" unicode="&#xc3;" horiz-adv-x="696" 
d="M493 165h-290l-50 -140q-8 -25 -30 -25h-95q-25 0 -15 25l250 650q10 25 30 25h110q20 0 30 -25l250 -650q10 -25 -15 -25h-95q-22 0 -30 25zM453 280l-103 275h-4l-103 -275h210zM490 850q0 -30 -20 -50t-50 -20q-24 0 -41.5 10t-30.5 22.5t-22 22.5t-16 10q-8 0 -14 -7
t-6 -18v-20q0 -8 -6 -14t-14 -6h-40q-8 0 -14 6t-6 14v65q0 30 20 50t50 20q24 0 41.5 -10t30.5 -22.5t21.5 -22.5t16.5 -10t14 7t6 18v20q0 8 6 14t14 6h40q8 0 14 -6t6 -14v-65z" />
    <glyph glyph-name="Adieresis" unicode="&#xc4;" horiz-adv-x="696" 
d="M493 165h-290l-50 -140q-8 -25 -30 -25h-95q-25 0 -15 25l250 650q10 25 30 25h110q20 0 30 -25l250 -650q10 -25 -15 -25h-95q-22 0 -30 25zM453 280l-103 275h-4l-103 -275h210zM305 825q0 -25 -25 -25h-60q-25 0 -25 25v60q0 25 25 25h60q25 0 25 -25v-60zM500 825
q0 -25 -25 -25h-60q-25 0 -25 25v60q0 25 25 25h60q25 0 25 -25v-60z" />
    <glyph glyph-name="Aring" unicode="&#xc5;" horiz-adv-x="696" 
d="M493 165h-290l-50 -140q-8 -25 -30 -25h-95q-25 0 -15 25l250 650q10 25 30 25h110q20 0 30 -25l250 -650q10 -25 -15 -25h-95q-22 0 -30 25zM453 280l-103 275h-4l-103 -275h210zM235 885q0 45 27.5 72.5t72.5 27.5h25q45 0 72.5 -27.5t27.5 -72.5v-25
q0 -45 -27.5 -72.5t-72.5 -27.5h-25q-45 0 -72.5 27.5t-27.5 72.5v25zM390 885q0 15 -10 25t-25 10h-15q-15 0 -25 -10t-10 -25v-25q0 -15 10 -25t25 -10h15q15 0 25 10t10 25v25z" />
    <glyph glyph-name="AE" unicode="&#xc6;" horiz-adv-x="1060" 
d="M635 415h270q25 0 25 -25v-65q0 -25 -25 -25h-270v-185h370q25 0 25 -25v-65q0 -25 -25 -25h-470q-25 0 -25 25v140h-317l-50 -140q-8 -25 -30 -25h-95q-25 0 -15 25l250 650q10 25 30 25h712q25 0 25 -25v-65q0 -25 -25 -25h-360v-170zM510 280v305h-160l-117 -305h277z
" />
    <glyph glyph-name="Ccedilla" unicode="&#xc7;" horiz-adv-x="765" 
d="M440 -160q0 30 -35 30h-60q-8 0 -14 6t-6 14v35q0 15 6 24.5t14 20.5l15 20h-100q-180 0 -180 180v360q0 180 180 180h255q180 0 180 -180v-35q0 -25 -25 -25h-75q-25 0 -25 25v30q0 70 -70 70h-225q-70 0 -70 -70v-350q0 -70 70 -70h225q70 0 70 70v30q0 25 25 25h75
q25 0 25 -25v-35q0 -180 -180 -180h-95l-30 -50h20q45 0 72.5 -27.5t27.5 -72.5v-10q0 -45 -27.5 -72.5t-72.5 -27.5h-75q-8 0 -14 6t-6 14v35q0 8 6 14t14 6h70q35 0 35 30v5z" />
    <glyph glyph-name="Egrave" unicode="&#xc8;" horiz-adv-x="680" 
d="M215 415h310q25 0 25 -25v-65q0 -25 -25 -25h-310v-185h410q25 0 25 -25v-65q0 -25 -25 -25h-510q-25 0 -25 25v650q0 25 25 25h500q25 0 25 -25v-65q0 -25 -25 -25h-400v-170zM245 915q-8 11 -2 18t17 7h75q20 0 30 -25l50 -120q10 -25 -15 -25h-45q-11 0 -19 7t-16 18z
" />
    <glyph glyph-name="Eacute" unicode="&#xc9;" horiz-adv-x="680" 
d="M215 415h310q25 0 25 -25v-65q0 -25 -25 -25h-310v-185h410q25 0 25 -25v-65q0 -25 -25 -25h-510q-25 0 -25 25v650q0 25 25 25h500q25 0 25 -25v-65q0 -25 -25 -25h-400v-170zM425 795q-8 -11 -16 -18t-19 -7h-45q-25 0 -15 25l50 120q10 25 30 25h75q11 0 17 -7t-2 -18
z" />
    <glyph glyph-name="Ecircumflex" unicode="&#xca;" horiz-adv-x="680" 
d="M215 415h310q25 0 25 -25v-65q0 -25 -25 -25h-310v-185h410q25 0 25 -25v-65q0 -25 -25 -25h-510q-25 0 -25 25v650q0 25 25 25h500q25 0 25 -25v-65q0 -25 -25 -25h-400v-170zM400 945q15 0 23 -7t17 -18l95 -125q8 -11 2 -18t-17 -7h-55q-11 0 -19 7t-16 18l-55 75h-5
l-55 -75q-8 -11 -16 -18t-19 -7h-55q-11 0 -17 7t2 18l95 125q9 11 17 18t23 7h55z" />
    <glyph glyph-name="Edieresis" unicode="&#xcb;" horiz-adv-x="680" 
d="M215 415h310q25 0 25 -25v-65q0 -25 -25 -25h-310v-185h410q25 0 25 -25v-65q0 -25 -25 -25h-510q-25 0 -25 25v650q0 25 25 25h500q25 0 25 -25v-65q0 -25 -25 -25h-400v-170zM325 835q0 -25 -25 -25h-60q-25 0 -25 25v60q0 25 25 25h60q25 0 25 -25v-60zM520 835
q0 -25 -25 -25h-60q-25 0 -25 25v60q0 25 25 25h60q25 0 25 -25v-60z" />
    <glyph glyph-name="Igrave" unicode="&#xcc;" horiz-adv-x="306" 
d="M91 675q0 25 25 25h75q25 0 25 -25v-650q0 -25 -25 -25h-75q-25 0 -25 25v650zM21 915q-8 11 -2 18t17 7h75q20 0 30 -25l50 -120q10 -25 -15 -25h-45q-11 0 -19 7t-16 18z" />
    <glyph glyph-name="Iacute" unicode="&#xcd;" horiz-adv-x="305" 
d="M90 675q0 25 25 25h75q25 0 25 -25v-650q0 -25 -25 -25h-75q-25 0 -25 25v650zM210 795q-8 -11 -16 -18t-19 -7h-45q-25 0 -15 25l50 120q10 25 30 25h75q11 0 17 -7t-2 -18z" />
    <glyph glyph-name="Icircumflex" unicode="&#xce;" horiz-adv-x="305" 
d="M90 675q0 25 25 25h75q25 0 25 -25v-650q0 -25 -25 -25h-75q-25 0 -25 25v650zM181 945q15 0 23 -7t17 -18l95 -125q8 -11 2 -18t-17 -7h-55q-11 0 -19 7t-16 18l-55 75h-5l-55 -75q-8 -11 -16 -18t-19 -7h-55q-11 0 -17 7t2 18l95 125q9 11 17 18t23 7h55z" />
    <glyph glyph-name="Idieresis" unicode="&#xcf;" horiz-adv-x="305" 
d="M90 675q0 25 25 25h75q25 0 25 -25v-650q0 -25 -25 -25h-75q-25 0 -25 25v650zM111 825q0 -25 -25 -25h-60q-25 0 -25 25v60q0 25 25 25h60q25 0 25 -25v-60zM306 825q0 -25 -25 -25h-60q-25 0 -25 25v60q0 25 25 25h60q25 0 25 -25v-60z" />
    <glyph glyph-name="Eth" unicode="&#xd0;" horiz-adv-x="805" 
d="M120 400v275q0 25 25 25h410q180 0 180 -180v-340q0 -180 -180 -180h-410q-25 0 -25 25v265h-55q-25 0 -25 25v60q0 25 25 25h55zM245 400h130q25 0 25 -25v-60q0 -25 -25 -25h-130v-175h295q70 0 70 70v330q0 70 -70 70h-295v-185z" />
    <glyph glyph-name="Ntilde" unicode="&#xd1;" horiz-adv-x="790" 
d="M575 190v485q0 25 25 25h75q25 0 25 -25v-650q0 -25 -25 -25h-100q-15 0 -23.5 7t-16.5 18l-315 485h-5v-485q0 -25 -25 -25h-75q-25 0 -25 25v650q0 25 25 25h100q15 0 23.5 -7t16.5 -18l315 -485h5zM545 850q0 -30 -20 -50t-50 -20q-24 0 -41.5 10t-30.5 22.5t-22 22.5
t-16 10q-8 0 -14 -7t-6 -18v-20q0 -8 -6 -14t-14 -6h-40q-8 0 -14 6t-6 14v65q0 30 20 50t50 20q24 0 41.5 -10t30.5 -22.5t21.5 -22.5t16.5 -10t14 7t6 18v20q0 8 6 14t14 6h40q8 0 14 -6t6 -14v-65z" />
    <glyph glyph-name="Ograve" unicode="&#xd2;" horiz-adv-x="790" 
d="M260 -10q-180 0 -180 180v360q0 180 180 180h270q180 0 180 -180v-360q0 -180 -180 -180h-270zM515 105q70 0 70 70v350q0 70 -70 70h-240q-70 0 -70 -70v-350q0 -70 70 -70h240zM269 925q-8 11 -2 18t17 7h75q20 0 30 -25l50 -120q10 -25 -15 -25h-45q-11 0 -19 7
t-16 18z" />
    <glyph glyph-name="Oacute" unicode="&#xd3;" horiz-adv-x="790" 
d="M260 -10q-180 0 -180 180v360q0 180 180 180h270q180 0 180 -180v-360q0 -180 -180 -180h-270zM515 105q70 0 70 70v350q0 70 -70 70h-240q-70 0 -70 -70v-350q0 -70 70 -70h240zM450 805q-8 -11 -16 -18t-19 -7h-45q-25 0 -15 25l50 120q10 25 30 25h75q11 0 17 -7
t-2 -18z" />
    <glyph glyph-name="Ocircumflex" unicode="&#xd4;" horiz-adv-x="790" 
d="M260 -10q-180 0 -180 180v360q0 180 180 180h270q180 0 180 -180v-360q0 -180 -180 -180h-270zM515 105q70 0 70 70v350q0 70 -70 70h-240q-70 0 -70 -70v-350q0 -70 70 -70h240zM425 955q15 0 23 -7t17 -18l95 -125q8 -11 2 -18t-17 -7h-55q-11 0 -19 7t-16 18l-55 75
h-5l-55 -75q-8 -11 -16 -18t-19 -7h-55q-11 0 -17 7t2 18l95 125q9 11 17 18t23 7h55z" />
    <glyph glyph-name="Otilde" unicode="&#xd5;" horiz-adv-x="790" 
d="M260 -10q-180 0 -180 180v360q0 180 180 180h270q180 0 180 -180v-360q0 -180 -180 -180h-270zM515 105q70 0 70 70v350q0 70 -70 70h-240q-70 0 -70 -70v-350q0 -70 70 -70h240zM535 850q0 -30 -20 -50t-50 -20q-24 0 -41.5 10t-30.5 22.5t-22 22.5t-16 10q-8 0 -14 -7
t-6 -18v-20q0 -8 -6 -14t-14 -6h-40q-8 0 -14 6t-6 14v65q0 30 20 50t50 20q24 0 41.5 -10t30.5 -22.5t21.5 -22.5t16.5 -10t14 7t6 18v20q0 8 6 14t14 6h40q8 0 14 -6t6 -14v-65z" />
    <glyph glyph-name="Odieresis" unicode="&#xd6;" horiz-adv-x="790" 
d="M260 -10q-180 0 -180 180v360q0 180 180 180h270q180 0 180 -180v-360q0 -180 -180 -180h-270zM515 105q70 0 70 70v350q0 70 -70 70h-240q-70 0 -70 -70v-350q0 -70 70 -70h240zM355 835q0 -25 -25 -25h-60q-25 0 -25 25v60q0 25 25 25h60q25 0 25 -25v-60zM550 835
q0 -25 -25 -25h-60q-25 0 -25 25v60q0 25 25 25h60q25 0 25 -25v-60z" />
    <glyph glyph-name="multiply" unicode="&#xd7;" horiz-adv-x="436" 
d="M48 410q-15 15 0 30l45 45q15 15 30 0l95 -95l95 95q15 15 30 0l45 -45q15 -15 0 -30l-95 -95l95 -95q15 -15 0 -30l-45 -45q-15 -15 -30 0l-95 95l-95 -95q-15 -15 -30 0l-45 45q-15 15 0 30l95 95z" />
    <glyph glyph-name="Oslash" unicode="&#xd8;" horiz-adv-x="790" 
d="M260 -10q-180 0 -180 180v360q0 180 180 180h270q180 0 180 -180v-360q0 -180 -180 -180h-270zM205 165l320 430h-250q-70 0 -70 -70v-360zM515 105q70 0 70 70v360l-320 -430h250z" />
    <glyph glyph-name="Ugrave" unicode="&#xd9;" horiz-adv-x="785" 
d="M695 170q0 -180 -180 -180h-245q-180 0 -180 180v505q0 25 25 25h75q25 0 25 -25v-500q0 -70 70 -70h215q70 0 70 70v500q0 25 25 25h75q25 0 25 -25v-505zM269 915q-8 11 -2 18t17 7h75q20 0 30 -25l50 -120q10 -25 -15 -25h-45q-11 0 -19 7t-16 18z" />
    <glyph glyph-name="Uacute" unicode="&#xda;" horiz-adv-x="785" 
d="M695 170q0 -180 -180 -180h-245q-180 0 -180 180v505q0 25 25 25h75q25 0 25 -25v-500q0 -70 70 -70h215q70 0 70 70v500q0 25 25 25h75q25 0 25 -25v-505zM460 795q-8 -11 -16 -18t-19 -7h-45q-25 0 -15 25l50 120q10 25 30 25h75q11 0 17 -7t-2 -18z" />
    <glyph glyph-name="Ucircumflex" unicode="&#xdb;" horiz-adv-x="785" 
d="M695 170q0 -180 -180 -180h-245q-180 0 -180 180v505q0 25 25 25h75q25 0 25 -25v-500q0 -70 70 -70h215q70 0 70 70v500q0 25 25 25h75q25 0 25 -25v-505zM420 955q15 0 23 -7t17 -18l95 -125q8 -11 2 -18t-17 -7h-55q-11 0 -19 7t-16 18l-55 75h-5l-55 -75
q-8 -11 -16 -18t-19 -7h-55q-11 0 -17 7t2 18l95 125q9 11 17 18t23 7h55z" />
    <glyph glyph-name="Udieresis" unicode="&#xdc;" horiz-adv-x="785" 
d="M695 170q0 -180 -180 -180h-245q-180 0 -180 180v505q0 25 25 25h75q25 0 25 -25v-500q0 -70 70 -70h215q70 0 70 70v500q0 25 25 25h75q25 0 25 -25v-505zM350 835q0 -25 -25 -25h-60q-25 0 -25 25v60q0 25 25 25h60q25 0 25 -25v-60zM545 835q0 -25 -25 -25h-60
q-25 0 -25 25v60q0 25 25 25h60q25 0 25 -25v-60z" />
    <glyph glyph-name="Yacute" unicode="&#xdd;" horiz-adv-x="658" 
d="M294 0q-25 0 -25 25v215l-265 435q-5 8 -2.5 16.5t17.5 8.5h90q15 0 24 -7t16 -18l180 -300l180 300q7 11 16 18t24 7h90q15 0 17.5 -8.5t-2.5 -16.5l-265 -435v-215q0 -25 -25 -25h-70zM390 795q-8 -11 -16 -18t-19 -7h-45q-25 0 -15 25l50 120q10 25 30 25h75
q11 0 17 -7t-2 -18z" />
    <glyph glyph-name="Thorn" unicode="&#xde;" horiz-adv-x="760" 
d="M90 675q0 25 25 25h75q25 0 25 -25v-60h305q180 0 180 -180v-170q0 -180 -180 -180h-305v-60q0 -25 -25 -25h-75q-25 0 -25 25v650zM505 200q70 0 70 70v160q0 70 -70 70h-290v-300h290z" />
    <glyph glyph-name="germandbls" unicode="&#xdf;" horiz-adv-x="605" 
d="M545 150q0 -150 -150 -150h-65q-25 0 -25 25v55q0 25 25 25h50q55 0 55 55v85q0 55 -55 55h-60q-25 0 -25 25v55q0 25 25 25h10q55 0 55 55v80q0 55 -55 55h-95q-55 0 -55 -55v-515q0 -25 -25 -25h-60q-25 0 -25 25v525q0 150 150 150h125q150 0 150 -150v-90
q0 -26 -8 -43t-17 -28q-11 -12 -25 -19v-5q28 -8 50 -23q19 -14 34.5 -36.5t15.5 -60.5v-95z" />
    <glyph glyph-name="agrave" unicode="&#xe0;" horiz-adv-x="560" 
d="M295 90q38 0 61.5 23.5t23.5 61.5v35h-165q-55 0 -55 -55v-10q0 -55 55 -55h80zM490 25q0 -25 -25 -25h-60q-25 0 -25 25v25h-5q-8 -17 -22 -30q-12 -11 -31 -20.5t-47 -9.5h-75q-150 0 -150 150v15q0 150 150 150h180v50q0 30 -17.5 47.5t-47.5 17.5h-70q-55 0 -55 -55
q0 -25 -25 -25h-60q-25 0 -25 25q0 75 40.5 115t119.5 40h90q160 0 160 -160v-335zM159 725q-8 11 -2 18t17 7h75q20 0 30 -25l50 -120q10 -25 -15 -25h-45q-11 0 -19 7t-16 18z" />
    <glyph glyph-name="aacute" unicode="&#xe1;" horiz-adv-x="560" 
d="M295 90q38 0 61.5 23.5t23.5 61.5v35h-165q-55 0 -55 -55v-10q0 -55 55 -55h80zM490 25q0 -25 -25 -25h-60q-25 0 -25 25v25h-5q-8 -17 -22 -30q-12 -11 -31 -20.5t-47 -9.5h-75q-150 0 -150 150v15q0 150 150 150h180v50q0 30 -17.5 47.5t-47.5 17.5h-70q-55 0 -55 -55
q0 -25 -25 -25h-60q-25 0 -25 25q0 75 40.5 115t119.5 40h90q160 0 160 -160v-335zM350 605q-8 -11 -16 -18t-19 -7h-45q-25 0 -15 25l50 120q10 25 30 25h75q11 0 17 -7t-2 -18z" />
    <glyph glyph-name="acircumflex" unicode="&#xe2;" horiz-adv-x="560" 
d="M295 90q38 0 61.5 23.5t23.5 61.5v35h-165q-55 0 -55 -55v-10q0 -55 55 -55h80zM490 25q0 -25 -25 -25h-60q-25 0 -25 25v25h-5q-8 -17 -22 -30q-12 -11 -31 -20.5t-47 -9.5h-75q-150 0 -150 150v15q0 150 150 150h180v50q0 30 -17.5 47.5t-47.5 17.5h-70q-55 0 -55 -55
q0 -25 -25 -25h-60q-25 0 -25 25q0 75 40.5 115t119.5 40h90q160 0 160 -160v-335zM310 755q15 0 23 -7t17 -18l95 -125q8 -11 2 -18t-17 -7h-55q-11 0 -19 7t-16 18l-55 75h-5l-55 -75q-8 -11 -16 -18t-19 -7h-55q-11 0 -17 7t2 18l95 125q9 11 17 18t23 7h55z" />
    <glyph glyph-name="atilde" unicode="&#xe3;" horiz-adv-x="560" 
d="M295 90q38 0 61.5 23.5t23.5 61.5v35h-165q-55 0 -55 -55v-10q0 -55 55 -55h80zM490 25q0 -25 -25 -25h-60q-25 0 -25 25v25h-5q-8 -17 -22 -30q-12 -11 -31 -20.5t-47 -9.5h-75q-150 0 -150 150v15q0 150 150 150h180v50q0 30 -17.5 47.5t-47.5 17.5h-70q-55 0 -55 -55
q0 -25 -25 -25h-60q-25 0 -25 25q0 75 40.5 115t119.5 40h90q160 0 160 -160v-335zM430 650q0 -30 -20 -50t-50 -20q-24 0 -41.5 10t-30.5 22.5t-22 22.5t-16 10q-8 0 -14 -7t-6 -18v-20q0 -8 -6 -14t-14 -6h-40q-8 0 -14 6t-6 14v65q0 30 20 50t50 20q24 0 41.5 -10
t30.5 -22.5t21.5 -22.5t16.5 -10t14 7t6 18v20q0 8 6 14t14 6h40q8 0 14 -6t6 -14v-65z" />
    <glyph glyph-name="adieresis" unicode="&#xe4;" horiz-adv-x="560" 
d="M295 90q38 0 61.5 23.5t23.5 61.5v35h-165q-55 0 -55 -55v-10q0 -55 55 -55h80zM490 25q0 -25 -25 -25h-60q-25 0 -25 25v25h-5q-8 -17 -22 -30q-12 -11 -31 -20.5t-47 -9.5h-75q-150 0 -150 150v15q0 150 150 150h180v50q0 30 -17.5 47.5t-47.5 17.5h-70q-55 0 -55 -55
q0 -25 -25 -25h-60q-25 0 -25 25q0 75 40.5 115t119.5 40h90q160 0 160 -160v-335zM245 635q0 -25 -25 -25h-60q-25 0 -25 25v60q0 25 25 25h60q25 0 25 -25v-60zM440 635q0 -25 -25 -25h-60q-25 0 -25 25v60q0 25 25 25h60q25 0 25 -25v-60z" />
    <glyph glyph-name="aring" unicode="&#xe5;" horiz-adv-x="560" 
d="M295 90q38 0 61.5 23.5t23.5 61.5v35h-165q-55 0 -55 -55v-10q0 -55 55 -55h80zM490 25q0 -25 -25 -25h-60q-25 0 -25 25v25h-5q-8 -17 -22 -30q-12 -11 -31 -20.5t-47 -9.5h-75q-150 0 -150 150v15q0 150 150 150h180v50q0 30 -17.5 47.5t-47.5 17.5h-70q-55 0 -55 -55
q0 -25 -25 -25h-60q-25 0 -25 25q0 75 40.5 115t119.5 40h90q160 0 160 -160v-335zM175 695q0 45 27.5 72.5t72.5 27.5h25q45 0 72.5 -27.5t27.5 -72.5v-25q0 -45 -27.5 -72.5t-72.5 -27.5h-25q-45 0 -72.5 27.5t-27.5 72.5v25zM330 695q0 15 -10 25t-25 10h-15
q-15 0 -25 -10t-10 -25v-25q0 -15 10 -25t25 -10h15q15 0 25 10t10 25v25z" />
    <glyph glyph-name="ae" unicode="&#xe6;" horiz-adv-x="880" 
d="M490 305h215v50q0 30 -17.5 47.5t-47.5 17.5h-85q-30 0 -47.5 -17.5t-17.5 -47.5v-50zM295 90q38 0 61.5 23.5t23.5 61.5v40h-165q-55 0 -55 -55v-15q0 -55 55 -55h80zM300 520q38 0 62.5 -9.5t39.5 -20.5q18 -13 28 -30h5q9 17 27 30q15 11 40 20.5t63 9.5h90
q160 0 160 -160v-120q0 -25 -25 -25h-300v-60q0 -30 17.5 -47.5t47.5 -17.5h95q55 0 55 55q0 25 25 25h60q25 0 25 -25q0 -75 -40.5 -115t-119.5 -40h-90q-38 0 -63 9.5t-40 20.5q-18 13 -27 30h-5q-10 -17 -28 -30q-15 -11 -39.5 -20.5t-62.5 -9.5h-100q-150 0 -150 150v15
q0 150 150 150h180v50q0 30 -17.5 47.5t-47.5 17.5h-70q-55 0 -55 -55q0 -25 -25 -25h-60q-25 0 -25 25q0 75 40.5 115t119.5 40h60z" />
    <glyph glyph-name="ccedilla" unicode="&#xe7;" horiz-adv-x="575" 
d="M345 -160q0 30 -35 30h-60q-8 0 -14 6t-6 14v35q0 15 6 24.5t14 20.5l15 20h-40q-160 0 -160 160v210q0 160 160 160h135q160 0 160 -160v-20q0 -25 -25 -25h-60q-25 0 -25 25v15q0 30 -17.5 47.5t-47.5 17.5h-105q-30 0 -47.5 -17.5t-17.5 -47.5v-200q0 -30 17.5 -47.5
t47.5 -17.5h105q30 0 47.5 17.5t17.5 47.5v15q0 25 25 25h60q25 0 25 -25v-20q0 -160 -160 -160h-35l-30 -50h20q45 0 72.5 -27.5t27.5 -72.5v-10q0 -45 -27.5 -72.5t-72.5 -27.5h-75q-8 0 -14 6t-6 14v35q0 8 6 14t14 6h70q35 0 35 30v5z" />
    <glyph glyph-name="egrave" unicode="&#xe8;" horiz-adv-x="585" 
d="M410 145q0 25 25 25h60q25 0 25 -25q0 -75 -40.5 -115t-119.5 -40h-135q-160 0 -160 160v210q0 160 160 160h135q160 0 160 -160v-120q0 -25 -25 -25h-320v-60q0 -30 17.5 -47.5t47.5 -17.5h115q55 0 55 55zM175 310h235v45q0 30 -17.5 47.5t-47.5 17.5h-105
q-30 0 -47.5 -17.5t-17.5 -47.5v-45zM169 725q-8 11 -2 18t17 7h75q20 0 30 -25l50 -120q10 -25 -15 -25h-45q-11 0 -19 7t-16 18z" />
    <glyph glyph-name="eacute" unicode="&#xe9;" horiz-adv-x="585" 
d="M410 145q0 25 25 25h60q25 0 25 -25q0 -75 -40.5 -115t-119.5 -40h-135q-160 0 -160 160v210q0 160 160 160h135q160 0 160 -160v-120q0 -25 -25 -25h-320v-60q0 -30 17.5 -47.5t47.5 -17.5h115q55 0 55 55zM175 310h235v45q0 30 -17.5 47.5t-47.5 17.5h-105
q-30 0 -47.5 -17.5t-17.5 -47.5v-45zM350 605q-8 -11 -16 -18t-19 -7h-45q-25 0 -15 25l50 120q10 25 30 25h75q11 0 17 -7t-2 -18z" />
    <glyph glyph-name="ecircumflex" unicode="&#xea;" horiz-adv-x="585" 
d="M410 145q0 25 25 25h60q25 0 25 -25q0 -75 -40.5 -115t-119.5 -40h-135q-160 0 -160 160v210q0 160 160 160h135q160 0 160 -160v-120q0 -25 -25 -25h-320v-60q0 -30 17.5 -47.5t47.5 -17.5h115q55 0 55 55zM175 310h235v45q0 30 -17.5 47.5t-47.5 17.5h-105
q-30 0 -47.5 -17.5t-17.5 -47.5v-45zM320 755q15 0 23 -7t17 -18l95 -125q8 -11 2 -18t-17 -7h-55q-11 0 -19 7t-16 18l-55 75h-5l-55 -75q-8 -11 -16 -18t-19 -7h-55q-11 0 -17 7t2 18l95 125q9 11 17 18t23 7h55z" />
    <glyph glyph-name="edieresis" unicode="&#xeb;" horiz-adv-x="585" 
d="M410 145q0 25 25 25h60q25 0 25 -25q0 -75 -40.5 -115t-119.5 -40h-135q-160 0 -160 160v210q0 160 160 160h135q160 0 160 -160v-120q0 -25 -25 -25h-320v-60q0 -30 17.5 -47.5t47.5 -17.5h115q55 0 55 55zM175 310h235v45q0 30 -17.5 47.5t-47.5 17.5h-105
q-30 0 -47.5 -17.5t-17.5 -47.5v-45zM250 635q0 -25 -25 -25h-60q-25 0 -25 25v60q0 25 25 25h60q25 0 25 -25v-60zM445 635q0 -25 -25 -25h-60q-25 0 -25 25v60q0 25 25 25h60q25 0 25 -25v-60z" />
    <glyph glyph-name="igrave" unicode="&#xec;" horiz-adv-x="246" 
d="M177 25q0 -25 -25 -25h-60q-25 0 -25 25v460q0 25 25 25h60q25 0 25 -25v-460zM-9 725q-8 11 -2 18t17 7h75q20 0 30 -25l50 -120q10 -25 -15 -25h-45q-11 0 -19 7t-16 18z" />
    <glyph glyph-name="iacute" unicode="&#xed;" horiz-adv-x="251" 
d="M180 25q0 -25 -25 -25h-60q-25 0 -25 25v460q0 25 25 25h60q25 0 25 -25v-460zM186 605q-8 -11 -16 -18t-19 -7h-45q-25 0 -15 25l50 120q10 25 30 25h75q11 0 17 -7t-2 -18z" />
    <glyph glyph-name="icircumflex" unicode="&#xee;" horiz-adv-x="250" 
d="M180 25q0 -25 -25 -25h-60q-25 0 -25 25v460q0 25 25 25h60q25 0 25 -25v-460zM156 755q15 0 23 -7t17 -18l95 -125q8 -11 2 -18t-17 -7h-55q-11 0 -19 7t-16 18l-55 75h-5l-55 -75q-8 -11 -16 -18t-19 -7h-55q-11 0 -17 7t2 18l95 125q9 11 17 18t23 7h55z" />
    <glyph glyph-name="idieresis" unicode="&#xef;" horiz-adv-x="250" 
d="M180 25q0 -25 -25 -25h-60q-25 0 -25 25v460q0 25 25 25h60q25 0 25 -25v-460zM86 635q0 -25 -25 -25h-60q-25 0 -25 25v60q0 25 25 25h60q25 0 25 -25v-60zM281 635q0 -25 -25 -25h-60q-25 0 -25 25v60q0 25 25 25h60q25 0 25 -25v-60z" />
    <glyph glyph-name="eth" unicode="&#xf0;" horiz-adv-x="560" 
d="M385 315h-160q-30 0 -47.5 -17.5t-17.5 -47.5v-95q0 -30 17.5 -47.5t47.5 -17.5h95q30 0 47.5 17.5t17.5 47.5v160zM230 675l15 40q9 22 30 15l45 -15q11 -4 16 -12t-1 -23l-15 -40l45 -15q68 -20 99 -55.5t31 -99.5v-320q0 -160 -160 -160h-125q-160 0 -160 160v105
q0 160 160 160h175v55q0 23 -13.5 37.5t-36.5 22.5l-45 15l-15 -40q-9 -22 -30 -15l-45 15q-11 4 -16 12t1 23l15 40l-55 20q-11 4 -17.5 14t-2.5 21l15 45q4 11 14 15t21 0z" />
    <glyph glyph-name="ntilde" unicode="&#xf1;" 
d="M525 25q0 -25 -25 -25h-60q-25 0 -25 25v330q0 30 -17.5 47.5t-47.5 17.5h-85q-38 0 -61.5 -23.5t-23.5 -61.5v-310q0 -25 -25 -25h-60q-25 0 -25 25v460q0 25 25 25h60q25 0 25 -25v-25h5q8 17 22 30q12 11 30.5 20.5t47.5 9.5h80q160 0 160 -160v-335zM440 660
q0 -30 -20 -50t-50 -20q-24 0 -41.5 10t-30.5 22.5t-22 22.5t-16 10q-8 0 -14 -7t-6 -18v-20q0 -8 -6 -14t-14 -6h-40q-8 0 -14 6t-6 14v65q0 30 20 50t50 20q24 0 41.5 -10t30.5 -22.5t21.5 -22.5t16.5 -10t14 7t6 18v20q0 8 6 14t14 6h40q8 0 14 -6t6 -14v-65z" />
    <glyph glyph-name="ograve" unicode="&#xf2;" 
d="M175 155q0 -30 17.5 -47.5t47.5 -17.5h115q30 0 47.5 17.5t17.5 47.5v200q0 30 -17.5 47.5t-47.5 17.5h-115q-30 0 -47.5 -17.5t-17.5 -47.5v-200zM65 360q0 160 160 160h145q160 0 160 -160v-210q0 -160 -160 -160h-145q-160 0 -160 160v210zM169 725q-8 11 -2 18t17 7
h75q20 0 30 -25l50 -120q10 -25 -15 -25h-45q-11 0 -19 7t-16 18z" />
    <glyph glyph-name="oacute" unicode="&#xf3;" 
d="M175 155q0 -30 17.5 -47.5t47.5 -17.5h115q30 0 47.5 17.5t17.5 47.5v200q0 30 -17.5 47.5t-47.5 17.5h-115q-30 0 -47.5 -17.5t-17.5 -47.5v-200zM65 360q0 160 160 160h145q160 0 160 -160v-210q0 -160 -160 -160h-145q-160 0 -160 160v210zM350 605q-8 -11 -16 -18
t-19 -7h-45q-25 0 -15 25l50 120q10 25 30 25h75q11 0 17 -7t-2 -18z" />
    <glyph glyph-name="ocircumflex" unicode="&#xf4;" 
d="M175 155q0 -30 17.5 -47.5t47.5 -17.5h115q30 0 47.5 17.5t17.5 47.5v200q0 30 -17.5 47.5t-47.5 17.5h-115q-30 0 -47.5 -17.5t-17.5 -47.5v-200zM65 360q0 160 160 160h145q160 0 160 -160v-210q0 -160 -160 -160h-145q-160 0 -160 160v210zM325 755q15 0 23 -7t17 -18
l95 -125q8 -11 2 -18t-17 -7h-55q-11 0 -19 7t-16 18l-55 75h-5l-55 -75q-8 -11 -16 -18t-19 -7h-55q-11 0 -17 7t2 18l95 125q9 11 17 18t23 7h55z" />
    <glyph glyph-name="otilde" unicode="&#xf5;" 
d="M175 155q0 -30 17.5 -47.5t47.5 -17.5h115q30 0 47.5 17.5t17.5 47.5v200q0 30 -17.5 47.5t-47.5 17.5h-115q-30 0 -47.5 -17.5t-17.5 -47.5v-200zM65 360q0 160 160 160h145q160 0 160 -160v-210q0 -160 -160 -160h-145q-160 0 -160 160v210zM440 660q0 -30 -20 -50
t-50 -20q-24 0 -41.5 10t-30.5 22.5t-22 22.5t-16 10q-8 0 -14 -7t-6 -18v-20q0 -8 -6 -14t-14 -6h-40q-8 0 -14 6t-6 14v65q0 30 20 50t50 20q24 0 41.5 -10t30.5 -22.5t21.5 -22.5t16.5 -10t14 7t6 18v20q0 8 6 14t14 6h40q8 0 14 -6t6 -14v-65z" />
    <glyph glyph-name="odieresis" unicode="&#xf6;" 
d="M175 155q0 -30 17.5 -47.5t47.5 -17.5h115q30 0 47.5 17.5t17.5 47.5v200q0 30 -17.5 47.5t-47.5 17.5h-115q-30 0 -47.5 -17.5t-17.5 -47.5v-200zM65 360q0 160 160 160h145q160 0 160 -160v-210q0 -160 -160 -160h-145q-160 0 -160 160v210zM255 645q0 -25 -25 -25h-60
q-25 0 -25 25v60q0 25 25 25h60q25 0 25 -25v-60zM450 645q0 -25 -25 -25h-60q-25 0 -25 25v60q0 25 25 25h60q25 0 25 -25v-60z" />
    <glyph glyph-name="divide" unicode="&#xf7;" horiz-adv-x="445" 
d="M390 365q25 0 25 -25v-60q0 -25 -25 -25h-335q-25 0 -25 25v60q0 25 25 25h335zM165 145q0 25 25 25h65q25 0 25 -25v-65q0 -25 -25 -25h-65q-25 0 -25 25v65zM165 540q0 25 25 25h65q25 0 25 -25v-65q0 -25 -25 -25h-65q-25 0 -25 25v65z" />
    <glyph glyph-name="oslash" unicode="&#xf8;" 
d="M65 360q0 160 160 160h145q160 0 160 -160v-210q0 -160 -160 -160h-145q-160 0 -160 160v210zM375 415q-2 1 -6 2q-3 1 -6.5 2t-7.5 1h-115q-30 0 -47.5 -17.5t-17.5 -47.5v-195q0 -6 2 -14q1 -4 3 -6zM220 95q2 -2 6 -3q8 -2 14 -2h115q30 0 47.5 17.5t17.5 47.5v195
q0 4 -1 7.5t-2 6.5q-1 4 -2 6z" />
    <glyph glyph-name="ugrave" unicode="&#xf9;" 
d="M70 485q0 25 25 25h60q25 0 25 -25v-330q0 -30 17.5 -47.5t47.5 -17.5h85q38 0 61.5 23.5t23.5 61.5v310q0 25 25 25h60q25 0 25 -25v-460q0 -25 -25 -25h-60q-25 0 -25 25v25h-5q-8 -17 -22 -30q-12 -11 -31 -20.5t-47 -9.5h-80q-160 0 -160 160v335zM179 715
q-8 11 -2 18t17 7h75q20 0 30 -25l50 -120q10 -25 -15 -25h-45q-11 0 -19 7t-16 18z" />
    <glyph glyph-name="uacute" unicode="&#xfa;" 
d="M70 485q0 25 25 25h60q25 0 25 -25v-330q0 -30 17.5 -47.5t47.5 -17.5h85q38 0 61.5 23.5t23.5 61.5v310q0 25 25 25h60q25 0 25 -25v-460q0 -25 -25 -25h-60q-25 0 -25 25v25h-5q-8 -17 -22 -30q-12 -11 -31 -20.5t-47 -9.5h-80q-160 0 -160 160v335zM350 595
q-8 -11 -16 -18t-19 -7h-45q-25 0 -15 25l50 120q10 25 30 25h75q11 0 17 -7t-2 -18z" />
    <glyph glyph-name="ucircumflex" unicode="&#xfb;" 
d="M70 485q0 25 25 25h60q25 0 25 -25v-330q0 -30 17.5 -47.5t47.5 -17.5h85q38 0 61.5 23.5t23.5 61.5v310q0 25 25 25h60q25 0 25 -25v-460q0 -25 -25 -25h-60q-25 0 -25 25v25h-5q-8 -17 -22 -30q-12 -11 -31 -20.5t-47 -9.5h-80q-160 0 -160 160v335zM325 745
q15 0 23 -7t17 -18l95 -125q8 -11 2 -18t-17 -7h-55q-11 0 -19 7t-16 18l-55 75h-5l-55 -75q-8 -11 -16 -18t-19 -7h-55q-11 0 -17 7t2 18l95 125q9 11 17 18t23 7h55z" />
    <glyph glyph-name="udieresis" unicode="&#xfc;" 
d="M70 485q0 25 25 25h60q25 0 25 -25v-330q0 -30 17.5 -47.5t47.5 -17.5h85q38 0 61.5 23.5t23.5 61.5v310q0 25 25 25h60q25 0 25 -25v-460q0 -25 -25 -25h-60q-25 0 -25 25v25h-5q-8 -17 -22 -30q-12 -11 -31 -20.5t-47 -9.5h-80q-160 0 -160 160v335zM260 635
q0 -25 -25 -25h-60q-25 0 -25 25v60q0 25 25 25h60q25 0 25 -25v-60zM455 635q0 -25 -25 -25h-60q-25 0 -25 25v60q0 25 25 25h60q25 0 25 -25v-60z" />
    <glyph glyph-name="yacute" unicode="&#xfd;" horiz-adv-x="521" 
d="M383 485q8 25 30 25h80q25 0 15 -25l-195 -500q-34 -87 -81 -131t-119 -44h-25q-25 0 -25 25v55q0 25 25 25h25q59 0 90 85l-190 485q-10 25 15 25h80q22 0 30 -25l120 -325h5zM320 605q-8 -11 -16 -18t-19 -7h-45q-25 0 -15 25l50 120q10 25 30 25h75q11 0 17 -7t-2 -18
z" />
    <glyph glyph-name="thorn" unicode="&#xfe;" horiz-adv-x="590" 
d="M525 160q0 -160 -160 -160h-180v-165q0 -25 -25 -25h-60q-25 0 -25 25v840q0 25 25 25h60q25 0 25 -25v-165h180q160 0 160 -160v-190zM415 345q0 30 -17.5 47.5t-47.5 17.5h-165v-310h165q30 0 47.5 17.5t17.5 47.5v180z" />
    <glyph glyph-name="ydieresis" unicode="&#xff;" horiz-adv-x="521" 
d="M383 485q8 25 30 25h80q25 0 15 -25l-195 -500q-34 -87 -81 -131t-119 -44h-25q-25 0 -25 25v55q0 25 25 25h25q59 0 90 85l-190 485q-10 25 15 25h80q22 0 30 -25l120 -325h5zM220 645q0 -25 -25 -25h-60q-25 0 -25 25v60q0 25 25 25h60q25 0 25 -25v-60zM415 645
q0 -25 -25 -25h-60q-25 0 -25 25v60q0 25 25 25h60q25 0 25 -25v-60z" />
    <glyph glyph-name="Amacron" unicode="&#x100;" horiz-adv-x="696" 
d="M493 165h-290l-50 -140q-8 -25 -30 -25h-95q-25 0 -15 25l250 650q10 25 30 25h110q20 0 30 -25l250 -650q10 -25 -15 -25h-95q-22 0 -30 25zM453 280l-103 275h-4l-103 -275h210zM470 895q25 0 25 -25v-35q0 -25 -25 -25h-240q-25 0 -25 25v35q0 25 25 25h240z" />
    <glyph glyph-name="amacron" unicode="&#x101;" horiz-adv-x="560" 
d="M295 90q38 0 61.5 23.5t23.5 61.5v35h-165q-55 0 -55 -55v-10q0 -55 55 -55h80zM490 25q0 -25 -25 -25h-60q-25 0 -25 25v25h-5q-8 -17 -22 -30q-12 -11 -31 -20.5t-47 -9.5h-75q-150 0 -150 150v15q0 150 150 150h180v50q0 30 -17.5 47.5t-47.5 17.5h-70q-55 0 -55 -55
q0 -25 -25 -25h-60q-25 0 -25 25q0 75 40.5 115t119.5 40h90q160 0 160 -160v-335zM410 705q25 0 25 -25v-35q0 -25 -25 -25h-240q-25 0 -25 25v35q0 25 25 25h240z" />
    <glyph glyph-name="Abreve" unicode="&#x102;" horiz-adv-x="696" 
d="M493 165h-290l-50 -140q-8 -25 -30 -25h-95q-25 0 -15 25l250 650q10 25 30 25h110q20 0 30 -25l250 -650q10 -25 -15 -25h-95q-22 0 -30 25zM453 280l-103 275h-4l-103 -275h210zM315 775q-125 0 -125 125v10q0 25 25 25h50q25 0 25 -25v-15q0 -15 10 -25t25 -10h45
q15 0 25 10t10 25v15q0 25 25 25h50q25 0 25 -25v-10q0 -125 -125 -125h-65z" />
    <glyph glyph-name="abreve" unicode="&#x103;" horiz-adv-x="560" 
d="M295 90q38 0 61.5 23.5t23.5 61.5v35h-165q-55 0 -55 -55v-10q0 -55 55 -55h80zM490 25q0 -25 -25 -25h-60q-25 0 -25 25v25h-5q-8 -17 -22 -30q-12 -11 -31 -20.5t-47 -9.5h-75q-150 0 -150 150v15q0 150 150 150h180v50q0 30 -17.5 47.5t-47.5 17.5h-70q-55 0 -55 -55
q0 -25 -25 -25h-60q-25 0 -25 25q0 75 40.5 115t119.5 40h90q160 0 160 -160v-335zM255 585q-125 0 -125 125v10q0 25 25 25h50q25 0 25 -25v-15q0 -15 10 -25t25 -10h45q15 0 25 10t10 25v15q0 25 25 25h50q25 0 25 -25v-10q0 -125 -125 -125h-65z" />
    <glyph glyph-name="Aogonek" unicode="&#x104;" horiz-adv-x="696" 
d="M573 0q-22 0 -30 25l-50 140h-290l-50 -140q-8 -25 -30 -25h-95q-25 0 -15 25l250 650q10 25 30 25h110q20 0 30 -25l250 -650q10 -25 -15 -25q-30 -19 -53 -38q-20 -17 -36 -38t-16 -44q0 -40 45 -40h40q8 0 14 -6t6 -14v-35q0 -8 -6 -14t-14 -6h-50q-49 0 -79.5 30
t-30.5 75q0 32 17 56t38 41q24 19 55 33h-25zM453 280l-103 275h-4l-103 -275h210z" />
    <glyph glyph-name="aogonek" unicode="&#x105;" horiz-adv-x="560" 
d="M405 0q-25 0 -25 25v25h-5q-8 -17 -22 -30q-12 -11 -31 -20.5t-47 -9.5h-75q-150 0 -150 150v15q0 150 150 150h180v50q0 30 -17.5 47.5t-47.5 17.5h-70q-55 0 -55 -55q0 -25 -25 -25h-60q-25 0 -25 25q0 75 40.5 115t119.5 40h90q160 0 160 -160v-335q0 -25 -25 -25
q-30 -19 -53 -38q-20 -17 -36 -38t-16 -44q0 -40 45 -40h40q8 0 14 -6t6 -14v-35q0 -8 -6 -14t-14 -6h-50q-49 0 -79.5 30t-30.5 75q0 32 18.5 56t41.5 41q26 19 60 33zM295 90q38 0 61.5 23.5t23.5 61.5v35h-165q-55 0 -55 -55v-10q0 -55 55 -55h80z" />
    <glyph glyph-name="Cacute" unicode="&#x106;" horiz-adv-x="765" 
d="M695 495q0 -25 -25 -25h-75q-25 0 -25 25v30q0 70 -70 70h-225q-70 0 -70 -70v-350q0 -70 70 -70h225q70 0 70 70v30q0 25 25 25h75q25 0 25 -25v-35q0 -180 -180 -180h-255q-180 0 -180 180v360q0 180 180 180h255q180 0 180 -180v-35zM450 795q-8 -11 -16 -18t-19 -7
h-45q-25 0 -15 25l50 120q10 25 30 25h75q11 0 17 -7t-2 -18z" />
    <glyph glyph-name="cacute" unicode="&#x107;" horiz-adv-x="575" 
d="M410 170q0 25 25 25h60q25 0 25 -25v-20q0 -160 -160 -160h-135q-160 0 -160 160v210q0 160 160 160h135q160 0 160 -160v-20q0 -25 -25 -25h-60q-25 0 -25 25v15q0 30 -17.5 47.5t-47.5 17.5h-105q-30 0 -47.5 -17.5t-17.5 -47.5v-200q0 -30 17.5 -47.5t47.5 -17.5h105
q30 0 47.5 17.5t17.5 47.5v15zM355 605q-8 -11 -16 -18t-19 -7h-45q-25 0 -15 25l50 120q10 25 30 25h75q11 0 17 -7t-2 -18z" />
    <glyph glyph-name="Ccircumflex" unicode="&#x108;" horiz-adv-x="765" 
d="M695 495q0 -25 -25 -25h-75q-25 0 -25 25v30q0 70 -70 70h-225q-70 0 -70 -70v-350q0 -70 70 -70h225q70 0 70 70v30q0 25 25 25h75q25 0 25 -25v-35q0 -180 -180 -180h-255q-180 0 -180 180v360q0 180 180 180h255q180 0 180 -180v-35zM410 945q15 0 23 -7t17 -18
l95 -125q8 -11 2 -18t-17 -7h-55q-11 0 -19 7t-16 18l-55 75h-5l-55 -75q-8 -11 -16 -18t-19 -7h-55q-11 0 -17 7t2 18l95 125q9 11 17 18t23 7h55z" />
    <glyph glyph-name="ccircumflex" unicode="&#x109;" horiz-adv-x="575" 
d="M410 170q0 25 25 25h60q25 0 25 -25v-20q0 -160 -160 -160h-135q-160 0 -160 160v210q0 160 160 160h135q160 0 160 -160v-20q0 -25 -25 -25h-60q-25 0 -25 25v15q0 30 -17.5 47.5t-47.5 17.5h-105q-30 0 -47.5 -17.5t-17.5 -47.5v-200q0 -30 17.5 -47.5t47.5 -17.5h105
q30 0 47.5 17.5t17.5 47.5v15zM320 755q15 0 23 -7t17 -18l95 -125q8 -11 2 -18t-17 -7h-55q-11 0 -19 7t-16 18l-55 75h-5l-55 -75q-8 -11 -16 -18t-19 -7h-55q-11 0 -17 7t2 18l95 125q9 11 17 18t23 7h55z" />
    <glyph glyph-name="Ccaron" unicode="&#x10c;" horiz-adv-x="765" 
d="M695 495q0 -25 -25 -25h-75q-25 0 -25 25v30q0 70 -70 70h-225q-70 0 -70 -70v-350q0 -70 70 -70h225q70 0 70 70v30q0 25 25 25h75q25 0 25 -25v-35q0 -180 -180 -180h-255q-180 0 -180 180v360q0 180 180 180h255q180 0 180 -180v-35zM355 770q-15 0 -23 7t-17 18
l-95 125q-8 11 -2 18t17 7h55q11 0 19 -7t16 -18l55 -75h5l55 75q8 11 16 18t19 7h55q11 0 17 -7t-2 -18l-95 -125q-9 -11 -17 -18t-23 -7h-55z" />
    <glyph glyph-name="ccaron" unicode="&#x10d;" horiz-adv-x="575" 
d="M410 170q0 25 25 25h60q25 0 25 -25v-20q0 -160 -160 -160h-135q-160 0 -160 160v210q0 160 160 160h135q160 0 160 -160v-20q0 -25 -25 -25h-60q-25 0 -25 25v15q0 30 -17.5 47.5t-47.5 17.5h-105q-30 0 -47.5 -17.5t-17.5 -47.5v-200q0 -30 17.5 -47.5t47.5 -17.5h105
q30 0 47.5 17.5t17.5 47.5v15zM270 580q-15 0 -23 7t-17 18l-95 125q-8 11 -2 18t17 7h55q11 0 19 -7t16 -18l55 -75h5l55 75q8 11 16 18t19 7h55q11 0 17 -7t-2 -18l-95 -125q-9 -11 -17 -18t-23 -7h-55z" />
    <glyph glyph-name="Dcaron" unicode="&#x10e;" horiz-adv-x="785" 
d="M115 0q-25 0 -25 25v650q0 25 25 25h410q180 0 180 -180v-340q0 -180 -180 -180h-410zM215 115h295q70 0 70 70v330q0 70 -70 70h-295v-470zM355 770q-15 0 -23 7t-17 18l-95 125q-8 11 -2 18t17 7h55q11 0 19 -7t16 -18l55 -75h5l55 75q8 11 16 18t19 7h55q11 0 17 -7
t-2 -18l-95 -125q-9 -11 -17 -18t-23 -7h-55z" />
    <glyph glyph-name="dcaron" unicode="&#x10f;" horiz-adv-x="665" 
d="M410 510v165q0 25 25 25h60q25 0 25 -25v-650q0 -25 -25 -25h-60q-25 0 -25 25v25h-5q-8 -17 -22 -30q-12 -11 -31 -20.5t-47 -9.5h-80q-160 0 -160 160v200q0 160 160 160h185zM410 410h-170q-30 0 -47.5 -17.5t-17.5 -47.5v-190q0 -30 17.5 -47.5t47.5 -17.5h85
q38 0 61.5 23.5t23.5 61.5v235zM705 615q0 -10 -2.5 -18.5t-5.5 -15.5q-4 -8 -7 -16l-30 -60q-4 -8 -11.5 -14t-18.5 -6h-20q-11 0 -12.5 6t2.5 14l40 80h-25q-25 0 -25 25v65q0 25 25 25h65q25 0 25 -25v-60z" />
    <glyph glyph-name="Dcroat" unicode="&#x110;" horiz-adv-x="805" 
d="M120 400v275q0 25 25 25h410q180 0 180 -180v-340q0 -180 -180 -180h-410q-25 0 -25 25v265h-55q-25 0 -25 25v60q0 25 25 25h55zM245 400h130q25 0 25 -25v-60q0 -25 -25 -25h-130v-175h295q70 0 70 70v330q0 70 -70 70h-295v-185z" />
    <glyph glyph-name="dcroat" unicode="&#x111;" horiz-adv-x="580" 
d="M395 430v80h-105q-25 0 -25 25v50q0 25 25 25h105v65q0 25 25 25h60q25 0 25 -25v-65h50q25 0 25 -25v-50q0 -25 -25 -25h-50v-485q0 -25 -25 -25h-60q-25 0 -25 25v25h-5q-8 -17 -22 -30q-12 -11 -31 -20.5t-47 -9.5h-80q-160 0 -160 160v120q0 160 160 160h185z
M395 330h-170q-30 0 -47.5 -17.5t-17.5 -47.5v-110q0 -30 17.5 -47.5t47.5 -17.5h85q38 0 61.5 23.5t23.5 61.5v155z" />
    <glyph glyph-name="Emacron" unicode="&#x112;" horiz-adv-x="680" 
d="M215 415h310q25 0 25 -25v-65q0 -25 -25 -25h-310v-185h410q25 0 25 -25v-65q0 -25 -25 -25h-510q-25 0 -25 25v650q0 25 25 25h500q25 0 25 -25v-65q0 -25 -25 -25h-400v-170zM490 895q25 0 25 -25v-35q0 -25 -25 -25h-240q-25 0 -25 25v35q0 25 25 25h240z" />
    <glyph glyph-name="emacron" unicode="&#x113;" horiz-adv-x="585" 
d="M410 145q0 25 25 25h60q25 0 25 -25q0 -75 -40.5 -115t-119.5 -40h-135q-160 0 -160 160v210q0 160 160 160h135q160 0 160 -160v-120q0 -25 -25 -25h-320v-60q0 -30 17.5 -47.5t47.5 -17.5h115q55 0 55 55zM175 310h235v45q0 30 -17.5 47.5t-47.5 17.5h-105
q-30 0 -47.5 -17.5t-17.5 -47.5v-45zM415 705q25 0 25 -25v-35q0 -25 -25 -25h-240q-25 0 -25 25v35q0 25 25 25h240z" />
    <glyph glyph-name="Edotaccent" unicode="&#x116;" horiz-adv-x="680" 
d="M215 415h310q25 0 25 -25v-65q0 -25 -25 -25h-310v-185h410q25 0 25 -25v-65q0 -25 -25 -25h-510q-25 0 -25 25v650q0 25 25 25h500q25 0 25 -25v-65q0 -25 -25 -25h-400v-170zM425 835q0 -25 -25 -25h-60q-25 0 -25 25v60q0 25 25 25h60q25 0 25 -25v-60z" />
    <glyph glyph-name="edotaccent" unicode="&#x117;" horiz-adv-x="585" 
d="M410 145q0 25 25 25h60q25 0 25 -25q0 -75 -40.5 -115t-119.5 -40h-135q-160 0 -160 160v210q0 160 160 160h135q160 0 160 -160v-120q0 -25 -25 -25h-320v-60q0 -30 17.5 -47.5t47.5 -17.5h115q55 0 55 55zM175 310h235v45q0 30 -17.5 47.5t-47.5 17.5h-105
q-30 0 -47.5 -17.5t-17.5 -47.5v-45zM350 635q0 -25 -25 -25h-60q-25 0 -25 25v60q0 25 25 25h60q25 0 25 -25v-60z" />
    <glyph glyph-name="Eogonek" unicode="&#x118;" horiz-adv-x="680" 
d="M115 0q-25 0 -25 25v650q0 25 25 25h500q25 0 25 -25v-65q0 -25 -25 -25h-400v-170h310q25 0 25 -25v-65q0 -25 -25 -25h-310v-185h410q25 0 25 -25v-65q0 -25 -25 -25h-185q-30 -19 -53 -38q-20 -17 -36 -38t-16 -44q0 -40 45 -40h40q8 0 14 -6t6 -14v-35q0 -8 -6 -14
t-14 -6h-50q-49 0 -79.5 30t-30.5 75q0 32 17 56t38 41q24 19 55 33h-255z" />
    <glyph glyph-name="eogonek" unicode="&#x119;" horiz-adv-x="585" 
d="M410 145q0 25 25 25h60q25 0 25 -25q0 -75 -40.5 -115t-119.5 -40q-26 -12 -45 -29q-17 -14 -31 -34.5t-14 -46.5q0 -40 45 -40h40q8 0 14 -6t6 -14v-35q0 -8 -6 -14t-14 -6h-50q-49 0 -79.5 30t-30.5 75q0 28 14 50t31 38q19 18 45 32h-60q-160 0 -160 160v210
q0 160 160 160h135q160 0 160 -160v-120q0 -25 -25 -25h-320v-60q0 -30 17.5 -47.5t47.5 -17.5h115q55 0 55 55zM175 310h235v45q0 30 -17.5 47.5t-47.5 17.5h-105q-30 0 -47.5 -17.5t-17.5 -47.5v-45z" />
    <glyph glyph-name="Ecaron" unicode="&#x11a;" horiz-adv-x="680" 
d="M215 415h310q25 0 25 -25v-65q0 -25 -25 -25h-310v-185h410q25 0 25 -25v-65q0 -25 -25 -25h-510q-25 0 -25 25v650q0 25 25 25h500q25 0 25 -25v-65q0 -25 -25 -25h-400v-170zM343 770q-15 0 -23 7t-17 18l-95 125q-8 11 -2 18t17 7h55q11 0 19 -7t16 -18l55 -75h5
l55 75q8 11 16 18t19 7h55q11 0 17 -7t-2 -18l-95 -125q-9 -11 -17 -18t-23 -7h-55z" />
    <glyph glyph-name="ecaron" unicode="&#x11b;" horiz-adv-x="585" 
d="M410 145q0 25 25 25h60q25 0 25 -25q0 -75 -40.5 -115t-119.5 -40h-135q-160 0 -160 160v210q0 160 160 160h135q160 0 160 -160v-120q0 -25 -25 -25h-320v-60q0 -30 17.5 -47.5t47.5 -17.5h115q55 0 55 55zM175 310h235v45q0 30 -17.5 47.5t-47.5 17.5h-105
q-30 0 -47.5 -17.5t-17.5 -47.5v-45zM265 580q-15 0 -23 7t-17 18l-95 125q-8 11 -2 18t17 7h55q11 0 19 -7t16 -18l55 -75h5l55 75q8 11 16 18t19 7h55q11 0 17 -7t-2 -18l-95 -125q-9 -11 -17 -18t-23 -7h-55z" />
    <glyph glyph-name="Gbreve" unicode="&#x11e;" horiz-adv-x="775" 
d="M695 495q0 -25 -25 -25h-75q-25 0 -25 25v30q0 70 -70 70h-225q-70 0 -70 -70v-350q0 -70 70 -70h225q70 0 70 70v90h-135q-25 0 -25 25v65q0 25 25 25h235q25 0 25 -25v-185q0 -180 -180 -180h-255q-180 0 -180 180v360q0 180 180 180h255q180 0 180 -180v-35zM350 785
q-125 0 -125 125v10q0 25 25 25h50q25 0 25 -25v-15q0 -15 10 -25t25 -10h45q15 0 25 10t10 25v15q0 25 25 25h50q25 0 25 -25v-10q0 -125 -125 -125h-65z" />
    <glyph glyph-name="gbreve" unicode="&#x11f;" horiz-adv-x="590" 
d="M185 -35q0 -30 17.5 -47.5t47.5 -17.5h95q30 0 47.5 17.5t17.5 47.5v75h-185q-160 0 -160 160v160q0 160 160 160h80q28 0 47 -9.5t31 -20.5q14 -13 22 -30h5v25q0 25 25 25h60q25 0 25 -25v-525q0 -160 -160 -160h-125q-160 0 -160 160v10q0 25 25 25h60q25 0 25 -25v-5
zM410 335q0 38 -23.5 61.5t-61.5 23.5h-85q-30 0 -47.5 -17.5t-17.5 -47.5v-150q0 -30 17.5 -47.5t47.5 -17.5h170v195zM265 600q-125 0 -125 125v10q0 25 25 25h50q25 0 25 -25v-15q0 -15 10 -25t25 -10h45q15 0 25 10t10 25v15q0 25 25 25h50q25 0 25 -25v-10
q0 -125 -125 -125h-65z" />
    <glyph glyph-name="Gcommaaccent" unicode="&#x122;" horiz-adv-x="775" 
d="M695 495q0 -25 -25 -25h-75q-25 0 -25 25v30q0 70 -70 70h-225q-70 0 -70 -70v-350q0 -70 70 -70h225q70 0 70 70v90h-135q-25 0 -25 25v65q0 25 25 25h235q25 0 25 -25v-185q0 -180 -180 -180h-255q-180 0 -180 180v360q0 180 180 180h255q180 0 180 -180v-35zM445 -170
q0 -10 -2.5 -18.5t-5.5 -15.5q-4 -8 -7 -16l-30 -60q-4 -8 -11.5 -14t-18.5 -6h-20q-11 0 -12.5 6t2.5 14l40 80h-20q-25 0 -25 25v60q0 25 25 25h60q25 0 25 -25v-55z" />
    <glyph glyph-name="gcommaaccent" unicode="&#x123;" horiz-adv-x="590" 
d="M240 685q0 18 7 34l8 16l30 60q4 8 11.5 14t18.5 6h20q11 0 12.5 -6t-2.5 -14l-40 -80h25q25 0 25 -25v-65q0 -25 -25 -25h-65q-25 0 -25 25v60zM185 -35q0 -30 17.5 -47.5t47.5 -17.5h95q30 0 47.5 17.5t17.5 47.5v75h-185q-160 0 -160 160v160q0 160 160 160h80
q28 0 47 -9.5t31 -20.5q14 -13 22 -30h5v25q0 25 25 25h60q25 0 25 -25v-525q0 -160 -160 -160h-125q-160 0 -160 160v10q0 25 25 25h60q25 0 25 -25v-5zM410 335q0 38 -23.5 61.5t-61.5 23.5h-85q-30 0 -47.5 -17.5t-17.5 -47.5v-150q0 -30 17.5 -47.5t47.5 -17.5h170v195z
" />
    <glyph glyph-name="Imacron" unicode="&#x12a;" horiz-adv-x="305" 
d="M90 675q0 25 25 25h75q25 0 25 -25v-650q0 -25 -25 -25h-75q-25 0 -25 25v650zM276 905q25 0 25 -25v-35q0 -25 -25 -25h-240q-25 0 -25 25v35q0 25 25 25h240z" />
    <glyph glyph-name="imacron" unicode="&#x12b;" horiz-adv-x="250" 
d="M180 25q0 -25 -25 -25h-60q-25 0 -25 25v460q0 25 25 25h60q25 0 25 -25v-460zM246 705q25 0 25 -25v-35q0 -25 -25 -25h-240q-25 0 -25 25v35q0 25 25 25h240z" />
    <glyph glyph-name="Iogonek" unicode="&#x12e;" horiz-adv-x="305" 
d="M115 0q-25 0 -25 25v650q0 25 25 25h75q25 0 25 -25v-650q0 -25 -25 -25q-30 -19 -53 -38q-20 -17 -36 -38t-16 -44q0 -40 45 -40h40q8 0 14 -6t6 -14v-35q0 -8 -6 -14t-14 -6h-50q-49 0 -79.5 30t-30.5 75q0 32 17 56t38 41q24 19 55 33h-5z" />
    <glyph glyph-name="iogonek" unicode="&#x12f;" horiz-adv-x="245" 
d="M90 0q-25 0 -25 25v460q0 25 25 25h60q25 0 25 -25v-460q0 -25 -25 -25q-30 -19 -53 -38q-20 -17 -36 -38t-16 -44q0 -40 45 -40h40q8 0 14 -6t6 -14v-35q0 -8 -6 -14t-14 -6h-50q-49 0 -79.5 30t-30.5 75q0 32 18.5 56t41.5 41q26 19 60 33zM175 615q0 -11 -6 -18l-3 -2
q-2 -2 -6 -4q-1 0 -2 -0.5t-2 -0.5h-6h-60h-7q-1 0 -1.5 0.5t-1.5 0.5l-5 3l-1 1q-1 0 -2 1q-7 5 -7 15v4v60q0 11 6 17q1 2 2 2.5t2 1.5q8 4 15 4h60q25 0 25 -25v-60z" />
    <glyph glyph-name="Idotaccent" unicode="&#x130;" horiz-adv-x="305" 
d="M90 675q0 25 25 25h75q25 0 25 -25v-650q0 -25 -25 -25h-75q-25 0 -25 25v650zM205 825q0 -25 -25 -25h-60q-25 0 -25 25v60q0 25 25 25h60q25 0 25 -25v-60z" />
    <glyph glyph-name="dotlessi" unicode="&#x131;" horiz-adv-x="250" 
d="M180 25q0 -25 -25 -25h-60q-25 0 -25 25v460q0 25 25 25h60q25 0 25 -25v-460z" />
    <glyph glyph-name="Kcommaaccent" unicode="&#x136;" horiz-adv-x="703" 
d="M215 25q0 -25 -25 -25h-75q-25 0 -25 25v650q0 25 25 25h75q25 0 25 -25v-255h165l135 255q6 11 15.5 18t24.5 7h90q15 0 17 -8.5t-2 -16.5l-170 -305l190 -345q4 -8 2 -16.5t-17 -8.5h-90q-15 0 -24.5 7t-15.5 18l-150 280h-170v-280zM430 -170q0 -10 -2.5 -18.5
t-5.5 -15.5q-4 -8 -7 -16l-30 -60q-4 -8 -11.5 -14t-18.5 -6h-20q-11 0 -12.5 6t2.5 14l40 80h-20q-25 0 -25 25v60q0 25 25 25h60q25 0 25 -25v-55z" />
    <glyph glyph-name="kcommaaccent" unicode="&#x137;" horiz-adv-x="538" 
d="M185 320h105l85 165q6 11 15.5 18t24.5 7h70q15 0 17 -8.5t-2 -16.5l-120 -215l135 -245q4 -8 2 -16.5t-17 -8.5h-70q-15 0 -24.5 7t-15.5 18l-100 195h-105v-195q0 -25 -25 -25h-60q-25 0 -25 25v650q0 25 25 25h60q25 0 25 -25v-355zM350 -160q0 -10 -2.5 -18.5
t-5.5 -15.5q-4 -8 -7 -16l-30 -60q-4 -8 -11.5 -14t-18.5 -6h-20q-11 0 -12.5 6t2.5 14l40 80h-20q-25 0 -25 25v60q0 25 25 25h60q25 0 25 -25v-55z" />
    <glyph glyph-name="Lacute" unicode="&#x139;" horiz-adv-x="650" 
d="M215 115h390q25 0 25 -25v-65q0 -25 -25 -25h-490q-25 0 -25 25v650q0 25 25 25h75q25 0 25 -25v-560zM210 795q-8 -11 -16 -18t-19 -7h-45q-25 0 -15 25l50 120q10 25 30 25h75q11 0 17 -7t-2 -18z" />
    <glyph glyph-name="lacute" unicode="&#x13a;" horiz-adv-x="260" 
d="M185 25q0 -25 -25 -25h-60q-25 0 -25 25v650q0 25 25 25h60q25 0 25 -25v-650zM190 795q-8 -11 -16 -18t-19 -7h-45q-25 0 -15 25l50 120q10 25 30 25h75q11 0 17 -7t-2 -18z" />
    <glyph glyph-name="Lcommaaccent" unicode="&#x13b;" horiz-adv-x="650" 
d="M215 115h390q25 0 25 -25v-65q0 -25 -25 -25h-490q-25 0 -25 25v650q0 25 25 25h75q25 0 25 -25v-560zM430 -170q0 -10 -2.5 -18.5t-5.5 -15.5q-4 -8 -7 -16l-30 -60q-4 -8 -11.5 -14t-18.5 -6h-20q-11 0 -12.5 6t2.5 14l40 80h-20q-25 0 -25 25v60q0 25 25 25h60
q25 0 25 -25v-55z" />
    <glyph glyph-name="lcommaaccent" unicode="&#x13c;" horiz-adv-x="260" 
d="M185 25q0 -25 -25 -25h-60q-25 0 -25 25v650q0 25 25 25h60q25 0 25 -25v-650zM185 -170q0 -10 -2.5 -18.5t-5.5 -15.5q-4 -8 -7 -16l-30 -60q-4 -8 -11.5 -14t-18.5 -6h-20q-11 0 -12.5 6t2.5 14l40 80h-20q-25 0 -25 25v60q0 25 25 25h60q25 0 25 -25v-55z" />
    <glyph glyph-name="Lcaron" unicode="&#x13d;" horiz-adv-x="650" 
d="M215 115h390q25 0 25 -25v-65q0 -25 -25 -25h-490q-25 0 -25 25v650q0 25 25 25h75q25 0 25 -25v-560zM415 615q0 -10 -2.5 -18.5t-5.5 -15.5q-4 -8 -7 -16l-30 -60q-4 -8 -11.5 -14t-18.5 -6h-20q-11 0 -12.5 6t2.5 14l40 80h-25q-25 0 -25 25v65q0 25 25 25h65
q25 0 25 -25v-60z" />
    <glyph glyph-name="lcaron" unicode="&#x13e;" horiz-adv-x="320" 
d="M185 25q0 -25 -25 -25h-60q-25 0 -25 25v650q0 25 25 25h60q25 0 25 -25v-650zM360 615q0 -10 -2.5 -18.5t-5.5 -15.5q-4 -8 -7 -16l-30 -60q-4 -8 -11.5 -14t-18.5 -6h-20q-11 0 -12.5 6t2.5 14l40 80h-25q-25 0 -25 25v65q0 25 25 25h65q25 0 25 -25v-60z" />
    <glyph glyph-name="Lslash" unicode="&#x141;" horiz-adv-x="680" 
d="M245 325v-210h390q25 0 25 -25v-65q0 -25 -25 -25h-490q-25 0 -25 25v260l-75 -30q-25 -10 -25 15v50q0 15 7 22.5t18 12.5l75 30v290q0 25 25 25h75q25 0 25 -25v-250l80 30q25 10 25 -15v-50q0 -15 -7 -22.5t-18 -12.5z" />
    <glyph glyph-name="lslash" unicode="&#x142;" horiz-adv-x="320" 
d="M215 330v-305q0 -25 -25 -25h-60q-25 0 -25 25v265l-80 -30q-25 -10 -25 15v50q0 15 7 22.5t18 12.5l80 30v285q0 25 25 25h60q25 0 25 -25v-245l80 30q25 10 25 -15v-50q0 -15 -7 -22.5t-18 -12.5z" />
    <glyph glyph-name="Nacute" unicode="&#x143;" horiz-adv-x="790" 
d="M575 190v485q0 25 25 25h75q25 0 25 -25v-650q0 -25 -25 -25h-100q-15 0 -23.5 7t-16.5 18l-315 485h-5v-485q0 -25 -25 -25h-75q-25 0 -25 25v650q0 25 25 25h100q15 0 23.5 -7t16.5 -18l315 -485h5zM460 795q-8 -11 -16 -18t-19 -7h-45q-25 0 -15 25l50 120
q10 25 30 25h75q11 0 17 -7t-2 -18z" />
    <glyph glyph-name="nacute" unicode="&#x144;" 
d="M525 25q0 -25 -25 -25h-60q-25 0 -25 25v330q0 30 -17.5 47.5t-47.5 17.5h-85q-38 0 -61.5 -23.5t-23.5 -61.5v-310q0 -25 -25 -25h-60q-25 0 -25 25v460q0 25 25 25h60q25 0 25 -25v-25h5q8 17 22 30q12 11 30.5 20.5t47.5 9.5h80q160 0 160 -160v-335zM355 605
q-8 -11 -16 -18t-19 -7h-45q-25 0 -15 25l50 120q10 25 30 25h75q11 0 17 -7t-2 -18z" />
    <glyph glyph-name="Ncommaaccent" unicode="&#x145;" horiz-adv-x="790" 
d="M575 190v485q0 25 25 25h75q25 0 25 -25v-650q0 -25 -25 -25h-100q-15 0 -23.5 7t-16.5 18l-315 485h-5v-485q0 -25 -25 -25h-75q-25 0 -25 25v650q0 25 25 25h100q15 0 23.5 -7t16.5 -18l315 -485h5zM460 -170q0 -10 -2.5 -18.5t-5.5 -15.5q-4 -8 -7 -16l-30 -60
q-4 -8 -11.5 -14t-18.5 -6h-20q-11 0 -12.5 6t2.5 14l40 80h-20q-25 0 -25 25v60q0 25 25 25h60q25 0 25 -25v-55z" />
    <glyph glyph-name="ncommaaccent" unicode="&#x146;" 
d="M525 25q0 -25 -25 -25h-60q-25 0 -25 25v330q0 30 -17.5 47.5t-47.5 17.5h-85q-38 0 -61.5 -23.5t-23.5 -61.5v-310q0 -25 -25 -25h-60q-25 0 -25 25v460q0 25 25 25h60q25 0 25 -25v-25h5q8 17 22 30q12 11 30.5 20.5t47.5 9.5h80q160 0 160 -160v-335zM355 -160
q0 -10 -2.5 -18.5t-5.5 -15.5q-4 -8 -7 -16l-30 -60q-4 -8 -11.5 -14t-18.5 -6h-20q-11 0 -12.5 6t2.5 14l40 80h-20q-25 0 -25 25v60q0 25 25 25h60q25 0 25 -25v-55z" />
    <glyph glyph-name="Ncaron" unicode="&#x147;" horiz-adv-x="790" 
d="M575 190v485q0 25 25 25h75q25 0 25 -25v-650q0 -25 -25 -25h-100q-15 0 -23.5 7t-16.5 18l-315 485h-5v-485q0 -25 -25 -25h-75q-25 0 -25 25v650q0 25 25 25h100q15 0 23.5 -7t16.5 -18l315 -485h5zM375 770q-15 0 -23 7t-17 18l-95 125q-8 11 -2 18t17 7h55
q11 0 19 -7t16 -18l55 -75h5l55 75q8 11 16 18t19 7h55q11 0 17 -7t-2 -18l-95 -125q-9 -11 -17 -18t-23 -7h-55z" />
    <glyph glyph-name="ncaron" unicode="&#x148;" 
d="M525 25q0 -25 -25 -25h-60q-25 0 -25 25v330q0 30 -17.5 47.5t-47.5 17.5h-85q-38 0 -61.5 -23.5t-23.5 -61.5v-310q0 -25 -25 -25h-60q-25 0 -25 25v460q0 25 25 25h60q25 0 25 -25v-25h5q8 17 22 30q12 11 30.5 20.5t47.5 9.5h80q160 0 160 -160v-335zM270 580
q-15 0 -23 7t-17 18l-95 125q-8 11 -2 18t17 7h55q11 0 19 -7t16 -18l55 -75h5l55 75q8 11 16 18t19 7h55q11 0 17 -7t-2 -18l-95 -125q-9 -11 -17 -18t-23 -7h-55z" />
    <glyph glyph-name="Omacron" unicode="&#x14c;" horiz-adv-x="790" 
d="M260 -10q-180 0 -180 180v360q0 180 180 180h270q180 0 180 -180v-360q0 -180 -180 -180h-270zM515 105q70 0 70 70v350q0 70 -70 70h-240q-70 0 -70 -70v-350q0 -70 70 -70h240zM515 905q25 0 25 -25v-35q0 -25 -25 -25h-240q-25 0 -25 25v35q0 25 25 25h240z" />
    <glyph glyph-name="omacron" unicode="&#x14d;" 
d="M175 155q0 -30 17.5 -47.5t47.5 -17.5h115q30 0 47.5 17.5t17.5 47.5v200q0 30 -17.5 47.5t-47.5 17.5h-115q-30 0 -47.5 -17.5t-17.5 -47.5v-200zM65 360q0 160 160 160h145q160 0 160 -160v-210q0 -160 -160 -160h-145q-160 0 -160 160v210zM417 705q25 0 25 -25v-35
q0 -25 -25 -25h-240q-25 0 -25 25v35q0 25 25 25h240z" />
    <glyph glyph-name="Ohungarumlaut" unicode="&#x150;" horiz-adv-x="790" 
d="M260 -10q-180 0 -180 180v360q0 180 180 180h270q180 0 180 -180v-360q0 -180 -180 -180h-270zM515 105q70 0 70 70v350q0 70 -70 70h-240q-70 0 -70 -70v-350q0 -70 70 -70h240zM360 805q-8 -11 -16 -18t-19 -7h-30q-25 0 -15 25l50 120q10 25 30 25h60q11 0 17 -7
t-2 -18zM525 805q-8 -11 -16 -18t-19 -7h-30q-25 0 -15 25l50 120q10 25 30 25h60q11 0 17 -7t-2 -18z" />
    <glyph glyph-name="ohungarumlaut" unicode="&#x151;" 
d="M175 155q0 -30 17.5 -47.5t47.5 -17.5h115q30 0 47.5 17.5t17.5 47.5v200q0 30 -17.5 47.5t-47.5 17.5h-115q-30 0 -47.5 -17.5t-17.5 -47.5v-200zM65 360q0 160 160 160h145q160 0 160 -160v-210q0 -160 -160 -160h-145q-160 0 -160 160v210zM260 605q-8 -11 -16 -18
t-19 -7h-30q-25 0 -15 25l50 120q10 25 30 25h60q11 0 17 -7t-2 -18zM425 605q-8 -11 -16 -18t-19 -7h-30q-25 0 -15 25l50 120q10 25 30 25h60q11 0 17 -7t-2 -18z" />
    <glyph glyph-name="OE" unicode="&#x152;" horiz-adv-x="1070" 
d="M80 520q0 180 180 180h745q25 0 25 -25v-65q0 -25 -25 -25h-360v-170h270q25 0 25 -25v-65q0 -25 -25 -25h-270v-185h370q25 0 25 -25v-65q0 -25 -25 -25h-755q-180 0 -180 180v340zM205 185q0 -70 70 -70h245v470h-245q-70 0 -70 -70v-330z" />
    <glyph glyph-name="oe" unicode="&#x153;" horiz-adv-x="895" 
d="M225 -10q-160 0 -160 160v210q0 160 160 160h90q38 0 62.5 -9.5t39.5 -20.5q18 -13 28 -30h5q9 17 27 30q15 11 40 20.5t63 9.5h90q160 0 160 -160v-120q0 -25 -25 -25h-300v-60q0 -30 17.5 -47.5t47.5 -17.5h95q55 0 55 55q0 25 25 25h60q25 0 25 -25q0 -75 -40.5 -115
t-119.5 -40h-90q-38 0 -63 9.5t-40 20.5q-18 13 -27 30h-5q-10 -17 -28 -30q-15 -11 -39.5 -20.5t-62.5 -9.5h-90zM505 305h215v50q0 30 -17.5 47.5t-47.5 17.5h-85q-30 0 -47.5 -17.5t-17.5 -47.5v-50zM175 155q0 -30 17.5 -47.5t47.5 -17.5h90q30 0 47.5 17.5t17.5 47.5
v200q0 30 -17.5 47.5t-47.5 17.5h-90q-30 0 -47.5 -17.5t-17.5 -47.5v-200z" />
    <glyph glyph-name="Racute" unicode="&#x154;" horiz-adv-x="743" 
d="M90 675q0 25 25 25h375q180 0 180 -180v-110q0 -57 -17.5 -90t-37.5 -51q-25 -21 -55 -29l120 -215q4 -8 2 -16.5t-17 -8.5h-85q-15 0 -24.5 7t-15.5 18l-110 205h-215v-205q0 -25 -25 -25h-75q-25 0 -25 25v650zM215 585v-240h260q70 0 70 70v100q0 70 -70 70h-260z
M430 795q-8 -11 -16 -18t-19 -7h-45q-25 0 -15 25l50 120q10 25 30 25h75q11 0 17 -7t-2 -18z" />
    <glyph glyph-name="racute" unicode="&#x155;" horiz-adv-x="370" 
d="M335 520q25 0 25 -25v-55q0 -25 -25 -25h-70q-38 0 -61.5 -23.5t-23.5 -61.5v-305q0 -25 -25 -25h-60q-25 0 -25 25v460q0 25 25 25h60q25 0 25 -25v-25h5q8 17 22 30q12 11 30.5 20.5t47.5 9.5h50zM270 605q-8 -11 -16 -18t-19 -7h-45q-25 0 -15 25l50 120q10 25 30 25
h75q11 0 17 -7t-2 -18z" />
    <glyph glyph-name="Rcommaaccent" unicode="&#x156;" horiz-adv-x="743" 
d="M90 675q0 25 25 25h375q180 0 180 -180v-110q0 -57 -17.5 -90t-37.5 -51q-25 -21 -55 -29l120 -215q4 -8 2 -16.5t-17 -8.5h-85q-15 0 -24.5 7t-15.5 18l-110 205h-215v-205q0 -25 -25 -25h-75q-25 0 -25 25v650zM215 585v-240h260q70 0 70 70v100q0 70 -70 70h-260z
M435 -160q0 -10 -2.5 -18.5t-5.5 -15.5q-4 -8 -7 -16l-30 -60q-4 -8 -11.5 -14t-18.5 -6h-20q-11 0 -12.5 6t2.5 14l40 80h-20q-25 0 -25 25v60q0 25 25 25h60q25 0 25 -25v-55z" />
    <glyph glyph-name="rcommaaccent" unicode="&#x157;" horiz-adv-x="370" 
d="M335 520q25 0 25 -25v-55q0 -25 -25 -25h-70q-38 0 -61.5 -23.5t-23.5 -61.5v-305q0 -25 -25 -25h-60q-25 0 -25 25v460q0 25 25 25h60q25 0 25 -25v-25h5q8 17 22 30q12 11 30.5 20.5t47.5 9.5h50zM180 -160q0 -10 -2.5 -18.5t-5.5 -15.5q-4 -8 -7 -16l-30 -60
q-4 -8 -11.5 -14t-18.5 -6h-20q-11 0 -12.5 6t2.5 14l40 80h-20q-25 0 -25 25v60q0 25 25 25h60q25 0 25 -25v-55z" />
    <glyph glyph-name="Rcaron" unicode="&#x158;" horiz-adv-x="743" 
d="M90 675q0 25 25 25h375q180 0 180 -180v-110q0 -57 -17.5 -90t-37.5 -51q-25 -21 -55 -29l120 -215q4 -8 2 -16.5t-17 -8.5h-85q-15 0 -24.5 7t-15.5 18l-110 205h-215v-205q0 -25 -25 -25h-75q-25 0 -25 25v650zM215 585v-240h260q70 0 70 70v100q0 70 -70 70h-260z
M345 770q-15 0 -23 7t-17 18l-95 125q-8 11 -2 18t17 7h55q11 0 19 -7t16 -18l55 -75h5l55 75q8 11 16 18t19 7h55q11 0 17 -7t-2 -18l-95 -125q-9 -11 -17 -18t-23 -7h-55z" />
    <glyph glyph-name="rcaron" unicode="&#x159;" horiz-adv-x="370" 
d="M335 520q25 0 25 -25v-55q0 -25 -25 -25h-70q-38 0 -61.5 -23.5t-23.5 -61.5v-305q0 -25 -25 -25h-60q-25 0 -25 25v460q0 25 25 25h60q25 0 25 -25v-25h5q8 17 22 30q12 11 30.5 20.5t47.5 9.5h50zM190 580q-15 0 -23 7t-17 18l-95 125q-8 11 -2 18t17 7h55q11 0 19 -7
t16 -18l55 -75h5l55 75q8 11 16 18t19 7h55q11 0 17 -7t-2 -18l-95 -125q-9 -11 -17 -18t-23 -7h-55z" />
    <glyph glyph-name="Sacute" unicode="&#x15a;" horiz-adv-x="705" 
d="M645 170q0 -180 -180 -180h-225q-180 0 -180 180v35q0 25 25 25h75q25 0 25 -25v-30q0 -70 70 -70h195q70 0 70 70v25q0 23 -13.5 38t-36.5 22l-285 90q-49 15 -79.5 49t-30.5 91v40q0 180 180 180h200q180 0 180 -180v-35q0 -25 -25 -25h-75q-25 0 -25 25v30
q0 70 -70 70h-170q-70 0 -70 -70v-15q0 -23 13.5 -37.5t36.5 -22.5l285 -90q49 -16 79.5 -49.5t30.5 -90.5v-50zM410 795q-8 -11 -16 -18t-19 -7h-45q-25 0 -15 25l50 120q10 25 30 25h75q11 0 17 -7t-2 -18z" />
    <glyph glyph-name="sacute" unicode="&#x15b;" horiz-adv-x="545" 
d="M385 140q0 31 -30 40l-205 65q-38 12 -64 41.5t-26 78.5v5q0 150 150 150h125q150 0 150 -150v-10q0 -25 -25 -25h-60q-25 0 -25 25v5q0 55 -55 55h-105q-19 0 -32 -13t-13 -32q0 -31 30 -40l205 -65q38 -12 64 -41.5t26 -78.5v-10q0 -150 -150 -150h-145
q-150 0 -150 150v10q0 25 25 25h60q25 0 25 -25v-5q0 -55 55 -55h120q23 0 36.5 13.5t13.5 36.5zM320 605q-8 -11 -16 -18t-19 -7h-45q-25 0 -15 25l50 120q10 25 30 25h75q11 0 17 -7t-2 -18z" />
    <glyph glyph-name="Scedilla" unicode="&#x15e;" horiz-adv-x="705" 
d="M405 -160q0 30 -35 30h-60q-8 0 -14 6t-6 14v35q0 15 6 24.5t14 20.5l15 20h-85q-180 0 -180 180v35q0 25 25 25h75q25 0 25 -25v-30q0 -70 70 -70h195q70 0 70 70v25q0 23 -13.5 38t-36.5 22l-285 90q-49 15 -79.5 49t-30.5 91v40q0 180 180 180h200q180 0 180 -180v-35
q0 -25 -25 -25h-75q-25 0 -25 25v30q0 70 -70 70h-170q-70 0 -70 -70v-15q0 -23 13.5 -37.5t36.5 -22.5l285 -90q49 -16 79.5 -49.5t30.5 -90.5v-50q0 -180 -180 -180h-80l-30 -50h20q45 0 72.5 -27.5t27.5 -72.5v-10q0 -45 -27.5 -72.5t-72.5 -27.5h-75q-8 0 -14 6t-6 14
v35q0 8 6 14t14 6h70q35 0 35 30v5z" />
    <glyph glyph-name="scedilla" unicode="&#x15f;" horiz-adv-x="545" 
d="M330 -160q0 30 -35 30h-60q-8 0 -14 6t-6 14v35q0 15 6 24.5t14 20.5l15 20h-50q-150 0 -150 150v10q0 25 25 25h60q25 0 25 -25v-5q0 -55 55 -55h120q23 0 36.5 13.5t13.5 36.5q0 31 -30 40l-205 65q-38 12 -64 41.5t-26 78.5v5q0 150 150 150h125q150 0 150 -150v-10
q0 -25 -25 -25h-60q-25 0 -25 25v5q0 55 -55 55h-105q-19 0 -32 -13t-13 -32q0 -31 30 -40l205 -65q38 -12 64 -41.5t26 -78.5v-10q0 -150 -150 -150h-35l-30 -50h20q45 0 72.5 -27.5t27.5 -72.5v-10q0 -45 -27.5 -72.5t-72.5 -27.5h-75q-8 0 -14 6t-6 14v35q0 8 6 14t14 6
h70q35 0 35 30v5z" />
    <glyph glyph-name="Scaron" unicode="&#x160;" horiz-adv-x="705" 
d="M645 170q0 -180 -180 -180h-225q-180 0 -180 180v35q0 25 25 25h75q25 0 25 -25v-30q0 -70 70 -70h195q70 0 70 70v25q0 23 -13.5 38t-36.5 22l-285 90q-49 15 -79.5 49t-30.5 91v40q0 180 180 180h200q180 0 180 -180v-35q0 -25 -25 -25h-75q-25 0 -25 25v30
q0 70 -70 70h-170q-70 0 -70 -70v-15q0 -23 13.5 -37.5t36.5 -22.5l285 -90q49 -16 79.5 -49.5t30.5 -90.5v-50zM325 770q-15 0 -23 7t-17 18l-95 125q-8 11 -2 18t17 7h55q11 0 19 -7t16 -18l55 -75h5l55 75q8 11 16 18t19 7h55q11 0 17 -7t-2 -18l-95 -125q-9 -11 -17 -18
t-23 -7h-55z" />
    <glyph glyph-name="scaron" unicode="&#x161;" horiz-adv-x="545" 
d="M385 140q0 31 -30 40l-205 65q-38 12 -64 41.5t-26 78.5v5q0 150 150 150h125q150 0 150 -150v-10q0 -25 -25 -25h-60q-25 0 -25 25v5q0 55 -55 55h-105q-19 0 -32 -13t-13 -32q0 -31 30 -40l205 -65q38 -12 64 -41.5t26 -78.5v-10q0 -150 -150 -150h-145
q-150 0 -150 150v10q0 25 25 25h60q25 0 25 -25v-5q0 -55 55 -55h120q23 0 36.5 13.5t13.5 36.5zM245 580q-15 0 -23 7t-17 18l-95 125q-8 11 -2 18t17 7h55q11 0 19 -7t16 -18l55 -75h5l55 75q8 11 16 18t19 7h55q11 0 17 -7t-2 -18l-95 -125q-9 -11 -17 -18t-23 -7h-55z
" />
    <glyph glyph-name="Tcommaaccent" unicode="&#x162;" horiz-adv-x="605" 
d="M365 25q0 -25 -25 -25h-75q-25 0 -25 25v560h-205q-25 0 -25 25v65q0 25 25 25h535q25 0 25 -25v-65q0 -25 -25 -25h-205v-560zM355 -160q0 -10 -2.5 -18.5t-5.5 -15.5q-4 -8 -7 -16l-30 -60q-4 -8 -11.5 -14t-18.5 -6h-20q-11 0 -12.5 6t2.5 14l40 80h-20q-25 0 -25 25
v60q0 25 25 25h60q25 0 25 -25v-55z" />
    <glyph glyph-name="tcommaaccent" unicode="&#x163;" horiz-adv-x="400" 
d="M115 510v95q0 25 25 25h60q25 0 25 -25v-95h85q25 0 25 -25v-50q0 -25 -25 -25h-85v-250q0 -55 55 -55h55q25 0 25 -25v-55q0 -25 -25 -25h-70q-150 0 -150 150v260h-60q-25 0 -25 25v50q0 25 25 25h60zM310 -170q0 -10 -2.5 -18.5t-5.5 -15.5q-4 -8 -7 -16l-30 -60
q-4 -8 -11.5 -14t-18.5 -6h-20q-11 0 -12.5 6t2.5 14l40 80h-20q-25 0 -25 25v60q0 25 25 25h60q25 0 25 -25v-55z" />
    <glyph glyph-name="Tcaron" unicode="&#x164;" horiz-adv-x="605" 
d="M365 25q0 -25 -25 -25h-75q-25 0 -25 25v560h-205q-25 0 -25 25v65q0 25 25 25h535q25 0 25 -25v-65q0 -25 -25 -25h-205v-560zM275 770q-15 0 -23 7t-17 18l-95 125q-8 11 -2 18t17 7h55q11 0 19 -7t16 -18l55 -75h5l55 75q8 11 16 18t19 7h55q11 0 17 -7t-2 -18
l-95 -125q-9 -11 -17 -18t-23 -7h-55z" />
    <glyph glyph-name="tcaron" unicode="&#x165;" horiz-adv-x="450" 
d="M115 510v95q0 25 25 25h60q25 0 25 -25v-95h85q25 0 25 -25v-50q0 -25 -25 -25h-85v-250q0 -55 55 -55h55q25 0 25 -25v-55q0 -25 -25 -25h-70q-150 0 -150 150v260h-60q-25 0 -25 25v50q0 25 25 25h60zM490 615q0 -10 -2.5 -18.5t-5.5 -15.5q-4 -8 -7 -16l-30 -60
q-4 -8 -11.5 -14t-18.5 -6h-20q-11 0 -12.5 6t2.5 14l40 80h-25q-25 0 -25 25v65q0 25 25 25h65q25 0 25 -25v-60z" />
    <glyph glyph-name="Umacron" unicode="&#x16a;" horiz-adv-x="785" 
d="M695 170q0 -180 -180 -180h-245q-180 0 -180 180v505q0 25 25 25h75q25 0 25 -25v-500q0 -70 70 -70h215q70 0 70 70v500q0 25 25 25h75q25 0 25 -25v-505zM512 905q25 0 25 -25v-35q0 -25 -25 -25h-240q-25 0 -25 25v35q0 25 25 25h240z" />
    <glyph glyph-name="umacron" unicode="&#x16b;" 
d="M70 485q0 25 25 25h60q25 0 25 -25v-330q0 -30 17.5 -47.5t47.5 -17.5h85q38 0 61.5 23.5t23.5 61.5v310q0 25 25 25h60q25 0 25 -25v-460q0 -25 -25 -25h-60q-25 0 -25 25v25h-5q-8 -17 -22 -30q-12 -11 -31 -20.5t-47 -9.5h-80q-160 0 -160 160v335zM420 705
q25 0 25 -25v-35q0 -25 -25 -25h-240q-25 0 -25 25v35q0 25 25 25h240z" />
    <glyph glyph-name="Uring" unicode="&#x16e;" horiz-adv-x="785" 
d="M695 170q0 -180 -180 -180h-245q-180 0 -180 180v505q0 25 25 25h75q25 0 25 -25v-500q0 -70 70 -70h215q70 0 70 70v500q0 25 25 25h75q25 0 25 -25v-505zM280 885q0 45 27.5 72.5t72.5 27.5h25q45 0 72.5 -27.5t27.5 -72.5v-25q0 -45 -27.5 -72.5t-72.5 -27.5h-25
q-45 0 -72.5 27.5t-27.5 72.5v25zM435 885q0 15 -10 25t-25 10h-15q-15 0 -25 -10t-10 -25v-25q0 -15 10 -25t25 -10h15q15 0 25 10t10 25v25z" />
    <glyph glyph-name="uring" unicode="&#x16f;" 
d="M70 485q0 25 25 25h60q25 0 25 -25v-330q0 -30 17.5 -47.5t47.5 -17.5h85q38 0 61.5 23.5t23.5 61.5v310q0 25 25 25h60q25 0 25 -25v-460q0 -25 -25 -25h-60q-25 0 -25 25v25h-5q-8 -17 -22 -30q-12 -11 -31 -20.5t-47 -9.5h-80q-160 0 -160 160v335zM185 695
q0 45 27.5 72.5t72.5 27.5h25q45 0 72.5 -27.5t27.5 -72.5v-25q0 -45 -27.5 -72.5t-72.5 -27.5h-25q-45 0 -72.5 27.5t-27.5 72.5v25zM340 695q0 15 -10 25t-25 10h-15q-15 0 -25 -10t-10 -25v-25q0 -15 10 -25t25 -10h15q15 0 25 10t10 25v25z" />
    <glyph glyph-name="Uhungarumlaut" unicode="&#x170;" horiz-adv-x="785" 
d="M695 170q0 -180 -180 -180h-245q-180 0 -180 180v505q0 25 25 25h75q25 0 25 -25v-500q0 -70 70 -70h215q70 0 70 70v500q0 25 25 25h75q25 0 25 -25v-505zM350 795q-8 -11 -16 -18t-19 -7h-30q-25 0 -15 25l50 120q10 25 30 25h60q11 0 17 -7t-2 -18zM515 795
q-8 -11 -16 -18t-19 -7h-30q-25 0 -15 25l50 120q10 25 30 25h60q11 0 17 -7t-2 -18z" />
    <glyph glyph-name="uhungarumlaut" unicode="&#x171;" 
d="M70 485q0 25 25 25h60q25 0 25 -25v-330q0 -30 17.5 -47.5t47.5 -17.5h85q38 0 61.5 23.5t23.5 61.5v310q0 25 25 25h60q25 0 25 -25v-460q0 -25 -25 -25h-60q-25 0 -25 25v25h-5q-8 -17 -22 -30q-12 -11 -31 -20.5t-47 -9.5h-80q-160 0 -160 160v335zM255 595
q-8 -11 -16 -18t-19 -7h-30q-25 0 -15 25l50 120q10 25 30 25h60q11 0 17 -7t-2 -18zM420 595q-8 -11 -16 -18t-19 -7h-30q-25 0 -15 25l50 120q10 25 30 25h60q11 0 17 -7t-2 -18z" />
    <glyph glyph-name="Uogonek" unicode="&#x172;" horiz-adv-x="785" 
d="M695 170q0 -180 -180 -180h-55q-26 -15 -45 -33q-17 -15 -31 -34.5t-14 -42.5q0 -40 45 -40h40q8 0 14 -6t6 -14v-35q0 -8 -6 -14t-14 -6h-50q-49 0 -79.5 30t-30.5 75q0 28 14 50.5t31 38t31 23.5l14 8h-115q-180 0 -180 180v505q0 25 25 25h75q25 0 25 -25v-500
q0 -70 70 -70h215q70 0 70 70v500q0 25 25 25h75q25 0 25 -25v-505z" />
    <glyph glyph-name="uogonek" unicode="&#x173;" 
d="M440 0q-25 0 -25 25v25h-5q-8 -17 -22 -30q-12 -11 -31 -20.5t-47 -9.5h-80q-160 0 -160 160v335q0 25 25 25h60q25 0 25 -25v-330q0 -30 17.5 -47.5t47.5 -17.5h85q38 0 61.5 23.5t23.5 61.5v310q0 25 25 25h60q25 0 25 -25v-460q0 -25 -25 -25q-30 -19 -53 -38
q-20 -17 -36 -38t-16 -44q0 -40 45 -40h40q8 0 14 -6t6 -14v-35q0 -8 -6 -14t-14 -6h-50q-49 0 -79.5 30t-30.5 75q0 32 18.5 56t41.5 41q26 19 60 33z" />
    <glyph glyph-name="Ydieresis" unicode="&#x178;" horiz-adv-x="658" 
d="M294 0q-25 0 -25 25v215l-265 435q-5 8 -2.5 16.5t17.5 8.5h90q15 0 24 -7t16 -18l180 -300l180 300q7 11 16 18t24 7h90q15 0 17.5 -8.5t-2.5 -16.5l-265 -435v-215q0 -25 -25 -25h-70zM290 835q0 -25 -25 -25h-60q-25 0 -25 25v60q0 25 25 25h60q25 0 25 -25v-60z
M485 835q0 -25 -25 -25h-60q-25 0 -25 25v60q0 25 25 25h60q25 0 25 -25v-60z" />
    <glyph glyph-name="Zacute" unicode="&#x179;" horiz-adv-x="630" 
d="M440 585h-375q-25 0 -25 25v65q0 25 25 25h510q25 0 25 -25v-75q0 -19 -8.5 -30.5t-16.5 -19.5l-385 -430v-5h385q25 0 25 -25v-65q0 -25 -25 -25h-520q-25 0 -25 25v75q0 19 8.5 30.5t16.5 19.5l385 430v5zM380 795q-8 -11 -16 -18t-19 -7h-45q-25 0 -15 25l50 120
q10 25 30 25h75q11 0 17 -7t-2 -18z" />
    <glyph glyph-name="zacute" unicode="&#x17a;" horiz-adv-x="485" 
d="M310 410h-245q-25 0 -25 25v50q0 25 25 25h365q25 0 25 -25v-60q0 -19 -8.5 -30.5t-16.5 -19.5l-255 -270v-5h255q25 0 25 -25v-50q0 -25 -25 -25h-375q-25 0 -25 25v60q0 19 8.5 30.5t16.5 19.5l255 270v5zM300 595q-8 -11 -16 -18t-19 -7h-45q-25 0 -15 25l50 120
q10 25 30 25h75q11 0 17 -7t-2 -18z" />
    <glyph glyph-name="Zdotaccent" unicode="&#x17b;" horiz-adv-x="630" 
d="M440 585h-375q-25 0 -25 25v65q0 25 25 25h510q25 0 25 -25v-75q0 -19 -8.5 -30.5t-16.5 -19.5l-385 -430v-5h385q25 0 25 -25v-65q0 -25 -25 -25h-520q-25 0 -25 25v75q0 19 8.5 30.5t16.5 19.5l385 430v5zM370 835q0 -25 -25 -25h-60q-25 0 -25 25v60q0 25 25 25h60
q25 0 25 -25v-60z" />
    <glyph glyph-name="zdotaccent" unicode="&#x17c;" horiz-adv-x="485" 
d="M310 410h-245q-25 0 -25 25v50q0 25 25 25h365q25 0 25 -25v-60q0 -19 -8.5 -30.5t-16.5 -19.5l-255 -270v-5h255q25 0 25 -25v-50q0 -25 -25 -25h-375q-25 0 -25 25v60q0 19 8.5 30.5t16.5 19.5l255 270v5zM305 635q0 -25 -25 -25h-60q-25 0 -25 25v60q0 25 25 25h60
q25 0 25 -25v-60z" />
    <glyph glyph-name="Zcaron" unicode="&#x17d;" horiz-adv-x="630" 
d="M440 585h-375q-25 0 -25 25v65q0 25 25 25h510q25 0 25 -25v-75q0 -19 -8.5 -30.5t-16.5 -19.5l-385 -430v-5h385q25 0 25 -25v-65q0 -25 -25 -25h-520q-25 0 -25 25v75q0 19 8.5 30.5t16.5 19.5l385 430v5zM295 770q-15 0 -23 7t-17 18l-95 125q-8 11 -2 18t17 7h55
q11 0 19 -7t16 -18l55 -75h5l55 75q8 11 16 18t19 7h55q11 0 17 -7t-2 -18l-95 -125q-9 -11 -17 -18t-23 -7h-55z" />
    <glyph glyph-name="zcaron" unicode="&#x17e;" horiz-adv-x="485" 
d="M310 410h-245q-25 0 -25 25v50q0 25 25 25h365q25 0 25 -25v-60q0 -19 -8.5 -30.5t-16.5 -19.5l-255 -270v-5h255q25 0 25 -25v-50q0 -25 -25 -25h-375q-25 0 -25 25v60q0 19 8.5 30.5t16.5 19.5l255 270v5zM220 570q-15 0 -23 7t-17 18l-95 125q-8 11 -2 18t17 7h55
q11 0 19 -7t16 -18l55 -75h5l55 75q8 11 16 18t19 7h55q11 0 17 -7t-2 -18l-95 -125q-9 -11 -17 -18t-23 -7h-55z" />
    <glyph glyph-name="florin" unicode="&#x192;" horiz-adv-x="360" 
d="M60 -95q55 0 55 55v420h-60q-25 0 -25 25v50q0 25 25 25h60v70q0 150 150 150h70q25 0 25 -25v-55q0 -25 -25 -25h-55q-55 0 -55 -55v-60h85q25 0 25 -25v-50q0 -25 -25 -25h-85v-430q0 -150 -150 -150h-70q-25 0 -25 25v55q0 25 25 25h55z" />
    <glyph glyph-name="Scommaaccent" unicode="&#x218;" horiz-adv-x="705" 
d="M645 170q0 -180 -180 -180h-225q-180 0 -180 180v35q0 25 25 25h75q25 0 25 -25v-30q0 -70 70 -70h195q70 0 70 70v25q0 23 -13.5 38t-36.5 22l-285 90q-49 15 -79.5 49t-30.5 91v40q0 180 180 180h200q180 0 180 -180v-35q0 -25 -25 -25h-75q-25 0 -25 25v30
q0 70 -70 70h-170q-70 0 -70 -70v-15q0 -23 13.5 -37.5t36.5 -22.5l285 -90q49 -16 79.5 -49.5t30.5 -90.5v-50zM415 -160q0 -10 -2.5 -18.5t-5.5 -15.5q-4 -8 -7 -16l-30 -60q-4 -8 -11.5 -14t-18.5 -6h-20q-11 0 -12.5 6t2.5 14l40 80h-20q-25 0 -25 25v60q0 25 25 25h60
q25 0 25 -25v-55z" />
    <glyph glyph-name="scommaaccent" unicode="&#x219;" horiz-adv-x="545" 
d="M385 140q0 31 -30 40l-205 65q-38 12 -64 41.5t-26 78.5v5q0 150 150 150h125q150 0 150 -150v-10q0 -25 -25 -25h-60q-25 0 -25 25v5q0 55 -55 55h-105q-19 0 -32 -13t-13 -32q0 -31 30 -40l205 -65q38 -12 64 -41.5t26 -78.5v-10q0 -150 -150 -150h-145
q-150 0 -150 150v10q0 25 25 25h60q25 0 25 -25v-5q0 -55 55 -55h120q23 0 36.5 13.5t13.5 36.5zM330 -160q0 -10 -2.5 -18.5t-5.5 -15.5q-4 -8 -7 -16l-30 -60q-4 -8 -11.5 -14t-18.5 -6h-20q-11 0 -12.5 6t2.5 14l40 80h-20q-25 0 -25 25v60q0 25 25 25h60q25 0 25 -25
v-55z" />
    <glyph glyph-name="afii57929" unicode="&#x2bc;" horiz-adv-x="170" 
d="M140 620q0 -10 -2.5 -18.5t-5.5 -15.5q-4 -8 -7 -16l-30 -60q-4 -8 -11.5 -14t-18.5 -6h-20q-11 0 -12.5 6t2.5 14l40 80h-20q-25 0 -25 25v60q0 25 25 25h60q25 0 25 -25v-55z" />
    <glyph glyph-name="circumflex" unicode="&#x2c6;" horiz-adv-x="395" 
d="M225 700q15 0 23 -7t17 -18l95 -125q8 -11 2 -18t-17 -7h-55q-11 0 -19 7t-16 18l-55 75h-5l-55 -75q-8 -11 -16 -18t-19 -7h-55q-11 0 -17 7t2 18l95 125q9 11 17 18t23 7h55z" />
    <glyph glyph-name="caron" unicode="&#x2c7;" horiz-adv-x="395" 
d="M170 525q-15 0 -23 7t-17 18l-95 125q-8 11 -2 18t17 7h55q11 0 19 -7t16 -18l55 -75h5l55 75q8 11 16 18t19 7h55q11 0 17 -7t-2 -18l-95 -125q-9 -11 -17 -18t-23 -7h-55z" />
    <glyph glyph-name="breve" unicode="&#x2d8;" horiz-adv-x="375" 
d="M155 540q-125 0 -125 125v10q0 25 25 25h50q25 0 25 -25v-15q0 -15 10 -25t25 -10h45q15 0 25 10t10 25v15q0 25 25 25h50q25 0 25 -25v-10q0 -125 -125 -125h-65z" />
    <glyph glyph-name="dotaccent" unicode="&#x2d9;" horiz-adv-x="170" 
d="M140 615q0 -25 -25 -25h-60q-25 0 -25 25v60q0 25 25 25h60q25 0 25 -25v-60z" />
    <glyph glyph-name="ring" unicode="&#x2da;" horiz-adv-x="285" 
d="M30 600q0 45 27.5 72.5t72.5 27.5h25q45 0 72.5 -27.5t27.5 -72.5v-25q0 -45 -27.5 -72.5t-72.5 -27.5h-25q-45 0 -72.5 27.5t-27.5 72.5v25zM185 600q0 15 -10 25t-25 10h-15q-15 0 -25 -10t-10 -25v-25q0 -15 10 -25t25 -10h15q15 0 25 10t10 25v25z" />
    <glyph glyph-name="ogonek" unicode="&#x2db;" horiz-adv-x="240" 
d="M210 0q-30 -19 -53 -38q-20 -17 -36 -38t-16 -44q0 -40 45 -40h40q8 0 14 -6t6 -14v-35q0 -8 -6 -14t-14 -6h-50q-49 0 -79.5 30t-30.5 75q0 32 17 56t38 41q24 19 55 33h70z" />
    <glyph glyph-name="tilde" unicode="&#x2dc;" horiz-adv-x="340" 
d="M310 615q0 -30 -20 -50t-50 -20q-24 0 -41.5 10t-30.5 22.5t-22 22.5t-16 10q-8 0 -14 -7t-6 -18v-20q0 -8 -6 -14t-14 -6h-40q-8 0 -14 6t-6 14v65q0 30 20 50t50 20q24 0 41.5 -10t30.5 -22.5t21.5 -22.5t16.5 -10t14 7t6 18v20q0 8 6 14t14 6h40q8 0 14 -6t6 -14v-65z
" />
    <glyph glyph-name="hungarumlaut" unicode="&#x2dd;" horiz-adv-x="388" 
d="M113 555q-8 -11 -16 -18t-19 -7h-30q-25 0 -15 25l50 120q10 25 30 25h60q11 0 17 -7t-2 -18zM278 555q-8 -11 -16 -18t-19 -7h-30q-25 0 -15 25l50 120q10 25 30 25h60q11 0 17 -7t-2 -18z" />
    <glyph glyph-name="afii10023" unicode="&#x401;" horiz-adv-x="680" 
d="M320 820q0 -25 -25 -25h-60q-25 0 -25 25v60q0 25 25 25h60q25 0 25 -25v-60zM515 820q0 -25 -25 -25h-60q-25 0 -25 25v60q0 25 25 25h60q25 0 25 -25v-60zM215 415h310q25 0 25 -25v-65q0 -25 -25 -25h-310v-185h410q25 0 25 -25v-65q0 -25 -25 -25h-510q-25 0 -25 25
v650q0 25 25 25h500q25 0 25 -25v-65q0 -25 -25 -25h-400v-170z" />
    <glyph glyph-name="afii10051" unicode="&#x402;" horiz-adv-x="765" 
d="M510 95q70 0 70 70v80q0 70 -70 70h-215v-290q0 -25 -25 -25h-75q-25 0 -25 25v560h-145q-25 0 -25 25v65q0 25 25 25h420q25 0 25 -25v-65q0 -25 -25 -25h-150v-155h230q180 0 180 -180v-90q0 -180 -180 -180h-50q-25 0 -25 25v65q0 25 25 25h35z" />
    <glyph glyph-name="afii10052" unicode="&#x403;" horiz-adv-x="590" 
d="M215 25q0 -25 -25 -25h-75q-25 0 -25 25v650q0 25 25 25h450q25 0 25 -25v-65q0 -25 -25 -25h-350v-560zM390 795q-8 -11 -16 -18t-19 -7h-45q-25 0 -15 25l50 120q10 25 30 25h75q11 0 17 -7t-2 -18z" />
    <glyph glyph-name="afii10053" unicode="&#x404;" horiz-adv-x="765" 
d="M430 415q25 0 25 -25v-65q0 -25 -25 -25h-225v-125q0 -70 70 -70h225q70 0 70 70v30q0 25 25 25h75q25 0 25 -25v-35q0 -180 -180 -180h-255q-180 0 -180 180v360q0 180 180 180h255q180 0 180 -180v-35q0 -25 -25 -25h-75q-25 0 -25 25v30q0 70 -70 70h-225
q-70 0 -70 -70v-110h225z" />
    <glyph glyph-name="afii10054" unicode="&#x405;" horiz-adv-x="705" 
d="M645 170q0 -180 -180 -180h-225q-180 0 -180 180v35q0 25 25 25h75q25 0 25 -25v-30q0 -70 70 -70h195q70 0 70 70v25q0 23 -13.5 38t-36.5 22l-285 90q-49 15 -79.5 49t-30.5 91v40q0 180 180 180h200q180 0 180 -180v-35q0 -25 -25 -25h-75q-25 0 -25 25v30
q0 70 -70 70h-170q-70 0 -70 -70v-15q0 -23 13.5 -37.5t36.5 -22.5l285 -90q49 -16 79.5 -49.5t30.5 -90.5v-50z" />
    <glyph glyph-name="afii10055" unicode="&#x406;" horiz-adv-x="305" 
d="M90 675q0 25 25 25h75q25 0 25 -25v-650q0 -25 -25 -25h-75q-25 0 -25 25v650z" />
    <glyph glyph-name="afii10056" unicode="&#x407;" horiz-adv-x="305" 
d="M90 675q0 25 25 25h75q25 0 25 -25v-650q0 -25 -25 -25h-75q-25 0 -25 25v650zM116 815q0 -25 -25 -25h-60q-25 0 -25 25v60q0 25 25 25h60q25 0 25 -25v-60zM311 815q0 -25 -25 -25h-60q-25 0 -25 25v60q0 25 25 25h60q25 0 25 -25v-60z" />
    <glyph glyph-name="afii10057" unicode="&#x408;" horiz-adv-x="670" 
d="M455 675q0 25 25 25h75q25 0 25 -25v-505q0 -180 -180 -180h-190q-180 0 -180 180v55q0 25 25 25h75q25 0 25 -25v-50q0 -70 70 -70h160q70 0 70 70v500z" />
    <glyph glyph-name="afii10058" unicode="&#x409;" horiz-adv-x="1110" 
d="M540 0q-25 0 -25 25v560h-185l-90 -430q-17 -79 -61.5 -122t-123.5 -43h-30q-25 0 -25 25v65q0 25 25 25h20q30 0 46.5 15t23.5 45l110 510q5 25 30 25h360q25 0 25 -25v-190h230q180 0 180 -180v-125q0 -180 -180 -180h-330zM640 370v-255h215q70 0 70 70v115
q0 70 -70 70h-215z" />
    <glyph glyph-name="afii10059" unicode="&#x40a;" horiz-adv-x="1125" 
d="M90 675q0 25 25 25h75q25 0 25 -25v-230h300v230q0 25 25 25h75q25 0 25 -25v-230h245q180 0 180 -180v-85q0 -180 -180 -180h-345q-25 0 -25 25v305h-300v-305q0 -25 -25 -25h-75q-25 0 -25 25v650zM640 330v-215h230q70 0 70 70v75q0 70 -70 70h-230z" />
    <glyph glyph-name="afii10060" unicode="&#x40b;" horiz-adv-x="775" 
d="M445 700q25 0 25 -25v-65q0 -25 -25 -25h-150v-155h230q180 0 180 -180v-225q0 -25 -25 -25h-75q-25 0 -25 25v220q0 70 -70 70h-215v-290q0 -25 -25 -25h-75q-25 0 -25 25v560h-145q-25 0 -25 25v65q0 25 25 25h420z" />
    <glyph glyph-name="afii10061" unicode="&#x40c;" horiz-adv-x="703" 
d="M215 25q0 -25 -25 -25h-75q-25 0 -25 25v650q0 25 25 25h75q25 0 25 -25v-255h165l135 255q6 11 15.5 18t24.5 7h90q15 0 17 -8.5t-2 -16.5l-170 -305l190 -345q4 -8 2 -16.5t-17 -8.5h-90q-15 0 -24.5 7t-15.5 18l-150 280h-170v-280zM425 795q-8 -11 -16 -18t-19 -7
h-45q-25 0 -15 25l50 120q10 25 30 25h75q11 0 17 -7t-2 -18z" />
    <glyph glyph-name="afii10062" unicode="&#x40e;" horiz-adv-x="636" 
d="M13 675q-5 11 -0.5 18t15.5 7h95q11 0 18 -7t12 -18l175 -365h5l160 365q10 25 30 25h95q11 0 15.5 -7t-0.5 -18l-230 -505q-21 -45 -43 -79t-48.5 -56.5t-58 -33.5t-70.5 -11h-30q-25 0 -25 25v65q0 25 25 25h30q30 0 49.5 17.5t30.5 47.5zM295 785q-125 0 -125 125v10
q0 25 25 25h50q25 0 25 -25v-15q0 -15 10 -25t25 -10h45q15 0 25 10t10 25v15q0 25 25 25h50q25 0 25 -25v-10q0 -125 -125 -125h-65z" />
    <glyph glyph-name="afii10145" unicode="&#x40f;" horiz-adv-x="775" 
d="M325 0h-210q-25 0 -25 25v650q0 25 25 25h75q25 0 25 -25v-560h345v560q0 25 25 25h75q25 0 25 -25v-650q0 -25 -25 -25h-210v-105q0 -25 -25 -25h-75q-25 0 -25 25v105z" />
    <glyph glyph-name="afii10017" unicode="&#x410;" horiz-adv-x="696" 
d="M493 165h-290l-50 -140q-8 -25 -30 -25h-95q-25 0 -15 25l250 650q10 25 30 25h110q20 0 30 -25l250 -650q10 -25 -15 -25h-95q-22 0 -30 25zM453 280l-103 275h-4l-103 -275h210z" />
    <glyph glyph-name="afii10018" unicode="&#x411;" horiz-adv-x="735" 
d="M215 445h280q180 0 180 -180v-85q0 -180 -180 -180h-380q-25 0 -25 25v650q0 25 25 25h485q25 0 25 -25v-65q0 -25 -25 -25h-385v-140zM480 115q70 0 70 70v75q0 70 -70 70h-265v-215h265z" />
    <glyph glyph-name="afii10019" unicode="&#x412;" horiz-adv-x="735" 
d="M510 515q0 70 -70 70h-225v-155h225q70 0 70 70v15zM675 180q0 -180 -180 -180h-380q-25 0 -25 25v650q0 25 25 25h340q180 0 180 -180v-20q0 -36 -11 -58t-24 -35q-16 -15 -35 -22v-5q30 -7 55 -24q20 -14 37.5 -41t17.5 -70v-65zM550 245q0 70 -70 70h-265v-200h265
q70 0 70 70v60z" />
    <glyph glyph-name="afii10020" unicode="&#x413;" horiz-adv-x="590" 
d="M215 25q0 -25 -25 -25h-75q-25 0 -25 25v650q0 25 25 25h450q25 0 25 -25v-65q0 -25 -25 -25h-350v-560z" />
    <glyph glyph-name="afii10021" unicode="&#x414;" horiz-adv-x="750" 
d="M300 585q-26 -118 -50 -235t-50 -235h315v470h-215zM195 675q5 25 30 25h390q25 0 25 -25v-560h55q25 0 25 -25v-195q0 -25 -25 -25h-75q-25 0 -25 25v105h-470v-105q0 -25 -25 -25h-75q-25 0 -25 25v195q0 25 25 25h50z" />
    <glyph glyph-name="afii10022" unicode="&#x415;" horiz-adv-x="680" 
d="M215 415h310q25 0 25 -25v-65q0 -25 -25 -25h-310v-185h410q25 0 25 -25v-65q0 -25 -25 -25h-510q-25 0 -25 25v650q0 25 25 25h500q25 0 25 -25v-65q0 -25 -25 -25h-400v-170z" />
    <glyph glyph-name="afii10024" unicode="&#x416;" horiz-adv-x="1001" 
d="M438 675q0 25 25 25h75q25 0 25 -25v-255h115l135 255q6 11 15.5 18t24.5 7h90q15 0 17 -8.5t-2 -16.5l-170 -305l190 -345q4 -8 2 -16.5t-17 -8.5h-90q-15 0 -24.5 7t-15.5 18l-150 280h-120v-280q0 -25 -25 -25h-75q-25 0 -25 25v280h-120l-150 -280q-6 -11 -15.5 -18
t-24.5 -7h-90q-15 0 -17 8.5t2 16.5l190 345l-170 305q-4 8 -2 16.5t17 8.5h90q15 0 24.5 -7t15.5 -18l135 -255h115v255z" />
    <glyph glyph-name="afii10025" unicode="&#x417;" horiz-adv-x="715" 
d="M315 300q-25 0 -25 25v65q0 25 25 25h130q70 0 70 70v40q0 70 -70 70h-185q-70 0 -70 -70v-30q0 -25 -25 -25h-75q-25 0 -25 25v35q0 180 180 180h215q180 0 180 -180v-45q0 -36 -14 -58t-31 -35q-20 -15 -45 -22v-5q28 -7 50 -24q19 -14 34.5 -41t15.5 -70v-60
q0 -180 -180 -180h-235q-180 0 -180 180v35q0 25 25 25h75q25 0 25 -25v-30q0 -70 70 -70h205q70 0 70 70v55q0 70 -70 70h-140z" />
    <glyph glyph-name="afii10026" unicode="&#x418;" horiz-adv-x="790" 
d="M570 510l-315 -485q-8 -11 -16.5 -18t-23.5 -7h-100q-25 0 -25 25v650q0 25 25 25h75q25 0 25 -25v-485h5l315 485q8 11 16.5 18t23.5 7h100q25 0 25 -25v-650q0 -25 -25 -25h-75q-25 0 -25 25v485h-5z" />
    <glyph glyph-name="afii10027" unicode="&#x419;" horiz-adv-x="790" 
d="M425 890q40 0 40 40v5q0 25 25 25h60q25 0 25 -25v-10q0 -135 -135 -135h-90q-135 0 -135 135v10q0 25 25 25h60q25 0 25 -25v-5q0 -40 40 -40h60zM570 510l-315 -485q-8 -11 -16.5 -18t-23.5 -7h-100q-25 0 -25 25v650q0 25 25 25h75q25 0 25 -25v-485h5l315 485
q8 11 16.5 18t23.5 7h100q25 0 25 -25v-650q0 -25 -25 -25h-75q-25 0 -25 25v485h-5z" />
    <glyph glyph-name="afii10028" unicode="&#x41a;" horiz-adv-x="703" 
d="M215 25q0 -25 -25 -25h-75q-25 0 -25 25v650q0 25 25 25h75q25 0 25 -25v-255h165l135 255q6 11 15.5 18t24.5 7h90q15 0 17 -8.5t-2 -16.5l-170 -305l190 -345q4 -8 2 -16.5t-17 -8.5h-90q-15 0 -24.5 7t-15.5 18l-150 280h-170v-280z" />
    <glyph glyph-name="afii10029" unicode="&#x41b;" horiz-adv-x="760" 
d="M45 105q30 0 46.5 15t23.5 45l110 510q5 25 30 25h390q25 0 25 -25v-650q0 -25 -25 -25h-75q-25 0 -25 25v560h-215l-90 -430q-17 -79 -61.5 -122t-123.5 -43h-30q-25 0 -25 25v65q0 25 25 25h20z" />
    <glyph glyph-name="afii10030" unicode="&#x41c;" horiz-adv-x="985" 
d="M465 0q-15 0 -22.5 7t-12.5 18l-210 450h-5v-450q0 -25 -25 -25h-75q-25 0 -25 25v650q0 25 25 25h105q15 0 22.5 -7t12.5 -18l235 -500h5l235 500q5 11 12.5 18t22.5 7h105q25 0 25 -25v-650q0 -25 -25 -25h-75q-25 0 -25 25v450h-5l-210 -450q-5 -11 -12.5 -18
t-22.5 -7h-55z" />
    <glyph glyph-name="afii10031" unicode="&#x41d;" horiz-adv-x="770" 
d="M90 675q0 25 25 25h75q25 0 25 -25v-265h340v265q0 25 25 25h75q25 0 25 -25v-650q0 -25 -25 -25h-75q-25 0 -25 25v270h-340v-270q0 -25 -25 -25h-75q-25 0 -25 25v650z" />
    <glyph glyph-name="afii10032" unicode="&#x41e;" horiz-adv-x="790" 
d="M260 -10q-180 0 -180 180v360q0 180 180 180h270q180 0 180 -180v-360q0 -180 -180 -180h-270zM515 105q70 0 70 70v350q0 70 -70 70h-240q-70 0 -70 -70v-350q0 -70 70 -70h240z" />
    <glyph glyph-name="afii10033" unicode="&#x41f;" horiz-adv-x="770" 
d="M680 25q0 -25 -25 -25h-75q-25 0 -25 25v560h-340v-560q0 -25 -25 -25h-75q-25 0 -25 25v650q0 25 25 25h540q25 0 25 -25v-650z" />
    <glyph glyph-name="afii10034" unicode="&#x420;" horiz-adv-x="735" 
d="M90 675q0 25 25 25h380q180 0 180 -180v-130q0 -180 -180 -180h-280v-185q0 -25 -25 -25h-75q-25 0 -25 25v650zM215 585v-260h265q70 0 70 70v120q0 70 -70 70h-265z" />
    <glyph glyph-name="afii10035" unicode="&#x421;" horiz-adv-x="765" 
d="M695 495q0 -25 -25 -25h-75q-25 0 -25 25v30q0 70 -70 70h-225q-70 0 -70 -70v-350q0 -70 70 -70h225q70 0 70 70v30q0 25 25 25h75q25 0 25 -25v-35q0 -180 -180 -180h-255q-180 0 -180 180v360q0 180 180 180h255q180 0 180 -180v-35z" />
    <glyph glyph-name="afii10036" unicode="&#x422;" horiz-adv-x="605" 
d="M365 25q0 -25 -25 -25h-75q-25 0 -25 25v560h-205q-25 0 -25 25v65q0 25 25 25h535q25 0 25 -25v-65q0 -25 -25 -25h-205v-560z" />
    <glyph glyph-name="afii10037" unicode="&#x423;" horiz-adv-x="636" 
d="M13 675q-5 11 -0.5 18t15.5 7h95q11 0 18 -7t12 -18l175 -365h5l160 365q10 25 30 25h95q11 0 15.5 -7t-0.5 -18l-230 -505q-21 -45 -43 -79t-48.5 -56.5t-58 -33.5t-70.5 -11h-30q-25 0 -25 25v65q0 25 25 25h30q30 0 49.5 17.5t30.5 47.5z" />
    <glyph glyph-name="afii10038" unicode="&#x424;" horiz-adv-x="945" 
d="M410 735q0 25 25 25h75q25 0 25 -25v-70h160q180 0 180 -180v-260q0 -180 -180 -180h-160v-70q0 -25 -25 -25h-75q-25 0 -25 25v70h-160q-180 0 -180 180v260q0 180 180 180h160v70zM680 160q70 0 70 70v250q0 70 -70 70h-145v-390h145zM265 550q-70 0 -70 -70v-250
q0 -70 70 -70h145v390h-145z" />
    <glyph glyph-name="afii10039" unicode="&#x425;" horiz-adv-x="648" 
d="M39 675q-5 8 -2.5 16.5t17.5 8.5h90q15 0 23.5 -7t16.5 -18l140 -205l140 205q8 11 16.5 18t23.5 7h90q15 0 17.5 -8.5t-2.5 -16.5l-205 -305l230 -345q5 -8 2.5 -16.5t-17.5 -8.5h-90q-15 0 -23.5 7t-16.5 18l-165 245l-165 -245q-8 -11 -16.5 -18t-23.5 -7h-90
q-15 0 -17.5 8.5t2.5 16.5l230 345z" />
    <glyph glyph-name="afii10040" unicode="&#x426;" horiz-adv-x="753" 
d="M655 90l90 -95q8 -8 8 -17.5t-8 -17.5l-55 -50q-8 -8 -18 -8t-17 8l-85 90h-455q-25 0 -25 25v650q0 25 25 25h75q25 0 25 -25v-560h315v560q0 25 25 25h75q25 0 25 -25v-585z" />
    <glyph glyph-name="afii10041" unicode="&#x427;" horiz-adv-x="735" 
d="M205 415q0 -70 70 -70h245v330q0 25 25 25h75q25 0 25 -25v-650q0 -25 -25 -25h-75q-25 0 -25 25v205h-260q-180 0 -180 180v265q0 25 25 25h75q25 0 25 -25v-260z" />
    <glyph glyph-name="afii10042" unicode="&#x428;" horiz-adv-x="1025" 
d="M90 675q0 25 25 25h75q25 0 25 -25v-560h235v560q0 25 25 25h75q25 0 25 -25v-560h235v560q0 25 25 25h75q25 0 25 -25v-650q0 -25 -25 -25h-795q-25 0 -25 25v650z" />
    <glyph glyph-name="afii10043" unicode="&#x429;" horiz-adv-x="1033" 
d="M90 675q0 25 25 25h75q25 0 25 -25v-560h235v560q0 25 25 25h75q25 0 25 -25v-560h235v560q0 25 25 25h75q25 0 25 -25v-585l90 -95q8 -8 8 -17.5t-8 -17.5l-55 -50q-8 -8 -17.5 -8t-17.5 8l-85 90h-735q-25 0 -25 25v650z" />
    <glyph glyph-name="afii10044" unicode="&#x42a;" horiz-adv-x="750" 
d="M155 585h-130q-25 0 -25 25v65q0 25 25 25h230q25 0 25 -25v-190h230q180 0 180 -180v-125q0 -180 -180 -180h-330q-25 0 -25 25v560zM495 115q70 0 70 70v115q0 70 -70 70h-215v-255h215z" />
    <glyph glyph-name="afii10045" unicode="&#x42b;" horiz-adv-x="945" 
d="M90 675q0 25 25 25h75q25 0 25 -25v-190h230q180 0 180 -180v-125q0 -180 -180 -180h-330q-25 0 -25 25v650zM430 115q70 0 70 70v115q0 70 -70 70h-215v-255h215zM730 675q0 25 25 25h75q25 0 25 -25v-650q0 -25 -25 -25h-75q-25 0 -25 25v650z" />
    <glyph glyph-name="afii10046" unicode="&#x42c;" horiz-adv-x="725" 
d="M90 675q0 25 25 25h75q25 0 25 -25v-190h270q180 0 180 -180v-125q0 -180 -180 -180h-370q-25 0 -25 25v650zM470 115q70 0 70 70v115q0 70 -70 70h-255v-255h255z" />
    <glyph glyph-name="afii10047" unicode="&#x42d;" horiz-adv-x="765" 
d="M560 415v110q0 70 -70 70h-225q-70 0 -70 -70v-30q0 -25 -25 -25h-75q-25 0 -25 25v35q0 180 180 180h255q180 0 180 -180v-360q0 -180 -180 -180h-255q-180 0 -180 180v35q0 25 25 25h75q25 0 25 -25v-30q0 -70 70 -70h225q70 0 70 70v125h-225q-25 0 -25 25v65
q0 25 25 25h225z" />
    <glyph glyph-name="afii10048" unicode="&#x42e;" horiz-adv-x="1025" 
d="M535 -10q-180 0 -180 180v120h-140v-265q0 -25 -25 -25h-75q-25 0 -25 25v650q0 25 25 25h75q25 0 25 -25v-270h140v125q0 180 180 180h230q180 0 180 -180v-360q0 -180 -180 -180h-230zM750 105q70 0 70 70v350q0 70 -70 70h-200q-70 0 -70 -70v-350q0 -70 70 -70h200z
" />
    <glyph glyph-name="afii10049" unicode="&#x42f;" horiz-adv-x="743" 
d="M653 25q0 -25 -25 -25h-75q-25 0 -25 25v205h-215l-110 -205q-6 -11 -15.5 -18t-24.5 -7h-85q-15 0 -17 8.5t2 16.5l120 215q-31 8 -55 29q-21 18 -38 51t-17 90v110q0 180 180 180h375q25 0 25 -25v-650zM268 585q-70 0 -70 -70v-100q0 -70 70 -70h260v240h-260z" />
    <glyph glyph-name="afii10065" unicode="&#x430;" horiz-adv-x="560" 
d="M295 90q38 0 61.5 23.5t23.5 61.5v35h-165q-55 0 -55 -55v-10q0 -55 55 -55h80zM490 25q0 -25 -25 -25h-60q-25 0 -25 25v25h-5q-8 -17 -22 -30q-12 -11 -31 -20.5t-47 -9.5h-75q-150 0 -150 150v15q0 150 150 150h180v50q0 30 -17.5 47.5t-47.5 17.5h-70q-55 0 -55 -55
q0 -25 -25 -25h-60q-25 0 -25 25q0 75 40.5 115t119.5 40h90q160 0 160 -160v-335z" />
    <glyph glyph-name="afii10066" unicode="&#x431;" horiz-adv-x="575" 
d="M175 435h180q160 0 160 -160v-125q0 -160 -160 -160h-130q-160 0 -160 160v325q0 75 38.5 114t121.5 46l125 10q15 2 25 11t10 24v5q0 25 25 25h60q25 0 25 -25v-10q0 -119 -130 -130l-125 -10q-30 -2 -47.5 -20.5t-17.5 -44.5v-35zM175 335v-180q0 -30 17.5 -47.5
t47.5 -17.5h100q30 0 47.5 17.5t17.5 47.5v115q0 30 -17.5 47.5t-47.5 17.5h-165z" />
    <glyph glyph-name="afii10067" unicode="&#x432;" horiz-adv-x="560" 
d="M70 485q0 25 25 25h245q72 0 108.5 -36t36.5 -104q0 -30 -9.5 -49.5t-20.5 -30.5q-13 -13 -30 -20v-5q25 -8 45 -23q17 -14 31 -36.5t14 -60.5q0 -145 -150 -145h-270q-25 0 -25 25v460zM180 210v-110h170q55 0 55 55t-55 55h-170zM325 310q23 0 36.5 13.5t13.5 36.5
t-13.5 36.5t-36.5 13.5h-145v-100h145z" />
    <glyph glyph-name="afii10068" unicode="&#x433;" horiz-adv-x="445" 
d="M70 485q0 25 25 25h325q25 0 25 -25v-50q0 -25 -25 -25h-240v-385q0 -25 -25 -25h-60q-25 0 -25 25v460z" />
    <glyph glyph-name="afii10069" unicode="&#x434;" horiz-adv-x="570" 
d="M0 75q0 25 25 25h35l80 385q5 25 30 25h290q25 0 25 -25v-385h40q25 0 25 -25v-160q0 -25 -25 -25h-60q-25 0 -25 25v85h-330v-85q0 -25 -25 -25h-60q-25 0 -25 25v160zM375 100v310h-140l-65 -310h205z" />
    <glyph glyph-name="afii10070" unicode="&#x435;" horiz-adv-x="585" 
d="M410 145q0 25 25 25h60q25 0 25 -25q0 -75 -40.5 -115t-119.5 -40h-135q-160 0 -160 160v210q0 160 160 160h135q160 0 160 -160v-120q0 -25 -25 -25h-320v-60q0 -30 17.5 -47.5t47.5 -17.5h115q55 0 55 55zM175 310h235v45q0 30 -17.5 47.5t-47.5 17.5h-105
q-30 0 -47.5 -17.5t-17.5 -47.5v-45z" />
    <glyph glyph-name="afii10072" unicode="&#x436;" horiz-adv-x="756" 
d="M433 320h75l85 165q6 11 15.5 18t24.5 7h70q15 0 17 -8.5t-2 -16.5l-120 -215l135 -245q4 -8 2 -16.5t-17 -8.5h-70q-15 0 -24.5 7t-15.5 18l-100 195h-75v-195q0 -25 -25 -25h-60q-25 0 -25 25v195h-75l-100 -195q-6 -11 -15.5 -18t-24.5 -7h-70q-15 0 -17 8.5t2 16.5
l135 245l-120 215q-4 8 -2 16.5t17 8.5h70q15 0 24.5 -7t15.5 -18l85 -165h75v165q0 25 25 25h60q25 0 25 -25v-165z" />
    <glyph glyph-name="afii10073" unicode="&#x437;" horiz-adv-x="550" 
d="M240 285q0 25 25 25h65q55 0 55 55t-55 55h-100q-30 0 -47.5 -17.5t-17.5 -47.5v-15q0 -25 -25 -25h-60q-25 0 -25 25v20q0 160 160 160h130q150 0 150 -145q0 -32 -11 -52t-24 -32q-16 -14 -35 -21v-5q22 -7 40 -23q15 -14 27.5 -38.5t12.5 -63.5q0 -150 -150 -150h-150
q-160 0 -160 160v20q0 25 25 25h60q25 0 25 -25v-15q0 -30 17.5 -47.5t47.5 -17.5h120q55 0 55 55v10q0 55 -55 55h-75q-25 0 -25 25v50z" />
    <glyph glyph-name="afii10074" unicode="&#x438;" 
d="M205 25q-8 -11 -16.5 -18t-23.5 -7h-70q-25 0 -25 25v460q0 25 25 25h60q25 0 25 -25v-310h5l205 310q8 11 16.5 18t23.5 7h70q25 0 25 -25v-460q0 -25 -25 -25h-60q-25 0 -25 25v310h-5z" />
    <glyph glyph-name="afii10075" unicode="&#x439;" 
d="M390 485q8 11 16.5 18t23.5 7h70q25 0 25 -25v-460q0 -25 -25 -25h-60q-25 0 -25 25v310h-5l-205 -310q-8 -11 -16.5 -18t-23.5 -7h-70q-25 0 -25 25v460q0 25 25 25h60q25 0 25 -25v-310h5zM265 585q-125 0 -125 125v10q0 25 25 25h50q25 0 25 -25v-15q0 -15 10 -25
t25 -10h45q15 0 25 10t10 25v15q0 25 25 25h50q25 0 25 -25v-10q0 -125 -125 -125h-65z" />
    <glyph glyph-name="afii10076" unicode="&#x43a;" horiz-adv-x="533" 
d="M180 320h105l85 165q6 11 15.5 18t24.5 7h70q15 0 17 -8.5t-2 -16.5l-120 -215l135 -245q4 -8 2 -16.5t-17 -8.5h-70q-15 0 -24.5 7t-15.5 18l-100 195h-105v-195q0 -25 -25 -25h-60q-25 0 -25 25v460q0 25 25 25h60q25 0 25 -25v-165z" />
    <glyph glyph-name="afii10077" unicode="&#x43b;" horiz-adv-x="585" 
d="M35 90q54 0 65 55l70 340q5 25 30 25h290q25 0 25 -25v-460q0 -25 -25 -25h-60q-25 0 -25 25v385h-140l-55 -275q-14 -72 -53.5 -108.5t-111.5 -36.5h-20q-25 0 -25 25v50q0 25 25 25h10z" />
    <glyph glyph-name="afii10078" unicode="&#x43c;" horiz-adv-x="740" 
d="M350 0q-15 0 -22.5 7t-12.5 18l-130 280h-5v-280q0 -25 -25 -25h-60q-25 0 -25 25v460q0 25 25 25h80q15 0 22.5 -7t12.5 -18l158 -335h4l158 335q5 11 12.5 18t22.5 7h80q25 0 25 -25v-460q0 -25 -25 -25h-60q-25 0 -25 25v280h-5l-130 -280q-5 -11 -12.5 -18t-22.5 -7
h-40z" />
    <glyph glyph-name="afii10079" unicode="&#x43d;" horiz-adv-x="585" 
d="M70 485q0 25 25 25h60q25 0 25 -25v-180h225v180q0 25 25 25h60q25 0 25 -25v-460q0 -25 -25 -25h-60q-25 0 -25 25v180h-225v-180q0 -25 -25 -25h-60q-25 0 -25 25v460v0z" />
    <glyph glyph-name="afii10080" unicode="&#x43e;" 
d="M175 155q0 -30 17.5 -47.5t47.5 -17.5h115q30 0 47.5 17.5t17.5 47.5v200q0 30 -17.5 47.5t-47.5 17.5h-115q-30 0 -47.5 -17.5t-17.5 -47.5v-200zM65 360q0 160 160 160h145q160 0 160 -160v-210q0 -160 -160 -160h-145q-160 0 -160 160v210z" />
    <glyph glyph-name="afii10081" unicode="&#x43f;" horiz-adv-x="585" 
d="M70 485q0 25 25 25h395q25 0 25 -25v-460q0 -25 -25 -25h-60q-25 0 -25 25v385h-225v-385q0 -25 -25 -25h-60q-25 0 -25 25v460v0z" />
    <glyph glyph-name="afii10082" unicode="&#x440;" horiz-adv-x="590" 
d="M180 0v-165q0 -25 -25 -25h-60q-25 0 -25 25v650q0 25 25 25h60q25 0 25 -25v-25h5q8 17 22 30q12 11 30.5 20.5t47.5 9.5h80q160 0 160 -160v-200q0 -160 -160 -160h-185zM180 100h170q30 0 47.5 17.5t17.5 47.5v190q0 30 -17.5 47.5t-47.5 17.5h-85q-38 0 -61.5 -23.5
t-23.5 -61.5v-235z" />
    <glyph glyph-name="afii10083" unicode="&#x441;" horiz-adv-x="575" 
d="M410 170q0 25 25 25h60q25 0 25 -25v-20q0 -160 -160 -160h-135q-160 0 -160 160v210q0 160 160 160h135q160 0 160 -160v-20q0 -25 -25 -25h-60q-25 0 -25 25v15q0 30 -17.5 47.5t-47.5 17.5h-105q-30 0 -47.5 -17.5t-17.5 -47.5v-200q0 -30 17.5 -47.5t47.5 -17.5h105
q30 0 47.5 17.5t17.5 47.5v15z" />
    <glyph glyph-name="afii10084" unicode="&#x442;" horiz-adv-x="460" 
d="M175 410h-140q-25 0 -25 25v50q0 25 25 25h390q25 0 25 -25v-50q0 -25 -25 -25h-140v-385q0 -25 -25 -25h-60q-25 0 -25 25v385z" />
    <glyph glyph-name="afii10085" unicode="&#x443;" horiz-adv-x="521" 
d="M383 485q8 25 30 25h80q25 0 15 -25l-195 -500q-34 -87 -81 -131t-119 -44h-25q-25 0 -25 25v55q0 25 25 25h25q59 0 90 85l-190 485q-10 25 15 25h80q22 0 30 -25l120 -325h5z" />
    <glyph glyph-name="afii10086" unicode="&#x444;" horiz-adv-x="760" 
d="M695 160q0 -160 -160 -160h-100v-165q0 -25 -25 -25h-60q-25 0 -25 25v165h-100q-160 0 -160 160v190q0 160 160 160h100v165q0 25 25 25h60q25 0 25 -25v-165h100q160 0 160 -160v-190zM585 345q0 30 -17.5 47.5t-47.5 17.5h-85v-310h85q30 0 47.5 17.5t17.5 47.5v180z
M175 165q0 -30 17.5 -47.5t47.5 -17.5h85v310h-85q-30 0 -47.5 -17.5t-17.5 -47.5v-180z" />
    <glyph glyph-name="afii10087" unicode="&#x445;" horiz-adv-x="498" 
d="M249 345l90 140q8 11 16.5 18t23.5 7h75q15 0 17.5 -8.5t-2.5 -16.5l-145 -220l160 -240q5 -8 2.5 -16.5t-17.5 -8.5h-75q-15 0 -23.5 7t-16.5 18l-105 160l-105 -160q-8 -11 -16.5 -18t-23.5 -7h-75q-15 0 -17.5 8.5t2.5 16.5l160 240l-145 220q-5 8 -2.5 16.5t17.5 8.5
h75q15 0 23.5 -7t16.5 -18z" />
    <glyph glyph-name="afii10088" unicode="&#x446;" horiz-adv-x="593" 
d="M95 0q-25 0 -25 25v460q0 25 25 25h60q25 0 25 -25v-385h215v385q0 25 25 25h60q25 0 25 -25v-405l80 -85q8 -8 8 -17.5t-8 -17.5l-50 -45q-8 -8 -17.5 -8t-17.5 8l-80 85h-325z" />
    <glyph glyph-name="afii10089" unicode="&#x447;" horiz-adv-x="565" 
d="M60 485q0 25 25 25h60q25 0 25 -25v-155q0 -30 17.5 -47.5t47.5 -17.5h150v220q0 25 25 25h60q25 0 25 -25v-460q0 -25 -25 -25h-60q-25 0 -25 25v140h-165q-160 0 -160 160v160z" />
    <glyph glyph-name="afii10090" unicode="&#x448;" horiz-adv-x="810" 
d="M70 485q0 25 25 25h60q25 0 25 -25v-385h170v385q0 25 25 25h60q25 0 25 -25v-385h170v385q0 25 25 25h60q25 0 25 -25v-460q0 -25 -25 -25h-620q-25 0 -25 25v460z" />
    <glyph glyph-name="afii10091" unicode="&#x449;" horiz-adv-x="828" 
d="M70 485q0 25 25 25h60q25 0 25 -25v-385h170v385q0 25 25 25h60q25 0 25 -25v-385h170v385q0 25 25 25h60q25 0 25 -25v-405l80 -85q8 -8 8 -17.5t-8 -17.5l-50 -45q-8 -8 -17.5 -8t-17.5 8l-80 85h-560q-25 0 -25 25v460z" />
    <glyph glyph-name="afii10092" unicode="&#x44a;" horiz-adv-x="590" 
d="M155 0q-25 0 -25 25v385h-105q-25 0 -25 25v50q0 25 25 25h190q25 0 25 -25v-135h145q75 0 115 -40t40 -115v-40q0 -75 -40 -115t-115 -40h-230zM240 250v-150h130q26 0 43 17t17 43v30q0 26 -17 43t-43 17h-130z" />
    <glyph glyph-name="afii10093" unicode="&#x44b;" horiz-adv-x="730" 
d="M95 0q-25 0 -25 25v460q0 25 25 25h60q25 0 25 -25v-135h145q75 0 115 -40t40 -115v-40q0 -75 -40 -115t-115 -40h-230zM180 250v-150h130q26 0 43 17t17 43v30q0 26 -17 43t-43 17h-130zM550 485q0 25 25 25h60q25 0 25 -25v-460q0 -25 -25 -25h-60q-25 0 -25 25v460z
" />
    <glyph glyph-name="afii10094" unicode="&#x44c;" horiz-adv-x="545" 
d="M95 0q-25 0 -25 25v460q0 25 25 25h60q25 0 25 -25v-135h160q75 0 115 -40t40 -115v-40q0 -75 -40 -115t-115 -40h-245zM180 250v-150h145q26 0 43 17t17 43v30q0 26 -17 43t-43 17h-145z" />
    <glyph glyph-name="afii10095" unicode="&#x44d;" horiz-adv-x="575" 
d="M165 155q0 -30 17.5 -47.5t47.5 -17.5h105q30 0 47.5 17.5t17.5 47.5v55h-120q-25 0 -25 25v50q0 25 25 25h120v45q0 30 -17.5 47.5t-47.5 17.5h-105q-30 0 -47.5 -17.5t-17.5 -47.5v-15q0 -25 -25 -25h-60q-25 0 -25 25v20q0 160 160 160h135q160 0 160 -160v-210
q0 -160 -160 -160h-135q-160 0 -160 160v20q0 25 25 25h60q25 0 25 -25v-15z" />
    <glyph glyph-name="afii10096" unicode="&#x44e;" horiz-adv-x="790" 
d="M290 205h-110v-180q0 -25 -25 -25h-60q-25 0 -25 25v460q0 25 25 25h60q25 0 25 -25v-180h110v55q0 160 160 160h115q160 0 160 -160v-210q0 -160 -160 -160h-115q-160 0 -160 160v55zM400 155q0 -30 17.5 -47.5t47.5 -17.5h85q30 0 47.5 17.5t17.5 47.5v200
q0 30 -17.5 47.5t-47.5 17.5h-85q-30 0 -47.5 -17.5t-17.5 -47.5v-200z" />
    <glyph glyph-name="afii10097" unicode="&#x44f;" horiz-adv-x="549" 
d="M454 510q25 0 25 -25v-460q0 -25 -25 -25h-60q-25 0 -25 25v135h-120l-75 -135q-6 -11 -15.5 -18t-24.5 -7h-70q-15 0 -17.5 8.5t2.5 16.5l85 151l-13.5 4.5t-29 19.5t-29 42.5t-13.5 72.5v40q0 75 40 115t115 40h250zM369 260v150h-150q-26 0 -43 -17t-17 -43v-30
q0 -26 17 -43t43 -17h150z" />
    <glyph glyph-name="afii10071" unicode="&#x451;" horiz-adv-x="585" 
d="M410 145q0 25 25 25h60q25 0 25 -25q0 -75 -40.5 -115t-119.5 -40h-135q-160 0 -160 160v210q0 160 160 160h135q160 0 160 -160v-120q0 -25 -25 -25h-320v-60q0 -30 17.5 -47.5t47.5 -17.5h115q55 0 55 55zM175 310h235v45q0 30 -17.5 47.5t-47.5 17.5h-105
q-30 0 -47.5 -17.5t-17.5 -47.5v-45zM250 625q0 -25 -25 -25h-60q-25 0 -25 25v60q0 25 25 25h60q25 0 25 -25v-60zM445 625q0 -25 -25 -25h-60q-25 0 -25 25v60q0 25 25 25h60q25 0 25 -25v-60z" />
    <glyph glyph-name="afii10099" unicode="&#x452;" horiz-adv-x="605" 
d="M375 75q55 0 55 55v125q0 30 -17.5 47.5t-47.5 17.5h-170v-296q0 -25 -25 -25h-60q-25 0 -25 25v486h-60q-25 0 -25 25v50q0 25 25 25h60v64q0 25 25 25h60q25 0 25 -25v-64h85q25 0 25 -25v-50q0 -25 -25 -25h-85v-90h185q160 0 160 -160v-140q0 -150 -150 -150h-45
q-25 0 -25 25v55q0 25 25 25h30z" />
    <glyph glyph-name="afii10100" unicode="&#x453;" horiz-adv-x="445" 
d="M70 485q0 25 25 25h325q25 0 25 -25v-50q0 -25 -25 -25h-240v-385q0 -25 -25 -25h-60q-25 0 -25 25v460zM310 595q-8 -11 -16 -18t-19 -7h-45q-25 0 -15 25l50 120q10 25 30 25h75q11 0 17 -7t-2 -18z" />
    <glyph glyph-name="afii10101" unicode="&#x454;" horiz-adv-x="575" 
d="M410 170q0 25 25 25h60q25 0 25 -25v-20q0 -160 -160 -160h-135q-160 0 -160 160v210q0 160 160 160h135q160 0 160 -160v-20q0 -25 -25 -25h-60q-25 0 -25 25v15q0 30 -17.5 47.5t-47.5 17.5h-105q-30 0 -47.5 -17.5t-17.5 -47.5v-45h120q25 0 25 -25v-50q0 -25 -25 -25
h-120v-55q0 -30 17.5 -47.5t47.5 -17.5h105q30 0 47.5 17.5t17.5 47.5v15z" />
    <glyph glyph-name="afii10102" unicode="&#x455;" horiz-adv-x="545" 
d="M385 140q0 31 -30 40l-205 65q-38 12 -64 41.5t-26 78.5v5q0 150 150 150h125q150 0 150 -150v-10q0 -25 -25 -25h-60q-25 0 -25 25v5q0 55 -55 55h-105q-19 0 -32 -13t-13 -32q0 -31 30 -40l205 -65q38 -12 64 -41.5t26 -78.5v-10q0 -150 -150 -150h-145
q-150 0 -150 150v10q0 25 25 25h60q25 0 25 -25v-5q0 -55 55 -55h120q23 0 36.5 13.5t13.5 36.5z" />
    <glyph glyph-name="afii10103" unicode="&#x456;" horiz-adv-x="250" 
d="M180 25q0 -25 -25 -25h-60q-25 0 -25 25v460q0 25 25 25h60q25 0 25 -25v-460zM180 615q0 -25 -25 -25h-60q-25 0 -25 25v60q0 25 25 25h60q25 0 25 -25v-60z" />
    <glyph glyph-name="afii10104" unicode="&#x457;" horiz-adv-x="250" 
d="M180 25q0 -25 -25 -25h-60q-25 0 -25 25v460q0 25 25 25h60q25 0 25 -25v-460zM85 615q0 -25 -25 -25h-60q-25 0 -25 25v60q0 25 25 25h60q25 0 25 -25v-60zM280 615q0 -25 -25 -25h-60q-25 0 -25 25v60q0 25 25 25h60q25 0 25 -25v-60z" />
    <glyph glyph-name="afii10105" unicode="&#x458;" horiz-adv-x="255" 
d="M20 -95q55 0 55 55v525q0 25 25 25h60q25 0 25 -25v-535q0 -150 -150 -150h-70q-25 0 -25 25v55q0 25 25 25h55zM185 615q0 -25 -25 -25h-60q-25 0 -25 25v60q0 25 25 25h60q25 0 25 -25v-60z" />
    <glyph glyph-name="afii10106" unicode="&#x459;" horiz-adv-x="840" 
d="M35 90q54 0 65 55l70 340q5 25 30 25h280q25 0 25 -25v-135h130q75 0 115 -40t40 -115v-40q0 -75 -40 -115t-115 -40h-215q-25 0 -25 25v385h-130l-55 -275q-14 -72 -53.5 -108.5t-111.5 -36.5h-20q-25 0 -25 25v50q0 25 25 25h10zM505 250v-150h115q26 0 43 17t17 43v30
q0 26 -17 43t-43 17h-115z" />
    <glyph glyph-name="afii10107" unicode="&#x45a;" horiz-adv-x="820" 
d="M70 485q0 25 25 25h60q25 0 25 -25v-145h190v145q0 25 25 25h60q25 0 25 -25v-145h135q75 0 115 -40t40 -115v-30q0 -75 -40 -115t-115 -40h-220q-25 0 -25 25v215h-190v-215q0 -25 -25 -25h-60q-25 0 -25 25v460zM480 240v-140h120q26 0 43 17t17 43v20q0 26 -17 43
t-43 17h-120z" />
    <glyph glyph-name="afii10108" unicode="&#x45b;" horiz-adv-x="610" 
d="M85 610v64q0 25 25 25h60q25 0 25 -25v-64h85q25 0 25 -25v-50q0 -25 -25 -25h-85v-90h185q160 0 160 -160v-236q0 -25 -25 -25h-60q-25 0 -25 25v231q0 30 -17.5 47.5t-47.5 17.5h-170v-296q0 -25 -25 -25h-60q-25 0 -25 25v486h-60q-25 0 -25 25v50q0 25 25 25h60z" />
    <glyph glyph-name="afii10109" unicode="&#x45c;" horiz-adv-x="533" 
d="M180 320h105l85 165q6 11 15.5 18t24.5 7h70q15 0 17 -8.5t-2 -16.5l-120 -215l135 -245q4 -8 2 -16.5t-17 -8.5h-70q-15 0 -24.5 7t-15.5 18l-100 195h-105v-195q0 -25 -25 -25h-60q-25 0 -25 25v460q0 25 25 25h60q25 0 25 -25v-165zM335 595q-8 -11 -16 -18t-19 -7
h-45q-25 0 -15 25l50 120q10 25 30 25h75q11 0 17 -7t-2 -18z" />
    <glyph glyph-name="afii10110" unicode="&#x45e;" horiz-adv-x="521" 
d="M383 485q8 25 30 25h80q25 0 15 -25l-195 -500q-34 -87 -81 -131t-119 -44h-25q-25 0 -25 25v55q0 25 25 25h25q59 0 90 85l-190 485q-10 25 15 25h80q22 0 30 -25l120 -325h5zM225 585q-125 0 -125 125v10q0 25 25 25h50q25 0 25 -25v-15q0 -15 10 -25t25 -10h45
q15 0 25 10t10 25v15q0 25 25 25h50q25 0 25 -25v-10q0 -125 -125 -125h-65z" />
    <glyph glyph-name="afii10193" unicode="&#x45f;" horiz-adv-x="590" 
d="M240 0h-145q-25 0 -25 25v460q0 25 25 25h60q25 0 25 -25v-385h230v385q0 25 25 25h60q25 0 25 -25v-460q0 -25 -25 -25h-145v-85q0 -25 -25 -25h-60q-25 0 -25 25v85z" />
    <glyph glyph-name="afii10050" unicode="&#x490;" horiz-adv-x="590" 
d="M215 25q0 -25 -25 -25h-75q-25 0 -25 25v650q0 25 25 25h350v80q0 25 25 25h75q25 0 25 -25v-170q0 -25 -25 -25h-350v-560z" />
    <glyph glyph-name="afii10098" unicode="&#x491;" horiz-adv-x="445" 
d="M70 485q0 25 25 25h240v60q0 25 25 25h60q25 0 25 -25v-135q0 -25 -25 -25h-240v-385q0 -25 -25 -25h-60q-25 0 -25 25v460z" />
    <glyph glyph-name="uni1E9E" unicode="&#x1e9e;" horiz-adv-x="760" 
d="M285 585q-70 0 -70 -70v-490q0 -25 -25 -25h-75q-25 0 -25 25v495q0 180 180 180h385q25 0 25 -25v-45q0 -19 -8.5 -30.5t-16.5 -19.5l-165 -155v-5h30q180 0 180 -180v-60q0 -180 -180 -180h-130q-25 0 -25 25v65q0 25 25 25h115q70 0 70 70v60q0 70 -70 70h-155
q-25 0 -25 25v35q0 19 8.5 30.5t16.5 19.5l165 155v5h-230z" />
    <glyph glyph-name="endash" unicode="&#x2013;" horiz-adv-x="610" 
d="M555 360q25 0 25 -25v-60q0 -25 -25 -25h-500q-25 0 -25 25v60q0 25 25 25h500z" />
    <glyph glyph-name="emdash" unicode="&#x2014;" horiz-adv-x="800" 
d="M745 360q25 0 25 -25v-60q0 -25 -25 -25h-690q-25 0 -25 25v60q0 25 25 25h690z" />
    <glyph glyph-name="quoteleft" unicode="&#x2018;" horiz-adv-x="195" 
d="M40 570q0 18 7 34l8 16l30 60q4 8 11.5 14t18.5 6h20q11 0 12.5 -6t-2.5 -14l-40 -80h25q25 0 25 -25v-65q0 -25 -25 -25h-65q-25 0 -25 25v60z" />
    <glyph glyph-name="quoteright" unicode="&#x2019;" horiz-adv-x="195" 
d="M155 615q0 -10 -2.5 -18.5t-5.5 -15.5q-4 -8 -7 -16l-30 -60q-4 -8 -11.5 -14t-18.5 -6h-20q-11 0 -12.5 6t2.5 14l40 80h-25q-25 0 -25 25v65q0 25 25 25h65q25 0 25 -25v-60z" />
    <glyph glyph-name="quotesinglbase" unicode="&#x201a;" horiz-adv-x="195" 
d="M155 30q0 -10 -2.5 -18.5t-5.5 -15.5q-4 -8 -7 -16l-30 -60q-4 -8 -11.5 -14t-18.5 -6h-20q-11 0 -12.5 6t2.5 14l40 80h-25q-25 0 -25 25v65q0 25 25 25h65q25 0 25 -25v-60z" />
    <glyph glyph-name="quotedblleft" unicode="&#x201c;" horiz-adv-x="365" 
d="M210 570q0 18 7 34l8 16l30 60q4 8 11.5 14t18.5 6h20q11 0 12.5 -6t-2.5 -14l-40 -80h25q25 0 25 -25v-65q0 -25 -25 -25h-65q-25 0 -25 25v60zM40 570q0 18 7 34l8 16l30 60q4 8 11.5 14t18.5 6h20q11 0 12.5 -6t-2.5 -14l-40 -80h25q25 0 25 -25v-65q0 -25 -25 -25
h-65q-25 0 -25 25v60z" />
    <glyph glyph-name="quotedblright" unicode="&#x201d;" horiz-adv-x="365" 
d="M155 615q0 -10 -2.5 -18.5t-5.5 -15.5q-4 -8 -7 -16l-30 -60q-4 -8 -11.5 -14t-18.5 -6h-20q-11 0 -12.5 6t2.5 14l40 80h-25q-25 0 -25 25v65q0 25 25 25h65q25 0 25 -25v-60zM325 615q0 -10 -2.5 -18.5t-5.5 -15.5q-4 -8 -7 -16l-30 -60q-4 -8 -11.5 -14t-18.5 -6h-20
q-11 0 -12.5 6t2.5 14l40 80h-25q-25 0 -25 25v65q0 25 25 25h65q25 0 25 -25v-60z" />
    <glyph glyph-name="quotedblbase" unicode="&#x201e;" horiz-adv-x="365" 
d="M155 30q0 -10 -2.5 -18.5t-5.5 -15.5q-4 -8 -7 -16l-30 -60q-4 -8 -11.5 -14t-18.5 -6h-20q-11 0 -12.5 6t2.5 14l40 80h-25q-25 0 -25 25v65q0 25 25 25h65q25 0 25 -25v-60zM325 30q0 -10 -2.5 -18.5t-5.5 -15.5q-4 -8 -7 -16l-30 -60q-4 -8 -11.5 -14t-18.5 -6h-20
q-11 0 -12.5 6t2.5 14l40 80h-25q-25 0 -25 25v65q0 25 25 25h65q25 0 25 -25v-60z" />
    <glyph glyph-name="dagger" unicode="&#x2020;" horiz-adv-x="530" 
d="M325 535h130q25 0 25 -25v-65q0 -25 -25 -25h-130v-395q0 -25 -25 -25h-70q-25 0 -25 25v395h-130q-25 0 -25 25v65q0 25 25 25h130v140q0 25 25 25h70q25 0 25 -25v-140z" />
    <glyph glyph-name="daggerdbl" unicode="&#x2021;" horiz-adv-x="530" 
d="M325 560h130q25 0 25 -25v-65q0 -25 -25 -25h-130v-190h130q25 0 25 -25v-65q0 -25 -25 -25h-130v-115q0 -25 -25 -25h-70q-25 0 -25 25v115h-130q-25 0 -25 25v65q0 25 25 25h130v190h-130q-25 0 -25 25v65q0 25 25 25h130v115q0 25 25 25h70q25 0 25 -25v-115z" />
    <glyph glyph-name="bullet" unicode="&#x2022;" horiz-adv-x="335" 
d="M255 295q0 -30 -20 -50t-50 -20h-35q-30 0 -50 20t-20 50v35q0 30 20 50t50 20h35q30 0 50 -20t20 -50v-35z" />
    <glyph glyph-name="ellipsis" unicode="&#x2026;" horiz-adv-x="615" 
d="M155 25q0 -25 -25 -25h-65q-25 0 -25 25v65q0 25 25 25h65q25 0 25 -25v-65zM365 25q0 -25 -25 -25h-65q-25 0 -25 25v65q0 25 25 25h65q25 0 25 -25v-65zM575 25q0 -25 -25 -25h-65q-25 0 -25 25v65q0 25 25 25h65q25 0 25 -25v-65z" />
    <glyph glyph-name="perthousand" unicode="&#x2030;" horiz-adv-x="1145" 
d="M600 700q11 0 15.5 -7t-0.5 -18l-300 -650q-5 -11 -15 -18t-25 -7h-65q-11 0 -15.5 7t0.5 18l300 650q5 11 15 18t25 7h65zM640 330q125 0 125 -125v-80q0 -125 -125 -125h-50q-125 0 -125 125v80q0 125 125 125h50zM605 245q-45 0 -45 -45v-70q0 -45 45 -45h20
q45 0 45 45v70q0 45 -45 45h-20zM210 0q-11 0 -15.5 7t0.5 18l300 650q5 11 15 18t25 7h65q11 0 15.5 -7t-0.5 -18l-300 -650q-5 -11 -15 -18t-25 -7h-65zM165 370q-125 0 -125 125v80q0 125 125 125h50q125 0 125 -125v-80q0 -125 -125 -125h-50zM200 455q45 0 45 45v70
q0 45 -45 45h-20q-45 0 -45 -45v-70q0 -45 45 -45h20zM980 330q125 0 125 -125v-80q0 -125 -125 -125h-50q-125 0 -125 125v80q0 125 125 125h50zM945 245q-45 0 -45 -45v-70q0 -45 45 -45h20q45 0 45 45v70q0 45 -45 45h-20z" />
    <glyph glyph-name="guilsinglleft" unicode="&#x2039;" horiz-adv-x="339" 
d="M175 465q8 11 16.5 18t23.5 7h65q15 0 17.5 -8.5t-2.5 -16.5l-135 -210l135 -210q5 -8 2.5 -16.5t-17.5 -8.5h-65q-15 0 -23.5 7t-16.5 18l-135 210z" />
    <glyph glyph-name="guilsinglright" unicode="&#x203a;" horiz-adv-x="339" 
d="M299 255l-135 -210q-8 -11 -16.5 -18t-23.5 -7h-65q-15 0 -17.5 8.5t2.5 16.5l135 210l-135 210q-5 8 -2.5 16.5t17.5 8.5h65q15 0 23.5 -7t16.5 -18z" />
    <glyph glyph-name="fraction" unicode="&#x2044;" horiz-adv-x="186" 
d="M-102 0q-11 0 -15.5 7t0.5 18l300 650q5 11 15 18t25 7h65q11 0 15.5 -7t-0.5 -18l-300 -650q-5 -11 -15 -18t-25 -7h-65z" />
    <glyph glyph-name="zerosuperior" unicode="&#x2070;" horiz-adv-x="360" 
d="M155 470q-125 0 -125 125v80q0 125 125 125h50q125 0 125 -125v-80q0 -125 -125 -125h-50zM190 555q45 0 45 45v70q0 45 -45 45h-20q-45 0 -45 -45v-70q0 -45 45 -45h20z" />
    <glyph glyph-name="foursuperior" unicode="&#x2074;" horiz-adv-x="330" 
d="M270 615h20q20 0 20 -20v-35q0 -20 -20 -20h-20v-50q0 -20 -20 -20h-55q-20 0 -20 20v50h-145q-20 0 -20 20v35q0 11 6 20t14 20l105 145q6 8 13.5 14t26.5 6h75q20 0 20 -20v-165zM175 615v95h-5l-65 -90v-5h70z" />
    <glyph glyph-name="fivesuperior" unicode="&#x2075;" horiz-adv-x="345" 
d="M205 685q60 0 85 -23.5t25 -76.5v-15q0 -53 -25 -76.5t-85 -23.5h-55q-60 0 -85 23t-25 72q0 20 20 20h45q13 0 17 -5.5t7 -12t8.5 -12t22.5 -5.5h30q30 0 30 30v5q0 30 -30 30h-120q-20 0 -20 20v145q0 20 20 20h215q20 0 20 -20v-40q0 -20 -20 -20h-140v-35h60z" />
    <glyph glyph-name="sixsuperior" unicode="&#x2076;" horiz-adv-x="345" 
d="M135 575q0 -30 30 -30h25q30 0 30 30t-30 30h-55v-30zM40 690q0 60 25 85t85 25h45q60 0 85 -23t25 -72q0 -20 -20 -20h-45q-13 0 -17 5.5t-7 12t-8.5 12t-22.5 5.5h-20q-30 0 -30 -30v-15h70q60 0 85 -23.5t25 -76.5v-5q0 -53 -25 -76.5t-85 -23.5h-55q-60 0 -85 23.5
t-25 76.5v120z" />
    <glyph glyph-name="sevensuperior" unicode="&#x2077;" horiz-adv-x="285" 
d="M40 715q-20 0 -20 20v45q0 20 20 20h225q20 0 20 -20v-40q0 -11 -1.5 -19t-4.5 -15t-6.5 -14.5t-7.5 -16.5l-85 -185q-5 -11 -9.5 -15.5t-15.5 -4.5h-65q-11 0 -15.5 4.5t0.5 15.5l105 225h-140z" />
    <glyph glyph-name="eightsuperior" unicode="&#x2078;" horiz-adv-x="350" 
d="M310 700q0 -17 -6 -28.5t-14 -18.5q-9 -8 -20 -13q14 -4 25 -14q9 -8 17 -22t8 -34q0 -53 -25 -76.5t-85 -23.5h-70q-60 0 -85 23.5t-25 76.5q0 20 7.5 34t17.5 22q11 10 25 14q-11 5 -20 13q-8 7 -14 18.5t-6 28.5q0 53 25 76.5t85 23.5h50q60 0 85 -23.5t25 -76.5z
M155 610q-30 0 -30 -30v-5q0 -30 30 -30h40q30 0 30 30v5q0 30 -30 30h-40zM185 670q30 0 30 30t-30 30h-20q-30 0 -30 -30t30 -30h20z" />
    <glyph glyph-name="ninesuperior" unicode="&#x2079;" horiz-adv-x="345" 
d="M210 695q0 30 -30 30h-25q-30 0 -30 -30t30 -30h55v30zM305 580q0 -60 -25 -85t-85 -25h-45q-60 0 -85 23t-25 72q0 20 20 20h45q13 0 17 -5.5t7 -12t8.5 -12t22.5 -5.5h20q30 0 30 30v15h-70q-60 0 -85 23.5t-25 76.5v5q0 53 25 76.5t85 23.5h55q60 0 85 -23.5t25 -76.5
v-120z" />
    <glyph glyph-name="zeroinferior" unicode="&#x2080;" horiz-adv-x="360" 
d="M155 -100q-125 0 -125 125v80q0 125 125 125h50q125 0 125 -125v-80q0 -125 -125 -125h-50zM190 -15q45 0 45 45v70q0 45 -45 45h-20q-45 0 -45 -45v-70q0 -45 45 -45h20z" />
    <glyph glyph-name="oneinferior" unicode="&#x2081;" horiz-adv-x="250" 
d="M50 145q-20 0 -20 20v45q0 20 20 20h140q20 0 20 -20v-290q0 -20 -20 -20h-55q-20 0 -20 20v225h-65z" />
    <glyph glyph-name="twoinferior" unicode="&#x2082;" horiz-adv-x="335" 
d="M195 230q60 0 85 -25t25 -85q0 -34 -16.5 -53.5t-38.5 -31.5l-90 -50v-5h115q20 0 20 -20v-40q0 -20 -20 -20h-225q-20 0 -20 20v60q0 11 4.5 17t15.5 13l130 75q15 8 22.5 16t7.5 19q0 30 -30 30h-30q-17 0 -22.5 -5.5t-8.5 -12t-7 -12t-17 -5.5h-45q-20 0 -20 20
q0 49 25 72t85 23h55z" />
    <glyph glyph-name="threeinferior" unicode="&#x2083;" horiz-adv-x="335" 
d="M305 0q0 -53 -25 -76.5t-85 -23.5h-55q-60 0 -85 23t-25 72q0 20 20 20h45q13 0 17 -5.5t7 -12t8.5 -12t22.5 -5.5h30q30 0 30 30v5q0 30 -30 30h-60q-20 0 -20 20v20q0 11 4.5 17.5t15.5 12.5l55 30v5h-120q-20 0 -20 20v40q0 20 20 20h225q20 0 20 -20v-45
q0 -11 -4.5 -17t-15.5 -13l-55 -32v-6q22 -2 40 -13q15 -9 27.5 -29t12.5 -55z" />
    <glyph glyph-name="fourinferior" unicode="&#x2084;" horiz-adv-x="330" 
d="M270 45h20q20 0 20 -20v-35q0 -20 -20 -20h-20v-50q0 -20 -20 -20h-55q-20 0 -20 20v50h-145q-20 0 -20 20v35q0 11 6 20t14 20l105 145q6 8 13.5 14t26.5 6h75q20 0 20 -20v-165zM175 45v95h-5l-65 -90v-5h70z" />
    <glyph glyph-name="fiveinferior" unicode="&#x2085;" horiz-adv-x="345" 
d="M205 115q60 0 85 -23.5t25 -76.5v-15q0 -53 -25 -76.5t-85 -23.5h-55q-60 0 -85 23t-25 72q0 20 20 20h45q13 0 17 -5.5t7 -12t8.5 -12t22.5 -5.5h30q30 0 30 30v5q0 30 -30 30h-120q-20 0 -20 20v145q0 20 20 20h215q20 0 20 -20v-40q0 -20 -20 -20h-140v-35h60z" />
    <glyph glyph-name="sixinferior" unicode="&#x2086;" horiz-adv-x="345" 
d="M135 5q0 -30 30 -30h25q30 0 30 30t-30 30h-55v-30zM40 120q0 60 25 85t85 25h45q60 0 85 -23t25 -72q0 -20 -20 -20h-45q-13 0 -17 5.5t-7 12t-8.5 12t-22.5 5.5h-20q-30 0 -30 -30v-15h70q60 0 85 -23.5t25 -76.5v-5q0 -53 -25 -76.5t-85 -23.5h-55q-60 0 -85 23.5
t-25 76.5v120z" />
    <glyph glyph-name="seveninferior" unicode="&#x2087;" horiz-adv-x="285" 
d="M40 145q-20 0 -20 20v45q0 20 20 20h225q20 0 20 -20v-40q0 -11 -1.5 -19t-4.5 -15t-6.5 -14.5t-7.5 -16.5l-85 -185q-5 -11 -9.5 -15.5t-15.5 -4.5h-65q-11 0 -15.5 4.5t0.5 15.5l105 225h-140z" />
    <glyph glyph-name="eightinferior" unicode="&#x2088;" horiz-adv-x="350" 
d="M310 130q0 -17 -6 -28.5t-14 -18.5q-9 -8 -20 -13q14 -4 25 -14q9 -8 17 -22t8 -34q0 -53 -25 -76.5t-85 -23.5h-70q-60 0 -85 23.5t-25 76.5q0 20 7.5 34t17.5 22q11 10 25 14q-11 5 -20 13q-8 7 -14 18.5t-6 28.5q0 53 25 76.5t85 23.5h50q60 0 85 -23.5t25 -76.5z
M155 40q-30 0 -30 -30v-5q0 -30 30 -30h40q30 0 30 30v5q0 30 -30 30h-40zM185 100q30 0 30 30t-30 30h-20q-30 0 -30 -30t30 -30h20z" />
    <glyph glyph-name="nineinferior" unicode="&#x2089;" horiz-adv-x="345" 
d="M210 125q0 30 -30 30h-25q-30 0 -30 -30t30 -30h55v30zM305 10q0 -60 -25 -85t-85 -25h-45q-60 0 -85 23t-25 72q0 20 20 20h45q13 0 17 -5.5t7 -12t8.5 -12t22.5 -5.5h20q30 0 30 30v15h-70q-60 0 -85 23.5t-25 76.5v5q0 53 25 76.5t85 23.5h55q60 0 85 -23.5t25 -76.5
v-120z" />
    <glyph glyph-name="Euro" unicode="&#x20ac;" horiz-adv-x="805" 
d="M470 465q25 0 25 -25v-40q0 -25 -25 -25h-225v-50h225q25 0 25 -25v-40q0 -25 -25 -25h-225v-60q0 -70 70 -70h225q70 0 70 70v30q0 25 25 25h75q25 0 25 -25v-35q0 -180 -180 -180h-255q-180 0 -180 180v65h-35q-25 0 -25 25v40q0 25 25 25h35v50h-35q-25 0 -25 25v40
q0 25 25 25h35v65q0 180 180 180h255q180 0 180 -180v-35q0 -25 -25 -25h-75q-25 0 -25 25v30q0 70 -70 70h-225q-70 0 -70 -70v-60h225z" />
    <glyph glyph-name="uni20B4" unicode="&#x20b4;" horiz-adv-x="750" 
d="M520 460v70q0 70 -70 70h-155q-70 0 -70 -70v-5q0 -25 -25 -25h-75q-25 0 -25 25v5q0 180 180 180h185q180 0 180 -180v-70h35q20 0 20 -20v-45q0 -20 -20 -20h-610q-20 0 -20 20v45q0 20 20 20h450zM230 240v-70q0 -70 70 -70h155q70 0 70 70v5q0 25 25 25h75
q25 0 25 -25v-5q0 -180 -180 -180h-185q-180 0 -180 180v70h-35q-20 0 -20 20v45q0 20 20 20h610q20 0 20 -20v-45q0 -20 -20 -20h-450z" />
    <glyph glyph-name="uni20BD" unicode="&#x20bd;" horiz-adv-x="710" 
d="M240 120v-95q0 -25 -25 -25h-75q-25 0 -25 25v95h-50q-25 0 -25 25v55q0 25 25 25h50v55h-50q-25 0 -25 25v55q0 25 25 25h50v290q0 25 25 25h330q90 0 135 -37.5t45 -127.5v-75q0 -180 -180 -180h-230v-55h290q25 0 25 -25v-55q0 -25 -25 -25h-290zM240 585v-200h215
q70 0 70 70v60q0 70 -70 70h-215z" />
    <glyph glyph-name="afii61352" unicode="&#x2116;" horiz-adv-x="1135" 
d="M575 190v485q0 25 25 25h75q25 0 25 -25v-650q0 -25 -25 -25h-100q-15 0 -23.5 7t-16.5 18l-315 485h-5v-485q0 -25 -25 -25h-75q-25 0 -25 25v650q0 25 25 25h100q15 0 23.5 -7t16.5 -18l315 -485h5zM900 200q-125 0 -125 125v80q0 125 125 125h50q125 0 125 -125v-80
q0 -125 -125 -125h-50zM935 285q45 0 45 45v70q0 45 -45 45h-20q-45 0 -45 -45v-70q0 -45 45 -45h20zM1050 120q25 0 25 -25v-50q0 -25 -25 -25h-250q-25 0 -25 25v50q0 25 25 25h250z" />
    <glyph glyph-name="trademark" unicode="&#x2122;" horiz-adv-x="805" 
d="M285 700q15 0 15 -15v-55q0 -15 -15 -15h-85v-230q0 -15 -15 -15h-60q-15 0 -15 15v230h-85q-15 0 -15 15v55q0 15 15 15h260zM525 370q-11 0 -16.5 3.5t-8.5 11.5l-65 160h-5v-160q0 -15 -15 -15h-60q-15 0 -15 15v300q0 15 15 15h75q11 0 16.5 -3.5t8.5 -11.5l85 -205
h5l85 205q3 8 8.5 11.5t16.5 3.5h75q15 0 15 -15v-300q0 -15 -15 -15h-60q-15 0 -15 15v160h-5l-65 -160q-3 -8 -8.5 -11.5t-16.5 -3.5h-35z" />
    <glyph glyph-name="minus" unicode="&#x2212;" horiz-adv-x="450" 
d="M395 365q25 0 25 -25v-60q0 -25 -25 -25h-340q-25 0 -25 25v60q0 25 25 25h340z" />
    <glyph glyph-name="zero.dnom" unicode="&#xf643;" horiz-adv-x="360" 
d="M155 0q-125 0 -125 125v80q0 125 125 125h50q125 0 125 -125v-80q0 -125 -125 -125h-50zM190 85q45 0 45 45v70q0 45 -45 45h-20q-45 0 -45 -45v-70q0 -45 45 -45h20z" />
    <glyph glyph-name="one.dnom" unicode="&#xf644;" horiz-adv-x="250" 
d="M50 245q-20 0 -20 20v45q0 20 20 20h140q20 0 20 -20v-290q0 -20 -20 -20h-55q-20 0 -20 20v225h-65z" />
    <glyph glyph-name="two.dnom" unicode="&#xf645;" horiz-adv-x="335" 
d="M195 330q60 0 85 -25t25 -85q0 -34 -16.5 -53.5t-38.5 -31.5l-90 -50v-5h115q20 0 20 -20v-40q0 -20 -20 -20h-225q-20 0 -20 20v60q0 11 4.5 17t15.5 13l130 75q15 8 22.5 16t7.5 19q0 30 -30 30h-30q-17 0 -22.5 -5.5t-8.5 -12t-7 -12t-17 -5.5h-45q-20 0 -20 20
q0 49 25 72t85 23h55z" />
    <glyph glyph-name="three.dnom" unicode="&#xf646;" horiz-adv-x="335" 
d="M305 100q0 -53 -25 -76.5t-85 -23.5h-55q-60 0 -85 23t-25 72q0 20 20 20h45q13 0 17 -5.5t7 -12t8.5 -12t22.5 -5.5h30q30 0 30 30v5q0 30 -30 30h-60q-20 0 -20 20v20q0 11 4.5 17.5t15.5 12.5l55 30v5h-120q-20 0 -20 20v40q0 20 20 20h225q20 0 20 -20v-45
q0 -11 -4.5 -17t-15.5 -13l-55 -32v-6q22 -2 40 -13q15 -9 27.5 -29t12.5 -55z" />
    <glyph glyph-name="four.dnom" unicode="&#xf647;" horiz-adv-x="330" 
d="M270 145h20q20 0 20 -20v-35q0 -20 -20 -20h-20v-50q0 -20 -20 -20h-55q-20 0 -20 20v50h-145q-20 0 -20 20v35q0 11 6 20t14 20l105 145q6 8 13.5 14t26.5 6h75q20 0 20 -20v-165zM175 145v95h-5l-65 -90v-5h70z" />
    <glyph glyph-name="five.dnom" unicode="&#xf648;" horiz-adv-x="345" 
d="M205 215q60 0 85 -23.5t25 -76.5v-15q0 -53 -25 -76.5t-85 -23.5h-55q-60 0 -85 23t-25 72q0 20 20 20h45q13 0 17 -5.5t7 -12t8.5 -12t22.5 -5.5h30q30 0 30 30v5q0 30 -30 30h-120q-20 0 -20 20v145q0 20 20 20h215q20 0 20 -20v-40q0 -20 -20 -20h-140v-35h60z" />
    <glyph glyph-name="six.dnom" unicode="&#xf649;" horiz-adv-x="345" 
d="M135 105q0 -30 30 -30h25q30 0 30 30t-30 30h-55v-30zM40 220q0 60 25 85t85 25h45q60 0 85 -23t25 -72q0 -20 -20 -20h-45q-13 0 -17 5.5t-7 12t-8.5 12t-22.5 5.5h-20q-30 0 -30 -30v-15h70q60 0 85 -23.5t25 -76.5v-5q0 -53 -25 -76.5t-85 -23.5h-55q-60 0 -85 23.5
t-25 76.5v120z" />
    <glyph glyph-name="seven.dnom" unicode="&#xf64a;" horiz-adv-x="285" 
d="M40 245q-20 0 -20 20v45q0 20 20 20h225q20 0 20 -20v-40q0 -11 -1.5 -19t-4.5 -15t-6.5 -14.5t-7.5 -16.5l-85 -185q-5 -11 -9.5 -15.5t-15.5 -4.5h-65q-11 0 -15.5 4.5t0.5 15.5l105 225h-140z" />
    <glyph glyph-name="eight.dnom" unicode="&#xf64b;" horiz-adv-x="350" 
d="M310 230q0 -17 -6 -28.5t-14 -18.5q-9 -8 -20 -13q14 -4 25 -14q9 -8 17 -22t8 -34q0 -53 -25 -76.5t-85 -23.5h-70q-60 0 -85 23.5t-25 76.5q0 20 7.5 34t17.5 22q11 10 25 14q-11 5 -20 13q-8 7 -14 18.5t-6 28.5q0 53 25 76.5t85 23.5h50q60 0 85 -23.5t25 -76.5z
M155 140q-30 0 -30 -30v-5q0 -30 30 -30h40q30 0 30 30v5q0 30 -30 30h-40zM185 200q30 0 30 30t-30 30h-20q-30 0 -30 -30t30 -30h20z" />
    <glyph glyph-name="nine.dnom" unicode="&#xf64c;" horiz-adv-x="345" 
d="M210 225q0 30 -30 30h-25q-30 0 -30 -30t30 -30h55v30zM305 110q0 -60 -25 -85t-85 -25h-45q-60 0 -85 23t-25 72q0 20 20 20h45q13 0 17 -5.5t7 -12t8.5 -12t22.5 -5.5h20q30 0 30 30v15h-70q-60 0 -85 23.5t-25 76.5v5q0 53 25 76.5t85 23.5h55q60 0 85 -23.5t25 -76.5
v-120z" />
    <glyph glyph-name="zero.numr" unicode="&#xf64d;" horiz-adv-x="360" 
d="M155 370q-125 0 -125 125v80q0 125 125 125h50q125 0 125 -125v-80q0 -125 -125 -125h-50zM190 455q45 0 45 45v70q0 45 -45 45h-20q-45 0 -45 -45v-70q0 -45 45 -45h20z" />
    <glyph glyph-name="one.numr" unicode="&#xf64e;" horiz-adv-x="250" 
d="M50 615q-20 0 -20 20v45q0 20 20 20h140q20 0 20 -20v-290q0 -20 -20 -20h-55q-20 0 -20 20v225h-65z" />
    <glyph glyph-name="two.numr" unicode="&#xf64f;" horiz-adv-x="335" 
d="M195 700q60 0 85 -25t25 -85q0 -34 -16.5 -53.5t-38.5 -31.5l-90 -50v-5h115q20 0 20 -20v-40q0 -20 -20 -20h-225q-20 0 -20 20v60q0 11 4.5 17t15.5 13l130 75q15 8 22.5 16t7.5 19q0 30 -30 30h-30q-17 0 -22.5 -5.5t-8.5 -12t-7 -12t-17 -5.5h-45q-20 0 -20 20
q0 49 25 72t85 23h55z" />
    <glyph glyph-name="three.numr" unicode="&#xf650;" horiz-adv-x="335" 
d="M305 470q0 -53 -25 -76.5t-85 -23.5h-55q-60 0 -85 23t-25 72q0 20 20 20h45q13 0 17 -5.5t7 -12t8.5 -12t22.5 -5.5h30q30 0 30 30v5q0 30 -30 30h-60q-20 0 -20 20v20q0 11 4.5 17.5t15.5 12.5l55 30v5h-120q-20 0 -20 20v40q0 20 20 20h225q20 0 20 -20v-45
q0 -11 -4.5 -17t-15.5 -13l-55 -32v-6q22 -2 40 -13q15 -9 27.5 -29t12.5 -55z" />
    <glyph glyph-name="four.numr" unicode="&#xf651;" horiz-adv-x="330" 
d="M270 515h20q20 0 20 -20v-35q0 -20 -20 -20h-20v-50q0 -20 -20 -20h-55q-20 0 -20 20v50h-145q-20 0 -20 20v35q0 11 6 20t14 20l105 145q6 8 13.5 14t26.5 6h75q20 0 20 -20v-165zM175 515v95h-5l-65 -90v-5h70z" />
    <glyph glyph-name="five.numr" unicode="&#xf652;" horiz-adv-x="345" 
d="M205 585q60 0 85 -23.5t25 -76.5v-15q0 -53 -25 -76.5t-85 -23.5h-55q-60 0 -85 23t-25 72q0 20 20 20h45q13 0 17 -5.5t7 -12t8.5 -12t22.5 -5.5h30q30 0 30 30v5q0 30 -30 30h-120q-20 0 -20 20v145q0 20 20 20h215q20 0 20 -20v-40q0 -20 -20 -20h-140v-35h60z" />
    <glyph glyph-name="six.numr" unicode="&#xf653;" horiz-adv-x="345" 
d="M135 475q0 -30 30 -30h25q30 0 30 30t-30 30h-55v-30zM40 590q0 60 25 85t85 25h45q60 0 85 -23t25 -72q0 -20 -20 -20h-45q-13 0 -17 5.5t-7 12t-8.5 12t-22.5 5.5h-20q-30 0 -30 -30v-15h70q60 0 85 -23.5t25 -76.5v-5q0 -53 -25 -76.5t-85 -23.5h-55q-60 0 -85 23.5
t-25 76.5v120z" />
    <glyph glyph-name="seven.numr" unicode="&#xf654;" horiz-adv-x="285" 
d="M40 615q-20 0 -20 20v45q0 20 20 20h225q20 0 20 -20v-40q0 -11 -1.5 -19t-4.5 -15t-6.5 -14.5t-7.5 -16.5l-85 -185q-5 -11 -9.5 -15.5t-15.5 -4.5h-65q-11 0 -15.5 4.5t0.5 15.5l105 225h-140z" />
    <glyph glyph-name="eight.numr" unicode="&#xf655;" horiz-adv-x="350" 
d="M310 600q0 -17 -6 -28.5t-14 -18.5q-9 -8 -20 -13q14 -4 25 -14q9 -8 17 -22t8 -34q0 -53 -25 -76.5t-85 -23.5h-70q-60 0 -85 23.5t-25 76.5q0 20 7.5 34t17.5 22q11 10 25 14q-11 5 -20 13q-8 7 -14 18.5t-6 28.5q0 53 25 76.5t85 23.5h50q60 0 85 -23.5t25 -76.5z
M155 510q-30 0 -30 -30v-5q0 -30 30 -30h40q30 0 30 30v5q0 30 -30 30h-40zM185 570q30 0 30 30t-30 30h-20q-30 0 -30 -30t30 -30h20z" />
    <glyph glyph-name="nine.numr" unicode="&#xf656;" horiz-adv-x="345" 
d="M210 595q0 30 -30 30h-25q-30 0 -30 -30t30 -30h55v30zM305 480q0 -60 -25 -85t-85 -25h-45q-60 0 -85 23t-25 72q0 20 20 20h45q13 0 17 -5.5t7 -12t8.5 -12t22.5 -5.5h20q30 0 30 30v15h-70q-60 0 -85 23.5t-25 76.5v5q0 53 25 76.5t85 23.5h55q60 0 85 -23.5t25 -76.5
v-120z" />
    <glyph glyph-name="commaaccent" unicode="&#xf6c3;" horiz-adv-x="170" 
d="M140 -180q0 -10 -2.5 -18.5t-5.5 -15.5q-4 -8 -7 -16l-30 -60q-4 -8 -11.5 -14t-18.5 -6h-20q-11 0 -12.5 6t2.5 14l40 80h-20q-25 0 -25 25v60q0 25 25 25h60q25 0 25 -25v-55z" />
    <glyph glyph-name="cyrBreve" unicode="&#xf6d1;" horiz-adv-x="420" 
d="M240 890q40 0 40 40v5q0 25 25 25h60q25 0 25 -25v-10q0 -135 -135 -135h-90q-135 0 -135 135v10q0 25 25 25h60q25 0 25 -25v-5q0 -40 40 -40h60z" />
    <glyph glyph-name="cyrbreve" unicode="&#xf6d4;" horiz-adv-x="375" 
d="M155 590q-125 0 -125 125v10q0 25 25 25h50q25 0 25 -25v-15q0 -15 10 -25t25 -10h45q15 0 25 10t10 25v15q0 25 25 25h50q25 0 25 -25v-10q0 -125 -125 -125h-65z" />
    <glyph glyph-name="Germandbls" horiz-adv-x="760" 
d="M285 585q-70 0 -70 -70v-490q0 -25 -25 -25h-75q-25 0 -25 25v495q0 180 180 180h385q25 0 25 -25v-45q0 -19 -8.5 -30.5t-16.5 -19.5l-165 -155v-5h30q180 0 180 -180v-60q0 -180 -180 -180h-130q-25 0 -25 25v65q0 25 25 25h115q70 0 70 70v60q0 70 -70 70h-155
q-25 0 -25 25v35q0 19 8.5 30.5t16.5 19.5l165 155v5h-230z" />
    <glyph glyph-name="foundryicon" horiz-adv-x="1230" 
d="M100 810h1030v-920h-1030v920zM1110 790h-990v-880h990v880zM745 610q38 0 59 -19.5t21 -45.5t-21 -45.5t-59 -19.5h-55v-80h-55v210h110zM745 300q38 0 59 -19.5t21 -45.5t-21 -45.5t-59 -19.5h-55v-80h-55v210h110zM420 300h60l40 -75h5l40 75h65l-80 -130v-80h-55v80z
M420 610h60l40 -75h5l40 75h65l-80 -130v-80h-55v80zM235 255v45h165l25 -45h-70v-165h-55v165h-65zM235 565v45h165l25 -45h-70v-165h-55v165h-65zM790 465q19 4 37.5 20.5t22.5 39.5h80v-45h-85v-35h120v-45h-175v65zM790 155q19 4 37.5 20.5t22.5 39.5h80v-45h-85v-35
h120v-45h-175v65zM965 300v-45h-115q-4 15 -14.5 28t-25.5 17h155zM965 610v-45h-115q-4 15 -14.5 28t-25.5 17h155zM765 545q0 8 -6 14t-14 6h-55v-40h55q8 0 14 6t6 14zM765 235q0 8 -6 14t-14 6h-55v-40h55q8 0 14 6t6 14z" />
    <glyph glyph-name="zero.tab" horiz-adv-x="740" 
d="M260 -10q-180 0 -180 180v360q0 180 180 180h220q180 0 180 -180v-360q0 -180 -180 -180h-220zM465 105q70 0 70 70v350q0 70 -70 70h-190q-70 0 -70 -70v-350q0 -70 70 -70h190z" />
    <glyph glyph-name="one.tab" horiz-adv-x="740" 
d="M435 115h155q25 0 25 -25v-65q0 -25 -25 -25h-435q-25 0 -25 25v65q0 25 25 25h155v470h-130q-25 0 -25 25v65q0 25 25 25h230q25 0 25 -25v-560z" />
    <glyph glyph-name="two.tab" horiz-adv-x="740" 
d="M635 485q0 -26 -7 -47.5t-18 -39t-25.5 -32t-29.5 -26.5l-270 -220v-5h325q25 0 25 -25v-65q0 -25 -25 -25h-480q-25 0 -25 25v65q0 19 8 28.5t22 21.5l335 280q19 16 29.5 30.5t10.5 44.5v30q0 70 -70 70h-135q-70 0 -70 -70v-30q0 -25 -25 -25h-75q-25 0 -25 25v35
q0 180 180 180h165q180 0 180 -180v-45z" />
    <glyph glyph-name="three.tab" horiz-adv-x="740" 
d="M445 585h-310q-25 0 -25 25v65q0 25 25 25h460q25 0 25 -25v-45q0 -19 -8.5 -30.5t-16.5 -19.5l-170 -155v-5h25q180 0 180 -180v-70q0 -180 -180 -180h-180q-180 0 -180 180v30q0 25 25 25h75q25 0 25 -25v-25q0 -70 70 -70h150q70 0 70 70v70q0 70 -70 70h-160
q-25 0 -25 25v35q0 19 8.5 30.5t16.5 19.5l170 155v5z" />
    <glyph glyph-name="four.tab" horiz-adv-x="740" 
d="M670 185q0 -25 -25 -25h-60v-135q0 -25 -25 -25h-75q-25 0 -25 25v135h-360q-25 0 -25 25v55q0 19 8 31.5t17 23.5l300 380q9 11 17 18t23 7h120q25 0 25 -25v-400h60q25 0 25 -25v-65zM230 280v-5h230v290h-5z" />
    <glyph glyph-name="five.tab" horiz-adv-x="740" 
d="M245 440h205q180 0 180 -180v-90q0 -180 -180 -180h-180q-180 0 -180 180v30q0 25 25 25h75q25 0 25 -25v-25q0 -70 70 -70h150q70 0 70 70v80q0 70 -70 70h-290q-25 0 -25 25v325q0 25 25 25h435q25 0 25 -25v-65q0 -25 -25 -25h-335v-145z" />
    <glyph glyph-name="six.tab" horiz-adv-x="740" 
d="M635 170q0 -180 -180 -180h-175q-180 0 -180 180v360q0 180 180 180h160q180 0 180 -180v-25q0 -25 -25 -25h-75q-25 0 -25 25v20q0 70 -70 70h-130q-70 0 -70 -70v-100h230q180 0 180 -180v-75zM510 240q0 70 -70 70h-215v-135q0 -70 70 -70h145q70 0 70 70v65z" />
    <glyph glyph-name="seven.tab" horiz-adv-x="740" 
d="M625 630q0 -15 -1.5 -25t-5 -19t-8 -18.5t-10.5 -22.5l-240 -520q-5 -11 -15 -18t-25 -7h-80q-11 0 -15.5 7t0.5 18l260 555v5h-350q-25 0 -25 25v65q0 25 25 25h465q25 0 25 -25v-45z" />
    <glyph glyph-name="eight.tab" horiz-adv-x="740" 
d="M270 -10q-180 0 -180 180v60q0 43 15.5 70t34.5 41q22 17 50 24v5q-25 7 -43 22q-16 13 -29 35t-13 58v45q0 180 180 180h170q180 0 180 -180v-45q0 -36 -13.5 -58t-29.5 -35q-18 -15 -42 -22v-5q28 -7 50 -24q19 -14 34.5 -41t15.5 -70v-60q0 -180 -180 -180h-200z
M525 230q0 70 -70 70h-170q-70 0 -70 -70v-55q0 -70 70 -70h170q70 0 70 70v55zM300 595q-70 0 -70 -70v-40q0 -70 70 -70h140q70 0 70 70v40q0 70 -70 70h-140z" />
    <glyph glyph-name="nine.tab" horiz-adv-x="740" 
d="M100 530q0 180 180 180h175q180 0 180 -180v-360q0 -180 -180 -180h-160q-180 0 -180 180v25q0 25 25 25h75q25 0 25 -25v-20q0 -70 70 -70h130q70 0 70 70v100h-230q-180 0 -180 180v75zM225 460q0 -70 70 -70h215v135q0 70 -70 70h-145q-70 0 -70 -70v-65z" />
    <glyph glyph-name="at.cap" horiz-adv-x="995" 
d="M575 380q0 40 -40 40h-65q-45 0 -45 -45v-130q0 -45 45 -45h65q40 0 40 40v140zM660 515q25 0 25 -25v-280h55q75 0 75 75v275q0 75 -75 75h-475q-75 0 -75 -75v-500q0 -75 75 -75h545q25 0 25 -25v-55q0 -25 -25 -25h-560q-170 0 -170 170v520q0 170 170 170h505
q170 0 170 -170v-295q0 -170 -170 -170h-155q-25 0 -25 25v10h-5q-5 -11 -14 -20q-8 -8 -20 -14t-31 -6h-60q-60 0 -95 35t-35 95v160q0 60 35 95t95 35h60q19 0 31 -6t20 -14q9 -9 14 -20h5v10q0 25 25 25h60z" />
    <glyph glyph-name="parenleft.cap" horiz-adv-x="375" 
d="M205 80q0 -42 24 -66t66 -24h25q25 0 25 -25v-60q0 -25 -25 -25h-40q-98 0 -149 51t-51 149v500q0 98 51 149t149 51h40q25 0 25 -25v-60q0 -25 -25 -25h-25q-42 0 -66 -24t-24 -66v-500z" />
    <glyph glyph-name="parenright.cap" horiz-adv-x="375" 
d="M170 580q0 42 -24 66t-66 24h-25q-25 0 -25 25v60q0 25 25 25h40q98 0 149 -51t51 -149v-500q0 -98 -51 -149t-149 -51h-40q-25 0 -25 25v60q0 25 25 25h25q42 0 66 24t24 66v500z" />
    <glyph glyph-name="bracketleft.cap" horiz-adv-x="370" 
d="M215 -10h100q25 0 25 -25v-60q0 -25 -25 -25h-200q-25 0 -25 25v850q0 25 25 25h200q25 0 25 -25v-60q0 -25 -25 -25h-100v-680z" />
    <glyph glyph-name="bracketright.cap" horiz-adv-x="370" 
d="M155 670h-100q-25 0 -25 25v60q0 25 25 25h200q25 0 25 -25v-850q0 -25 -25 -25h-200q-25 0 -25 25v60q0 25 25 25h100v680z" />
    <glyph glyph-name="braceleft.cap" horiz-adv-x="420" 
d="M200 327q20 -6 37 -21q14 -13 26 -35.5t12 -60.5v-140q0 -38 21 -59t59 -21h10q25 0 25 -25v-60q0 -25 -25 -25h-25q-190 0 -190 190v130q0 34 -20.5 54.5t-54.5 20.5h-10q-25 0 -25 25v60q0 25 25 25h10q34 0 54.5 20.5t20.5 54.5v130q0 190 190 190h25q25 0 25 -25v-60
q0 -25 -25 -25h-10q-38 0 -59 -21t-21 -59v-140q0 -38 -12 -60.5t-26 -35.5q-17 -15 -37 -21v-6z" />
    <glyph glyph-name="braceright.cap" horiz-adv-x="420" 
d="M220 333q-21 6 -38 21q-14 13 -25.5 35.5t-11.5 60.5v140q0 38 -21 59t-59 21h-10q-25 0 -25 25v60q0 25 25 25h25q190 0 190 -190v-130q0 -34 20.5 -54.5t54.5 -20.5h10q25 0 25 -25v-60q0 -25 -25 -25h-10q-34 0 -54.5 -20.5t-20.5 -54.5v-130q0 -190 -190 -190h-25
q-25 0 -25 25v60q0 25 25 25h10q38 0 59 21t21 59v140q0 38 11.5 60.5t25.5 35.5q17 15 38 21v6z" />
    <glyph glyph-name="exclamdown.cap" horiz-adv-x="295" 
d="M205 610q0 -25 -25 -25h-65q-25 0 -25 25v65q0 25 25 25h65q25 0 25 -25v-65zM85 310l20 160q3 25 25 25h35q22 0 25 -25l20 -160v-285q0 -25 -25 -25h-75q-25 0 -25 25v285z" />
    <glyph glyph-name="questiondown.cap" horiz-adv-x="620" 
d="M580 170q0 -180 -180 -180h-170q-180 0 -180 180v85q0 180 180 180h45l5 35q3 25 25 25h35q22 0 25 -25l20 -125q0 -25 -25 -25h-115q-70 0 -70 -70v-75q0 -70 70 -70h140q70 0 70 70v10q0 25 25 25h75q25 0 25 -25v-15zM380 610q0 -25 -25 -25h-65q-25 0 -25 25v65
q0 25 25 25h65q25 0 25 -25v-65z" />
    <glyph glyph-name="guillemotleft.cap" horiz-adv-x="504" 
d="M30 305l120 190q8 11 16.5 18t23.5 7h65q15 0 17.5 -8.5t-2.5 -16.5l-120 -190l120 -190q5 -8 2.5 -16.5t-17.5 -8.5h-65q-15 0 -23.5 7t-16.5 18zM230 305l120 190q8 11 16.5 18t23.5 7h65q15 0 17.5 -8.5t-2.5 -16.5l-120 -190l120 -190q5 -8 2.5 -16.5t-17.5 -8.5h-65
q-15 0 -23.5 7t-16.5 18z" />
    <glyph glyph-name="guillemotright.cap" horiz-adv-x="504" 
d="M354 115q-8 -11 -16.5 -18t-23.5 -7h-65q-15 0 -17.5 8.5t2.5 16.5l120 190l-120 190q-5 8 -2.5 16.5t17.5 8.5h65q15 0 23.5 -7t16.5 -18l120 -190zM154 115q-8 -11 -16.5 -18t-23.5 -7h-65q-15 0 -17.5 8.5t2.5 16.5l120 190l-120 190q-5 8 -2.5 16.5t17.5 8.5h65
q15 0 23.5 -7t16.5 -18l120 -190z" />
    <glyph glyph-name="guilsinglleft.cap" horiz-adv-x="339" 
d="M175 515q8 11 16.5 18t23.5 7h65q15 0 17.5 -8.5t-2.5 -16.5l-135 -210l135 -210q5 -8 2.5 -16.5t-17.5 -8.5h-65q-15 0 -23.5 7t-16.5 18l-135 210z" />
    <glyph glyph-name="guilsinglright.cap" horiz-adv-x="339" 
d="M299 305l-135 -210q-8 -11 -16.5 -18t-23.5 -7h-65q-15 0 -17.5 8.5t2.5 16.5l135 210l-135 210q-5 8 -2.5 16.5t17.5 8.5h65q15 0 23.5 -7t16.5 -18z" />
    <glyph glyph-name="hyphen.cap" horiz-adv-x="450" 
d="M395 415q25 0 25 -25v-60q0 -25 -25 -25h-340q-25 0 -25 25v60q0 25 25 25h340z" />
    <glyph glyph-name="endash.cap" horiz-adv-x="610" 
d="M555 410q25 0 25 -25v-60q0 -25 -25 -25h-500q-25 0 -25 25v60q0 25 25 25h500z" />
    <glyph glyph-name="emdash.cap" horiz-adv-x="800" 
d="M745 410q25 0 25 -25v-60q0 -25 -25 -25h-690q-25 0 -25 25v60q0 25 25 25h690z" />
    <glyph glyph-name="periodcentered.cap" horiz-adv-x="195" 
d="M155 315q0 -25 -25 -25h-65q-25 0 -25 25v65q0 25 25 25h65q25 0 25 -25v-65z" />
    </font>
</defs>
</svg>
