<?xml version="1.0" standalone="no"?>
<!DOCTYPE svg PUBLIC "-//W3C//DTD SVG 1.1//EN" "http://www.w3.org/Graphics/SVG/1.1/DTD/svg11.dtd" >
<svg xmlns="http://www.w3.org/2000/svg" xmlns:xlink="http://www.w3.org/1999/xlink" version="1.1">
<metadata>
Created by FontForge 20170731 at Wed Aug 31 07:59:25 2016
 By Aleksey,,,
Copyright (c) 2016 by Typetype. Designer Ivan Gladkikh, technical designers Olga Yumartova, Olexa Volochay. All rights reserved.
</metadata>
<defs>
<font id="TTLakes-Light" horiz-adv-x="570" >
  <font-face 
    font-family="TT Lakes Light"
    font-weight="300"
    font-stretch="normal"
    units-per-em="1000"
    panose-1="2 0 5 3 2 0 0 2 0 4"
    ascent="800"
    descent="-200"
    x-height="510"
    cap-height="700"
    bbox="-120.231 -255 1130 980"
    underline-thickness="50"
    underline-position="-200"
    unicode-range="U+000D-F6D4"
  />
<missing-glyph horiz-adv-x="0" 
 />
    <glyph glyph-name=".notdef" horiz-adv-x="0" 
 />
    <glyph glyph-name=".null" horiz-adv-x="0" 
 />
    <glyph glyph-name=".null" horiz-adv-x="0" 
 />
    <glyph glyph-name="nonmarkingreturn" unicode="&#xd;" horiz-adv-x="0" 
 />
    <glyph glyph-name="space" unicode=" " horiz-adv-x="190" 
 />
    <glyph glyph-name="exclam" unicode="!" horiz-adv-x="270" 
d="M120 0q-10 0 -10 10v30q0 10 10 10h30q10 0 10 -10v-30q0 -10 -10 -10h-30zM115 690q0 10 10 10h20q10 0 10 -10v-340l-5 -160q0 -10 -10 -10h-10q-10 0 -10 10l-5 160v340z" />
    <glyph glyph-name="quotedbl" unicode="&#x22;" horiz-adv-x="335" 
d="M225 690q0 10 10 10h20q10 0 10 -10v-200q0 -10 -10 -10h-20q-10 0 -10 10v200zM70 690q0 10 10 10h20q10 0 10 -10v-200q0 -10 -10 -10h-20q-10 0 -10 10v200z" />
    <glyph glyph-name="numbersign" unicode="#" horiz-adv-x="660" 
d="M465 470h-205l-65 -240h205zM185 190l-50 -180q-2 -10 -15 -10h-20q-8 0 -9.5 3t-0.5 7l50 180h-110q-10 0 -10 10v20q0 10 10 10h120l65 240h-105q-10 0 -10 10v20q0 10 10 10h115l50 180q2 10 15 10h20q8 0 9.5 -3t0.5 -7l-50 -180h205l50 180q2 10 15 10h20
q8 0 9.5 -3t0.5 -7l-50 -180h110q10 0 10 -10v-20q0 -10 -10 -10h-120l-65 -240h105q10 0 10 -10v-20q0 -10 -10 -10h-115l-50 -180q-2 -10 -15 -10h-20q-8 0 -9.5 3t-0.5 7l50 180h-205z" />
    <glyph glyph-name="dollar" unicode="$" horiz-adv-x="695" 
d="M380 710h50q83 0 129 -45.5t46 -124.5v-35q0 -10 -10 -10h-25q-10 0 -10 10v35q0 60 -33 92.5t-97 32.5h-155q-64 0 -97 -32.5t-33 -92.5v-30q0 -34 17.5 -54.5t47.5 -30.5l300 -100q42 -14 68.5 -45t26.5 -80v-39q0 -80 -46 -125.5t-129 -45.5h-50v-90q0 -10 -10 -10
h-25q-10 0 -10 10v90h-80q-83 0 -129 45.5t-46 124.5v35q0 10 10 10h25q10 0 10 -10v-35q0 -60 33 -92.5t97 -32.5h175q64 0 97 32.5t33 92.5v40q0 34 -17.5 54.5t-47.5 30.5l-300 100q-42 14 -68.5 45t-26.5 80v30q0 79 46 124.5t129 45.5h60v90q0 10 10 10h25q10 0 10 -10
v-90z" />
    <glyph glyph-name="percent" unicode="%" horiz-adv-x="755" 
d="M245 10q-2 -4 -4.5 -7t-10.5 -3h-25q-9 0 -5 10l310 680q2 4 4.5 7t10.5 3h25q9 0 5 -10zM50 590q0 53 29 81.5t86 28.5h40q57 0 86 -28.5t29 -81.5v-90q0 -53 -29 -81.5t-86 -28.5h-40q-57 0 -86 28.5t-29 81.5v90zM280 590q0 70 -75 70h-40q-75 0 -75 -70v-90
q0 -70 75 -70h40q75 0 75 70v90zM435 200q0 53 29 81.5t86 28.5h40q57 0 86 -28.5t29 -81.5v-90q0 -53 -29 -81.5t-86 -28.5h-40q-57 0 -86 28.5t-29 81.5v90zM665 200q0 70 -75 70h-40q-75 0 -75 -70v-90q0 -70 75 -70h40q75 0 75 70v90z" />
    <glyph glyph-name="ampersand" unicode="&#x26;" horiz-adv-x="668" 
d="M245 330h-10q-120 0 -120 -115v-65q0 -115 120 -115h70q35 0 65 14t51 31q25 19 44 45zM175 520q0 -23 4.5 -39.5t13.5 -31.5t22 -29t30 -30l250 -235l70 85q7 8 15 0l15 -15q7 -8 0 -15l-70 -80l130 -120q4 -4 3 -7t-8 -3h-40q-8 0 -12 3t-8 7l-90 85q-24 -30 -54 -53
q-26 -20 -62 -36t-79 -16h-70q-79 0 -122 42.5t-43 117.5v65q0 56 22 86.5t48 44.5q31 17 70 19l-25 25q-8 7 -17.5 18t-17.5 26.5t-14 36.5t-6 49v30q0 75 43 117.5t122 42.5h50q79 0 122 -42.5t43 -117.5v-10q0 -10 -10 -10h-25q-10 0 -10 10v10q0 115 -120 115h-50
q-120 0 -120 -115v-30z" />
    <glyph glyph-name="quotesingle" unicode="'" horiz-adv-x="180" 
d="M110 490q0 -10 -10 -10h-20q-10 0 -10 10v200q0 10 10 10h20q10 0 10 -10v-200z" />
    <glyph glyph-name="parenleft" unicode="(" horiz-adv-x="345" 
d="M100 560q0 79 46 124.5t129 45.5h20q10 0 10 -10v-25q0 -10 -10 -10h-20q-64 0 -97 -32.5t-33 -92.5v-560q0 -60 33 -92.5t97 -32.5h20q10 0 10 -10v-25q0 -10 -10 -10h-20q-83 0 -129 45.5t-46 124.5v560z" />
    <glyph glyph-name="parenright" unicode=")" horiz-adv-x="345" 
d="M245 0q0 -79 -46 -124.5t-129 -45.5h-20q-10 0 -10 10v25q0 10 10 10h20q64 0 97 32.5t33 92.5v560q0 60 -33 92.5t-97 32.5h-20q-10 0 -10 10v25q0 10 10 10h20q83 0 129 -45.5t46 -124.5v-560z" />
    <glyph glyph-name="asterisk" unicode="*" horiz-adv-x="350" 
d="M95 420q-4 -4 -10 0l-20 15q-4 4 0 10l80 100h-105q-10 0 -10 10v20q0 10 10 10h115v105q0 10 10 10h20q10 0 10 -10v-105h115q10 0 10 -10v-20q0 -10 -10 -10h-105l80 -100q4 -6 0 -10l-20 -15q-6 -4 -10 0l-80 100z" />
    <glyph glyph-name="plus" unicode="+" horiz-adv-x="435" 
d="M240 110q0 -10 -10 -10h-25q-10 0 -10 10v170h-155q-10 0 -10 10v25q0 10 10 10h155v170q0 10 10 10h25q10 0 10 -10v-170h155q10 0 10 -10v-25q0 -10 -10 -10h-155v-170z" />
    <glyph glyph-name="comma" unicode="," horiz-adv-x="157" 
d="M107 20q0 -4 -1 -7.5t-2 -6.5q-1 -4 -2 -6l-45 -90q-2 -4 -4.5 -7t-10.5 -3t-10 3t0 7l45 90h-10q-10 0 -10 10v30q0 10 10 10h30q10 0 10 -10v-20z" />
    <glyph glyph-name="hyphen" unicode="-" horiz-adv-x="420" 
d="M40 280q-10 0 -10 10v25q0 10 10 10h340q10 0 10 -10v-25q0 -10 -10 -10h-340z" />
    <glyph glyph-name="period" unicode="." horiz-adv-x="150" 
d="M60 0q-10 0 -10 10v30q0 10 10 10h30q10 0 10 -10v-30q0 -10 -10 -10h-30z" />
    <glyph glyph-name="slash" unicode="/" horiz-adv-x="357" 
d="M76 10q-2 -4 -4.5 -7t-10.5 -3h-25q-9 0 -5 10l250 680q2 4 4.5 7t10.5 3h25q9 0 5 -10z" />
    <glyph glyph-name="zero" unicode="0" horiz-adv-x="720" 
d="M620 160q0 -79 -46 -124.5t-129 -45.5h-170q-83 0 -129 45.5t-46 124.5v380q0 79 46 124.5t129 45.5h170q83 0 129 -45.5t46 -124.5v-380zM575 540q0 60 -33 92.5t-97 32.5h-170q-64 0 -97 -32.5t-33 -92.5v-380q0 -60 33 -92.5t97 -32.5h170q64 0 97 32.5t33 92.5v380z
" />
    <glyph glyph-name="one" unicode="1" horiz-adv-x="340" 
d="M230 10q0 -10 -10 -10h-25q-10 0 -10 10v645h-155q-10 0 -10 10v25q0 10 10 10h190q10 0 10 -10v-680z" />
    <glyph glyph-name="two" unicode="2" horiz-adv-x="635" 
d="M545 500q0 -26 -8 -48t-21 -41t-30 -36.5t-36 -34.5l-315 -290v-5h400q10 0 10 -10v-25q0 -10 -10 -10h-455q-10 0 -10 10v25q0 7 5 14q2 4 5 6l340 315q33 30 56.5 59.5t23.5 70.5v40q0 60 -33 92.5t-97 32.5h-125q-64 0 -97 -32.5t-33 -92.5v-35q0 -10 -10 -10h-25
q-10 0 -10 10v35q0 79 46 124.5t129 45.5h125q83 0 129 -45.5t46 -124.5v-40z" />
    <glyph glyph-name="three" unicode="3" horiz-adv-x="640" 
d="M90 655q-10 0 -10 10v25q0 10 10 10h440q10 0 10 -10v-15q0 -4 -1.5 -7.5t-3.5 -6.5q-3 -4 -5 -6l-260 -240v-5h105q83 0 129 -45.5t46 -124.5v-80q0 -79 -46 -124.5t-129 -45.5h-140q-83 0 -129 45.5t-46 124.5v35q0 10 10 10h25q10 0 10 -10v-35q0 -60 33 -92.5
t97 -32.5h140q64 0 97 32.5t33 92.5v80q0 60 -33 92.5t-97 32.5h-170q-10 0 -10 10v15q0 7 5 14q2 4 5 6l260 240v5h-375z" />
    <glyph glyph-name="four" unicode="4" horiz-adv-x="610" 
d="M570 200q0 -10 -10 -10h-85v-180q0 -10 -10 -10h-25q-10 0 -10 10v180h-390q-10 0 -10 10v20q0 7 5 14q2 4 5 6l365 450q1 2 4 5q2 2 6 3.5t10 1.5h40q10 0 10 -10v-455h85q10 0 10 -10v-25zM425 650q-83 -103 -164.5 -205t-165.5 -205v-5h335v415h-5z" />
    <glyph glyph-name="five" unicode="5" horiz-adv-x="640" 
d="M155 410h240q83 0 129 -45.5t46 -124.5v-80q0 -79 -46 -124.5t-129 -45.5h-140q-83 0 -129 45.5t-46 124.5v35q0 10 10 10h25q10 0 10 -10v-35q0 -60 33 -92.5t97 -32.5h140q64 0 97 32.5t33 92.5v80q0 60 -33 92.5t-97 32.5h-275q-10 0 -10 10v315q0 10 10 10h415
q10 0 10 -10v-25q0 -10 -10 -10h-380v-245z" />
    <glyph glyph-name="six" unicode="6" horiz-adv-x="685" 
d="M595 160q0 -79 -46 -124.5t-129 -45.5h-145q-83 0 -129 45.5t-46 124.5v380q0 79 46 124.5t129 45.5h125q83 0 129 -45.5t46 -124.5v-25q0 -10 -10 -10h-25q-10 0 -10 10v25q0 60 -33 92.5t-97 32.5h-125q-64 0 -97 -32.5t-33 -92.5v-135h275q83 0 129 -45.5t46 -124.5
v-75zM550 235q0 60 -33 92.5t-97 32.5h-275v-200q0 -60 33 -92.5t97 -32.5h145q64 0 97 32.5t33 92.5v75z" />
    <glyph glyph-name="seven" unicode="7" horiz-adv-x="535" 
d="M505 675q0 -4 -1.5 -9t-3.5 -10q-3 -5 -5 -11l-290 -635q-2 -4 -4.5 -7t-10.5 -3h-30q-4 0 -5.5 3t0.5 7l295 645h-410q-10 0 -10 10v25q0 10 10 10h455q10 0 10 -10v-15z" />
    <glyph glyph-name="eight" unicode="8" horiz-adv-x="670" 
d="M590 160q0 -79 -46 -124.5t-129 -45.5h-160q-83 0 -129 45.5t-46 124.5v50q0 49 17 78t38 45q24 18 55 25v4q-28 7 -50 25q-19 15 -34.5 42.5t-15.5 75.5v35q0 79 46 124.5t129 45.5h140q83 0 129 -45.5t46 -124.5v-35q0 -48 -15.5 -75.5t-34.5 -42.5q-22 -18 -50 -25v-4
q30 -7 55 -25q20 -16 37.5 -45t17.5 -78v-50zM255 335q-64 0 -97 -32.5t-33 -92.5v-50q0 -60 33 -92.5t97 -32.5h160q64 0 97 32.5t33 92.5v50q0 60 -33 92.5t-97 32.5h-160zM265 665q-64 0 -97 -32.5t-33 -92.5v-35q0 -60 33 -92.5t97 -32.5h140q64 0 97 32.5t33 92.5v35
q0 60 -33 92.5t-97 32.5h-140z" />
    <glyph glyph-name="nine" unicode="9" horiz-adv-x="685" 
d="M90 540q0 79 46 124.5t129 45.5h145q83 0 129 -45.5t46 -124.5v-380q0 -79 -46 -124.5t-129 -45.5h-125q-83 0 -129 45.5t-46 124.5v25q0 10 10 10h25q10 0 10 -10v-25q0 -60 33 -92.5t97 -32.5h125q64 0 97 32.5t33 92.5v135h-275q-83 0 -129 45.5t-46 124.5v75z
M135 465q0 -60 33 -92.5t97 -32.5h275v200q0 60 -33 92.5t-97 32.5h-145q-64 0 -97 -32.5t-33 -92.5v-75z" />
    <glyph glyph-name="colon" unicode=":" horiz-adv-x="150" 
d="M60 0q-10 0 -10 10v30q0 10 10 10h30q10 0 10 -10v-30q0 -10 -10 -10h-30zM60 460q-10 0 -10 10v30q0 10 10 10h30q10 0 10 -10v-30q0 -10 -10 -10h-30z" />
    <glyph glyph-name="semicolon" unicode=";" horiz-adv-x="157" 
d="M67 460q-10 0 -10 10v30q0 10 10 10h30q10 0 10 -10v-30q0 -10 -10 -10h-30zM107 20q0 -4 -1 -7.5t-2 -6.5q-1 -4 -2 -6l-45 -90q-2 -4 -4.5 -7t-10.5 -3t-10 3t0 7l45 90h-10q-10 0 -10 10v30q0 10 10 10h30q10 0 10 -10v-20z" />
    <glyph glyph-name="less" unicode="&#x3c;" horiz-adv-x="500" 
d="M40 255q0 6 5 11q2 2 5 4l400 195q2 1 5 1q5 0 5 -6v-25q0 -6 -5 -11q-3 -3 -5 -4l-355 -170v-5l355 -170q2 -2 5 -4q2 -2 3.5 -4.5t1.5 -6.5v-25q0 -6 -5 -6q-3 0 -5 1l-400 195q-3 1 -5 4q-5 3 -5 11v15z" />
    <glyph glyph-name="equal" unicode="=" horiz-adv-x="440" 
d="M50 190q-10 0 -10 10v25q0 10 10 10h340q10 0 10 -10v-25q0 -10 -10 -10h-340zM50 370q-10 0 -10 10v25q0 10 10 10h340q10 0 10 -10v-25q0 -10 -10 -10h-340z" />
    <glyph glyph-name="greater" unicode="&#x3e;" horiz-adv-x="500" 
d="M460 240q0 -6 -5 -11q-3 -3 -5 -4l-400 -195q-3 -1 -5 -1q-5 0 -5 6v25q0 6 5 11q2 2 5 4l355 170v5l-355 170q-3 1 -5 4q-5 3 -5 11v25q0 6 5 6q2 0 5 -1l400 -195q2 -2 5 -4q2 -2 3.5 -4.5t1.5 -6.5v-15z" />
    <glyph glyph-name="question" unicode="?" horiz-adv-x="595" 
d="M300 270l-5 -80q0 -10 -10 -10h-10q-10 0 -10 10l-5 115q0 10 10 10h80q64 0 97 32.5t33 92.5v100q0 60 -33 92.5t-97 32.5h-125q-64 0 -97 -32.5t-33 -92.5v-35q0 -10 -10 -10h-25q-10 0 -10 10v35q0 79 46 124.5t129 45.5h125q83 0 129 -45.5t46 -124.5v-100
q0 -79 -46 -124.5t-129 -45.5h-50zM265 0q-10 0 -10 10v30q0 10 10 10h30q10 0 10 -10v-30q0 -10 -10 -10h-30z" />
    <glyph glyph-name="at" unicode="@" horiz-adv-x="990" 
d="M805 -110q10 0 10 -10v-25q0 -10 -10 -10h-530q-83 0 -129 45.5t-46 124.5v490q0 79 46 124.5t129 45.5h440q83 0 129 -45.5t46 -124.5v-285q0 -75 -43 -117.5t-122 -42.5h-100q-10 0 -10 10v25h-5q-6 -13 -17 -23q-10 -8 -27.5 -15t-45.5 -7h-65q-64 0 -97 32.5
t-33 92.5v165q0 60 33 92.5t97 32.5h65q28 0 45.5 -7.5t27.5 -15.5q11 -10 17 -22h5v25q0 10 10 10h25q10 0 10 -10v-340h65q120 0 120 115v285q0 60 -33 92.5t-97 32.5h-440q-64 0 -97 -32.5t-33 -92.5v-490q0 -60 33 -92.5t97 -32.5h530zM615 330q0 90 -95 90h-65
q-45 0 -65 -19t-20 -61v-165q0 -42 20 -61t65 -19h65q95 0 95 90v145z" />
    <glyph glyph-name="A" unicode="A" horiz-adv-x="647" 
d="M146 205l-75 -195q-2 -4 -4.5 -7t-10.5 -3h-25q-14 0 -10 10l275 680q2 5 4.5 7.5t10.5 2.5h25q8 0 10.5 -2.5t4.5 -7.5l275 -680q4 -10 -10 -10h-25q-8 0 -10.5 3t-4.5 7l-75 195h-355zM481 250l-155 395h-5l-155 -395h315z" />
    <glyph glyph-name="B" unicode="B" horiz-adv-x="705" 
d="M550 530q0 60 -33 92.5t-97 32.5h-265v-260h265q64 0 97 32.5t33 92.5v10zM595 520q0 -44 -13.5 -70.5t-29.5 -41.5q-18 -18 -42 -26v-4q35 -6 62 -24q23 -16 43 -46t20 -83v-55q0 -79 -46 -124.5t-129 -45.5h-340q-10 0 -10 10v680q0 10 10 10h300q83 0 129 -45.5
t46 -124.5v-10zM590 225q0 60 -33 92.5t-97 32.5h-305v-305h305q64 0 97 32.5t33 92.5v55z" />
    <glyph glyph-name="C" unicode="C" horiz-adv-x="755" 
d="M665 160q0 -79 -46 -124.5t-129 -45.5h-215q-83 0 -129 45.5t-46 124.5v380q0 79 46 124.5t129 45.5h215q83 0 129 -45.5t46 -124.5v-35q0 -10 -10 -10h-25q-10 0 -10 10v35q0 60 -33 92.5t-97 32.5h-215q-64 0 -97 -32.5t-33 -92.5v-380q0 -60 33 -92.5t97 -32.5h215
q64 0 97 32.5t33 92.5v35q0 10 10 10h25q10 0 10 -10v-35z" />
    <glyph glyph-name="D" unicode="D" horiz-adv-x="760" 
d="M485 700q83 0 129 -45.5t46 -124.5v-360q0 -79 -46 -124.5t-129 -45.5h-365q-10 0 -10 10v680q0 10 10 10h365zM155 45h330q64 0 97 32.5t33 92.5v360q0 60 -33 92.5t-97 32.5h-330v-610z" />
    <glyph glyph-name="E" unicode="E" horiz-adv-x="660" 
d="M155 380h355q10 0 10 -10v-25q0 -10 -10 -10h-355v-290h455q10 0 10 -10v-25q0 -10 -10 -10h-490q-10 0 -10 10v680q0 10 10 10h480q10 0 10 -10v-25q0 -10 -10 -10h-445v-275z" />
    <glyph glyph-name="F" unicode="F" horiz-adv-x="630" 
d="M155 10q0 -10 -10 -10h-25q-10 0 -10 10v680q0 10 10 10h480q10 0 10 -10v-25q0 -10 -10 -10h-445v-310h315q10 0 10 -10v-25q0 -10 -10 -10h-315v-290z" />
    <glyph glyph-name="G" unicode="G" horiz-adv-x="765" 
d="M665 160q0 -79 -46 -124.5t-129 -45.5h-215q-83 0 -129 45.5t-46 124.5v380q0 79 46 124.5t129 45.5h215q83 0 129 -45.5t46 -124.5v-35q0 -10 -10 -10h-25q-10 0 -10 10v35q0 60 -33 92.5t-97 32.5h-215q-64 0 -97 -32.5t-33 -92.5v-380q0 -60 33 -92.5t97 -32.5h215
q64 0 97 32.5t33 92.5v145h-180q-10 0 -10 10v25q0 10 10 10h215q10 0 10 -10v-180z" />
    <glyph glyph-name="H" unicode="H" horiz-adv-x="745" 
d="M155 375h435v315q0 10 10 10h25q10 0 10 -10v-680q0 -10 -10 -10h-25q-10 0 -10 10v320h-435v-320q0 -10 -10 -10h-25q-10 0 -10 10v680q0 10 10 10h25q10 0 10 -10v-315z" />
    <glyph glyph-name="I" unicode="I" horiz-adv-x="265" 
d="M155 10q0 -10 -10 -10h-25q-10 0 -10 10v680q0 10 10 10h25q10 0 10 -10v-680z" />
    <glyph glyph-name="J" unicode="J" horiz-adv-x="670" 
d="M560 160q0 -79 -46 -124.5t-129 -45.5h-140q-83 0 -129 45.5t-46 124.5v50q0 10 10 10h25q10 0 10 -10v-50q0 -60 33 -92.5t97 -32.5h140q64 0 97 32.5t33 92.5v530q0 10 10 10h25q10 0 10 -10v-530z" />
    <glyph glyph-name="K" unicode="K" horiz-adv-x="677" 
d="M155 390h245l165 300q3 5 5 7.5t10 2.5h30q4 0 5.5 -3t-0.5 -7l-180 -320l200 -360q2 -4 0.5 -7t-5.5 -3h-30q-8 0 -10.5 3t-4.5 7l-185 335h-245v-335q0 -10 -10 -10h-25q-10 0 -10 10v680q0 10 10 10h25q10 0 10 -10v-300z" />
    <glyph glyph-name="L" unicode="L" horiz-adv-x="615" 
d="M155 45h430q10 0 10 -10v-25q0 -10 -10 -10h-465q-10 0 -10 10v680q0 10 10 10h25q10 0 10 -10v-645z" />
    <glyph glyph-name="M" unicode="M" horiz-adv-x="965" 
d="M480 60h5l305 630q5 10 20 10h35q10 0 10 -10v-680q0 -10 -10 -10h-25q-10 0 -10 10v610h-5l-295 -610q-2 -4 -7 -7t-13 -3h-15q-8 0 -13 3t-7 7l-295 610h-5v-610q0 -10 -10 -10h-25q-10 0 -10 10v680q0 10 10 10h35q15 0 20 -10z" />
    <glyph glyph-name="N" unicode="N" horiz-adv-x="775" 
d="M620 690q0 10 10 10h25q10 0 10 -10v-680q0 -10 -10 -10h-35q-8 0 -12.5 3t-7.5 7l-440 625h-5v-625q0 -10 -10 -10h-25q-10 0 -10 10v680q0 10 10 10h35q8 0 12.5 -3t7.5 -7l440 -625h5v625z" />
    <glyph glyph-name="O" unicode="O" horiz-adv-x="775" 
d="M100 540q0 79 46 124.5t129 45.5h225q83 0 129 -45.5t46 -124.5v-380q0 -79 -46 -124.5t-129 -45.5h-225q-83 0 -129 45.5t-46 124.5v380zM145 160q0 -60 33 -92.5t97 -32.5h225q64 0 97 32.5t33 92.5v380q0 60 -33 92.5t-97 32.5h-225q-64 0 -97 -32.5t-33 -92.5v-380z
" />
    <glyph glyph-name="P" unicode="P" horiz-adv-x="720" 
d="M155 235v-225q0 -10 -10 -10h-25q-10 0 -10 10v680q0 10 10 10h335q83 0 129 -45.5t46 -124.5v-125q0 -79 -46 -124.5t-129 -45.5h-300zM155 655v-375h300q64 0 97 32.5t33 92.5v125q0 60 -33 92.5t-97 32.5h-300z" />
    <glyph glyph-name="Q" unicode="Q" horiz-adv-x="784" 
d="M100 540q0 79 46 124.5t129 45.5h225q83 0 129 -45.5t46 -124.5v-380q0 -23 -4 -40.5t-9 -29.5q-5 -14 -12 -25l90 -100q7 -8 0 -15l-15 -15q-8 -8 -15 0l-85 95q-13 -11 -31 -20q-16 -8 -39 -14t-55 -6h-225q-83 0 -129 45.5t-46 124.5v380zM514 150q-7 8 0 15l15 15
q8 8 15 0l76 -85q2 10 5 21q2 9 3.5 21t1.5 23v380q0 60 -33 92.5t-97 32.5h-225q-64 0 -97 -32.5t-33 -92.5v-380q0 -60 33 -92.5t97 -32.5h225q26 0 44.5 3.5t29.5 8.5q13 5 21 13z" />
    <glyph glyph-name="R" unicode="R" horiz-adv-x="732" 
d="M155 260v-250q0 -10 -10 -10h-25q-10 0 -10 10v680q0 10 10 10h335q83 0 129 -45.5t46 -124.5v-100q0 -59 -20.5 -91.5t-44.5 -49.5q-29 -19 -65 -24l140 -255q2 -4 0.5 -7t-5.5 -3h-30q-8 0 -10.5 3t-4.5 7l-135 250h-300zM155 655v-350h300q64 0 97 32.5t33 92.5v100
q0 60 -33 92.5t-97 32.5h-300z" />
    <glyph glyph-name="S" unicode="S" horiz-adv-x="695" 
d="M560 200q0 34 -17.5 54.5t-47.5 30.5l-300 100q-42 14 -68.5 45t-26.5 80v30q0 79 46 124.5t129 45.5h155q83 0 129 -45.5t46 -124.5v-35q0 -10 -10 -10h-25q-10 0 -10 10v35q0 60 -33 92.5t-97 32.5h-155q-64 0 -97 -32.5t-33 -92.5v-30q0 -34 17.5 -54.5t47.5 -30.5
l300 -100q42 -14 68.5 -45t26.5 -80v-39q0 -80 -46 -125.5t-129 -45.5h-175q-83 0 -129 45.5t-46 124.5v35q0 10 10 10h25q10 0 10 -10v-35q0 -60 33 -92.5t97 -32.5h175q64 0 97 32.5t33 92.5v40z" />
    <glyph glyph-name="T" unicode="T" horiz-adv-x="565" 
d="M305 10q0 -10 -10 -10h-25q-10 0 -10 10v645h-240q-10 0 -10 10v25q0 10 10 10h525q10 0 10 -10v-25q0 -10 -10 -10h-240v-645z" />
    <glyph glyph-name="U" unicode="U" horiz-adv-x="760" 
d="M650 160q0 -79 -46 -124.5t-129 -45.5h-190q-83 0 -129 45.5t-46 124.5v530q0 10 10 10h25q10 0 10 -10v-530q0 -60 33 -92.5t97 -32.5h190q64 0 97 32.5t33 92.5v530q0 10 10 10h25q10 0 10 -10v-530z" />
    <glyph glyph-name="V" unicode="V" horiz-adv-x="627" 
d="M301 0q-8 0 -10.5 3t-4.5 7l-265 680q-4 10 10 10h25q8 0 10.5 -3t4.5 -7l240 -625h5l240 625q2 4 4.5 7t10.5 3h25q14 0 10 -10l-265 -680q-2 -4 -4.5 -7t-10.5 -3h-25z" />
    <glyph glyph-name="W" unicode="W" horiz-adv-x="897" 
d="M461 700q8 0 10.5 -2.5t4.5 -7.5l170 -610h5l170 610q2 10 15 10h20q8 0 9.5 -3t0.5 -7l-190 -680q-2 -10 -15 -10h-25q-13 0 -15 10l-170 610h-5l-170 -610q-2 -10 -15 -10h-25q-13 0 -15 10l-190 680q-1 4 0.5 7t9.5 3h20q13 0 15 -10l170 -610h5l170 610q2 5 4.5 7.5
t10.5 2.5h25z" />
    <glyph glyph-name="X" unicode="X" horiz-adv-x="616" 
d="M583 10q3 -4 3 -7t-8 -3h-30q-8 0 -11 5q-3 2 -4 5l-225 325l-225 -325q-2 -3 -4 -5q-5 -5 -11 -5h-30q-8 0 -8 3t3 7l250 360l-225 320q-3 4 -3 7t8 3h30q4 0 6.5 -1.5t4.5 -3.5q2 -3 4 -5l200 -285l200 285q1 2 4 5q5 5 11 5h30q8 0 8 -3t-3 -7l-225 -320z" />
    <glyph glyph-name="Y" unicode="Y" horiz-adv-x="619" 
d="M312 300l235 390q2 4 4.5 7t10.5 3h30q4 0 6 -2.5t-1 -7.5l-265 -440v-240q0 -10 -10 -10h-25q-10 0 -10 10v240l-265 440q-3 5 -1 7.5t6 2.5h30q8 0 10.5 -3t4.5 -7l235 -390h5z" />
    <glyph glyph-name="Z" unicode="Z" horiz-adv-x="605" 
d="M100 50v-5h455q10 0 10 -10v-25q0 -10 -10 -10h-505q-10 0 -10 10v30q0 7 5 14q2 4 5 6l455 590v5h-445q-10 0 -10 10v25q0 10 10 10h495q10 0 10 -10v-30q0 -4 -1.5 -7.5t-3.5 -6.5q-3 -4 -5 -6z" />
    <glyph glyph-name="bracketleft" unicode="[" horiz-adv-x="340" 
d="M155 -125h135q10 0 10 -10v-25q0 -10 -10 -10h-170q-10 0 -10 10v880q0 10 10 10h170q10 0 10 -10v-25q0 -10 -10 -10h-135v-810z" />
    <glyph glyph-name="backslash" unicode="\" horiz-adv-x="357" 
d="M31 690q-4 10 5 10h25q8 0 10.5 -3t4.5 -7l250 -680q4 -10 -5 -10h-25q-8 0 -10.5 3t-4.5 7z" />
    <glyph glyph-name="bracketright" unicode="]" horiz-adv-x="340" 
d="M185 685h-135q-10 0 -10 10v25q0 10 10 10h170q10 0 10 -10v-880q0 -10 -10 -10h-170q-10 0 -10 10v25q0 10 10 10h135v810z" />
    <glyph glyph-name="asciicircum" unicode="^" horiz-adv-x="469" 
d="M242 700q4 0 6.5 -1.5t4.5 -3.5q2 -3 4 -5l170 -315q1 -3 1 -5q0 -5 -6 -5h-25q-8 0 -11 5q-3 2 -4 5l-145 270h-5l-145 -270q-2 -3 -4 -5q-5 -5 -11 -5h-25q-6 0 -6 5q0 2 1 5l170 315q1 2 4 5q5 5 11 5h15z" />
    <glyph glyph-name="underscore" unicode="_" horiz-adv-x="360" 
d="M10 -175q-10 0 -10 10v25q0 10 10 10h340q10 0 10 -10v-25q0 -10 -10 -10h-340z" />
    <glyph glyph-name="grave" unicode="`" horiz-adv-x="189" 
d="M32 690q-2 4 -0.5 7t5.5 3h30q8 0 10.5 -3t4.5 -7l75 -135q2 -4 0.5 -7t-5.5 -3h-15q-8 0 -10.5 3t-4.5 7z" />
    <glyph glyph-name="a" unicode="a" horiz-adv-x="550" 
d="M95 370q0 72 40 111t115 39h55q75 0 115 -39t40 -111v-360q0 -10 -10 -10h-20q-10 0 -10 10v55h-5q-8 -21 -25 -38q-14 -14 -38 -25.5t-62 -11.5h-65q-75 0 -115 39t-40 111t40 111t115 39h195v80q0 53 -29 81.5t-86 28.5h-55q-57 0 -86 -28.5t-29 -81.5v-5
q0 -10 -10 -10h-20q-10 0 -10 10v5zM110 140q0 -53 29 -81.5t86 -28.5h65q60 0 95 34t35 91v95h-195q-57 0 -86 -28.5t-29 -81.5z" />
    <glyph glyph-name="b" unicode="b" 
d="M335 510q75 0 115 -39t40 -111v-210q0 -72 -40 -111t-115 -39h-235q-10 0 -10 10v680q0 10 10 10h20q10 0 10 -10v-180h205zM130 40h205q57 0 86 28.5t29 81.5v210q0 53 -29 81.5t-86 28.5h-205v-430z" />
    <glyph glyph-name="c" unicode="c" horiz-adv-x="560" 
d="M490 350q0 -10 -10 -10h-20q-10 0 -10 10v20q0 53 -29 81.5t-86 28.5h-100q-57 0 -86 -28.5t-29 -81.5v-230q0 -53 29 -81.5t86 -28.5h100q57 0 86 28.5t29 81.5v20q0 10 10 10h20q10 0 10 -10v-20q0 -72 -40 -111t-115 -39h-100q-75 0 -115 39t-40 111v230q0 72 40 111
t115 39h100q75 0 115 -39t40 -111v-20z" />
    <glyph glyph-name="d" unicode="d" 
d="M440 510v180q0 10 10 10h20q10 0 10 -10v-680q0 -10 -10 -10h-20q-10 0 -10 10v55h-5q-8 -21 -25 -38q-14 -14 -38 -25.5t-62 -11.5h-75q-75 0 -115 39t-40 111v220q0 72 40 111t115 39h205zM440 470h-205q-57 0 -86 -28.5t-29 -81.5v-220q0 -53 29 -81.5t86 -28.5h75
q60 0 95 34t35 91v315z" />
    <glyph glyph-name="e" unicode="e" 
d="M490 245q0 -10 -10 -10h-360v-95q0 -53 29 -81.5t86 -28.5h100q57 0 86 28.5t29 81.5q0 10 10 10h20q10 0 10 -10q0 -72 -40 -111t-115 -39h-100q-75 0 -115 39t-40 111v230q0 72 40 111t115 39h100q75 0 115 -39t40 -111v-125zM120 275h330v95q0 53 -29 81.5t-86 28.5
h-100q-57 0 -86 -28.5t-29 -81.5v-95z" />
    <glyph glyph-name="f" unicode="f" horiz-adv-x="345" 
d="M315 450q0 -10 -10 -10h-120v-430q0 -10 -10 -10h-20q-10 0 -10 10v430h-95q-10 0 -10 10v20q0 10 10 10h95v80q0 68 36.5 104t108.5 36h45q10 0 10 -10v-20q0 -10 -10 -10h-45q-105 0 -105 -100v-80h120q10 0 10 -10v-20z" />
    <glyph glyph-name="g" unicode="g" 
d="M85 -40q0 10 10 10h20q10 0 10 -10v-10q0 -53 29 -81.5t86 -28.5h85q57 0 86 28.5t29 81.5v90h-205q-75 0 -115 39t-40 111v180q0 72 40 111t115 39h75q38 0 62 -12t38 -26q17 -17 25 -37h5v55q0 10 10 10h20q10 0 10 -10v-550q0 -72 -40 -111t-115 -39h-85
q-75 0 -115 39t-40 111v10zM440 355q0 57 -35 91t-95 34h-75q-57 0 -86 -28.5t-29 -81.5v-180q0 -53 29 -81.5t86 -28.5h205v275z" />
    <glyph glyph-name="h" unicode="h" horiz-adv-x="580" 
d="M335 510q75 0 115 -39t40 -111v-350q0 -10 -10 -10h-20q-10 0 -10 10v350q0 53 -29 81.5t-86 28.5h-205v-460q0 -10 -10 -10h-20q-10 0 -10 10v680q0 10 10 10h20q10 0 10 -10v-180h205z" />
    <glyph glyph-name="i" unicode="i" horiz-adv-x="230" 
d="M135 10q0 -10 -10 -10h-20q-10 0 -10 10v490q0 10 10 10h20q10 0 10 -10v-490zM130 700q10 0 10 -10v-30q0 -10 -10 -10h-30q-10 0 -10 10v30q0 10 10 10h30z" />
    <glyph glyph-name="j" unicode="j" horiz-adv-x="230" 
d="M135 -60q0 -68 -36.5 -104t-108.5 -36h-30q-10 0 -10 10v20q0 10 10 10h30q105 0 105 100v560q0 10 10 10h20q10 0 10 -10v-560zM130 700q10 0 10 -10v-30q0 -10 -10 -10h-30q-10 0 -10 10v30q0 10 10 10h30z" />
    <glyph glyph-name="k" unicode="k" horiz-adv-x="507" 
d="M130 290h165l120 210q2 4 4.5 7t10.5 3h25q4 0 5.5 -3t-0.5 -7l-130 -230l145 -260q2 -4 0.5 -7t-5.5 -3h-25q-8 0 -10.5 3t-4.5 7l-135 240h-165v-240q0 -10 -10 -10h-20q-10 0 -10 10v680q0 10 10 10h20q10 0 10 -10v-400z" />
    <glyph glyph-name="l" unicode="l" horiz-adv-x="220" 
d="M130 10q0 -10 -10 -10h-20q-10 0 -10 10v680q0 10 10 10h20q10 0 10 -10v-680z" />
    <glyph glyph-name="m" unicode="m" horiz-adv-x="830" 
d="M435 10q0 -10 -10 -10h-20h-1q-2 0 -2.5 0.5t-1.5 0.5q-5 3 -5 9v360q0 53 -29 81.5t-86 28.5h-20q-60 0 -95 -34t-35 -91v-345q0 -10 -10 -10h-20q-10 0 -10 10v490q0 10 10 10h20q10 0 10 -10v-55h5q8 20 25 37q14 14 38 26t62 12h20q39 0 65 -12t41 -26q18 -17 27 -37
h4q9 20 27 37q15 14 40.5 26t65.5 12h35q75 0 115 -39t40 -111v-360q0 -10 -10 -10h-20q-10 0 -10 10v360q0 53 -29 81.5t-86 28.5h-35q-57 0 -86 -28.5t-29 -81.5v-360z" />
    <glyph glyph-name="n" unicode="n" horiz-adv-x="580" 
d="M335 520q75 0 115 -39t40 -111v-360q0 -10 -10 -10h-20q-10 0 -10 10v360q0 53 -29 81.5t-86 28.5h-75q-60 0 -95 -34t-35 -91v-345q0 -10 -10 -10h-20q-10 0 -10 10v490q0 10 10 10h20q10 0 10 -10v-55h5q8 20 25 37q14 14 38 26t62 12h75z" />
    <glyph glyph-name="o" unicode="o" horiz-adv-x="575" 
d="M495 140q0 -72 -40 -111t-115 -39h-105q-75 0 -115 39t-40 111v230q0 72 40 111t115 39h105q75 0 115 -39t40 -111v-230zM455 370q0 53 -29 81.5t-86 28.5h-105q-57 0 -86 -28.5t-29 -81.5v-230q0 -53 29 -81.5t86 -28.5h105q57 0 86 28.5t29 81.5v230z" />
    <glyph glyph-name="p" unicode="p" 
d="M130 0v-180q0 -10 -10 -10h-20q-10 0 -10 10v680q0 10 10 10h20q10 0 10 -10v-55h5q8 20 25 37q14 14 38 26t62 12h75q75 0 115 -39t40 -111v-220q0 -72 -40 -111t-115 -39h-205zM130 40h205q57 0 86 28.5t29 81.5v220q0 53 -29 81.5t-86 28.5h-75q-60 0 -95 -34t-35 -91
v-315z" />
    <glyph glyph-name="q" unicode="q" 
d="M235 0q-75 0 -115 39t-40 111v210q0 72 40 111t115 39h235q10 0 10 -10v-680q0 -10 -10 -10h-20q-10 0 -10 10v180h-205zM440 470h-205q-57 0 -86 -28.5t-29 -81.5v-210q0 -53 29 -81.5t86 -28.5h205v430z" />
    <glyph glyph-name="r" unicode="r" horiz-adv-x="340" 
d="M330 490q0 -10 -10 -10h-60q-60 0 -95 -34t-35 -91v-345q0 -10 -10 -10h-20q-10 0 -10 10v490q0 10 10 10h20q10 0 10 -10v-55h5q8 20 25 37q14 14 38 26t62 12h60q10 0 10 -10v-20z" />
    <glyph glyph-name="s" unicode="s" horiz-adv-x="530" 
d="M460 135q0 -69 -39 -107t-111 -38h-95q-75 0 -115 39t-40 111v10q0 10 10 10h20q10 0 10 -10v-10q0 -53 29 -81.5t86 -28.5h95q53 0 81.5 28t28.5 77q0 26 -13.5 41.5t-36.5 23.5l-225 75q-34 11 -54.5 34.5t-20.5 65.5q0 69 39 107t111 38h85q75 0 115 -39t40 -111v-10
q0 -10 -10 -10h-20q-10 0 -10 10v10q0 53 -29 81.5t-86 28.5h-85q-53 0 -81.5 -28t-28.5 -77q0 -26 13.5 -41.5t36.5 -23.5l225 -75q34 -11 54.5 -34.5t20.5 -65.5z" />
    <glyph glyph-name="t" unicode="t" horiz-adv-x="385" 
d="M315 480q0 -10 -10 -10h-120v-330q0 -100 105 -100h45q10 0 10 -10v-20q0 -10 -10 -10h-45q-72 0 -108.5 36t-36.5 104v330h-95q-10 0 -10 10v20q0 10 10 10h95v110q0 10 10 10h20q10 0 10 -10v-110h120q10 0 10 -10v-20z" />
    <glyph glyph-name="u" unicode="u" horiz-adv-x="580" 
d="M245 -10q-75 0 -115 39t-40 111v360q0 10 10 10h20q10 0 10 -10v-360q0 -53 29 -81.5t86 -28.5h75q60 0 95 34t35 91v345q0 10 10 10h20q10 0 10 -10v-490q0 -10 -10 -10h-20q-10 0 -10 10v55h-5q-8 -21 -25 -38q-14 -14 -38 -25.5t-62 -11.5h-75z" />
    <glyph glyph-name="v" unicode="v" horiz-adv-x="477" 
d="M226 0q-8 0 -10.5 3t-4.5 7l-190 490q-4 10 10 10h20q8 0 10.5 -3t4.5 -7l170 -440h5l170 440q2 4 4.5 7t10.5 3h20q14 0 10 -10l-190 -490q-2 -4 -4.5 -7t-10.5 -3h-25z" />
    <glyph glyph-name="w" unicode="w" horiz-adv-x="682" 
d="M351 510q13 0 15 -10l120 -435h5l120 435q2 10 15 10h15q8 0 9.5 -3t0.5 -7l-135 -490q-2 -10 -15 -10h-25q-13 0 -15 10l-118 425h-4l-118 -425q-2 -10 -15 -10h-25q-13 0 -15 10l-135 490q-1 4 0.5 7t9.5 3h15q13 0 15 -10l120 -435h5l120 435q2 10 15 10h20z" />
    <glyph glyph-name="x" unicode="x" horiz-adv-x="466" 
d="M233 295l140 205q1 2 4 5q5 5 11 5h25q8 0 7.5 -3t-2.5 -7l-160 -235l175 -255q2 -4 2.5 -7t-7.5 -3h-25q-8 0 -11 5q-3 2 -4 5l-155 225l-155 -225q-2 -3 -4 -5q-5 -5 -11 -5h-25q-8 0 -7.5 3t2.5 7l175 255l-160 235q-2 4 -2.5 7t7.5 3h25q4 0 6.5 -1.5t4.5 -3.5
q2 -3 4 -5z" />
    <glyph glyph-name="y" unicode="y" horiz-adv-x="482" 
d="M416 500q2 4 4.5 7t10.5 3h20q14 0 10 -10l-195 -500q-22 -56 -41.5 -93t-40 -58.5t-43 -30t-50.5 -8.5h-20q-10 0 -10 10v20q0 10 10 10h20q19 0 35 7.5t31.5 24.5t31 46t32.5 72l-200 500q-4 10 10 10h20q8 0 10.5 -3t4.5 -7l175 -440h5z" />
    <glyph glyph-name="z" unicode="z" horiz-adv-x="450" 
d="M85 45v-5h325q10 0 10 -10v-20q0 -10 -10 -10h-370q-10 0 -10 10v25q0 7 5 14q2 4 5 6l325 410v5h-315q-10 0 -10 10v20q0 10 10 10h360q10 0 10 -10v-25q0 -4 -1.5 -7.5t-3.5 -6.5q-3 -4 -5 -6z" />
    <glyph glyph-name="braceleft" unicode="{" horiz-adv-x="370" 
d="M130 278q20 -5 37 -19q14 -12 26 -34t12 -60v-190q0 -100 105 -100h10q10 0 10 -10v-25q0 -10 -10 -10h-10q-150 0 -150 145v190q0 45 -25.5 70t-74.5 25q-10 0 -10 10v20q0 10 10 10q49 0 74.5 25t25.5 70v190q0 145 150 145h10q10 0 10 -10v-25q0 -10 -10 -10h-10
q-105 0 -105 -100v-190q0 -38 -12 -60t-26 -34q-17 -14 -37 -19v-4z" />
    <glyph glyph-name="bar" unicode="|" horiz-adv-x="285" 
d="M165 -180q0 -10 -10 -10h-25q-10 0 -10 10v870q0 10 10 10h25q10 0 10 -10v-870z" />
    <glyph glyph-name="braceright" unicode="}" horiz-adv-x="370" 
d="M240 282q-21 5 -38 19q-14 12 -25.5 34t-11.5 60v190q0 100 -105 100h-10q-10 0 -10 10v25q0 10 10 10h10q150 0 150 -145v-190q0 -45 25.5 -70t74.5 -25q10 0 10 -10v-20q0 -10 -10 -10q-49 0 -74.5 -25t-25.5 -70v-190q0 -145 -150 -145h-10q-10 0 -10 10v25
q0 10 10 10h10q105 0 105 100v190q0 38 11.5 60t25.5 34q17 14 38 19v4z" />
    <glyph glyph-name="asciitilde" unicode="~" horiz-adv-x="415" 
d="M290 245q-28 0 -49.5 17t-40.5 38t-36.5 38t-38.5 17q-19 0 -32 -13t-13 -32v-55q0 -10 -10 -10h-20q-10 0 -10 10v55q0 38 23.5 61.5t61.5 23.5q28 0 49.5 -17t40.5 -38t36.5 -38t38.5 -17q19 0 32 13t13 32v55q0 10 10 10h20q10 0 10 -10v-55q0 -38 -23.5 -61.5
t-61.5 -23.5z" />
    <glyph glyph-name="nonbreakingspace" unicode="&#xa0;" horiz-adv-x="190" 
 />
    <glyph glyph-name="exclamdown" unicode="&#xa1;" horiz-adv-x="270" 
d="M150 510q10 0 10 -10v-30q0 -10 -10 -10h-30q-10 0 -10 10v30q0 10 10 10h30zM115 160l5 160q0 10 10 10h10q10 0 10 -10l5 -160v-340q0 -10 -10 -10h-20q-10 0 -10 10v340z" />
    <glyph glyph-name="cent" unicode="&#xa2;" horiz-adv-x="560" 
d="M490 350q0 -10 -10 -10h-20q-10 0 -10 10v20q0 53 -29 81.5t-86 28.5h-100q-57 0 -86 -28.5t-29 -81.5v-230q0 -53 29 -81.5t86 -28.5h100q57 0 86 28.5t29 81.5v20q0 10 10 10h20q10 0 10 -10v-20q0 -72 -40 -111t-115 -39h-25v-75q0 -10 -10 -10h-20q-10 0 -10 10v75
h-35q-75 0 -115 39t-40 111v230q0 72 40 111t115 39h35v75q0 10 10 10h20q10 0 10 -10v-75h25q75 0 115 -39t40 -111v-20z" />
    <glyph glyph-name="sterling" unicode="&#xa3;" horiz-adv-x="545" 
d="M225 335v-290h300q10 0 10 -10v-25q0 -10 -10 -10h-485q-10 0 -10 10v25q0 10 10 10h140v290h-90q-10 0 -10 10v25q0 10 10 10h90v160q0 75 43 117.5t122 42.5h55q10 0 10 -10v-25q0 -10 -10 -10h-55q-120 0 -120 -115v-160h140q10 0 10 -10v-25q0 -10 -10 -10h-140z" />
    <glyph glyph-name="currency" unicode="&#xa4;" horiz-adv-x="685" 
d="M170 155v-145q0 -10 -10 -10h-25q-10 0 -10 10v145h-75q-10 0 -10 10v25q0 10 10 10h75v105h-75q-10 0 -10 10v25q0 10 10 10h75v340q0 10 10 10h295q83 0 129 -45.5t46 -124.5v-55q0 -79 -46 -124.5t-129 -45.5h-260v-105h330q10 0 10 -10v-25q0 -10 -10 -10h-330z
M170 655v-305h260q64 0 97 32.5t33 92.5v55q0 60 -33 92.5t-97 32.5h-260z" />
    <glyph glyph-name="yen" unicode="&#xa5;" horiz-adv-x="619" 
d="M332 125v-115q0 -10 -10 -10h-25q-10 0 -10 10v115h-155q-10 0 -10 10v20q0 10 10 10h155v85h-155q-10 0 -10 10v20q0 10 10 10h130l-240 400q-3 5 -1 7.5t6 2.5h30q8 0 10.5 -3t4.5 -7l235 -390h5l235 390q2 4 4.5 7t10.5 3h30q4 0 6 -2.5t-1 -7.5l-240 -400h130
q10 0 10 -10v-20q0 -10 -10 -10h-155v-85h155q10 0 10 -10v-20q0 -10 -10 -10h-155z" />
    <glyph glyph-name="brokenbar" unicode="&#xa6;" horiz-adv-x="285" 
d="M165 360q0 -10 -10 -10h-25q-10 0 -10 10v330q0 10 10 10h25q10 0 10 -10v-330zM165 -180q0 -10 -10 -10h-25q-10 0 -10 10v330q0 10 10 10h25q10 0 10 -10v-330z" />
    <glyph glyph-name="section" unicode="&#xa7;" horiz-adv-x="585" 
d="M230 400q-45 -4 -72.5 -32t-27.5 -73v-75q0 -26 13.5 -42t36.5 -23l175 -55q45 4 72.5 32t27.5 73v75q0 26 -13.5 42t-36.5 23zM490 -55q0 -69 -39 -107t-111 -38h-85q-75 0 -115 39t-40 111v10q0 10 10 10h20q10 0 10 -10v-10q0 -53 29 -81.5t86 -28.5h85q53 0 81.5 28
t28.5 77v35q0 26 -13.5 41.5t-36.5 23.5l-235 75q-34 11 -54.5 34.5t-20.5 65.5v75q0 38 13 60.5t29 36.5q18 15 43 23v5q-22 6 -40 18q-15 11 -27.5 30.5t-12.5 51.5v35q0 69 39 107t111 38h85q75 0 115 -39t40 -111v-10q0 -10 -10 -10h-20q-10 0 -10 10v10q0 53 -29 81.5
t-86 28.5h-85q-53 0 -81.5 -28t-28.5 -77v-35q0 -26 13.5 -41.5t36.5 -23.5l235 -75q34 -11 54.5 -34.5t20.5 -65.5v-75q0 -38 -13.5 -61.5t-29.5 -36.5q-18 -16 -42 -22v-5q22 -6 40 -18q15 -11 27.5 -30.5t12.5 -51.5v-35z" />
    <glyph glyph-name="dieresis" unicode="&#xa8;" horiz-adv-x="275" 
d="M70 700q10 0 10 -10v-30q0 -10 -10 -10h-30q-10 0 -10 10v30q0 10 10 10h30zM235 700q10 0 10 -10v-30q0 -10 -10 -10h-30q-10 0 -10 10v30q0 10 10 10h30z" />
    <glyph glyph-name="copyright" unicode="&#xa9;" horiz-adv-x="915" 
d="M110 530q0 79 46 124.5t129 45.5h345q83 0 129 -45.5t46 -124.5v-360q0 -79 -46 -124.5t-129 -45.5h-345q-83 0 -129 45.5t-46 124.5v360zM155 170q0 -60 33 -92.5t97 -32.5h345q64 0 97 32.5t33 92.5v360q0 60 -33 92.5t-97 32.5h-345q-64 0 -97 -32.5t-33 -92.5v-360z
M315 430q0 42 25 66t70 24h90q45 0 70 -24t25 -66v-15q0 -10 -10 -10h-20q-10 0 -10 10v15q0 23 -14.5 36.5t-40.5 13.5h-90q-26 0 -40.5 -13.5t-14.5 -36.5v-160q0 -23 14.5 -36.5t40.5 -13.5h90q26 0 40.5 13.5t14.5 36.5v15q0 10 10 10h20q10 0 10 -10v-15q0 -42 -25 -66
t-70 -24h-90q-45 0 -70 24t-25 66v160z" />
    <glyph glyph-name="ordfeminine" unicode="&#xaa;" horiz-adv-x="355" 
d="M135 530q-30 0 -42.5 -12t-12.5 -38t12.5 -38t42.5 -12h65q65 0 65 60v40h-130zM265 570v30q0 60 -65 60h-45q-65 0 -65 -60q0 -10 -10 -10h-20q-10 0 -10 10q0 100 105 100h45q105 0 105 -100v-200q0 -10 -10 -10h-20q-10 0 -10 10v25h-5q-5 -10 -13 -18
q-7 -7 -18.5 -12t-28.5 -5h-65q-45 0 -70 24t-25 66t25 66t70 24h130z" />
    <glyph glyph-name="guillemotleft" unicode="&#xab;" horiz-adv-x="447" 
d="M100 255l120 -190q2 -4 0.5 -7t-5.5 -3h-25q-11 0 -16 5q-3 2 -4 5l-120 190l120 190q1 2 4 5q2 2 6 3.5t10 1.5h25q4 0 5.5 -3t-0.5 -7zM275 255l120 -190q2 -4 0.5 -7t-5.5 -3h-25q-11 0 -16 5q-3 2 -4 5l-120 190l120 190q1 2 4 5q2 2 6 3.5t10 1.5h25q4 0 5.5 -3
t-0.5 -7z" />
    <glyph glyph-name="logicalnot" unicode="&#xac;" horiz-adv-x="430" 
d="M30 375q0 10 10 10h340q10 0 10 -10v-140q0 -10 -10 -10h-20q-10 0 -10 10v105h-310q-10 0 -10 10v25z" />
    <glyph glyph-name="uni00AD" unicode="&#xad;" horiz-adv-x="420" 
d="M40 280q-10 0 -10 10v25q0 10 10 10h340q10 0 10 -10v-25q0 -10 -10 -10h-340z" />
    <glyph glyph-name="registered" unicode="&#xae;" horiz-adv-x="915" 
d="M555 430q0 23 -14.5 36.5t-40.5 13.5h-130v-130h130q26 0 40.5 13.5t14.5 36.5v30zM489 310h-119v-120q0 -10 -10 -10h-20q-10 0 -10 10v320q0 10 10 10h160q45 0 70 -24t25 -66v-30q0 -29 -10.5 -45.5t-22.5 -25.5q-14 -11 -32 -14l70 -125q2 -4 0.5 -7t-5.5 -3h-24
q-7 0 -12 5q-3 2 -4 5zM110 530q0 79 46 124.5t129 45.5h345q83 0 129 -45.5t46 -124.5v-360q0 -79 -46 -124.5t-129 -45.5h-345q-83 0 -129 45.5t-46 124.5v360zM155 170q0 -60 33 -92.5t97 -32.5h345q64 0 97 32.5t33 92.5v360q0 60 -33 92.5t-97 32.5h-345
q-64 0 -97 -32.5t-33 -92.5v-360z" />
    <glyph glyph-name="macron" unicode="&#xaf;" horiz-adv-x="320" 
d="M40 660q-10 0 -10 10v20q0 10 10 10h240q10 0 10 -10v-20q0 -10 -10 -10h-240z" />
    <glyph glyph-name="degree" unicode="&#xb0;" horiz-adv-x="385" 
d="M50 590q0 53 29 81.5t86 28.5h55q57 0 86 -28.5t29 -81.5v-90q0 -53 -29 -81.5t-86 -28.5h-55q-57 0 -86 28.5t-29 81.5v90zM295 590q0 70 -75 70h-55q-75 0 -75 -70v-90q0 -70 75 -70h55q75 0 75 70v90z" />
    <glyph glyph-name="plusminus" unicode="&#xb1;" horiz-adv-x="455" 
d="M50 105q-10 0 -10 10v25q0 10 10 10h155v195h-155q-10 0 -10 10v25q0 10 10 10h155v170q0 10 10 10h25q10 0 10 -10v-170h155q10 0 10 -10v-25q0 -10 -10 -10h-155v-195h155q10 0 10 -10v-25q0 -10 -10 -10h-355z" />
    <glyph glyph-name="twosuperior" unicode="&#xb2;" horiz-adv-x="315" 
d="M235 700q0 60 -65 60h-25q-65 0 -65 -60q0 -10 -10 -10h-20q-10 0 -10 10q0 100 105 100h25q105 0 105 -100q0 -30 -16.5 -50t-39.5 -35l-124 -80v-5h170q10 0 10 -10v-20q0 -10 -10 -10h-215q-10 0 -10 10v35q0 4 3 8t7 7l155 100q11 8 20.5 19.5t9.5 30.5z" />
    <glyph glyph-name="threesuperior" unicode="&#xb3;" horiz-adv-x="325" 
d="M175 690v-5h5q53 0 79 -25t26 -70q0 -100 -105 -100h-35q-105 0 -105 100q0 10 10 10h20q10 0 10 -10q0 -60 65 -60h35q65 0 65 60t-65 60h-75q-10 0 -10 10v5q0 4 3 8t7 7l115 75v5h-170q-10 0 -10 10v20q0 10 10 10h215q10 0 10 -10v-25q0 -4 -3 -8.5t-7 -6.5z" />
    <glyph glyph-name="acute" unicode="&#xb4;" horiz-adv-x="189" 
d="M67 555q-2 -4 -4.5 -7t-10.5 -3h-15q-4 0 -5.5 3t0.5 7l75 135q2 4 4.5 7t10.5 3h30q4 0 5.5 -3t-0.5 -7z" />
    <glyph glyph-name="mu" unicode="&#xb5;" horiz-adv-x="580" 
d="M245 -10q-32 0 -53.5 7.5t-35.5 17.5q-16 11 -26 25v-220q0 -10 -10 -10h-20q-10 0 -10 10v680q0 10 10 10h20q10 0 10 -10v-360q0 -53 29 -81.5t86 -28.5h75q60 0 95 34t35 91v345q0 10 10 10h20q10 0 10 -10v-490q0 -10 -10 -10h-20q-10 0 -10 10v55h-5q-8 -21 -25 -38
q-14 -14 -38 -25.5t-62 -11.5h-75z" />
    <glyph glyph-name="paragraph" unicode="&#xb6;" horiz-adv-x="590" 
d="M235 350h-10q-79 0 -122 42.5t-43 117.5v30q0 75 43 117.5t122 42.5h255q10 0 10 -10v-720q0 -79 -46 -124.5t-129 -45.5h-155q-10 0 -10 10v25q0 10 10 10h65q10 0 10 10v495zM315 -155q64 0 97 32.5t33 92.5v685h-165v-810h35z" />
    <glyph glyph-name="periodcentered" unicode="&#xb7;" horiz-adv-x="190" 
d="M80 275q-10 0 -10 10v30q0 10 10 10h30q10 0 10 -10v-30q0 -10 -10 -10h-30z" />
    <glyph glyph-name="cedilla" unicode="&#xb8;" horiz-adv-x="225" 
d="M60 -105q-10 0 -10 10v20q0 11 5 21q2 5 5 9l28 45h27l-35 -70h20q45 0 70 -23.5t25 -61.5t-25 -61.5t-70 -23.5h-60q-10 0 -10 10v15q0 10 10 10h60q30 0 45 13.5t15 36.5t-15 36.5t-45 13.5h-40z" />
    <glyph glyph-name="onesuperior" unicode="&#xb9;" horiz-adv-x="230" 
d="M50 790q0 10 10 10h110q10 0 10 -10v-290q0 -10 -10 -10h-20q-10 0 -10 10v260h-80q-10 0 -10 10v20z" />
    <glyph glyph-name="ordmasculine" unicode="&#xba;" horiz-adv-x="370" 
d="M50 590q0 53 29 81.5t86 28.5h40q57 0 86 -28.5t29 -81.5v-90q0 -53 -29 -81.5t-86 -28.5h-40q-57 0 -86 28.5t-29 81.5v90zM280 590q0 70 -75 70h-40q-75 0 -75 -70v-90q0 -70 75 -70h40q75 0 75 70v90z" />
    <glyph glyph-name="guillemotright" unicode="&#xbb;" horiz-adv-x="447" 
d="M227 445q-2 4 -0.5 7t5.5 3h25q5 0 9.5 -1.5t6.5 -3.5q3 -3 4 -5l120 -190l-120 -190q-1 -3 -4 -5q-5 -5 -16 -5h-25q-4 0 -5.5 3t0.5 7l120 190zM52 445q-2 4 -0.5 7t5.5 3h25q5 0 9.5 -1.5t6.5 -3.5q3 -3 4 -5l120 -190l-120 -190q-1 -3 -4 -5q-5 -5 -16 -5h-25
q-4 0 -5.5 3t0.5 7l120 190z" />
    <glyph glyph-name="onequarter" unicode="&#xbc;" horiz-adv-x="675" 
d="M180 10q-2 -4 -4.5 -7t-10.5 -3h-25q-9 0 -5 10l315 680q2 4 4.5 7t10.5 3h25q9 0 5 -10zM30 690q0 10 10 10h110q10 0 10 -10v-290q0 -10 -10 -10h-20q-10 0 -10 10v260h-80q-10 0 -10 10v20zM585 110h40q10 0 10 -10v-20q0 -10 -10 -10h-40v-60q0 -10 -10 -10h-20
q-10 0 -10 10v60h-165q-10 0 -10 10v20q0 7 5 14q2 4 5 6l140 180q2 2 6 5q3 2 6.5 3.5t7.5 1.5h35q10 0 10 -10v-190zM545 110v160h-5q-31 -41 -60 -77.5t-60 -77.5v-5h125z" />
    <glyph glyph-name="onehalf" unicode="&#xbd;" horiz-adv-x="705" 
d="M180 10q-2 -4 -4.5 -7t-10.5 -3h-25q-9 0 -5 10l315 680q2 4 4.5 7t10.5 3h25q9 0 5 -10zM30 690q0 10 10 10h110q10 0 10 -10v-290q0 -10 -10 -10h-20q-10 0 -10 10v260h-80q-10 0 -10 10v20zM615 210q0 60 -65 60h-25q-65 0 -65 -60q0 -10 -10 -10h-20q-10 0 -10 10
q0 100 105 100h25q105 0 105 -100q0 -30 -16.5 -50t-39.5 -35l-124 -80v-5h170q10 0 10 -10v-20q0 -10 -10 -10h-215q-10 0 -10 10v35q0 4 3 8t7 7l155 100q11 8 20.5 19.5t9.5 30.5z" />
    <glyph glyph-name="threequarters" unicode="&#xbe;" horiz-adv-x="745" 
d="M245 10q-2 -4 -4.5 -7t-10.5 -3h-25q-9 0 -5 10l315 680q2 4 4.5 7t10.5 3h25q9 0 5 -10zM655 110h40q10 0 10 -10v-20q0 -10 -10 -10h-40v-60q0 -10 -10 -10h-20q-10 0 -10 10v60h-165q-10 0 -10 10v20q0 7 5 14q2 4 5 6l140 180q2 2 6 5q3 2 6.5 3.5t7.5 1.5h35
q10 0 10 -10v-190zM615 110v160h-5q-31 -41 -60 -77.5t-60 -77.5v-5h125zM165 590v-5h5q53 0 79 -25t26 -70q0 -100 -105 -100h-35q-105 0 -105 100q0 10 10 10h20q10 0 10 -10q0 -60 65 -60h35q65 0 65 60t-65 60h-75q-10 0 -10 10v5q0 4 3 8t7 7l115 75v5h-170
q-10 0 -10 10v20q0 10 10 10h215q10 0 10 -10v-25q0 -4 -3 -8.5t-7 -6.5z" />
    <glyph glyph-name="questiondown" unicode="&#xbf;" horiz-adv-x="555" 
d="M295 240l5 80q0 10 10 10h10q10 0 10 -10l5 -115q0 -10 -10 -10h-80q-64 0 -97 -32.5t-33 -92.5v-100q0 -60 33 -92.5t97 -32.5h125q64 0 97 32.5t33 92.5v35q0 10 10 10h25q10 0 10 -10v-35q0 -79 -46 -124.5t-129 -45.5h-125q-83 0 -129 45.5t-46 124.5v100
q0 79 46 124.5t129 45.5h50zM330 510q10 0 10 -10v-30q0 -10 -10 -10h-30q-10 0 -10 10v30q0 10 10 10h30z" />
    <glyph glyph-name="Agrave" unicode="&#xc0;" horiz-adv-x="647" 
d="M146 205l-75 -195q-2 -4 -4.5 -7t-10.5 -3h-25q-14 0 -10 10l275 680q2 5 4.5 7.5t10.5 2.5h25q8 0 10.5 -2.5t4.5 -7.5l275 -680q4 -10 -10 -10h-25q-8 0 -10.5 3t-4.5 7l-75 195h-355zM481 250l-155 395h-5l-155 -395h315zM210 935q-2 4 -0.5 7t5.5 3h30q8 0 10.5 -3
t4.5 -7l75 -135q2 -4 0.5 -7t-5.5 -3h-15q-8 0 -10.5 3t-4.5 7z" />
    <glyph glyph-name="Aacute" unicode="&#xc1;" horiz-adv-x="647" 
d="M146 205l-75 -195q-2 -4 -4.5 -7t-10.5 -3h-25q-14 0 -10 10l275 680q2 5 4.5 7.5t10.5 2.5h25q8 0 10.5 -2.5t4.5 -7.5l275 -680q4 -10 -10 -10h-25q-8 0 -10.5 3t-4.5 7l-75 195h-355zM481 250l-155 395h-5l-155 -395h315zM351 800q-2 -4 -4.5 -7t-10.5 -3h-15
q-4 0 -5.5 3t0.5 7l75 135q2 4 4.5 7t10.5 3h30q4 0 5.5 -3t-0.5 -7z" />
    <glyph glyph-name="Acircumflex" unicode="&#xc2;" horiz-adv-x="647" 
d="M146 205l-75 -195q-2 -4 -4.5 -7t-10.5 -3h-25q-14 0 -10 10l275 680q2 5 4.5 7.5t10.5 2.5h25q8 0 10.5 -2.5t4.5 -7.5l275 -680q4 -10 -10 -10h-25q-8 0 -10.5 3t-4.5 7l-75 195h-355zM481 250l-155 395h-5l-155 -395h315zM330 955q8 0 12.5 -3t7.5 -7l110 -145
q3 -4 1 -7t-6 -3h-20q-8 0 -12.5 3t-7.5 7l-88 120h-4l-88 -120q-3 -4 -7.5 -7t-12.5 -3h-20q-4 0 -6 3t1 7l110 145q3 4 7.5 7t12.5 3h10z" />
    <glyph glyph-name="Atilde" unicode="&#xc3;" horiz-adv-x="647" 
d="M146 205l-75 -195q-2 -4 -4.5 -7t-10.5 -3h-25q-14 0 -10 10l275 680q2 5 4.5 7.5t10.5 2.5h25q8 0 10.5 -2.5t4.5 -7.5l275 -680q4 -10 -10 -10h-25q-8 0 -10.5 3t-4.5 7l-75 195h-355zM481 250l-155 395h-5l-155 -395h315zM385 795q-24 0 -39.5 15t-28 32.5t-24 32.5
t-28.5 15q-30 0 -30 -30v-55q0 -10 -10 -10h-15q-10 0 -10 10v55q0 30 17.5 47.5t47.5 17.5q24 0 39.5 -15t28 -32.5t24 -32.5t28.5 -15q30 0 30 30v55q0 10 10 10h15q10 0 10 -10v-55q0 -30 -17.5 -47.5t-47.5 -17.5z" />
    <glyph glyph-name="Adieresis" unicode="&#xc4;" horiz-adv-x="647" 
d="M146 205l-75 -195q-2 -4 -4.5 -7t-10.5 -3h-25q-14 0 -10 10l275 680q2 5 4.5 7.5t10.5 2.5h25q8 0 10.5 -2.5t4.5 -7.5l275 -680q4 -10 -10 -10h-25q-8 0 -10.5 3t-4.5 7l-75 195h-355zM481 250l-155 395h-5l-155 -395h315zM255 880q10 0 10 -10v-30q0 -10 -10 -10h-30
q-10 0 -10 10v30q0 10 10 10h30zM420 880q10 0 10 -10v-30q0 -10 -10 -10h-30q-10 0 -10 10v30q0 10 10 10h30z" />
    <glyph glyph-name="Aring" unicode="&#xc5;" horiz-adv-x="647" 
d="M146 205l-75 -195q-2 -4 -4.5 -7t-10.5 -3h-25q-14 0 -10 10l275 680q2 5 4.5 7.5t10.5 2.5h25q8 0 10.5 -2.5t4.5 -7.5l275 -680q4 -10 -10 -10h-25q-8 0 -10.5 3t-4.5 7l-75 195h-355zM481 250l-155 395h-5l-155 -395h315zM320 940q-30 0 -47.5 -17t-17.5 -43v-10
q0 -26 17.5 -43t47.5 -17t47.5 17t17.5 43v10q0 26 -17.5 43t-47.5 17zM320 775q-45 0 -72.5 26.5t-27.5 68.5v10q0 42 27.5 68.5t72.5 26.5t72.5 -26.5t27.5 -68.5v-10q0 -42 -27.5 -68.5t-72.5 -26.5z" />
    <glyph glyph-name="AE" unicode="&#xc6;" horiz-adv-x="1010" 
d="M61 10q-2 -4 -4.5 -7t-10.5 -3h-25q-14 0 -10 10l265 680q2 5 4.5 7.5t10.5 2.5h659q10 0 10 -10v-25q0 -10 -10 -10h-385v-275h295q10 0 10 -10v-25q0 -10 -10 -10h-295v-290h395q10 0 10 -10v-25q0 -10 -10 -10h-430q-10 0 -10 10v190h-385zM150 245h370v410h-210z" />
    <glyph glyph-name="Ccedilla" unicode="&#xc7;" horiz-adv-x="755" 
d="M350 -105q-10 0 -10 10v20q0 11 5 21q2 5 5 9l20 35h-95q-83 0 -129 45.5t-46 124.5v380q0 79 46 124.5t129 45.5h215q83 0 129 -45.5t46 -124.5v-35q0 -10 -10 -10h-25q-10 0 -10 10v35q0 60 -33 92.5t-97 32.5h-215q-64 0 -97 -32.5t-33 -92.5v-380q0 -60 33 -92.5
t97 -32.5h215q64 0 97 32.5t33 92.5v35q0 10 10 10h25q10 0 10 -10v-35q0 -79 -46 -124.5t-129 -45.5h-90l-30 -60h20q45 0 70 -23.5t25 -61.5t-25 -61.5t-70 -23.5h-60q-10 0 -10 10v15q0 10 10 10h60q30 0 45 13.5t15 36.5t-15 36.5t-45 13.5h-40z" />
    <glyph glyph-name="Egrave" unicode="&#xc8;" horiz-adv-x="660" 
d="M155 380h355q10 0 10 -10v-25q0 -10 -10 -10h-355v-290h455q10 0 10 -10v-25q0 -10 -10 -10h-490q-10 0 -10 10v680q0 10 10 10h480q10 0 10 -10v-25q0 -10 -10 -10h-445v-275zM257 935q-2 4 -0.5 7t5.5 3h30q8 0 10.5 -3t4.5 -7l75 -135q2 -4 0.5 -7t-5.5 -3h-15
q-8 0 -10.5 3t-4.5 7z" />
    <glyph glyph-name="Eacute" unicode="&#xc9;" horiz-adv-x="660" 
d="M155 380h355q10 0 10 -10v-25q0 -10 -10 -10h-355v-290h455q10 0 10 -10v-25q0 -10 -10 -10h-490q-10 0 -10 10v680q0 10 10 10h480q10 0 10 -10v-25q0 -10 -10 -10h-445v-275zM372 800q-2 -4 -4.5 -7t-10.5 -3h-15q-4 0 -5.5 3t0.5 7l75 135q2 4 4.5 7t10.5 3h30
q4 0 5.5 -3t-0.5 -7z" />
    <glyph glyph-name="Ecircumflex" unicode="&#xca;" horiz-adv-x="660" 
d="M155 380h355q10 0 10 -10v-25q0 -10 -10 -10h-355v-290h455q10 0 10 -10v-25q0 -10 -10 -10h-490q-10 0 -10 10v680q0 10 10 10h480q10 0 10 -10v-25q0 -10 -10 -10h-445v-275zM360 955q8 0 12.5 -3t7.5 -7l110 -145q3 -4 1 -7t-6 -3h-20q-8 0 -12.5 3t-7.5 7l-88 120h-4
l-88 -120q-3 -4 -7.5 -7t-12.5 -3h-20q-4 0 -6 3t1 7l110 145q3 4 7.5 7t12.5 3h10z" />
    <glyph glyph-name="Edieresis" unicode="&#xcb;" horiz-adv-x="660" 
d="M155 380h355q10 0 10 -10v-25q0 -10 -10 -10h-355v-290h455q10 0 10 -10v-25q0 -10 -10 -10h-490q-10 0 -10 10v680q0 10 10 10h480q10 0 10 -10v-25q0 -10 -10 -10h-445v-275zM290 890q10 0 10 -10v-30q0 -10 -10 -10h-30q-10 0 -10 10v30q0 10 10 10h30zM455 890
q10 0 10 -10v-30q0 -10 -10 -10h-30q-10 0 -10 10v30q0 10 10 10h30z" />
    <glyph glyph-name="Igrave" unicode="&#xcc;" horiz-adv-x="267" 
d="M157 10q0 -10 -10 -10h-25q-10 0 -10 10v680q0 10 10 10h25q10 0 10 -10v-680zM23 935q-2 4 -0.5 7t5.5 3h30q8 0 10.5 -3t4.5 -7l75 -135q2 -4 0.5 -7t-5.5 -3h-15q-8 0 -10.5 3t-4.5 7z" />
    <glyph glyph-name="Iacute" unicode="&#xcd;" horiz-adv-x="262" 
d="M155 10q0 -10 -10 -10h-25q-10 0 -10 10v680q0 10 10 10h25q10 0 10 -10v-680zM150 800q-2 -4 -4.5 -7t-10.5 -3h-15q-4 0 -5.5 3t0.5 7l75 135q2 4 4.5 7t10.5 3h30q4 0 5.5 -3t-0.5 -7z" />
    <glyph glyph-name="Icircumflex" unicode="&#xce;" horiz-adv-x="274" 
d="M157 10q0 -10 -10 -10h-25q-10 0 -10 10v680q0 10 10 10h25q10 0 10 -10v-680zM143 955q8 0 12.5 -3t7.5 -7l110 -145q3 -4 1 -7t-6 -3h-20q-8 0 -12.5 3t-7.5 7l-88 120h-4l-88 -120q-3 -4 -7.5 -7t-12.5 -3h-20q-4 0 -6 3t1 7l110 145q3 4 7.5 7t12.5 3h10z" />
    <glyph glyph-name="Idieresis" unicode="&#xcf;" horiz-adv-x="265" 
d="M155 10q0 -10 -10 -10h-25q-10 0 -10 10v680q0 10 10 10h25q10 0 10 -10v-680zM66 880q10 0 10 -10v-30q0 -10 -10 -10h-30q-10 0 -10 10v30q0 10 10 10h30zM231 880q10 0 10 -10v-30q0 -10 -10 -10h-30q-10 0 -10 10v30q0 10 10 10h30z" />
    <glyph glyph-name="Eth" unicode="&#xd0;" horiz-adv-x="765" 
d="M500 700q83 0 129 -45.5t46 -124.5v-360q0 -79 -46 -124.5t-129 -45.5h-365q-10 0 -10 10v315h-85q-10 0 -10 10v25q0 10 10 10h85v320q0 10 10 10h365zM170 325v-280h330q64 0 97 32.5t33 92.5v360q0 60 -33 92.5t-97 32.5h-330v-285h180q10 0 10 -10v-25q0 -10 -10 -10
h-180z" />
    <glyph glyph-name="Ntilde" unicode="&#xd1;" horiz-adv-x="775" 
d="M620 690q0 10 10 10h25q10 0 10 -10v-680q0 -10 -10 -10h-35q-8 0 -12.5 3t-7.5 7l-440 625h-5v-625q0 -10 -10 -10h-25q-10 0 -10 10v680q0 10 10 10h35q8 0 12.5 -3t7.5 -7l440 -625h5v625zM445 790q-24 0 -39.5 15t-28 32.5t-24 32.5t-28.5 15q-30 0 -30 -30v-55
q0 -10 -10 -10h-15q-10 0 -10 10v55q0 30 17.5 47.5t47.5 17.5q24 0 39.5 -15t28 -32.5t24 -32.5t28.5 -15q30 0 30 30v55q0 10 10 10h15q10 0 10 -10v-55q0 -30 -17.5 -47.5t-47.5 -17.5z" />
    <glyph glyph-name="Ograve" unicode="&#xd2;" horiz-adv-x="775" 
d="M100 540q0 79 46 124.5t129 45.5h225q83 0 129 -45.5t46 -124.5v-380q0 -79 -46 -124.5t-129 -45.5h-225q-83 0 -129 45.5t-46 124.5v380zM145 160q0 -60 33 -92.5t97 -32.5h225q64 0 97 32.5t33 92.5v380q0 60 -33 92.5t-97 32.5h-225q-64 0 -97 -32.5t-33 -92.5v-380z
M275 945q-2 4 -0.5 7t5.5 3h30q8 0 10.5 -3t4.5 -7l75 -135q2 -4 0.5 -7t-5.5 -3h-15q-8 0 -10.5 3t-4.5 7z" />
    <glyph glyph-name="Oacute" unicode="&#xd3;" horiz-adv-x="775" 
d="M100 540q0 79 46 124.5t129 45.5h225q83 0 129 -45.5t46 -124.5v-380q0 -79 -46 -124.5t-129 -45.5h-225q-83 0 -129 45.5t-46 124.5v380zM145 160q0 -60 33 -92.5t97 -32.5h225q64 0 97 32.5t33 92.5v380q0 60 -33 92.5t-97 32.5h-225q-64 0 -97 -32.5t-33 -92.5v-380z
M400 810q-2 -4 -4.5 -7t-10.5 -3h-15q-4 0 -5.5 3t0.5 7l75 135q2 4 4.5 7t10.5 3h30q4 0 5.5 -3t-0.5 -7z" />
    <glyph glyph-name="Ocircumflex" unicode="&#xd4;" horiz-adv-x="775" 
d="M100 540q0 79 46 124.5t129 45.5h225q83 0 129 -45.5t46 -124.5v-380q0 -79 -46 -124.5t-129 -45.5h-225q-83 0 -129 45.5t-46 124.5v380zM145 160q0 -60 33 -92.5t97 -32.5h225q64 0 97 32.5t33 92.5v380q0 60 -33 92.5t-97 32.5h-225q-64 0 -97 -32.5t-33 -92.5v-380z
M390 965q8 0 12.5 -3t7.5 -7l110 -145q3 -4 1 -7t-6 -3h-20q-8 0 -12.5 3t-7.5 7l-88 120h-4l-88 -120q-3 -4 -7.5 -7t-12.5 -3h-20q-4 0 -6 3t1 7l110 145q3 4 7.5 7t12.5 3h10z" />
    <glyph glyph-name="Otilde" unicode="&#xd5;" horiz-adv-x="775" 
d="M100 540q0 79 46 124.5t129 45.5h225q83 0 129 -45.5t46 -124.5v-380q0 -79 -46 -124.5t-129 -45.5h-225q-83 0 -129 45.5t-46 124.5v380zM145 160q0 -60 33 -92.5t97 -32.5h225q64 0 97 32.5t33 92.5v380q0 60 -33 92.5t-97 32.5h-225q-64 0 -97 -32.5t-33 -92.5v-380z
M440 790q-24 0 -39.5 15t-28 32.5t-24 32.5t-28.5 15q-30 0 -30 -30v-55q0 -10 -10 -10h-15q-10 0 -10 10v55q0 30 17.5 47.5t47.5 17.5q24 0 39.5 -15t28 -32.5t24 -32.5t28.5 -15q30 0 30 30v55q0 10 10 10h15q10 0 10 -10v-55q0 -30 -17.5 -47.5t-47.5 -17.5z" />
    <glyph glyph-name="Odieresis" unicode="&#xd6;" horiz-adv-x="775" 
d="M100 540q0 79 46 124.5t129 45.5h225q83 0 129 -45.5t46 -124.5v-380q0 -79 -46 -124.5t-129 -45.5h-225q-83 0 -129 45.5t-46 124.5v380zM145 160q0 -60 33 -92.5t97 -32.5h225q64 0 97 32.5t33 92.5v380q0 60 -33 92.5t-97 32.5h-225q-64 0 -97 -32.5t-33 -92.5v-380z
M320 900q10 0 10 -10v-30q0 -10 -10 -10h-30q-10 0 -10 10v30q0 10 10 10h30zM485 900q10 0 10 -10v-30q0 -10 -10 -10h-30q-10 0 -10 10v30q0 10 10 10h30z" />
    <glyph glyph-name="multiply" unicode="&#xd7;" horiz-adv-x="396" 
d="M353 185q5 -5 0 -10l-20 -20q-5 -5 -10 0l-125 130l-125 -130q-5 -5 -10 0l-20 20q-5 5 0 10l125 130l-125 130q-5 5 0 10l20 20q5 5 10 0l125 -130l125 130q5 5 10 0l20 -20q5 -5 0 -10l-125 -130z" />
    <glyph glyph-name="Oslash" unicode="&#xd8;" horiz-adv-x="775" 
d="M100 540q0 79 46 124.5t129 45.5h225q83 0 129 -45.5t46 -124.5v-380q0 -79 -46 -124.5t-129 -45.5h-225q-83 0 -129 45.5t-46 124.5v380zM630 540q0 19 -3 33.5t-7 25.5q-4 12 -10 21l-420 -565q11 -6 24 -10q11 -4 26.5 -7t34.5 -3h225q64 0 97 32.5t33 92.5v380z
M145 160q0 -19 3 -33.5t7 -25.5q4 -12 10 -21l420 565q-11 6 -24 10q-11 4 -26.5 7t-34.5 3h-225q-64 0 -97 -32.5t-33 -92.5v-380z" />
    <glyph glyph-name="Ugrave" unicode="&#xd9;" horiz-adv-x="760" 
d="M650 160q0 -79 -46 -124.5t-129 -45.5h-190q-83 0 -129 45.5t-46 124.5v530q0 10 10 10h25q10 0 10 -10v-530q0 -60 33 -92.5t97 -32.5h190q64 0 97 32.5t33 92.5v530q0 10 10 10h25q10 0 10 -10v-530zM270 935q-2 4 -0.5 7t5.5 3h30q8 0 10.5 -3t4.5 -7l75 -135
q2 -4 0.5 -7t-5.5 -3h-15q-8 0 -10.5 3t-4.5 7z" />
    <glyph glyph-name="Uacute" unicode="&#xda;" horiz-adv-x="760" 
d="M650 160q0 -79 -46 -124.5t-129 -45.5h-190q-83 0 -129 45.5t-46 124.5v530q0 10 10 10h25q10 0 10 -10v-530q0 -60 33 -92.5t97 -32.5h190q64 0 97 32.5t33 92.5v530q0 10 10 10h25q10 0 10 -10v-530zM390 800q-2 -4 -4.5 -7t-10.5 -3h-15q-4 0 -5.5 3t0.5 7l75 135
q2 4 4.5 7t10.5 3h30q4 0 5.5 -3t-0.5 -7z" />
    <glyph glyph-name="Ucircumflex" unicode="&#xdb;" horiz-adv-x="760" 
d="M650 160q0 -79 -46 -124.5t-129 -45.5h-190q-83 0 -129 45.5t-46 124.5v530q0 10 10 10h25q10 0 10 -10v-530q0 -60 33 -92.5t97 -32.5h190q64 0 97 32.5t33 92.5v530q0 10 10 10h25q10 0 10 -10v-530zM385 965q8 0 12.5 -3t7.5 -7l110 -145q3 -4 1 -7t-6 -3h-20
q-8 0 -12.5 3t-7.5 7l-88 120h-4l-88 -120q-3 -4 -7.5 -7t-12.5 -3h-20q-4 0 -6 3t1 7l110 145q3 4 7.5 7t12.5 3h10z" />
    <glyph glyph-name="Udieresis" unicode="&#xdc;" horiz-adv-x="760" 
d="M650 160q0 -79 -46 -124.5t-129 -45.5h-190q-83 0 -129 45.5t-46 124.5v530q0 10 10 10h25q10 0 10 -10v-530q0 -60 33 -92.5t97 -32.5h190q64 0 97 32.5t33 92.5v530q0 10 10 10h25q10 0 10 -10v-530zM305 900q10 0 10 -10v-30q0 -10 -10 -10h-30q-10 0 -10 10v30
q0 10 10 10h30zM470 900q10 0 10 -10v-30q0 -10 -10 -10h-30q-10 0 -10 10v30q0 10 10 10h30z" />
    <glyph glyph-name="Yacute" unicode="&#xdd;" horiz-adv-x="619" 
d="M312 300l235 390q2 4 4.5 7t10.5 3h30q4 0 6 -2.5t-1 -7.5l-265 -440v-240q0 -10 -10 -10h-25q-10 0 -10 10v240l-265 440q-3 5 -1 7.5t6 2.5h30q8 0 10.5 -3t4.5 -7l235 -390h5zM330 800q-2 -4 -4.5 -7t-10.5 -3h-15q-4 0 -5.5 3t0.5 7l75 135q2 4 4.5 7t10.5 3h30
q4 0 5.5 -3t-0.5 -7z" />
    <glyph glyph-name="Thorn" unicode="&#xde;" horiz-adv-x="750" 
d="M660 265q0 -79 -46 -124.5t-129 -45.5h-330v-85q0 -10 -10 -10h-25q-10 0 -10 10v680q0 10 10 10h25q10 0 10 -10v-85h330q83 0 129 -45.5t46 -124.5v-170zM615 435q0 60 -33 92.5t-97 32.5h-330v-420h330q64 0 97 32.5t33 92.5v170z" />
    <glyph glyph-name="germandbls" unicode="&#xdf;" horiz-adv-x="580" 
d="M370 40q49 0 74.5 25t25.5 70v100q0 45 -25.5 70t-74.5 25h-60q-10 0 -10 10v20q0 10 10 10h10q49 0 74.5 25t25.5 70v100q0 45 -25.5 70t-74.5 25h-75q-57 0 -86 -28.5t-29 -81.5v-540q0 -10 -10 -10h-20q-10 0 -10 10v540q0 72 40 111t115 39h75q68 0 104 -35.5
t36 -99.5v-100q0 -32 -9.5 -51.5t-20.5 -30.5q-13 -12 -30 -18v-5q30 -4 55 -19q20 -13 37.5 -38t17.5 -68v-100q0 -64 -36 -99.5t-104 -35.5h-50q-10 0 -10 10v20q0 10 10 10h50z" />
    <glyph glyph-name="agrave" unicode="&#xe0;" horiz-adv-x="550" 
d="M95 370q0 72 40 111t115 39h55q75 0 115 -39t40 -111v-360q0 -10 -10 -10h-20q-10 0 -10 10v55h-5q-8 -21 -25 -38q-14 -14 -38 -25.5t-62 -11.5h-65q-75 0 -115 39t-40 111t40 111t115 39h195v80q0 53 -29 81.5t-86 28.5h-55q-57 0 -86 -28.5t-29 -81.5v-5
q0 -10 -10 -10h-20q-10 0 -10 10v5zM110 140q0 -53 29 -81.5t86 -28.5h65q60 0 95 34t35 91v95h-195q-57 0 -86 -28.5t-29 -81.5zM170 745q-2 4 -0.5 7t5.5 3h30q8 0 10.5 -3t4.5 -7l75 -135q2 -4 0.5 -7t-5.5 -3h-15q-8 0 -10.5 3t-4.5 7z" />
    <glyph glyph-name="aacute" unicode="&#xe1;" horiz-adv-x="550" 
d="M95 370q0 72 40 111t115 39h55q75 0 115 -39t40 -111v-360q0 -10 -10 -10h-20q-10 0 -10 10v55h-5q-8 -21 -25 -38q-14 -14 -38 -25.5t-62 -11.5h-65q-75 0 -115 39t-40 111t40 111t115 39h195v80q0 53 -29 81.5t-86 28.5h-55q-57 0 -86 -28.5t-29 -81.5v-5
q0 -10 -10 -10h-20q-10 0 -10 10v5zM110 140q0 -53 29 -81.5t86 -28.5h65q60 0 95 34t35 91v95h-195q-57 0 -86 -28.5t-29 -81.5zM300 610q-2 -4 -4.5 -7t-10.5 -3h-15q-4 0 -5.5 3t0.5 7l75 135q2 4 4.5 7t10.5 3h30q4 0 5.5 -3t-0.5 -7z" />
    <glyph glyph-name="acircumflex" unicode="&#xe2;" horiz-adv-x="550" 
d="M95 370q0 72 40 111t115 39h55q75 0 115 -39t40 -111v-360q0 -10 -10 -10h-20q-10 0 -10 10v55h-5q-8 -21 -25 -38q-14 -14 -38 -25.5t-62 -11.5h-65q-75 0 -115 39t-40 111t40 111t115 39h195v80q0 53 -29 81.5t-86 28.5h-55q-57 0 -86 -28.5t-29 -81.5v-5
q0 -10 -10 -10h-20q-10 0 -10 10v5zM110 140q0 -53 29 -81.5t86 -28.5h65q60 0 95 34t35 91v95h-195q-57 0 -86 -28.5t-29 -81.5zM280 765q8 0 12.5 -3t7.5 -7l110 -145q3 -4 1 -7t-6 -3h-20q-8 0 -12.5 3t-7.5 7l-88 120h-4l-88 -120q-3 -4 -7.5 -7t-12.5 -3h-20q-4 0 -6 3
t1 7l110 145q3 4 7.5 7t12.5 3h10z" />
    <glyph glyph-name="atilde" unicode="&#xe3;" horiz-adv-x="550" 
d="M95 370q0 72 40 111t115 39h55q75 0 115 -39t40 -111v-360q0 -10 -10 -10h-20q-10 0 -10 10v55h-5q-8 -21 -25 -38q-14 -14 -38 -25.5t-62 -11.5h-65q-75 0 -115 39t-40 111t40 111t115 39h195v80q0 53 -29 81.5t-86 28.5h-55q-57 0 -86 -28.5t-29 -81.5v-5
q0 -10 -10 -10h-20q-10 0 -10 10v5zM110 140q0 -53 29 -81.5t86 -28.5h65q60 0 95 34t35 91v95h-195q-57 0 -86 -28.5t-29 -81.5zM335 590q-24 0 -39.5 15t-28 32.5t-24 32.5t-28.5 15q-30 0 -30 -30v-55q0 -10 -10 -10h-15q-10 0 -10 10v55q0 30 17.5 47.5t47.5 17.5
q24 0 39.5 -15t28 -32.5t24 -32.5t28.5 -15q30 0 30 30v55q0 10 10 10h15q10 0 10 -10v-55q0 -30 -17.5 -47.5t-47.5 -17.5z" />
    <glyph glyph-name="adieresis" unicode="&#xe4;" horiz-adv-x="550" 
d="M95 370q0 72 40 111t115 39h55q75 0 115 -39t40 -111v-360q0 -10 -10 -10h-20q-10 0 -10 10v55h-5q-8 -21 -25 -38q-14 -14 -38 -25.5t-62 -11.5h-65q-75 0 -115 39t-40 111t40 111t115 39h195v80q0 53 -29 81.5t-86 28.5h-55q-57 0 -86 -28.5t-29 -81.5v-5
q0 -10 -10 -10h-20q-10 0 -10 10v5zM110 140q0 -53 29 -81.5t86 -28.5h65q60 0 95 34t35 91v95h-195q-57 0 -86 -28.5t-29 -81.5zM210 700q10 0 10 -10v-30q0 -10 -10 -10h-30q-10 0 -10 10v30q0 10 10 10h30zM375 700q10 0 10 -10v-30q0 -10 -10 -10h-30q-10 0 -10 10v30
q0 10 10 10h30z" />
    <glyph glyph-name="aring" unicode="&#xe5;" horiz-adv-x="550" 
d="M95 370q0 72 40 111t115 39h55q75 0 115 -39t40 -111v-360q0 -10 -10 -10h-20q-10 0 -10 10v55h-5q-8 -21 -25 -38q-14 -14 -38 -25.5t-62 -11.5h-65q-75 0 -115 39t-40 111t40 111t115 39h195v80q0 53 -29 81.5t-86 28.5h-55q-57 0 -86 -28.5t-29 -81.5v-5
q0 -10 -10 -10h-20q-10 0 -10 10v5zM110 140q0 -53 29 -81.5t86 -28.5h65q60 0 95 34t35 91v95h-195q-57 0 -86 -28.5t-29 -81.5zM280 755q-30 0 -47.5 -17t-17.5 -43v-10q0 -26 17.5 -43t47.5 -17t47.5 17t17.5 43v10q0 26 -17.5 43t-47.5 17zM280 590q-45 0 -72.5 26.5
t-27.5 68.5v10q0 42 27.5 68.5t72.5 26.5t72.5 -26.5t27.5 -68.5v-10q0 -42 -27.5 -68.5t-72.5 -26.5z" />
    <glyph glyph-name="ae" unicode="&#xe6;" horiz-adv-x="865" 
d="M110 140q0 -53 29 -81.5t86 -28.5h70q57 0 86 28.5t29 81.5v110h-185q-57 0 -86 -28.5t-29 -81.5zM450 285h295v85q0 53 -29 81.5t-86 28.5h-65q-57 0 -86 -28.5t-29 -81.5v-85zM225 -10q-75 0 -115 39t-40 111t40 111t115 39h185v80q0 53 -29 81.5t-86 28.5h-35
q-57 0 -86 -28.5t-29 -81.5v-5q0 -10 -10 -10h-20q-10 0 -10 10v5q0 72 40 111t115 39h35q42 0 67.5 -12t40.5 -26q17 -17 25 -37h4q8 20 26 37q15 14 40 26t67 12h65q75 0 115 -39t40 -111v-115q0 -10 -10 -10h-325v-105q0 -53 29 -81.5t86 -28.5h65q57 0 86 28.5t29 81.5
q0 10 10 10h20q10 0 10 -10q0 -72 -40 -111t-115 -39h-65q-42 0 -67 11.5t-40 25.5q-18 17 -26 38h-4q-8 -21 -25 -38q-15 -14 -40.5 -25.5t-67.5 -11.5h-70z" />
    <glyph glyph-name="ccedilla" unicode="&#xe7;" horiz-adv-x="560" 
d="M255 -105q-10 0 -10 10v20q0 11 5 21q2 5 5 9l20 35h-40q-75 0 -115 39t-40 111v230q0 72 40 111t115 39h100q75 0 115 -39t40 -111v-20q0 -10 -10 -10h-20q-10 0 -10 10v20q0 53 -29 81.5t-86 28.5h-100q-57 0 -86 -28.5t-29 -81.5v-230q0 -53 29 -81.5t86 -28.5h100
q57 0 86 28.5t29 81.5v20q0 10 10 10h20q10 0 10 -10v-20q0 -72 -40 -111t-115 -39h-30l-30 -60h20q45 0 70 -23.5t25 -61.5t-25 -61.5t-70 -23.5h-60q-10 0 -10 10v15q0 10 10 10h60q30 0 45 13.5t15 36.5t-15 36.5t-45 13.5h-40z" />
    <glyph glyph-name="egrave" unicode="&#xe8;" 
d="M490 245q0 -10 -10 -10h-360v-95q0 -53 29 -81.5t86 -28.5h100q57 0 86 28.5t29 81.5q0 10 10 10h20q10 0 10 -10q0 -72 -40 -111t-115 -39h-100q-75 0 -115 39t-40 111v230q0 72 40 111t115 39h100q75 0 115 -39t40 -111v-125zM120 275h330v95q0 53 -29 81.5t-86 28.5
h-100q-57 0 -86 -28.5t-29 -81.5v-95zM175 745q-2 4 -0.5 7t5.5 3h30q8 0 10.5 -3t4.5 -7l75 -135q2 -4 0.5 -7t-5.5 -3h-15q-8 0 -10.5 3t-4.5 7z" />
    <glyph glyph-name="eacute" unicode="&#xe9;" 
d="M490 245q0 -10 -10 -10h-360v-95q0 -53 29 -81.5t86 -28.5h100q57 0 86 28.5t29 81.5q0 10 10 10h20q10 0 10 -10q0 -72 -40 -111t-115 -39h-100q-75 0 -115 39t-40 111v230q0 72 40 111t115 39h100q75 0 115 -39t40 -111v-125zM120 275h330v95q0 53 -29 81.5t-86 28.5
h-100q-57 0 -86 -28.5t-29 -81.5v-95zM300 610q-2 -4 -4.5 -7t-10.5 -3h-15q-4 0 -5.5 3t0.5 7l75 135q2 4 4.5 7t10.5 3h30q4 0 5.5 -3t-0.5 -7z" />
    <glyph glyph-name="ecircumflex" unicode="&#xea;" 
d="M490 245q0 -10 -10 -10h-360v-95q0 -53 29 -81.5t86 -28.5h100q57 0 86 28.5t29 81.5q0 10 10 10h20q10 0 10 -10q0 -72 -40 -111t-115 -39h-100q-75 0 -115 39t-40 111v230q0 72 40 111t115 39h100q75 0 115 -39t40 -111v-125zM120 275h330v95q0 53 -29 81.5t-86 28.5
h-100q-57 0 -86 -28.5t-29 -81.5v-95zM290 765q8 0 12.5 -3t7.5 -7l110 -145q3 -4 1 -7t-6 -3h-20q-8 0 -12.5 3t-7.5 7l-88 120h-4l-88 -120q-3 -4 -7.5 -7t-12.5 -3h-20q-4 0 -6 3t1 7l110 145q3 4 7.5 7t12.5 3h10z" />
    <glyph glyph-name="edieresis" unicode="&#xeb;" 
d="M490 245q0 -10 -10 -10h-360v-95q0 -53 29 -81.5t86 -28.5h100q57 0 86 28.5t29 81.5q0 10 10 10h20q10 0 10 -10q0 -72 -40 -111t-115 -39h-100q-75 0 -115 39t-40 111v230q0 72 40 111t115 39h100q75 0 115 -39t40 -111v-125zM120 275h330v95q0 53 -29 81.5t-86 28.5
h-100q-57 0 -86 -28.5t-29 -81.5v-95zM215 700q10 0 10 -10v-30q0 -10 -10 -10h-30q-10 0 -10 10v30q0 10 10 10h30zM380 700q10 0 10 -10v-30q0 -10 -10 -10h-30q-10 0 -10 10v30q0 10 10 10h30z" />
    <glyph glyph-name="igrave" unicode="&#xec;" horiz-adv-x="222" 
d="M132 10q0 -10 -10 -10h-20q-10 0 -10 10v490q0 10 10 10h20q10 0 10 -10v-490zM3 745q-2 4 -0.5 7t5.5 3h30q8 0 10.5 -3t4.5 -7l75 -135q2 -4 0.5 -7t-5.5 -3h-15q-8 0 -10.5 3t-4.5 7z" />
    <glyph glyph-name="iacute" unicode="&#xed;" horiz-adv-x="222" 
d="M130 10q0 -10 -10 -10h-20q-10 0 -10 10v490q0 10 10 10h20q10 0 10 -10v-490zM130 610q-2 -4 -4.5 -7t-10.5 -3h-15q-4 0 -5.5 3t0.5 7l75 135q2 4 4.5 7t10.5 3h30q4 0 5.5 -3t-0.5 -7z" />
    <glyph glyph-name="icircumflex" unicode="&#xee;" horiz-adv-x="224" 
d="M132 10q0 -10 -10 -10h-20q-10 0 -10 10v490q0 10 10 10h20q10 0 10 -10v-490zM118 765q8 0 12.5 -3t7.5 -7l110 -145q3 -4 1 -7t-6 -3h-20q-8 0 -12.5 3t-7.5 7l-88 120h-4l-88 -120q-3 -4 -7.5 -7t-12.5 -3h-20q-4 0 -6 3t1 7l110 145q3 4 7.5 7t12.5 3h10z" />
    <glyph glyph-name="idieresis" unicode="&#xef;" horiz-adv-x="215" 
d="M128 10q0 -10 -10 -10h-20q-10 0 -10 10v490q0 10 10 10h20q10 0 10 -10v-490zM41 700q10 0 10 -10v-30q0 -10 -10 -10h-30q-10 0 -10 10v30q0 10 10 10h30zM206 700q10 0 10 -10v-30q0 -10 -10 -10h-30q-10 0 -10 10v30q0 10 10 10h30z" />
    <glyph glyph-name="eth" unicode="&#xf0;" horiz-adv-x="555" 
d="M225 365q-57 0 -86 -28.5t-29 -81.5v-115q0 -53 29 -81.5t86 -28.5h95q57 0 86 28.5t29 81.5v225h-210zM240 525l-4 -8t-6 -2l-25 10q-10 4 -5 15l25 65l-95 35q-8 2 -5 10l10 25q3 8 10 5l95 -35l25 75l4 8t6 2l25 -10q10 -4 5 -15l-25 -70l80 -30q57 -17 86 -51t29 -94
v-320q0 -72 -40 -111t-115 -39h-95q-75 0 -115 39t-40 111v115q0 72 40 111t115 39h210v55q0 81 -85 105l-85 30z" />
    <glyph glyph-name="ntilde" unicode="&#xf1;" horiz-adv-x="580" 
d="M335 520q75 0 115 -39t40 -111v-360q0 -10 -10 -10h-20q-10 0 -10 10v360q0 53 -29 81.5t-86 28.5h-75q-60 0 -95 -34t-35 -91v-345q0 -10 -10 -10h-20q-10 0 -10 10v490q0 10 10 10h20q10 0 10 -10v-55h5q8 20 25 37q14 14 38 26t62 12h75zM345 600q-24 0 -39.5 15
t-28 32.5t-24 32.5t-28.5 15q-30 0 -30 -30v-55q0 -10 -10 -10h-15q-10 0 -10 10v55q0 30 17.5 47.5t47.5 17.5q24 0 39.5 -15t28 -32.5t24 -32.5t28.5 -15q30 0 30 30v55q0 10 10 10h15q10 0 10 -10v-55q0 -30 -17.5 -47.5t-47.5 -17.5z" />
    <glyph glyph-name="ograve" unicode="&#xf2;" horiz-adv-x="575" 
d="M495 140q0 -72 -40 -111t-115 -39h-105q-75 0 -115 39t-40 111v230q0 72 40 111t115 39h105q75 0 115 -39t40 -111v-230zM455 370q0 53 -29 81.5t-86 28.5h-105q-57 0 -86 -28.5t-29 -81.5v-230q0 -53 29 -81.5t86 -28.5h105q57 0 86 28.5t29 81.5v230zM175 745
q-2 4 -0.5 7t5.5 3h30q8 0 10.5 -3t4.5 -7l75 -135q2 -4 0.5 -7t-5.5 -3h-15q-8 0 -10.5 3t-4.5 7z" />
    <glyph glyph-name="oacute" unicode="&#xf3;" horiz-adv-x="575" 
d="M495 140q0 -72 -40 -111t-115 -39h-105q-75 0 -115 39t-40 111v230q0 72 40 111t115 39h105q75 0 115 -39t40 -111v-230zM455 370q0 53 -29 81.5t-86 28.5h-105q-57 0 -86 -28.5t-29 -81.5v-230q0 -53 29 -81.5t86 -28.5h105q57 0 86 28.5t29 81.5v230zM305 610
q-2 -4 -4.5 -7t-10.5 -3h-15q-4 0 -5.5 3t0.5 7l75 135q2 4 4.5 7t10.5 3h30q4 0 5.5 -3t-0.5 -7z" />
    <glyph glyph-name="ocircumflex" unicode="&#xf4;" horiz-adv-x="575" 
d="M495 140q0 -72 -40 -111t-115 -39h-105q-75 0 -115 39t-40 111v230q0 72 40 111t115 39h105q75 0 115 -39t40 -111v-230zM455 370q0 53 -29 81.5t-86 28.5h-105q-57 0 -86 -28.5t-29 -81.5v-230q0 -53 29 -81.5t86 -28.5h105q57 0 86 28.5t29 81.5v230zM290 765
q8 0 12.5 -3t7.5 -7l110 -145q3 -4 1 -7t-6 -3h-20q-8 0 -12.5 3t-7.5 7l-88 120h-4l-88 -120q-3 -4 -7.5 -7t-12.5 -3h-20q-4 0 -6 3t1 7l110 145q3 4 7.5 7t12.5 3h10z" />
    <glyph glyph-name="otilde" unicode="&#xf5;" horiz-adv-x="575" 
d="M495 140q0 -72 -40 -111t-115 -39h-105q-75 0 -115 39t-40 111v230q0 72 40 111t115 39h105q75 0 115 -39t40 -111v-230zM455 370q0 53 -29 81.5t-86 28.5h-105q-57 0 -86 -28.5t-29 -81.5v-230q0 -53 29 -81.5t86 -28.5h105q57 0 86 28.5t29 81.5v230zM345 600
q-24 0 -39.5 15t-28 32.5t-24 32.5t-28.5 15q-30 0 -30 -30v-55q0 -10 -10 -10h-15q-10 0 -10 10v55q0 30 17.5 47.5t47.5 17.5q24 0 39.5 -15t28 -32.5t24 -32.5t28.5 -15q30 0 30 30v55q0 10 10 10h15q10 0 10 -10v-55q0 -30 -17.5 -47.5t-47.5 -17.5z" />
    <glyph glyph-name="odieresis" unicode="&#xf6;" horiz-adv-x="575" 
d="M495 140q0 -72 -40 -111t-115 -39h-105q-75 0 -115 39t-40 111v230q0 72 40 111t115 39h105q75 0 115 -39t40 -111v-230zM455 370q0 53 -29 81.5t-86 28.5h-105q-57 0 -86 -28.5t-29 -81.5v-230q0 -53 29 -81.5t86 -28.5h105q57 0 86 28.5t29 81.5v230zM215 700
q10 0 10 -10v-30q0 -10 -10 -10h-30q-10 0 -10 10v30q0 10 10 10h30zM380 700q10 0 10 -10v-30q0 -10 -10 -10h-30q-10 0 -10 10v30q0 10 10 10h30z" />
    <glyph glyph-name="divide" unicode="&#xf7;" horiz-adv-x="430" 
d="M40 280q-10 0 -10 10v25q0 10 10 10h350q10 0 10 -10v-25q0 -10 -10 -10h-350zM200 95q-10 0 -10 10v30q0 10 10 10h30q10 0 10 -10v-30q0 -10 -10 -10h-30zM200 460q-10 0 -10 10v30q0 10 10 10h30q10 0 10 -10v-30q0 -10 -10 -10h-30z" />
    <glyph glyph-name="oslash" unicode="&#xf8;" horiz-adv-x="575" 
d="M495 140q0 -72 -40 -111t-115 -39h-105q-75 0 -115 39t-40 111v230q0 72 40 111t115 39h105q75 0 115 -39t40 -111v-230zM120 140q0 -19 3 -32.5t7 -21.5q4 -10 10 -16l270 395q-9 3 -20 7q-10 3 -22.5 5.5t-27.5 2.5h-105q-57 0 -86 -28.5t-29 -81.5v-230zM455 370
q0 19 -3 32.5t-7 21.5q-4 10 -10 16l-270 -395q9 -4 20 -8q9 -3 22 -5t28 -2h105q57 0 86 28.5t29 81.5v230z" />
    <glyph glyph-name="ugrave" unicode="&#xf9;" horiz-adv-x="580" 
d="M245 -10q-75 0 -115 39t-40 111v360q0 10 10 10h20q10 0 10 -10v-360q0 -53 29 -81.5t86 -28.5h75q60 0 95 34t35 91v345q0 10 10 10h20q10 0 10 -10v-490q0 -10 -10 -10h-20q-10 0 -10 10v55h-5q-8 -21 -25 -38q-14 -14 -38 -25.5t-62 -11.5h-75zM190 735q-2 4 -0.5 7
t5.5 3h30q8 0 10.5 -3t4.5 -7l75 -135q2 -4 0.5 -7t-5.5 -3h-15q-8 0 -10.5 3t-4.5 7z" />
    <glyph glyph-name="uacute" unicode="&#xfa;" horiz-adv-x="580" 
d="M245 -10q-75 0 -115 39t-40 111v360q0 10 10 10h20q10 0 10 -10v-360q0 -53 29 -81.5t86 -28.5h75q60 0 95 34t35 91v345q0 10 10 10h20q10 0 10 -10v-490q0 -10 -10 -10h-20q-10 0 -10 10v55h-5q-8 -21 -25 -38q-14 -14 -38 -25.5t-62 -11.5h-75zM300 600q-2 -4 -4.5 -7
t-10.5 -3h-15q-4 0 -5.5 3t0.5 7l75 135q2 4 4.5 7t10.5 3h30q4 0 5.5 -3t-0.5 -7z" />
    <glyph glyph-name="ucircumflex" unicode="&#xfb;" horiz-adv-x="580" 
d="M245 -10q-75 0 -115 39t-40 111v360q0 10 10 10h20q10 0 10 -10v-360q0 -53 29 -81.5t86 -28.5h75q60 0 95 34t35 91v345q0 10 10 10h20q10 0 10 -10v-490q0 -10 -10 -10h-20q-10 0 -10 10v55h-5q-8 -21 -25 -38q-14 -14 -38 -25.5t-62 -11.5h-75zM295 755q8 0 12.5 -3
t7.5 -7l110 -145q3 -4 1 -7t-6 -3h-20q-8 0 -12.5 3t-7.5 7l-88 120h-4l-88 -120q-3 -4 -7.5 -7t-12.5 -3h-20q-4 0 -6 3t1 7l110 145q3 4 7.5 7t12.5 3h10z" />
    <glyph glyph-name="udieresis" unicode="&#xfc;" horiz-adv-x="580" 
d="M245 -10q-75 0 -115 39t-40 111v360q0 10 10 10h20q10 0 10 -10v-360q0 -53 29 -81.5t86 -28.5h75q60 0 95 34t35 91v345q0 10 10 10h20q10 0 10 -10v-490q0 -10 -10 -10h-20q-10 0 -10 10v55h-5q-8 -21 -25 -38q-14 -14 -38 -25.5t-62 -11.5h-75zM225 691q10 0 10 -10
v-30q0 -10 -10 -10h-30q-10 0 -10 10v30q0 10 10 10h30zM390 691q10 0 10 -10v-30q0 -10 -10 -10h-30q-10 0 -10 10v30q0 10 10 10h30z" />
    <glyph glyph-name="yacute" unicode="&#xfd;" horiz-adv-x="482" 
d="M416 500q2 4 4.5 7t10.5 3h20q14 0 10 -10l-195 -500q-22 -56 -41.5 -93t-40 -58.5t-43 -30t-50.5 -8.5h-20q-10 0 -10 10v20q0 10 10 10h20q19 0 35 7.5t31.5 24.5t31 46t32.5 72l-200 500q-4 10 10 10h20q8 0 10.5 -3t4.5 -7l175 -440h5zM255 610q-2 -4 -4.5 -7
t-10.5 -3h-15q-4 0 -5.5 3t0.5 7l75 135q2 4 4.5 7t10.5 3h30q4 0 5.5 -3t-0.5 -7z" />
    <glyph glyph-name="thorn" unicode="&#xfe;" 
d="M130 510h205q75 0 115 -39t40 -111v-210q0 -72 -40 -111t-115 -39h-205v-180q0 -10 -10 -10h-20q-10 0 -10 10v870q0 10 10 10h20q10 0 10 -10v-180zM130 40h205q57 0 86 28.5t29 81.5v210q0 53 -29 81.5t-86 28.5h-205v-430z" />
    <glyph glyph-name="ydieresis" unicode="&#xff;" horiz-adv-x="482" 
d="M416 500q2 4 4.5 7t10.5 3h20q14 0 10 -10l-195 -500q-22 -56 -41.5 -93t-40 -58.5t-43 -30t-50.5 -8.5h-20q-10 0 -10 10v20q0 10 10 10h20q19 0 35 7.5t31.5 24.5t31 46t32.5 72l-200 500q-4 10 10 10h20q8 0 10.5 -3t4.5 -7l175 -440h5zM175 710q10 0 10 -10v-30
q0 -10 -10 -10h-30q-10 0 -10 10v30q0 10 10 10h30zM340 710q10 0 10 -10v-30q0 -10 -10 -10h-30q-10 0 -10 10v30q0 10 10 10h30z" />
    <glyph glyph-name="Amacron" unicode="&#x100;" horiz-adv-x="647" 
d="M146 205l-75 -195q-2 -4 -4.5 -7t-10.5 -3h-25q-14 0 -10 10l275 680q2 5 4.5 7.5t10.5 2.5h25q8 0 10.5 -2.5t4.5 -7.5l275 -680q4 -10 -10 -10h-25q-8 0 -10.5 3t-4.5 7l-75 195h-355zM481 250l-155 395h-5l-155 -395h315zM205 830q-10 0 -10 10v20q0 10 10 10h240
q10 0 10 -10v-20q0 -10 -10 -10h-240z" />
    <glyph glyph-name="amacron" unicode="&#x101;" horiz-adv-x="550" 
d="M95 370q0 72 40 111t115 39h55q75 0 115 -39t40 -111v-360q0 -10 -10 -10h-20q-10 0 -10 10v55h-5q-8 -21 -25 -38q-14 -14 -38 -25.5t-62 -11.5h-65q-75 0 -115 39t-40 111t40 111t115 39h195v80q0 53 -29 81.5t-86 28.5h-55q-57 0 -86 -28.5t-29 -81.5v-5
q0 -10 -10 -10h-20q-10 0 -10 10v5zM110 140q0 -53 29 -81.5t86 -28.5h65q60 0 95 34t35 91v95h-195q-57 0 -86 -28.5t-29 -81.5zM160 641q-10 0 -10 10v20q0 10 10 10h240q10 0 10 -10v-20q0 -10 -10 -10h-240z" />
    <glyph glyph-name="Abreve" unicode="&#x102;" horiz-adv-x="647" 
d="M146 205l-75 -195q-2 -4 -4.5 -7t-10.5 -3h-25q-14 0 -10 10l275 680q2 5 4.5 7.5t10.5 2.5h25q8 0 10.5 -2.5t4.5 -7.5l275 -680q4 -10 -10 -10h-25q-8 0 -10.5 3t-4.5 7l-75 195h-355zM481 250l-155 395h-5l-155 -395h315zM345 825q38 0 54 16t16 54v10q0 10 10 10h20
q10 0 10 -10v-10q0 -110 -110 -110h-45q-110 0 -110 110v10q0 10 10 10h20q10 0 10 -10v-10q0 -38 16 -54t54 -16h45z" />
    <glyph glyph-name="abreve" unicode="&#x103;" horiz-adv-x="550" 
d="M95 370q0 72 40 111t115 39h55q75 0 115 -39t40 -111v-360q0 -10 -10 -10h-20q-10 0 -10 10v55h-5q-8 -21 -25 -38q-14 -14 -38 -25.5t-62 -11.5h-65q-75 0 -115 39t-40 111t40 111t115 39h195v80q0 53 -29 81.5t-86 28.5h-55q-57 0 -86 -28.5t-29 -81.5v-5
q0 -10 -10 -10h-20q-10 0 -10 10v5zM110 140q0 -53 29 -81.5t86 -28.5h65q60 0 95 34t35 91v95h-195q-57 0 -86 -28.5t-29 -81.5zM300 640q38 0 54 16t16 54v10q0 10 10 10h20q10 0 10 -10v-10q0 -110 -110 -110h-45q-110 0 -110 110v10q0 10 10 10h20q10 0 10 -10v-10
q0 -38 16 -54t54 -16h45z" />
    <glyph glyph-name="Aogonek" unicode="&#x104;" horiz-adv-x="647" 
d="M146 205l-75 -195q-2 -4 -4.5 -7t-10.5 -3h-25q-14 0 -10 10l275 680q2 5 4.5 7.5t10.5 2.5h25q8 0 10.5 -2.5t4.5 -7.5l275 -680q2 -4 -2 -7t-8 -3q-31 -13 -55 -31q-21 -16 -38 -39t-17 -55q0 -23 15 -36.5t45 -13.5h45q10 0 10 -10v-15q0 -10 -10 -10h-45
q-45 0 -70 23.5t-25 61.5q0 32 17 56t38 41q24 19 55 33l-5 5l-75 195h-355zM481 250l-155 395h-5l-155 -395h315z" />
    <glyph glyph-name="aogonek" unicode="&#x105;" horiz-adv-x="550" 
d="M95 370q0 72 40 111t115 39h55q75 0 115 -39t40 -111v-360q0 -10 -10 -10q-31 -13 -55 -31q-21 -16 -38 -39t-17 -55q0 -23 15 -36.5t45 -13.5h45q10 0 10 -10v-15q0 -10 -10 -10h-45q-45 0 -70 23.5t-25 61.5q0 34 18.5 58.5t41.5 40.5q26 18 60 31q-2 0 -3 1q-2 2 -2 4
v55h-5q-8 -21 -25 -38q-14 -14 -38 -25.5t-62 -11.5h-65q-75 0 -115 39t-40 111t40 111t115 39h195v80q0 53 -29 81.5t-86 28.5h-55q-57 0 -86 -28.5t-29 -81.5v-5q0 -10 -10 -10h-20q-10 0 -10 10v5zM110 140q0 -53 29 -81.5t86 -28.5h65q60 0 95 34t35 91v95h-195
q-57 0 -86 -28.5t-29 -81.5z" />
    <glyph glyph-name="Cacute" unicode="&#x106;" horiz-adv-x="755" 
d="M665 160q0 -79 -46 -124.5t-129 -45.5h-215q-83 0 -129 45.5t-46 124.5v380q0 79 46 124.5t129 45.5h215q83 0 129 -45.5t46 -124.5v-35q0 -10 -10 -10h-25q-10 0 -10 10v35q0 60 -33 92.5t-97 32.5h-215q-64 0 -97 -32.5t-33 -92.5v-380q0 -60 33 -92.5t97 -32.5h215
q64 0 97 32.5t33 92.5v35q0 10 10 10h25q10 0 10 -10v-35zM390 800q-2 -4 -4.5 -7t-10.5 -3h-15q-4 0 -5.5 3t0.5 7l75 135q2 4 4.5 7t10.5 3h30q4 0 5.5 -3t-0.5 -7z" />
    <glyph glyph-name="cacute" unicode="&#x107;" horiz-adv-x="560" 
d="M490 350q0 -10 -10 -10h-20q-10 0 -10 10v20q0 53 -29 81.5t-86 28.5h-100q-57 0 -86 -28.5t-29 -81.5v-230q0 -53 29 -81.5t86 -28.5h100q57 0 86 28.5t29 81.5v20q0 10 10 10h20q10 0 10 -10v-20q0 -72 -40 -111t-115 -39h-100q-75 0 -115 39t-40 111v230q0 72 40 111
t115 39h100q75 0 115 -39t40 -111v-20zM295 610q-2 -4 -4.5 -7t-10.5 -3h-15q-4 0 -5.5 3t0.5 7l75 135q2 4 4.5 7t10.5 3h30q4 0 5.5 -3t-0.5 -7z" />
    <glyph glyph-name="Ccircumflex" unicode="&#x108;" horiz-adv-x="755" 
d="M665 160q0 -79 -46 -124.5t-129 -45.5h-215q-83 0 -129 45.5t-46 124.5v380q0 79 46 124.5t129 45.5h215q83 0 129 -45.5t46 -124.5v-35q0 -10 -10 -10h-25q-10 0 -10 10v35q0 60 -33 92.5t-97 32.5h-215q-64 0 -97 -32.5t-33 -92.5v-380q0 -60 33 -92.5t97 -32.5h215
q64 0 97 32.5t33 92.5v35q0 10 10 10h25q10 0 10 -10v-35zM380 955q8 0 12.5 -3t7.5 -7l110 -145q3 -4 1 -7t-6 -3h-20q-8 0 -12.5 3t-7.5 7l-88 120h-4l-88 -120q-3 -4 -7.5 -7t-12.5 -3h-20q-4 0 -6 3t1 7l110 145q3 4 7.5 7t12.5 3h10z" />
    <glyph glyph-name="ccircumflex" unicode="&#x109;" horiz-adv-x="560" 
d="M490 350q0 -10 -10 -10h-20q-10 0 -10 10v20q0 53 -29 81.5t-86 28.5h-100q-57 0 -86 -28.5t-29 -81.5v-230q0 -53 29 -81.5t86 -28.5h100q57 0 86 28.5t29 81.5v20q0 10 10 10h20q10 0 10 -10v-20q0 -72 -40 -111t-115 -39h-100q-75 0 -115 39t-40 111v230q0 72 40 111
t115 39h100q75 0 115 -39t40 -111v-20zM285 765q8 0 12.5 -3t7.5 -7l110 -145q3 -4 1 -7t-6 -3h-20q-8 0 -12.5 3t-7.5 7l-88 120h-4l-88 -120q-3 -4 -7.5 -7t-12.5 -3h-20q-4 0 -6 3t1 7l110 145q3 4 7.5 7t12.5 3h10z" />
    <glyph glyph-name="Ccaron" unicode="&#x10c;" horiz-adv-x="755" 
d="M665 160q0 -79 -46 -124.5t-129 -45.5h-215q-83 0 -129 45.5t-46 124.5v380q0 79 46 124.5t129 45.5h215q83 0 129 -45.5t46 -124.5v-35q0 -10 -10 -10h-25q-10 0 -10 10v35q0 60 -33 92.5t-97 32.5h-215q-64 0 -97 -32.5t-33 -92.5v-380q0 -60 33 -92.5t97 -32.5h215
q64 0 97 32.5t33 92.5v35q0 10 10 10h25q10 0 10 -10v-35zM370 785q-8 0 -12.5 3t-7.5 7l-110 145q-3 4 -1 7t6 3h20q8 0 12.5 -3t7.5 -7l88 -120h4l88 120q3 4 7.5 7t12.5 3h20q4 0 6 -3t-1 -7l-110 -145q-3 -4 -7.5 -7t-12.5 -3h-10z" />
    <glyph glyph-name="ccaron" unicode="&#x10d;" horiz-adv-x="560" 
d="M490 350q0 -10 -10 -10h-20q-10 0 -10 10v20q0 53 -29 81.5t-86 28.5h-100q-57 0 -86 -28.5t-29 -81.5v-230q0 -53 29 -81.5t86 -28.5h100q57 0 86 28.5t29 81.5v20q0 10 10 10h20q10 0 10 -10v-20q0 -72 -40 -111t-115 -39h-100q-75 0 -115 39t-40 111v230q0 72 40 111
t115 39h100q75 0 115 -39t40 -111v-20zM275 600q-8 0 -12.5 3t-7.5 7l-110 145q-3 4 -1 7t6 3h20q8 0 12.5 -3t7.5 -7l88 -120h4l88 120q3 4 7.5 7t12.5 3h20q4 0 6 -3t-1 -7l-110 -145q-3 -4 -7.5 -7t-12.5 -3h-10z" />
    <glyph glyph-name="Dcaron" unicode="&#x10e;" horiz-adv-x="760" 
d="M485 700q83 0 129 -45.5t46 -124.5v-360q0 -79 -46 -124.5t-129 -45.5h-365q-10 0 -10 10v680q0 10 10 10h365zM155 45h330q64 0 97 32.5t33 92.5v360q0 60 -33 92.5t-97 32.5h-330v-610zM355 790q-8 0 -12.5 3t-7.5 7l-110 145q-3 4 -1 7t6 3h20q8 0 12.5 -3t7.5 -7
l88 -120h4l88 120q3 4 7.5 7t12.5 3h20q4 0 6 -3t-1 -7l-110 -145q-3 -4 -7.5 -7t-12.5 -3h-10z" />
    <glyph glyph-name="dcaron" unicode="&#x10f;" horiz-adv-x="600" 
d="M440 510v180q0 10 10 10h20q10 0 10 -10v-680q0 -10 -10 -10h-20q-10 0 -10 10v55h-5q-8 -21 -25 -38q-14 -14 -38 -25.5t-62 -11.5h-75q-75 0 -115 39t-40 111v220q0 72 40 111t115 39h205zM440 470h-205q-57 0 -86 -28.5t-29 -81.5v-220q0 -53 29 -81.5t86 -28.5h75
q60 0 95 34t35 91v315zM640 670q0 -4 -1 -7.5t-2 -6.5q-1 -4 -2 -6l-45 -90q-2 -4 -4.5 -7t-10.5 -3t-10 3t0 7l45 90h-10q-10 0 -10 10v30q0 10 10 10h30q10 0 10 -10v-20z" />
    <glyph glyph-name="Dcroat" unicode="&#x110;" horiz-adv-x="765" 
d="M500 700q83 0 129 -45.5t46 -124.5v-360q0 -79 -46 -124.5t-129 -45.5h-365q-10 0 -10 10v315h-85q-10 0 -10 10v25q0 10 10 10h85v320q0 10 10 10h365zM170 325v-280h330q64 0 97 32.5t33 92.5v360q0 60 -33 92.5t-97 32.5h-330v-285h180q10 0 10 -10v-25q0 -10 -10 -10
h-180z" />
    <glyph glyph-name="dcroat" unicode="&#x111;" horiz-adv-x="575" 
d="M285 570q0 10 10 10h135v110q0 10 10 10h20q10 0 10 -10v-110h85q10 0 10 -10v-20q0 -10 -10 -10h-85v-530q0 -10 -10 -10h-20q-10 0 -10 10v55h-5q-8 -21 -25 -38q-14 -14 -38 -25.5t-62 -11.5h-75q-75 0 -115 39t-40 111v140q0 72 40 111t115 39h205v110h-135
q-10 0 -10 10v20zM430 390h-205q-57 0 -86 -28.5t-29 -81.5v-140q0 -53 29 -81.5t86 -28.5h75q60 0 95 34t35 91v235z" />
    <glyph glyph-name="Emacron" unicode="&#x112;" horiz-adv-x="660" 
d="M155 380h355q10 0 10 -10v-25q0 -10 -10 -10h-355v-290h455q10 0 10 -10v-25q0 -10 -10 -10h-490q-10 0 -10 10v680q0 10 10 10h480q10 0 10 -10v-25q0 -10 -10 -10h-445v-275zM230 830q-10 0 -10 10v20q0 10 10 10h240q10 0 10 -10v-20q0 -10 -10 -10h-240z" />
    <glyph glyph-name="emacron" unicode="&#x113;" 
d="M490 245q0 -10 -10 -10h-360v-95q0 -53 29 -81.5t86 -28.5h100q57 0 86 28.5t29 81.5q0 10 10 10h20q10 0 10 -10q0 -72 -40 -111t-115 -39h-100q-75 0 -115 39t-40 111v230q0 72 40 111t115 39h100q75 0 115 -39t40 -111v-125zM120 275h330v95q0 53 -29 81.5t-86 28.5
h-100q-57 0 -86 -28.5t-29 -81.5v-95zM165 651q-10 0 -10 10v20q0 10 10 10h240q10 0 10 -10v-20q0 -10 -10 -10h-240z" />
    <glyph glyph-name="Edotaccent" unicode="&#x116;" horiz-adv-x="660" 
d="M155 380h355q10 0 10 -10v-25q0 -10 -10 -10h-355v-290h455q10 0 10 -10v-25q0 -10 -10 -10h-490q-10 0 -10 10v680q0 10 10 10h480q10 0 10 -10v-25q0 -10 -10 -10h-445v-275zM375 890q10 0 10 -10v-30q0 -10 -10 -10h-30q-10 0 -10 10v30q0 10 10 10h30z" />
    <glyph glyph-name="edotaccent" unicode="&#x117;" 
d="M490 245q0 -10 -10 -10h-360v-95q0 -53 29 -81.5t86 -28.5h100q57 0 86 28.5t29 81.5q0 10 10 10h20q10 0 10 -10q0 -72 -40 -111t-115 -39h-100q-75 0 -115 39t-40 111v230q0 72 40 111t115 39h100q75 0 115 -39t40 -111v-125zM120 275h330v95q0 53 -29 81.5t-86 28.5
h-100q-57 0 -86 -28.5t-29 -81.5v-95zM300 700q10 0 10 -10v-30q0 -10 -10 -10h-30q-10 0 -10 10v30q0 10 10 10h30z" />
    <glyph glyph-name="Eogonek" unicode="&#x118;" horiz-adv-x="660" 
d="M120 0q-10 0 -10 10v680q0 10 10 10h480q10 0 10 -10v-25q0 -10 -10 -10h-445v-275h355q10 0 10 -10v-25q0 -10 -10 -10h-355v-290h455q10 0 10 -10v-25q0 -10 -10 -10h-195q-32 -15 -58 -34q-22 -17 -39.5 -40t-17.5 -51q0 -23 15 -36.5t45 -13.5h45q10 0 10 -10v-15
q0 -10 -10 -10h-45q-45 0 -70 23.5t-25 61.5q0 30 17 53t38 39q24 18 55 33h-255z" />
    <glyph glyph-name="eogonek" unicode="&#x119;" 
d="M490 245q0 -10 -10 -10h-360v-95q0 -53 29 -81.5t86 -28.5h100q57 0 86 28.5t29 81.5q0 10 10 10h20q10 0 10 -10q0 -72 -40 -111t-115 -39q-27 -13 -48 -31q-18 -15 -32.5 -36.5t-14.5 -47.5q0 -23 15 -36.5t45 -13.5h45q10 0 10 -10v-15q0 -10 -10 -10h-45
q-45 0 -70 23.5t-25 61.5q0 26 14 47.5t31 36.5q19 18 45 31h-60q-75 0 -115 39t-40 111v230q0 72 40 111t115 39h100q75 0 115 -39t40 -111v-125zM120 275h330v95q0 53 -29 81.5t-86 28.5h-100q-57 0 -86 -28.5t-29 -81.5v-95z" />
    <glyph glyph-name="Ecaron" unicode="&#x11a;" horiz-adv-x="660" 
d="M155 380h355q10 0 10 -10v-25q0 -10 -10 -10h-355v-290h455q10 0 10 -10v-25q0 -10 -10 -10h-490q-10 0 -10 10v680q0 10 10 10h480q10 0 10 -10v-25q0 -10 -10 -10h-445v-275zM355 790q-8 0 -12.5 3t-7.5 7l-110 145q-3 4 -1 7t6 3h20q8 0 12.5 -3t7.5 -7l88 -120h4
l88 120q3 4 7.5 7t12.5 3h20q4 0 6 -3t-1 -7l-110 -145q-3 -4 -7.5 -7t-12.5 -3h-10z" />
    <glyph glyph-name="ecaron" unicode="&#x11b;" 
d="M490 245q0 -10 -10 -10h-360v-95q0 -53 29 -81.5t86 -28.5h100q57 0 86 28.5t29 81.5q0 10 10 10h20q10 0 10 -10q0 -72 -40 -111t-115 -39h-100q-75 0 -115 39t-40 111v230q0 72 40 111t115 39h100q75 0 115 -39t40 -111v-125zM120 275h330v95q0 53 -29 81.5t-86 28.5
h-100q-57 0 -86 -28.5t-29 -81.5v-95zM280 600q-8 0 -12.5 3t-7.5 7l-110 145q-3 4 -1 7t6 3h20q8 0 12.5 -3t7.5 -7l88 -120h4l88 120q3 4 7.5 7t12.5 3h20q4 0 6 -3t-1 -7l-110 -145q-3 -4 -7.5 -7t-12.5 -3h-10z" />
    <glyph glyph-name="Gbreve" unicode="&#x11e;" horiz-adv-x="765" 
d="M665 160q0 -79 -46 -124.5t-129 -45.5h-215q-83 0 -129 45.5t-46 124.5v380q0 79 46 124.5t129 45.5h215q83 0 129 -45.5t46 -124.5v-35q0 -10 -10 -10h-25q-10 0 -10 10v35q0 60 -33 92.5t-97 32.5h-215q-64 0 -97 -32.5t-33 -92.5v-380q0 -60 33 -92.5t97 -32.5h215
q64 0 97 32.5t33 92.5v145h-180q-10 0 -10 10v25q0 10 10 10h215q10 0 10 -10v-180zM390 840q38 0 54 16t16 54v10q0 10 10 10h20q10 0 10 -10v-10q0 -110 -110 -110h-45q-110 0 -110 110v10q0 10 10 10h20q10 0 10 -10v-10q0 -38 16 -54t54 -16h45z" />
    <glyph glyph-name="gbreve" unicode="&#x11f;" 
d="M85 -40q0 10 10 10h20q10 0 10 -10v-10q0 -53 29 -81.5t86 -28.5h85q57 0 86 28.5t29 81.5v90h-205q-75 0 -115 39t-40 111v180q0 72 40 111t115 39h75q38 0 62 -12t38 -26q17 -17 25 -37h5v55q0 10 10 10h20q10 0 10 -10v-550q0 -72 -40 -111t-115 -39h-85
q-75 0 -115 39t-40 111v10zM440 355q0 57 -35 91t-95 34h-75q-57 0 -86 -28.5t-29 -81.5v-180q0 -53 29 -81.5t86 -28.5h205v275zM310 650q38 0 54 16t16 54v10q0 10 10 10h20q10 0 10 -10v-10q0 -110 -110 -110h-45q-110 0 -110 110v10q0 10 10 10h20q10 0 10 -10v-10
q0 -38 16 -54t54 -16h45z" />
    <glyph glyph-name="Gcommaaccent" unicode="&#x122;" horiz-adv-x="765" 
d="M665 160q0 -79 -46 -124.5t-129 -45.5h-215q-83 0 -129 45.5t-46 124.5v380q0 79 46 124.5t129 45.5h215q83 0 129 -45.5t46 -124.5v-35q0 -10 -10 -10h-25q-10 0 -10 10v35q0 60 -33 92.5t-97 32.5h-215q-64 0 -97 -32.5t-33 -92.5v-380q0 -60 33 -92.5t97 -32.5h215
q64 0 97 32.5t33 92.5v145h-180q-10 0 -10 10v25q0 10 10 10h215q10 0 10 -10v-180zM410 -135q0 -4 -1 -7.5t-2 -6.5q-1 -4 -2 -6l-45 -90q-2 -4 -4.5 -7t-10.5 -3t-10 3t0 7l45 90h-10q-10 0 -10 10v30q0 10 10 10h30q10 0 10 -10v-20z" />
    <glyph glyph-name="gcommaaccent" unicode="&#x123;" 
d="M260 640q0 6 2 14q1 4 3 6l45 90q2 4 4.5 7t10.5 3t10 -3t0 -7l-45 -90h10q10 0 10 -10v-30q0 -10 -10 -10h-30q-10 0 -10 10v20zM85 -40q0 10 10 10h20q10 0 10 -10v-10q0 -53 29 -81.5t86 -28.5h85q57 0 86 28.5t29 81.5v90h-205q-75 0 -115 39t-40 111v180
q0 72 40 111t115 39h75q38 0 62 -12t38 -26q17 -17 25 -37h5v55q0 10 10 10h20q10 0 10 -10v-550q0 -72 -40 -111t-115 -39h-85q-75 0 -115 39t-40 111v10zM440 355q0 57 -35 91t-95 34h-75q-57 0 -86 -28.5t-29 -81.5v-180q0 -53 29 -81.5t86 -28.5h205v275z" />
    <glyph glyph-name="Imacron" unicode="&#x12a;" horiz-adv-x="260" 
d="M155 10q0 -10 -10 -10h-25q-10 0 -10 10v680q0 10 10 10h25q10 0 10 -10v-680zM11 840q-10 0 -10 10v20q0 10 10 10h240q10 0 10 -10v-20q0 -10 -10 -10h-240z" />
    <glyph glyph-name="imacron" unicode="&#x12b;" horiz-adv-x="220" 
d="M130 10q0 -10 -10 -10h-20q-10 0 -10 10v490q0 10 10 10h20q10 0 10 -10v-490zM-9 651q-10 0 -10 10v20q0 10 10 10h240q10 0 10 -10v-20q0 -10 -10 -10h-240z" />
    <glyph glyph-name="Iogonek" unicode="&#x12e;" horiz-adv-x="265" 
d="M110 690q0 10 10 10h25q10 0 10 -10v-680q0 -10 -10 -10q-31 -13 -55 -31q-21 -16 -38 -39t-17 -55q0 -23 15 -36.5t45 -13.5h45q10 0 10 -10v-15q0 -10 -10 -10h-45q-45 0 -70 23.5t-25 61.5q0 34 17.5 58.5t39.5 40.5q26 18 58 31q-2 0 -3 1q-2 2 -2 4v680z" />
    <glyph glyph-name="iogonek" unicode="&#x12f;" horiz-adv-x="220" 
d="M120 700q10 0 10 -10v-30q0 -10 -10 -10h-30q-10 0 -10 10v30q0 10 10 10h30zM85 500q0 10 10 10h20q10 0 10 -10v-490q0 -10 -10 -10q-31 -13 -55 -31q-21 -16 -38 -39t-17 -55q0 -23 15 -36.5t45 -13.5h45q10 0 10 -10v-15q0 -10 -10 -10h-45q-45 0 -70 23.5t-25 61.5
q0 34 18.5 58.5t41.5 40.5q26 18 60 31q-2 0 -3 1q-2 2 -2 4v490z" />
    <glyph glyph-name="Idotaccent" unicode="&#x130;" horiz-adv-x="270" 
d="M160 10q0 -10 -10 -10h-25q-10 0 -10 10v680q0 10 10 10h25q10 0 10 -10v-680zM150 890q10 0 10 -10v-30q0 -10 -10 -10h-30q-10 0 -10 10v30q0 10 10 10h30z" />
    <glyph glyph-name="dotlessi" unicode="&#x131;" horiz-adv-x="220" 
d="M130 10q0 -10 -10 -10h-20q-10 0 -10 10v490q0 10 10 10h20q10 0 10 -10v-490z" />
    <glyph glyph-name="Kcommaaccent" unicode="&#x136;" horiz-adv-x="677" 
d="M155 390h245l165 300q3 5 5 7.5t10 2.5h30q4 0 5.5 -3t-0.5 -7l-180 -320l200 -360q2 -4 0.5 -7t-5.5 -3h-30q-8 0 -10.5 3t-4.5 7l-185 335h-245v-335q0 -10 -10 -10h-25q-10 0 -10 10v680q0 10 10 10h25q10 0 10 -10v-300zM380 -130q0 -4 -1 -7.5t-2 -6.5q-1 -4 -2 -6
l-45 -90q-2 -4 -4.5 -7t-10.5 -3t-10 3t0 7l45 90h-10q-10 0 -10 10v30q0 10 10 10h30q10 0 10 -10v-20z" />
    <glyph glyph-name="kcommaaccent" unicode="&#x137;" horiz-adv-x="507" 
d="M130 290h165l120 210q2 4 4.5 7t10.5 3h25q4 0 5.5 -3t-0.5 -7l-130 -230l145 -260q2 -4 0.5 -7t-5.5 -3h-25q-8 0 -10.5 3t-4.5 7l-135 240h-165v-240q0 -10 -10 -10h-20q-10 0 -10 10v680q0 10 10 10h20q10 0 10 -10v-400zM290 -120q0 -4 -1 -7.5t-2 -6.5q-1 -4 -2 -6
l-45 -90q-2 -4 -4.5 -7t-10.5 -3t-10 3t0 7l45 90h-10q-10 0 -10 10v30q0 10 10 10h30q10 0 10 -10v-20z" />
    <glyph glyph-name="Lacute" unicode="&#x139;" horiz-adv-x="615" 
d="M155 45h430q10 0 10 -10v-25q0 -10 -10 -10h-465q-10 0 -10 10v680q0 10 10 10h25q10 0 10 -10v-645zM160 800q-2 -4 -4.5 -7t-10.5 -3h-15q-4 0 -5.5 3t0.5 7l75 135q2 4 4.5 7t10.5 3h30q4 0 5.5 -3t-0.5 -7z" />
    <glyph glyph-name="lacute" unicode="&#x13a;" horiz-adv-x="227" 
d="M130 10q0 -10 -10 -10h-20q-10 0 -10 10v680q0 10 10 10h20q10 0 10 -10v-680zM135 800q-2 -4 -4.5 -7t-10.5 -3h-15q-4 0 -5.5 3t0.5 7l75 135q2 4 4.5 7t10.5 3h30q4 0 5.5 -3t-0.5 -7z" />
    <glyph glyph-name="Lcommaaccent" unicode="&#x13b;" horiz-adv-x="615" 
d="M155 45h430q10 0 10 -10v-25q0 -10 -10 -10h-465q-10 0 -10 10v680q0 10 10 10h25q10 0 10 -10v-645zM380 -130q0 -4 -1 -7.5t-2 -6.5q-1 -4 -2 -6l-45 -90q-2 -4 -4.5 -7t-10.5 -3t-10 3t0 7l45 90h-10q-10 0 -10 10v30q0 10 10 10h30q10 0 10 -10v-20z" />
    <glyph glyph-name="lcommaaccent" unicode="&#x13c;" horiz-adv-x="227" 
d="M132 10q0 -10 -10 -10h-20q-10 0 -10 10v680q0 10 10 10h20q10 0 10 -10v-680zM137 -120q0 -4 -1 -7.5t-2 -6.5q-1 -4 -2 -6l-45 -90q-2 -4 -4.5 -7t-10.5 -3t-10 3t0 7l45 90h-10q-10 0 -10 10v30q0 10 10 10h30q10 0 10 -10v-20z" />
    <glyph glyph-name="Lcaron" unicode="&#x13d;" horiz-adv-x="615" 
d="M155 45h430q10 0 10 -10v-25q0 -10 -10 -10h-465q-10 0 -10 10v680q0 10 10 10h25q10 0 10 -10v-645zM320 670q0 -4 -1 -7.5t-2 -6.5q-1 -4 -2 -6l-45 -90q-2 -4 -4.5 -7t-10.5 -3t-10 3t0 7l45 90h-10q-10 0 -10 10v30q0 10 10 10h30q10 0 10 -10v-20z" />
    <glyph glyph-name="lcaron" unicode="&#x13e;" horiz-adv-x="230" 
d="M130 10q0 -10 -10 -10h-20q-10 0 -10 10v680q0 10 10 10h20q10 0 10 -10v-680zM270 670q0 -4 -1 -7.5t-2 -6.5q-1 -4 -2 -6l-45 -90q-2 -4 -4.5 -7t-10.5 -3t-10 3t0 7l45 90h-10q-10 0 -10 10v30q0 10 10 10h30q10 0 10 -10v-20z" />
    <glyph glyph-name="Lslash" unicode="&#x141;" horiz-adv-x="655" 
d="M150 370v320q0 10 10 10h25q10 0 10 -10v-305l115 45q10 4 10 -5v-20q0 -6 -5 -11q-3 -3 -5 -4l-115 -45v-300h430q10 0 10 -10v-25q0 -10 -10 -10h-465q-10 0 -10 10v320l-120 -45q-10 -4 -10 5v20q0 6 5 11q2 2 5 4z" />
    <glyph glyph-name="lslash" unicode="&#x142;" horiz-adv-x="295" 
d="M165 385l120 45q10 4 10 -5v-20q0 -6 -5 -11q-3 -3 -5 -4l-120 -45v-335q0 -10 -10 -10h-20q-10 0 -10 10v320l-115 -45q-10 -4 -10 5v20q0 6 5 11q2 2 5 4l115 45v320q0 10 10 10h20q10 0 10 -10v-305z" />
    <glyph glyph-name="Nacute" unicode="&#x143;" horiz-adv-x="775" 
d="M620 690q0 10 10 10h25q10 0 10 -10v-680q0 -10 -10 -10h-35q-8 0 -12.5 3t-7.5 7l-440 625h-5v-625q0 -10 -10 -10h-25q-10 0 -10 10v680q0 10 10 10h35q8 0 12.5 -3t7.5 -7l440 -625h5v625zM410 800q-2 -4 -4.5 -7t-10.5 -3h-15q-4 0 -5.5 3t0.5 7l75 135q2 4 4.5 7
t10.5 3h30q4 0 5.5 -3t-0.5 -7z" />
    <glyph glyph-name="nacute" unicode="&#x144;" horiz-adv-x="580" 
d="M335 520q75 0 115 -39t40 -111v-360q0 -10 -10 -10h-20q-10 0 -10 10v360q0 53 -29 81.5t-86 28.5h-75q-60 0 -95 -34t-35 -91v-345q0 -10 -10 -10h-20q-10 0 -10 10v490q0 10 10 10h20q10 0 10 -10v-55h5q8 20 25 37q14 14 38 26t62 12h75zM305 610q-2 -4 -4.5 -7
t-10.5 -3h-15q-4 0 -5.5 3t0.5 7l75 135q2 4 4.5 7t10.5 3h30q4 0 5.5 -3t-0.5 -7z" />
    <glyph glyph-name="Ncommaaccent" unicode="&#x145;" horiz-adv-x="775" 
d="M620 690q0 10 10 10h25q10 0 10 -10v-680q0 -10 -10 -10h-35q-8 0 -12.5 3t-7.5 7l-440 625h-5v-625q0 -10 -10 -10h-25q-10 0 -10 10v680q0 10 10 10h35q8 0 12.5 -3t7.5 -7l440 -625h5v625zM420 -130q0 -4 -1 -7.5t-2 -6.5q-1 -4 -2 -6l-45 -90q-2 -4 -4.5 -7t-10.5 -3
t-10 3t0 7l45 90h-10q-10 0 -10 10v30q0 10 10 10h30q10 0 10 -10v-20z" />
    <glyph glyph-name="ncommaaccent" unicode="&#x146;" horiz-adv-x="580" 
d="M335 520q75 0 115 -39t40 -111v-360q0 -10 -10 -10h-20q-10 0 -10 10v360q0 53 -29 81.5t-86 28.5h-75q-60 0 -95 -34t-35 -91v-345q0 -10 -10 -10h-20q-10 0 -10 10v490q0 10 10 10h20q10 0 10 -10v-55h5q8 20 25 37q14 14 38 26t62 12h75zM320 -120q0 -4 -1 -7.5
t-2 -6.5q-1 -4 -2 -6l-45 -90q-2 -4 -4.5 -7t-10.5 -3t-10 3t0 7l45 90h-10q-10 0 -10 10v30q0 10 10 10h30q10 0 10 -10v-20z" />
    <glyph glyph-name="Ncaron" unicode="&#x147;" horiz-adv-x="775" 
d="M620 690q0 10 10 10h25q10 0 10 -10v-680q0 -10 -10 -10h-35q-8 0 -12.5 3t-7.5 7l-440 625h-5v-625q0 -10 -10 -10h-25q-10 0 -10 10v680q0 10 10 10h35q8 0 12.5 -3t7.5 -7l440 -625h5v625zM380 790q-8 0 -12.5 3t-7.5 7l-110 145q-3 4 -1 7t6 3h20q8 0 12.5 -3t7.5 -7
l88 -120h4l88 120q3 4 7.5 7t12.5 3h20q4 0 6 -3t-1 -7l-110 -145q-3 -4 -7.5 -7t-12.5 -3h-10z" />
    <glyph glyph-name="ncaron" unicode="&#x148;" horiz-adv-x="580" 
d="M335 520q75 0 115 -39t40 -111v-360q0 -10 -10 -10h-20q-10 0 -10 10v360q0 53 -29 81.5t-86 28.5h-75q-60 0 -95 -34t-35 -91v-345q0 -10 -10 -10h-20q-10 0 -10 10v490q0 10 10 10h20q10 0 10 -10v-55h5q8 20 25 37q14 14 38 26t62 12h75zM285 600q-8 0 -12.5 3t-7.5 7
l-110 145q-3 4 -1 7t6 3h20q8 0 12.5 -3t7.5 -7l88 -120h4l88 120q3 4 7.5 7t12.5 3h20q4 0 6 -3t-1 -7l-110 -145q-3 -4 -7.5 -7t-12.5 -3h-10z" />
    <glyph glyph-name="Omacron" unicode="&#x14c;" horiz-adv-x="775" 
d="M100 540q0 79 46 124.5t129 45.5h225q83 0 129 -45.5t46 -124.5v-380q0 -79 -46 -124.5t-129 -45.5h-225q-83 0 -129 45.5t-46 124.5v380zM145 160q0 -60 33 -92.5t97 -32.5h225q64 0 97 32.5t33 92.5v380q0 60 -33 92.5t-97 32.5h-225q-64 0 -97 -32.5t-33 -92.5v-380z
M270 840q-10 0 -10 10v20q0 10 10 10h240q10 0 10 -10v-20q0 -10 -10 -10h-240z" />
    <glyph glyph-name="omacron" unicode="&#x14d;" horiz-adv-x="575" 
d="M495 140q0 -72 -40 -111t-115 -39h-105q-75 0 -115 39t-40 111v230q0 72 40 111t115 39h105q75 0 115 -39t40 -111v-230zM455 370q0 53 -29 81.5t-86 28.5h-105q-57 0 -86 -28.5t-29 -81.5v-230q0 -53 29 -81.5t86 -28.5h105q57 0 86 28.5t29 81.5v230zM170 651
q-10 0 -10 10v20q0 10 10 10h240q10 0 10 -10v-20q0 -10 -10 -10h-240z" />
    <glyph glyph-name="Ohungarumlaut" unicode="&#x150;" horiz-adv-x="775" 
d="M100 540q0 79 46 124.5t129 45.5h225q83 0 129 -45.5t46 -124.5v-380q0 -79 -46 -124.5t-129 -45.5h-225q-83 0 -129 45.5t-46 124.5v380zM145 160q0 -60 33 -92.5t97 -32.5h225q64 0 97 32.5t33 92.5v380q0 60 -33 92.5t-97 32.5h-225q-64 0 -97 -32.5t-33 -92.5v-380z
M330 810q-2 -4 -4.5 -7t-10.5 -3h-15q-4 0 -5.5 3t0.5 7l70 135q2 4 4.5 7t10.5 3h25q4 0 5.5 -3t-0.5 -7zM470 810q-2 -4 -4.5 -7t-10.5 -3h-15q-4 0 -5.5 3t0.5 7l70 135q2 4 4.5 7t10.5 3h25q4 0 5.5 -3t-0.5 -7z" />
    <glyph glyph-name="ohungarumlaut" unicode="&#x151;" horiz-adv-x="575" 
d="M495 140q0 -72 -40 -111t-115 -39h-105q-75 0 -115 39t-40 111v230q0 72 40 111t115 39h105q75 0 115 -39t40 -111v-230zM455 370q0 53 -29 81.5t-86 28.5h-105q-57 0 -86 -28.5t-29 -81.5v-230q0 -53 29 -81.5t86 -28.5h105q57 0 86 28.5t29 81.5v230zM240 610
q-2 -4 -4.5 -7t-10.5 -3h-15q-4 0 -5.5 3t0.5 7l70 135q2 4 4.5 7t10.5 3h25q4 0 5.5 -3t-0.5 -7zM380 610q-2 -4 -4.5 -7t-10.5 -3h-15q-4 0 -5.5 3t0.5 7l70 135q2 4 4.5 7t10.5 3h25q4 0 5.5 -3t-0.5 -7z" />
    <glyph glyph-name="OE" unicode="&#x152;" horiz-adv-x="1035" 
d="M975 700q10 0 10 -10v-25q0 -10 -10 -10h-390v-275h300q10 0 10 -10v-25q0 -10 -10 -10h-300v-290h400q10 0 10 -10v-25q0 -10 -10 -10h-710q-83 0 -129 45.5t-46 124.5v360q0 79 46 124.5t129 45.5h700zM145 170q0 -60 33 -92.5t97 -32.5h265v610h-265q-64 0 -97 -32.5
t-33 -92.5v-360z" />
    <glyph glyph-name="oe" unicode="&#x153;" horiz-adv-x="875" 
d="M460 275h295v95q0 53 -29 81.5t-86 28.5h-65q-57 0 -86 -28.5t-29 -81.5v-95zM80 370q0 72 40 111t115 39h70q42 0 67.5 -12t40.5 -26q17 -17 25 -37h4q8 20 26 37q15 14 40 26t67 12h65q75 0 115 -39t40 -111v-125q0 -10 -10 -10h-325v-95q0 -53 29 -81.5t86 -28.5h65
q57 0 86 28.5t29 81.5q0 10 10 10h20q10 0 10 -10q0 -72 -40 -111t-115 -39h-65q-42 0 -67 11.5t-40 25.5q-18 17 -26 38h-4q-8 -21 -25 -38q-15 -14 -40.5 -25.5t-67.5 -11.5h-70q-75 0 -115 39t-40 111v230zM120 140q0 -53 29 -81.5t86 -28.5h70q57 0 86 28.5t29 81.5v230
q0 53 -29 81.5t-86 28.5h-70q-57 0 -86 -28.5t-29 -81.5v-230z" />
    <glyph glyph-name="Racute" unicode="&#x154;" horiz-adv-x="732" 
d="M155 260v-250q0 -10 -10 -10h-25q-10 0 -10 10v680q0 10 10 10h335q83 0 129 -45.5t46 -124.5v-100q0 -59 -20.5 -91.5t-44.5 -49.5q-29 -19 -65 -24l140 -255q2 -4 0.5 -7t-5.5 -3h-30q-8 0 -10.5 3t-4.5 7l-135 250h-300zM155 655v-350h300q64 0 97 32.5t33 92.5v100
q0 60 -33 92.5t-97 32.5h-300zM369 800q-2 -4 -4.5 -7t-10.5 -3h-15q-4 0 -5.5 3t0.5 7l75 135q2 4 4.5 7t10.5 3h30q4 0 5.5 -3t-0.5 -7z" />
    <glyph glyph-name="racute" unicode="&#x155;" horiz-adv-x="340" 
d="M330 490q0 -10 -10 -10h-60q-60 0 -95 -34t-35 -91v-345q0 -10 -10 -10h-20q-10 0 -10 10v490q0 10 10 10h20q10 0 10 -10v-55h5q8 20 25 37q14 14 38 26t62 12h60q10 0 10 -10v-20zM230 610q-2 -4 -4.5 -7t-10.5 -3h-15q-4 0 -5.5 3t0.5 7l75 135q2 4 4.5 7t10.5 3h30
q4 0 5.5 -3t-0.5 -7z" />
    <glyph glyph-name="Rcommaaccent" unicode="&#x156;" horiz-adv-x="732" 
d="M155 260v-250q0 -10 -10 -10h-25q-10 0 -10 10v680q0 10 10 10h335q83 0 129 -45.5t46 -124.5v-100q0 -59 -20.5 -91.5t-44.5 -49.5q-29 -19 -65 -24l140 -255q2 -4 0.5 -7t-5.5 -3h-30q-8 0 -10.5 3t-4.5 7l-135 250h-300zM155 655v-350h300q64 0 97 32.5t33 92.5v100
q0 60 -33 92.5t-97 32.5h-300zM390 -120q0 -4 -1 -7.5t-2 -6.5q-1 -4 -2 -6l-45 -90q-2 -4 -4.5 -7t-10.5 -3t-10 3t0 7l45 90h-10q-10 0 -10 10v30q0 10 10 10h30q10 0 10 -10v-20z" />
    <glyph glyph-name="rcommaaccent" unicode="&#x157;" horiz-adv-x="342" 
d="M332 490q0 -10 -10 -10h-60q-60 0 -95 -34t-35 -91v-345q0 -10 -10 -10h-20q-10 0 -10 10v490q0 10 10 10h20q10 0 10 -10v-55h5q8 20 25 37q14 14 38 26t62 12h60q10 0 10 -10v-20zM137 -120q0 -4 -1 -7.5t-2 -6.5q-1 -4 -2 -6l-45 -90q-2 -4 -4.5 -7t-10.5 -3t-10 3
t0 7l45 90h-10q-10 0 -10 10v30q0 10 10 10h30q10 0 10 -10v-20z" />
    <glyph glyph-name="Rcaron" unicode="&#x158;" horiz-adv-x="732" 
d="M155 260v-250q0 -10 -10 -10h-25q-10 0 -10 10v680q0 10 10 10h335q83 0 129 -45.5t46 -124.5v-100q0 -59 -20.5 -91.5t-44.5 -49.5q-29 -19 -65 -24l140 -255q2 -4 0.5 -7t-5.5 -3h-30q-8 0 -10.5 3t-4.5 7l-135 250h-300zM155 655v-350h300q64 0 97 32.5t33 92.5v100
q0 60 -33 92.5t-97 32.5h-300zM350 790q-8 0 -12.5 3t-7.5 7l-110 145q-3 4 -1 7t6 3h20q8 0 12.5 -3t7.5 -7l88 -120h4l88 120q3 4 7.5 7t12.5 3h20q4 0 6 -3t-1 -7l-110 -145q-3 -4 -7.5 -7t-12.5 -3h-10z" />
    <glyph glyph-name="rcaron" unicode="&#x159;" horiz-adv-x="344" 
d="M332 490q0 -10 -10 -10h-60q-60 0 -95 -34t-35 -91v-345q0 -10 -10 -10h-20q-10 0 -10 10v490q0 10 10 10h20q10 0 10 -10v-55h5q8 20 25 37q14 14 38 26t62 12h60q10 0 10 -10v-20zM202 600q-8 0 -12.5 3t-7.5 7l-110 145q-3 4 -1 7t6 3h20q8 0 12.5 -3t7.5 -7l88 -120
h4l88 120q3 4 7.5 7t12.5 3h20q4 0 6 -3t-1 -7l-110 -145q-3 -4 -7.5 -7t-12.5 -3h-10z" />
    <glyph glyph-name="Sacute" unicode="&#x15a;" horiz-adv-x="695" 
d="M560 200q0 34 -17.5 54.5t-47.5 30.5l-300 100q-42 14 -68.5 45t-26.5 80v30q0 79 46 124.5t129 45.5h155q83 0 129 -45.5t46 -124.5v-35q0 -10 -10 -10h-25q-10 0 -10 10v35q0 60 -33 92.5t-97 32.5h-155q-64 0 -97 -32.5t-33 -92.5v-30q0 -34 17.5 -54.5t47.5 -30.5
l300 -100q42 -14 68.5 -45t26.5 -80v-39q0 -80 -46 -125.5t-129 -45.5h-175q-83 0 -129 45.5t-46 124.5v35q0 10 10 10h25q10 0 10 -10v-35q0 -60 33 -92.5t97 -32.5h175q64 0 97 32.5t33 92.5v40zM360 800q-2 -4 -4.5 -7t-10.5 -3h-15q-4 0 -5.5 3t0.5 7l75 135q2 4 4.5 7
t10.5 3h30q4 0 5.5 -3t-0.5 -7z" />
    <glyph glyph-name="sacute" unicode="&#x15b;" horiz-adv-x="530" 
d="M460 135q0 -69 -39 -107t-111 -38h-95q-75 0 -115 39t-40 111v10q0 10 10 10h20q10 0 10 -10v-10q0 -53 29 -81.5t86 -28.5h95q53 0 81.5 28t28.5 77q0 26 -13.5 41.5t-36.5 23.5l-225 75q-34 11 -54.5 34.5t-20.5 65.5q0 69 39 107t111 38h85q75 0 115 -39t40 -111v-10
q0 -10 -10 -10h-20q-10 0 -10 10v10q0 53 -29 81.5t-86 28.5h-85q-53 0 -81.5 -28t-28.5 -77q0 -26 13.5 -41.5t36.5 -23.5l225 -75q34 -11 54.5 -34.5t20.5 -65.5zM275 610q-2 -4 -4.5 -7t-10.5 -3h-15q-4 0 -5.5 3t0.5 7l75 135q2 4 4.5 7t10.5 3h30q4 0 5.5 -3t-0.5 -7z
" />
    <glyph glyph-name="Scedilla" unicode="&#x15e;" horiz-adv-x="695" 
d="M315 -105q-10 0 -10 10v20q0 11 5 21q2 5 5 9l20 35h-80q-83 0 -129 45.5t-46 124.5v35q0 10 10 10h25q10 0 10 -10v-35q0 -60 33 -92.5t97 -32.5h175q64 0 97 32.5t33 92.5v40q0 34 -17.5 54.5t-47.5 30.5l-300 100q-42 14 -68.5 45t-26.5 80v30q0 79 46 124.5t129 45.5
h155q83 0 129 -45.5t46 -124.5v-35q0 -10 -10 -10h-25q-10 0 -10 10v35q0 60 -33 92.5t-97 32.5h-155q-64 0 -97 -32.5t-33 -92.5v-30q0 -34 17.5 -54.5t47.5 -30.5l300 -100q42 -14 68.5 -45t26.5 -80v-39q0 -80 -46 -125.5t-129 -45.5h-65l-30 -60h20q45 0 70 -23.5
t25 -61.5t-25 -61.5t-70 -23.5h-60q-10 0 -10 10v15q0 10 10 10h60q30 0 45 13.5t15 36.5t-15 36.5t-45 13.5h-40z" />
    <glyph glyph-name="scedilla" unicode="&#x15f;" horiz-adv-x="530" 
d="M225 -105q-10 0 -10 10v20q0 11 5 21q2 5 5 9l20 35h-30q-75 0 -115 39t-40 111v10q0 10 10 10h20q10 0 10 -10v-10q0 -53 29 -81.5t86 -28.5h95q53 0 81.5 28t28.5 77q0 26 -13.5 41.5t-36.5 23.5l-225 75q-34 11 -54.5 34.5t-20.5 65.5q0 69 39 107t111 38h85
q75 0 115 -39t40 -111v-10q0 -10 -10 -10h-20q-10 0 -10 10v10q0 53 -29 81.5t-86 28.5h-85q-53 0 -81.5 -28t-28.5 -77q0 -26 13.5 -41.5t36.5 -23.5l225 -75q34 -11 54.5 -34.5t20.5 -65.5q0 -69 -39 -107t-111 -38h-35l-30 -60h20q45 0 70 -23.5t25 -61.5t-25 -61.5
t-70 -23.5h-60q-10 0 -10 10v15q0 10 10 10h60q30 0 45 13.5t15 36.5t-15 36.5t-45 13.5h-40z" />
    <glyph glyph-name="Scaron" unicode="&#x160;" horiz-adv-x="695" 
d="M560 200q0 34 -17.5 54.5t-47.5 30.5l-300 100q-42 14 -68.5 45t-26.5 80v30q0 79 46 124.5t129 45.5h155q83 0 129 -45.5t46 -124.5v-35q0 -10 -10 -10h-25q-10 0 -10 10v35q0 60 -33 92.5t-97 32.5h-155q-64 0 -97 -32.5t-33 -92.5v-30q0 -34 17.5 -54.5t47.5 -30.5
l300 -100q42 -14 68.5 -45t26.5 -80v-39q0 -80 -46 -125.5t-129 -45.5h-175q-83 0 -129 45.5t-46 124.5v35q0 10 10 10h25q10 0 10 -10v-35q0 -60 33 -92.5t97 -32.5h175q64 0 97 32.5t33 92.5v40zM345 790q-8 0 -12.5 3t-7.5 7l-110 145q-3 4 -1 7t6 3h20q8 0 12.5 -3
t7.5 -7l88 -120h4l88 120q3 4 7.5 7t12.5 3h20q4 0 6 -3t-1 -7l-110 -145q-3 -4 -7.5 -7t-12.5 -3h-10z" />
    <glyph glyph-name="scaron" unicode="&#x161;" horiz-adv-x="530" 
d="M460 135q0 -69 -39 -107t-111 -38h-95q-75 0 -115 39t-40 111v10q0 10 10 10h20q10 0 10 -10v-10q0 -53 29 -81.5t86 -28.5h95q53 0 81.5 28t28.5 77q0 26 -13.5 41.5t-36.5 23.5l-225 75q-34 11 -54.5 34.5t-20.5 65.5q0 69 39 107t111 38h85q75 0 115 -39t40 -111v-10
q0 -10 -10 -10h-20q-10 0 -10 10v10q0 53 -29 81.5t-86 28.5h-85q-53 0 -81.5 -28t-28.5 -77q0 -26 13.5 -41.5t36.5 -23.5l225 -75q34 -11 54.5 -34.5t20.5 -65.5zM255 600q-8 0 -12.5 3t-7.5 7l-110 145q-3 4 -1 7t6 3h20q8 0 12.5 -3t7.5 -7l88 -120h4l88 120q3 4 7.5 7
t12.5 3h20q4 0 6 -3t-1 -7l-110 -145q-3 -4 -7.5 -7t-12.5 -3h-10z" />
    <glyph glyph-name="Tcommaaccent" unicode="&#x162;" horiz-adv-x="565" 
d="M305 10q0 -10 -10 -10h-25q-10 0 -10 10v645h-240q-10 0 -10 10v25q0 10 10 10h525q10 0 10 -10v-25q0 -10 -10 -10h-240v-645zM310 -120q0 -4 -1 -7.5t-2 -6.5q-1 -4 -2 -6l-45 -90q-2 -4 -4.5 -7t-10.5 -3t-10 3t0 7l45 90h-10q-10 0 -10 10v30q0 10 10 10h30
q10 0 10 -10v-20z" />
    <glyph glyph-name="tcommaaccent" unicode="&#x163;" horiz-adv-x="385" 
d="M315 480q0 -10 -10 -10h-120v-330q0 -100 105 -100h45q10 0 10 -10v-20q0 -10 -10 -10h-45q-72 0 -108.5 36t-36.5 104v330h-95q-10 0 -10 10v20q0 10 10 10h95v110q0 10 10 10h20q10 0 10 -10v-110h120q10 0 10 -10v-20zM265 -130q0 -4 -1 -7.5t-2 -6.5q-1 -4 -2 -6
l-45 -90q-2 -4 -4.5 -7t-10.5 -3t-10 3t0 7l45 90h-10q-10 0 -10 10v30q0 10 10 10h30q10 0 10 -10v-20z" />
    <glyph glyph-name="Tcaron" unicode="&#x164;" horiz-adv-x="565" 
d="M305 10q0 -10 -10 -10h-25q-10 0 -10 10v645h-240q-10 0 -10 10v25q0 10 10 10h525q10 0 10 -10v-25q0 -10 -10 -10h-240v-645zM280 790q-8 0 -12.5 3t-7.5 7l-110 145q-3 4 -1 7t6 3h20q8 0 12.5 -3t7.5 -7l88 -120h4l88 120q3 4 7.5 7t12.5 3h20q4 0 6 -3t-1 -7
l-110 -145q-3 -4 -7.5 -7t-12.5 -3h-10z" />
    <glyph glyph-name="tcaron" unicode="&#x165;" horiz-adv-x="390" 
d="M315 480q0 -10 -10 -10h-120v-330q0 -100 105 -100h45q10 0 10 -10v-20q0 -10 -10 -10h-45q-72 0 -108.5 36t-36.5 104v330h-95q-10 0 -10 10v20q0 10 10 10h95v110q0 10 10 10h20q10 0 10 -10v-110h120q10 0 10 -10v-20zM410 670q0 -4 -1 -7.5t-2 -6.5q-1 -4 -2 -6
l-45 -90q-2 -4 -4.5 -7t-10.5 -3t-10 3t0 7l45 90h-10q-10 0 -10 10v30q0 10 10 10h30q10 0 10 -10v-20z" />
    <glyph glyph-name="Umacron" unicode="&#x16a;" horiz-adv-x="760" 
d="M650 160q0 -79 -46 -124.5t-129 -45.5h-190q-83 0 -129 45.5t-46 124.5v530q0 10 10 10h25q10 0 10 -10v-530q0 -60 33 -92.5t97 -32.5h190q64 0 97 32.5t33 92.5v530q0 10 10 10h25q10 0 10 -10v-530zM260 840q-10 0 -10 10v20q0 10 10 10h240q10 0 10 -10v-20
q0 -10 -10 -10h-240z" />
    <glyph glyph-name="umacron" unicode="&#x16b;" horiz-adv-x="580" 
d="M245 -10q-75 0 -115 39t-40 111v360q0 10 10 10h20q10 0 10 -10v-360q0 -53 29 -81.5t86 -28.5h75q60 0 95 34t35 91v345q0 10 10 10h20q10 0 10 -10v-490q0 -10 -10 -10h-20q-10 0 -10 10v55h-5q-8 -21 -25 -38q-14 -14 -38 -25.5t-62 -11.5h-75zM170 651q-10 0 -10 10
v20q0 10 10 10h240q10 0 10 -10v-20q0 -10 -10 -10h-240z" />
    <glyph glyph-name="Uring" unicode="&#x16e;" horiz-adv-x="760" 
d="M650 160q0 -79 -46 -124.5t-129 -45.5h-190q-83 0 -129 45.5t-46 124.5v530q0 10 10 10h25q10 0 10 -10v-530q0 -60 33 -92.5t97 -32.5h190q64 0 97 32.5t33 92.5v530q0 10 10 10h25q10 0 10 -10v-530zM380 945q-30 0 -47.5 -17t-17.5 -43v-10q0 -26 17.5 -43t47.5 -17
t47.5 17t17.5 43v10q0 26 -17.5 43t-47.5 17zM380 780q-45 0 -72.5 26.5t-27.5 68.5v10q0 42 27.5 68.5t72.5 26.5t72.5 -26.5t27.5 -68.5v-10q0 -42 -27.5 -68.5t-72.5 -26.5z" />
    <glyph glyph-name="uring" unicode="&#x16f;" horiz-adv-x="580" 
d="M245 -10q-75 0 -115 39t-40 111v360q0 10 10 10h20q10 0 10 -10v-360q0 -53 29 -81.5t86 -28.5h75q60 0 95 34t35 91v345q0 10 10 10h20q10 0 10 -10v-490q0 -10 -10 -10h-20q-10 0 -10 10v55h-5q-8 -21 -25 -38q-14 -14 -38 -25.5t-62 -11.5h-75zM290 755
q-30 0 -47.5 -17t-17.5 -43v-10q0 -26 17.5 -43t47.5 -17t47.5 17t17.5 43v10q0 26 -17.5 43t-47.5 17zM290 590q-45 0 -72.5 26.5t-27.5 68.5v10q0 42 27.5 68.5t72.5 26.5t72.5 -26.5t27.5 -68.5v-10q0 -42 -27.5 -68.5t-72.5 -26.5z" />
    <glyph glyph-name="Uhungarumlaut" unicode="&#x170;" horiz-adv-x="760" 
d="M650 160q0 -79 -46 -124.5t-129 -45.5h-190q-83 0 -129 45.5t-46 124.5v530q0 10 10 10h25q10 0 10 -10v-530q0 -60 33 -92.5t97 -32.5h190q64 0 97 32.5t33 92.5v530q0 10 10 10h25q10 0 10 -10v-530zM320 800q-2 -4 -4.5 -7t-10.5 -3h-15q-4 0 -5.5 3t0.5 7l70 135
q2 4 4.5 7t10.5 3h25q4 0 5.5 -3t-0.5 -7zM460 800q-2 -4 -4.5 -7t-10.5 -3h-15q-4 0 -5.5 3t0.5 7l70 135q2 4 4.5 7t10.5 3h25q4 0 5.5 -3t-0.5 -7z" />
    <glyph glyph-name="uhungarumlaut" unicode="&#x171;" horiz-adv-x="580" 
d="M245 -10q-75 0 -115 39t-40 111v360q0 10 10 10h20q10 0 10 -10v-360q0 -53 29 -81.5t86 -28.5h75q60 0 95 34t35 91v345q0 10 10 10h20q10 0 10 -10v-490q0 -10 -10 -10h-20q-10 0 -10 10v55h-5q-8 -21 -25 -38q-14 -14 -38 -25.5t-62 -11.5h-75zM235 600q-2 -4 -4.5 -7
t-10.5 -3h-15q-4 0 -5.5 3t0.5 7l70 135q2 4 4.5 7t10.5 3h25q4 0 5.5 -3t-0.5 -7zM375 600q-2 -4 -4.5 -7t-10.5 -3h-15q-4 0 -5.5 3t0.5 7l70 135q2 4 4.5 7t10.5 3h25q4 0 5.5 -3t-0.5 -7z" />
    <glyph glyph-name="Uogonek" unicode="&#x172;" horiz-adv-x="760" 
d="M650 160q0 -79 -46 -124.5t-129 -45.5h-40q-27 -12 -48 -29q-18 -14 -32.5 -36t-14.5 -50q0 -23 15 -36.5t45 -13.5h45q10 0 10 -10v-15q0 -10 -10 -10h-45q-45 0 -70 23.5t-25 61.5q0 26 14 47.5t31 36.5q19 18 45 31h-110q-83 0 -129 45.5t-46 124.5v530q0 10 10 10h25
q10 0 10 -10v-530q0 -60 33 -92.5t97 -32.5h190q64 0 97 32.5t33 92.5v530q0 10 10 10h25q10 0 10 -10v-530z" />
    <glyph glyph-name="uogonek" unicode="&#x173;" horiz-adv-x="580" 
d="M450 65h-5q-8 -21 -25 -38q-14 -14 -38 -25.5t-62 -11.5h-75q-75 0 -115 39t-40 111v360q0 10 10 10h20q10 0 10 -10v-360q0 -53 29 -81.5t86 -28.5h75q60 0 95 34t35 91v345q0 10 10 10h20q10 0 10 -10v-490q0 -10 -10 -10q-31 -13 -55 -31q-21 -16 -38 -39t-17 -55
q0 -23 15 -36.5t45 -13.5h45q10 0 10 -10v-15q0 -10 -10 -10h-45q-45 0 -70 23.5t-25 61.5q0 34 18.5 58.5t41.5 40.5q26 18 60 31q-2 0 -3 1q-2 2 -2 4v55z" />
    <glyph glyph-name="Ydieresis" unicode="&#x178;" horiz-adv-x="619" 
d="M312 300l235 390q2 4 4.5 7t10.5 3h30q4 0 6 -2.5t-1 -7.5l-265 -440v-240q0 -10 -10 -10h-25q-10 0 -10 10v240l-265 440q-3 5 -1 7.5t6 2.5h30q8 0 10.5 -3t4.5 -7l235 -390h5zM245 890q10 0 10 -10v-30q0 -10 -10 -10h-30q-10 0 -10 10v30q0 10 10 10h30zM410 890
q10 0 10 -10v-30q0 -10 -10 -10h-30q-10 0 -10 10v30q0 10 10 10h30z" />
    <glyph glyph-name="Zacute" unicode="&#x179;" horiz-adv-x="605" 
d="M100 50v-5h455q10 0 10 -10v-25q0 -10 -10 -10h-505q-10 0 -10 10v30q0 7 5 14q2 4 5 6l455 590v5h-445q-10 0 -10 10v25q0 10 10 10h495q10 0 10 -10v-30q0 -4 -1.5 -7.5t-3.5 -6.5q-3 -4 -5 -6zM325 800q-2 -4 -4.5 -7t-10.5 -3h-15q-4 0 -5.5 3t0.5 7l75 135
q2 4 4.5 7t10.5 3h30q4 0 5.5 -3t-0.5 -7z" />
    <glyph glyph-name="zacute" unicode="&#x17a;" horiz-adv-x="450" 
d="M85 45v-5h325q10 0 10 -10v-20q0 -10 -10 -10h-370q-10 0 -10 10v25q0 7 5 14q2 4 5 6l325 410v5h-315q-10 0 -10 10v20q0 10 10 10h360q10 0 10 -10v-25q0 -4 -1.5 -7.5t-3.5 -6.5q-3 -4 -5 -6zM245 600q-2 -4 -4.5 -7t-10.5 -3h-15q-4 0 -5.5 3t0.5 7l75 135q2 4 4.5 7
t10.5 3h30q4 0 5.5 -3t-0.5 -7z" />
    <glyph glyph-name="Zdotaccent" unicode="&#x17b;" horiz-adv-x="605" 
d="M100 50v-5h455q10 0 10 -10v-25q0 -10 -10 -10h-505q-10 0 -10 10v30q0 7 5 14q2 4 5 6l455 590v5h-445q-10 0 -10 10v25q0 10 10 10h495q10 0 10 -10v-30q0 -4 -1.5 -7.5t-3.5 -6.5q-3 -4 -5 -6zM320 890q10 0 10 -10v-30q0 -10 -10 -10h-30q-10 0 -10 10v30q0 10 10 10
h30z" />
    <glyph glyph-name="zdotaccent" unicode="&#x17c;" horiz-adv-x="450" 
d="M85 45v-5h325q10 0 10 -10v-20q0 -10 -10 -10h-370q-10 0 -10 10v25q0 7 5 14q2 4 5 6l325 410v5h-315q-10 0 -10 10v20q0 10 10 10h360q10 0 10 -10v-25q0 -4 -1.5 -7.5t-3.5 -6.5q-3 -4 -5 -6zM245 700q10 0 10 -10v-30q0 -10 -10 -10h-30q-10 0 -10 10v30q0 10 10 10
h30z" />
    <glyph glyph-name="Zcaron" unicode="&#x17d;" horiz-adv-x="605" 
d="M100 50v-5h455q10 0 10 -10v-25q0 -10 -10 -10h-505q-10 0 -10 10v30q0 7 5 14q2 4 5 6l455 590v5h-445q-10 0 -10 10v25q0 10 10 10h495q10 0 10 -10v-30q0 -4 -1.5 -7.5t-3.5 -6.5q-3 -4 -5 -6zM305 790q-8 0 -12.5 3t-7.5 7l-110 145q-3 4 -1 7t6 3h20q8 0 12.5 -3
t7.5 -7l88 -120h4l88 120q3 4 7.5 7t12.5 3h20q4 0 6 -3t-1 -7l-110 -145q-3 -4 -7.5 -7t-12.5 -3h-10z" />
    <glyph glyph-name="zcaron" unicode="&#x17e;" horiz-adv-x="450" 
d="M85 45v-5h325q10 0 10 -10v-20q0 -10 -10 -10h-370q-10 0 -10 10v25q0 7 5 14q2 4 5 6l325 410v5h-315q-10 0 -10 10v20q0 10 10 10h360q10 0 10 -10v-25q0 -4 -1.5 -7.5t-3.5 -6.5q-3 -4 -5 -6zM220 590q-8 0 -12.5 3t-7.5 7l-110 145q-3 4 -1 7t6 3h20q8 0 12.5 -3
t7.5 -7l88 -120h4l88 120q3 4 7.5 7t12.5 3h20q4 0 6 -3t-1 -7l-110 -145q-3 -4 -7.5 -7t-12.5 -3h-10z" />
    <glyph glyph-name="florin" unicode="&#x192;" horiz-adv-x="355" 
d="M195 480h120q10 0 10 -10v-20q0 -10 -10 -10h-120v-500q0 -68 -36.5 -104t-108.5 -36h-30q-10 0 -10 10v20q0 10 10 10h30q105 0 105 100v500h-95q-10 0 -10 10v20q0 10 10 10h95v80q0 68 36.5 104t108.5 36h45q10 0 10 -10v-20q0 -10 -10 -10h-45q-105 0 -105 -100v-80z
" />
    <glyph glyph-name="Scommaaccent" unicode="&#x218;" horiz-adv-x="695" 
d="M560 200q0 34 -17.5 54.5t-47.5 30.5l-300 100q-42 14 -68.5 45t-26.5 80v30q0 79 46 124.5t129 45.5h155q83 0 129 -45.5t46 -124.5v-35q0 -10 -10 -10h-25q-10 0 -10 10v35q0 60 -33 92.5t-97 32.5h-155q-64 0 -97 -32.5t-33 -92.5v-30q0 -34 17.5 -54.5t47.5 -30.5
l300 -100q42 -14 68.5 -45t26.5 -80v-39q0 -80 -46 -125.5t-129 -45.5h-175q-83 0 -129 45.5t-46 124.5v35q0 10 10 10h25q10 0 10 -10v-35q0 -60 33 -92.5t97 -32.5h175q64 0 97 32.5t33 92.5v40zM380 -120q0 -4 -1 -7.5t-2 -6.5q-1 -4 -2 -6l-45 -90q-2 -4 -4.5 -7
t-10.5 -3t-10 3t0 7l45 90h-10q-10 0 -10 10v30q0 10 10 10h30q10 0 10 -10v-20z" />
    <glyph glyph-name="scommaaccent" unicode="&#x219;" horiz-adv-x="530" 
d="M460 135q0 -69 -39 -107t-111 -38h-95q-75 0 -115 39t-40 111v10q0 10 10 10h20q10 0 10 -10v-10q0 -53 29 -81.5t86 -28.5h95q53 0 81.5 28t28.5 77q0 26 -13.5 41.5t-36.5 23.5l-225 75q-34 11 -54.5 34.5t-20.5 65.5q0 69 39 107t111 38h85q75 0 115 -39t40 -111v-10
q0 -10 -10 -10h-20q-10 0 -10 10v10q0 53 -29 81.5t-86 28.5h-85q-53 0 -81.5 -28t-28.5 -77q0 -26 13.5 -41.5t36.5 -23.5l225 -75q34 -11 54.5 -34.5t20.5 -65.5zM290 -120q0 -4 -1 -7.5t-2 -6.5q-1 -4 -2 -6l-45 -90q-2 -4 -4.5 -7t-10.5 -3t-10 3t0 7l45 90h-10
q-10 0 -10 10v30q0 10 10 10h30q10 0 10 -10v-20z" />
    <glyph glyph-name="afii57929" unicode="&#x2bc;" horiz-adv-x="137" 
d="M107 670q0 -4 -1 -7.5t-2 -6.5q-1 -4 -2 -6l-45 -90q-2 -4 -4.5 -7t-10.5 -3t-10 3t0 7l45 90h-10q-10 0 -10 10v30q0 10 10 10h30q10 0 10 -10v-20z" />
    <glyph glyph-name="circumflex" unicode="&#x2c6;" horiz-adv-x="334" 
d="M172 700q8 0 12.5 -3t7.5 -7l110 -145q3 -4 1 -7t-6 -3h-20q-8 0 -12.5 3t-7.5 7l-88 120h-4l-88 -120q-3 -4 -7.5 -7t-12.5 -3h-20q-4 0 -6 3t1 7l110 145q3 4 7.5 7t12.5 3h10z" />
    <glyph glyph-name="caron" unicode="&#x2c7;" horiz-adv-x="334" 
d="M162 535q-8 0 -12.5 3t-7.5 7l-110 145q-3 4 -1 7t6 3h20q8 0 12.5 -3t7.5 -7l88 -120h4l88 120q3 4 7.5 7t12.5 3h20q4 0 6 -3t-1 -7l-110 -145q-3 -4 -7.5 -7t-12.5 -3h-10z" />
    <glyph glyph-name="breve" unicode="&#x2d8;" horiz-adv-x="325" 
d="M185 610q38 0 54 16t16 54v10q0 10 10 10h20q10 0 10 -10v-10q0 -110 -110 -110h-45q-110 0 -110 110v10q0 10 10 10h20q10 0 10 -10v-10q0 -38 16 -54t54 -16h45z" />
    <glyph glyph-name="dotaccent" unicode="&#x2d9;" horiz-adv-x="110" 
d="M70 700q10 0 10 -10v-30q0 -10 -10 -10h-30q-10 0 -10 10v30q0 10 10 10h30z" />
    <glyph glyph-name="ring" unicode="&#x2da;" horiz-adv-x="260" 
d="M130 665q-30 0 -47.5 -17t-17.5 -43v-10q0 -26 17.5 -43t47.5 -17t47.5 17t17.5 43v10q0 26 -17.5 43t-47.5 17zM130 500q-45 0 -72.5 26.5t-27.5 68.5v10q0 42 27.5 68.5t72.5 26.5t72.5 -26.5t27.5 -68.5v-10q0 -42 -27.5 -68.5t-72.5 -26.5z" />
    <glyph glyph-name="ogonek" unicode="&#x2db;" horiz-adv-x="210" 
d="M180 0q-32 -15 -58 -34q-22 -17 -39.5 -40t-17.5 -51q0 -23 15 -36.5t45 -13.5h45q10 0 10 -10v-15q0 -10 -10 -10h-45q-45 0 -70 23.5t-25 61.5q0 30 17 53t38 39q24 18 55 33h40z" />
    <glyph glyph-name="tilde" unicode="&#x2dc;" horiz-adv-x="310" 
d="M215 570q-24 0 -39.5 15t-28 32.5t-24 32.5t-28.5 15q-30 0 -30 -30v-55q0 -10 -10 -10h-15q-10 0 -10 10v55q0 30 17.5 47.5t47.5 17.5q24 0 39.5 -15t28 -32.5t24 -32.5t28.5 -15q30 0 30 30v55q0 10 10 10h15q10 0 10 -10v-55q0 -30 -17.5 -47.5t-47.5 -17.5z" />
    <glyph glyph-name="hungarumlaut" unicode="&#x2dd;" horiz-adv-x="319" 
d="M67 555q-2 -4 -4.5 -7t-10.5 -3h-15q-4 0 -5.5 3t0.5 7l70 135q2 4 4.5 7t10.5 3h25q4 0 5.5 -3t-0.5 -7zM207 555q-2 -4 -4.5 -7t-10.5 -3h-15q-4 0 -5.5 3t0.5 7l70 135q2 4 4.5 7t10.5 3h25q4 0 5.5 -3t-0.5 -7z" />
    <glyph glyph-name="afii10023" unicode="&#x401;" horiz-adv-x="660" 
d="M155 380h355q10 0 10 -10v-25q0 -10 -10 -10h-355v-290h455q10 0 10 -10v-25q0 -10 -10 -10h-490q-10 0 -10 10v680q0 10 10 10h480q10 0 10 -10v-25q0 -10 -10 -10h-445v-275zM265 830q-10 0 -10 10v30q0 10 10 10h30q10 0 10 -10v-30q0 -10 -10 -10h-30zM430 830
q-10 0 -10 10v30q0 10 10 10h30q10 0 10 -10v-30q0 -10 -10 -10h-30z" />
    <glyph glyph-name="afii10051" unicode="&#x402;" horiz-adv-x="740" 
d="M615 255q0 60 -33 92.5t-97 32.5h-250v-370q0 -10 -10 -10h-25q-10 0 -10 10v645h-180q-10 0 -10 10v25q0 10 10 10h415q10 0 10 -10v-25q0 -10 -10 -10h-190v-230h250q83 0 129 -45.5t46 -124.5v-135q0 -72 -40 -111t-115 -39h-40q-10 0 -10 10v25q0 10 10 10h40
q110 0 110 105v135z" />
    <glyph glyph-name="afii10052" unicode="&#x403;" horiz-adv-x="565" 
d="M155 10q0 -10 -10 -10h-25q-10 0 -10 10v680q0 10 10 10h435q10 0 10 -10v-25q0 -10 -10 -10h-400v-645zM350 800q-2 -4 -4.5 -7t-10.5 -3h-15q-4 0 -5.5 3t0.5 7l75 135q2 4 4.5 7t10.5 3h30q4 0 5.5 -3t-0.5 -7z" />
    <glyph glyph-name="afii10053" unicode="&#x404;" horiz-adv-x="755" 
d="M665 160q0 -79 -46 -124.5t-129 -45.5h-215q-83 0 -129 45.5t-46 124.5v380q0 79 46 124.5t129 45.5h215q83 0 129 -45.5t46 -124.5v-35q0 -10 -10 -10h-25q-10 0 -10 10v35q0 60 -33 92.5t-97 32.5h-215q-64 0 -97 -32.5t-33 -92.5v-160h260q10 0 10 -10v-25
q0 -10 -10 -10h-260v-175q0 -60 33 -92.5t97 -32.5h215q64 0 97 32.5t33 92.5v35q0 10 10 10h25q10 0 10 -10v-35z" />
    <glyph glyph-name="afii10054" unicode="&#x405;" horiz-adv-x="695" 
d="M560 200q0 34 -17.5 54.5t-47.5 30.5l-300 100q-42 14 -68.5 45t-26.5 80v30q0 79 46 124.5t129 45.5h155q83 0 129 -45.5t46 -124.5v-35q0 -10 -10 -10h-25q-10 0 -10 10v35q0 60 -33 92.5t-97 32.5h-155q-64 0 -97 -32.5t-33 -92.5v-30q0 -34 17.5 -54.5t47.5 -30.5
l300 -100q42 -14 68.5 -45t26.5 -80v-39q0 -80 -46 -125.5t-129 -45.5h-175q-83 0 -129 45.5t-46 124.5v35q0 10 10 10h25q10 0 10 -10v-35q0 -60 33 -92.5t97 -32.5h175q64 0 97 32.5t33 92.5v40z" />
    <glyph glyph-name="afii10055" unicode="&#x406;" horiz-adv-x="265" 
d="M155 10q0 -10 -10 -10h-25q-10 0 -10 10v680q0 10 10 10h25q10 0 10 -10v-680z" />
    <glyph glyph-name="afii10056" unicode="&#x407;" horiz-adv-x="265" 
d="M155 10q0 -10 -10 -10h-25q-10 0 -10 10v680q0 10 10 10h25q10 0 10 -10v-680zM66 870q10 0 10 -10v-30q0 -10 -10 -10h-30q-10 0 -10 10v30q0 10 10 10h30zM231 870q10 0 10 -10v-30q0 -10 -10 -10h-30q-10 0 -10 10v30q0 10 10 10h30z" />
    <glyph glyph-name="afii10057" unicode="&#x408;" horiz-adv-x="670" 
d="M560 160q0 -79 -46 -124.5t-129 -45.5h-140q-83 0 -129 45.5t-46 124.5v50q0 10 10 10h25q10 0 10 -10v-50q0 -60 33 -92.5t97 -32.5h140q64 0 97 32.5t33 92.5v530q0 10 10 10h25q10 0 10 -10v-530z" />
    <glyph glyph-name="afii10058" unicode="&#x409;" horiz-adv-x="1095" 
d="M830 455q83 0 129 -45.5t46 -124.5v-115q0 -79 -46 -124.5t-129 -45.5h-285q-10 0 -10 10v645h-255l-120 -535q-29 -130 -140 -130h-10q-10 0 -10 10v25q0 10 10 10h10q38 0 62.5 23.5t32.5 61.5l125 570q2 4 4.5 7t10.5 3h315q10 0 10 -10v-235h250zM830 45
q64 0 97 32.5t33 92.5v115q0 60 -33 92.5t-97 32.5h-250v-365h250z" />
    <glyph glyph-name="afii10059" unicode="&#x40a;" horiz-adv-x="1105" 
d="M840 420q83 0 129 -45.5t46 -124.5v-80q0 -79 -46 -124.5t-129 -45.5h-290q-10 0 -10 10v365h-385v-365q0 -10 -10 -10h-25q-10 0 -10 10v680q0 10 10 10h25q10 0 10 -10v-270h385v270q0 10 10 10h25q10 0 10 -10v-270h255zM840 45q64 0 97 32.5t33 92.5v80
q0 60 -33 92.5t-97 32.5h-255v-330h255z" />
    <glyph glyph-name="afii10060" unicode="&#x40b;" horiz-adv-x="760" 
d="M235 425h250q83 0 129 -45.5t46 -124.5v-245q0 -10 -10 -10h-25q-10 0 -10 10v245q0 60 -33 92.5t-97 32.5h-250v-370q0 -10 -10 -10h-25q-10 0 -10 10v645h-180q-10 0 -10 10v25q0 10 10 10h415q10 0 10 -10v-25q0 -10 -10 -10h-190v-230z" />
    <glyph glyph-name="afii10061" unicode="&#x40c;" horiz-adv-x="677" 
d="M155 390h245l165 300q3 5 5 7.5t10 2.5h30q4 0 5.5 -3t-0.5 -7l-180 -320l200 -360q2 -4 0.5 -7t-5.5 -3h-30q-8 0 -10.5 3t-4.5 7l-185 335h-245v-335q0 -10 -10 -10h-25q-10 0 -10 10v680q0 10 10 10h25q10 0 10 -10v-300zM361 800q-2 -4 -4.5 -7t-10.5 -3h-15
q-4 0 -5.5 3t0.5 7l75 135q2 4 4.5 7t10.5 3h30q4 0 5.5 -3t-0.5 -7z" />
    <glyph glyph-name="afii10062" unicode="&#x40e;" horiz-adv-x="597" 
d="M330 835q38 0 54 16t16 54v20q0 10 10 10h20q10 0 10 -10v-20q0 -110 -110 -110h-75q-110 0 -110 110v20q0 10 10 10h20q10 0 10 -10v-20q0 -38 16 -54t54 -16h75zM21 690q-4 10 5 10h30q4 0 6.5 -1.5t4.5 -3.5q2 -3 4 -5l233 -485h4l218 485q1 2 4 5q5 5 11 5h30
q9 0 5 -10l-245 -540q-19 -41 -38 -71.5t-40.5 -50t-46.5 -29t-55 -9.5h-15q-10 0 -10 10v25q0 10 10 10h15q22 0 39.5 6t32.5 19.5t29 35.5t29 54z" />
    <glyph glyph-name="afii10145" unicode="&#x40f;" horiz-adv-x="745" 
d="M395 0v-125q0 -10 -10 -10h-25q-10 0 -10 10v125h-230q-10 0 -10 10v680q0 10 10 10h25q10 0 10 -10v-645h435v645q0 10 10 10h25q10 0 10 -10v-680q0 -10 -10 -10h-230z" />
    <glyph glyph-name="afii10017" unicode="&#x410;" horiz-adv-x="647" 
d="M146 205l-75 -195q-2 -4 -4.5 -7t-10.5 -3h-25q-14 0 -10 10l275 680q2 5 4.5 7.5t10.5 2.5h25q8 0 10.5 -2.5t4.5 -7.5l275 -680q4 -10 -10 -10h-25q-8 0 -10.5 3t-4.5 7l-75 195h-355zM481 250l-155 395h-5l-155 -395h315z" />
    <glyph glyph-name="afii10018" unicode="&#x411;" horiz-adv-x="720" 
d="M465 420q83 0 129 -45.5t46 -124.5v-80q0 -79 -46 -124.5t-129 -45.5h-345q-10 0 -10 10v680q0 10 10 10h465q10 0 10 -10v-25q0 -10 -10 -10h-430v-235h310zM465 45q64 0 97 32.5t33 92.5v80q0 60 -33 92.5t-97 32.5h-310v-330h310z" />
    <glyph glyph-name="afii10019" unicode="&#x412;" horiz-adv-x="705" 
d="M550 530q0 60 -33 92.5t-97 32.5h-265v-260h265q64 0 97 32.5t33 92.5v10zM595 520q0 -44 -13.5 -70.5t-29.5 -41.5q-18 -18 -42 -26v-4q35 -6 62 -24q23 -16 43 -46t20 -83v-55q0 -79 -46 -124.5t-129 -45.5h-340q-10 0 -10 10v680q0 10 10 10h300q83 0 129 -45.5
t46 -124.5v-10zM590 225q0 60 -33 92.5t-97 32.5h-305v-305h305q64 0 97 32.5t33 92.5v55z" />
    <glyph glyph-name="afii10020" unicode="&#x413;" horiz-adv-x="565" 
d="M155 10q0 -10 -10 -10h-25q-10 0 -10 10v680q0 10 10 10h435q10 0 10 -10v-25q0 -10 -10 -10h-400v-645z" />
    <glyph glyph-name="afii10021" unicode="&#x414;" horiz-adv-x="705" 
d="M115 45h425v610h-290zM655 45q10 0 10 -10v-160q0 -10 -10 -10h-25q-10 0 -10 10v125h-575v-125q0 -10 -10 -10h-25q-10 0 -10 10v160q0 10 10 10h60l140 645q2 10 15 10h350q10 0 10 -10v-645h70z" />
    <glyph glyph-name="afii10022" unicode="&#x415;" horiz-adv-x="660" 
d="M155 380h355q10 0 10 -10v-25q0 -10 -10 -10h-355v-290h455q10 0 10 -10v-25q0 -10 -10 -10h-490q-10 0 -10 10v680q0 10 10 10h480q10 0 10 -10v-25q0 -10 -10 -10h-445v-275z" />
    <glyph glyph-name="afii10024" unicode="&#x416;" horiz-adv-x="979" 
d="M467 690q0 10 10 10h25q10 0 10 -10v-300h190l165 300q3 5 5 7.5t10 2.5h30q4 0 5.5 -3t-0.5 -7l-180 -320l200 -360q2 -4 0.5 -7t-5.5 -3h-30q-8 0 -10.5 3t-4.5 7l-185 335h-190v-335q0 -10 -10 -10h-25q-10 0 -10 10v335h-190l-185 -335q-2 -4 -4.5 -7t-10.5 -3h-30
q-4 0 -5.5 3t0.5 7l200 360l-180 320q-2 4 -0.5 7t5.5 3h30q8 0 10 -2.5t5 -7.5l165 -300h190v300z" />
    <glyph glyph-name="afii10025" unicode="&#x417;" horiz-adv-x="720" 
d="M630 160q0 -79 -46 -124.5t-129 -45.5h-190q-83 0 -129 45.5t-46 124.5v35q0 10 10 10h25q10 0 10 -10v-35q0 -60 33 -92.5t97 -32.5h190q64 0 97 32.5t33 92.5v50q0 60 -33 92.5t-97 32.5h-115q-10 0 -10 10v25q0 10 10 10h105q64 0 97 32.5t33 92.5v35q0 60 -33 92.5
t-97 32.5h-170q-64 0 -97 -32.5t-33 -92.5v-35q0 -10 -10 -10h-25q-10 0 -10 10v35q0 79 46 124.5t129 45.5h170q83 0 129 -45.5t46 -124.5v-35q0 -48 -15.5 -75.5t-34.5 -42.5q-22 -18 -50 -25v-4q30 -7 55 -25q20 -16 37.5 -45t17.5 -78v-50z" />
    <glyph glyph-name="afii10026" unicode="&#x418;" horiz-adv-x="775" 
d="M620 635h-5l-440 -625q-3 -4 -7.5 -7t-12.5 -3h-35q-10 0 -10 10v680q0 10 10 10h25q10 0 10 -10v-625h5l440 625q3 4 7.5 7t12.5 3h35q10 0 10 -10v-680q0 -10 -10 -10h-25q-10 0 -10 10v625z" />
    <glyph glyph-name="afii10027" unicode="&#x419;" horiz-adv-x="775" 
d="M425 835q38 0 54 16t16 54v20q0 10 10 10h20q10 0 10 -10v-20q0 -110 -110 -110h-75q-110 0 -110 110v20q0 10 10 10h20q10 0 10 -10v-20q0 -38 16 -54t54 -16h75zM620 635h-5l-440 -625q-3 -4 -7.5 -7t-12.5 -3h-35q-10 0 -10 10v680q0 10 10 10h25q10 0 10 -10v-625h5
l440 625q3 4 7.5 7t12.5 3h35q10 0 10 -10v-680q0 -10 -10 -10h-25q-10 0 -10 10v625z" />
    <glyph glyph-name="afii10028" unicode="&#x41a;" horiz-adv-x="677" 
d="M155 390h245l165 300q3 5 5 7.5t10 2.5h30q4 0 5.5 -3t-0.5 -7l-180 -320l200 -360q2 -4 0.5 -7t-5.5 -3h-30q-8 0 -10.5 3t-4.5 7l-185 335h-245v-335q0 -10 -10 -10h-25q-10 0 -10 10v680q0 10 10 10h25q10 0 10 -10v-300z" />
    <glyph glyph-name="afii10029" unicode="&#x41b;" horiz-adv-x="725" 
d="M605 700q10 0 10 -10v-680q0 -10 -10 -10h-25q-10 0 -10 10v645h-290l-120 -535q-29 -130 -140 -130h-10q-10 0 -10 10v25q0 10 10 10h10q38 0 62.5 23.5t32.5 61.5l125 570q2 4 4.5 7t10.5 3h350z" />
    <glyph glyph-name="afii10030" unicode="&#x41c;" horiz-adv-x="965" 
d="M480 60h5l305 630q5 10 20 10h35q10 0 10 -10v-680q0 -10 -10 -10h-25q-10 0 -10 10v610h-5l-295 -610q-2 -4 -7 -7t-13 -3h-15q-8 0 -13 3t-7 7l-295 610h-5v-610q0 -10 -10 -10h-25q-10 0 -10 10v680q0 10 10 10h35q15 0 20 -10z" />
    <glyph glyph-name="afii10031" unicode="&#x41d;" horiz-adv-x="745" 
d="M155 375h435v315q0 10 10 10h25q10 0 10 -10v-680q0 -10 -10 -10h-25q-10 0 -10 10v320h-435v-320q0 -10 -10 -10h-25q-10 0 -10 10v680q0 10 10 10h25q10 0 10 -10v-315z" />
    <glyph glyph-name="afii10032" unicode="&#x41e;" horiz-adv-x="775" 
d="M100 540q0 79 46 124.5t129 45.5h225q83 0 129 -45.5t46 -124.5v-380q0 -79 -46 -124.5t-129 -45.5h-225q-83 0 -129 45.5t-46 124.5v380zM145 160q0 -60 33 -92.5t97 -32.5h225q64 0 97 32.5t33 92.5v380q0 60 -33 92.5t-97 32.5h-225q-64 0 -97 -32.5t-33 -92.5v-380z
" />
    <glyph glyph-name="afii10033" unicode="&#x41f;" horiz-adv-x="745" 
d="M625 700q10 0 10 -10v-680q0 -10 -10 -10h-25q-10 0 -10 10v645h-435v-645q0 -10 -10 -10h-25q-10 0 -10 10v680q0 10 10 10h505z" />
    <glyph glyph-name="afii10034" unicode="&#x420;" horiz-adv-x="720" 
d="M155 235v-225q0 -10 -10 -10h-25q-10 0 -10 10v680q0 10 10 10h335q83 0 129 -45.5t46 -124.5v-125q0 -79 -46 -124.5t-129 -45.5h-300zM155 655v-375h300q64 0 97 32.5t33 92.5v125q0 60 -33 92.5t-97 32.5h-300z" />
    <glyph glyph-name="afii10035" unicode="&#x421;" horiz-adv-x="755" 
d="M665 160q0 -79 -46 -124.5t-129 -45.5h-215q-83 0 -129 45.5t-46 124.5v380q0 79 46 124.5t129 45.5h215q83 0 129 -45.5t46 -124.5v-35q0 -10 -10 -10h-25q-10 0 -10 10v35q0 60 -33 92.5t-97 32.5h-215q-64 0 -97 -32.5t-33 -92.5v-380q0 -60 33 -92.5t97 -32.5h215
q64 0 97 32.5t33 92.5v35q0 10 10 10h25q10 0 10 -10v-35z" />
    <glyph glyph-name="afii10036" unicode="&#x422;" horiz-adv-x="565" 
d="M305 10q0 -10 -10 -10h-25q-10 0 -10 10v645h-240q-10 0 -10 10v25q0 10 10 10h525q10 0 10 -10v-25q0 -10 -10 -10h-240v-645z" />
    <glyph glyph-name="afii10037" unicode="&#x423;" horiz-adv-x="597" 
d="M21 690q-4 10 5 10h30q4 0 6.5 -1.5t4.5 -3.5q2 -3 4 -5l233 -485h4l218 485q1 2 4 5q5 5 11 5h30q9 0 5 -10l-245 -540q-19 -41 -38 -71.5t-40.5 -50t-46.5 -29t-55 -9.5h-15q-10 0 -10 10v25q0 10 10 10h15q22 0 39.5 6t32.5 19.5t29 35.5t29 54z" />
    <glyph glyph-name="afii10038" unicode="&#x424;" horiz-adv-x="915" 
d="M825 225q0 -79 -46 -124.5t-129 -45.5h-170v-95q0 -10 -10 -10h-25q-10 0 -10 10v95h-170q-83 0 -129 45.5t-46 124.5v260q0 79 46 124.5t129 45.5h170v95q0 10 10 10h25q10 0 10 -10v-95h170q83 0 129 -45.5t46 -124.5v-260zM780 485q0 60 -33 92.5t-97 32.5h-170v-510
h170q64 0 97 32.5t33 92.5v260zM265 610q-64 0 -97 -32.5t-33 -92.5v-260q0 -60 33 -92.5t97 -32.5h170v510h-170z" />
    <glyph glyph-name="afii10039" unicode="&#x425;" horiz-adv-x="616" 
d="M583 10q3 -4 3 -7t-8 -3h-30q-8 0 -11 5q-3 2 -4 5l-225 325l-225 -325q-2 -3 -4 -5q-5 -5 -11 -5h-30q-8 0 -8 3t3 7l250 360l-225 320q-3 4 -3 7t8 3h30q4 0 6.5 -1.5t4.5 -3.5q2 -3 4 -5l200 -285l200 285q1 2 4 5q5 5 11 5h30q8 0 8 -3t-3 -7l-225 -320z" />
    <glyph glyph-name="afii10040" unicode="&#x426;" horiz-adv-x="739" 
d="M120 0q-10 0 -10 10v680q0 10 10 10h25q10 0 10 -10v-645h420v645q0 10 10 10h25q10 0 10 -10v-660l95 -105q7 -8 0 -15l-15 -15q-8 -8 -15 0l-95 105h-470z" />
    <glyph glyph-name="afii10041" unicode="&#x427;" horiz-adv-x="710" 
d="M100 690q0 10 10 10h25q10 0 10 -10v-275q0 -60 33 -92.5t97 -32.5h280v400q0 10 10 10h25q10 0 10 -10v-680q0 -10 -10 -10h-25q-10 0 -10 10v235h-280q-83 0 -129 45.5t-46 124.5v275z" />
    <glyph glyph-name="afii10042" unicode="&#x428;" horiz-adv-x="1005" 
d="M120 0q-10 0 -10 10v680q0 10 10 10h25q10 0 10 -10v-645h325v645q0 10 10 10h25q10 0 10 -10v-645h325v645q0 10 10 10h25q10 0 10 -10v-680q0 -10 -10 -10h-765z" />
    <glyph glyph-name="afii10043" unicode="&#x429;" horiz-adv-x="1014" 
d="M120 0q-10 0 -10 10v680q0 10 10 10h25q10 0 10 -10v-645h325v645q0 10 10 10h25q10 0 10 -10v-645h325v645q0 10 10 10h25q10 0 10 -10v-660l95 -105q7 -8 0 -15l-15 -15q-8 -8 -15 0l-95 105h-745z" />
    <glyph glyph-name="afii10044" unicode="&#x42a;" horiz-adv-x="735" 
d="M470 455q83 0 129 -45.5t46 -124.5v-115q0 -79 -46 -124.5t-129 -45.5h-300q-10 0 -10 10v645h-150q-10 0 -10 10v25q0 10 10 10h185q10 0 10 -10v-235h265zM470 45q64 0 97 32.5t33 92.5v115q0 60 -33 92.5t-97 32.5h-265v-365h265z" />
    <glyph glyph-name="afii10045" unicode="&#x42b;" horiz-adv-x="875" 
d="M405 455q83 0 129 -45.5t46 -124.5v-115q0 -79 -46 -124.5t-129 -45.5h-285q-10 0 -10 10v680q0 10 10 10h25q10 0 10 -10v-235h250zM405 45q64 0 97 32.5t33 92.5v115q0 60 -33 92.5t-97 32.5h-250v-365h250zM765 10q0 -10 -10 -10h-25q-10 0 -10 10v680q0 10 10 10h25
q10 0 10 -10v-680z" />
    <glyph glyph-name="afii10046" unicode="&#x42c;" horiz-adv-x="710" 
d="M445 455q83 0 129 -45.5t46 -124.5v-115q0 -79 -46 -124.5t-129 -45.5h-325q-10 0 -10 10v680q0 10 10 10h25q10 0 10 -10v-235h290zM445 45q64 0 97 32.5t33 92.5v115q0 60 -33 92.5t-97 32.5h-290v-365h290z" />
    <glyph glyph-name="afii10047" unicode="&#x42d;" horiz-adv-x="755" 
d="M90 195q0 10 10 10h25q10 0 10 -10v-35q0 -60 33 -92.5t97 -32.5h215q64 0 97 32.5t33 92.5v175h-260q-10 0 -10 10v25q0 10 10 10h260v160q0 60 -33 92.5t-97 32.5h-215q-64 0 -97 -32.5t-33 -92.5v-35q0 -10 -10 -10h-25q-10 0 -10 10v35q0 79 46 124.5t129 45.5h215
q83 0 129 -45.5t46 -124.5v-380q0 -79 -46 -124.5t-129 -45.5h-215q-83 0 -129 45.5t-46 124.5v35z" />
    <glyph glyph-name="afii10048" unicode="&#x42e;" horiz-adv-x="975" 
d="M355 325h-200v-315q0 -10 -10 -10h-25q-10 0 -10 10v680q0 10 10 10h25q10 0 10 -10v-320h200v170q0 79 46 124.5t129 45.5h170q83 0 129 -45.5t46 -124.5v-380q0 -79 -46 -124.5t-129 -45.5h-170q-83 0 -129 45.5t-46 124.5v165zM400 160q0 -60 33 -92.5t97 -32.5h170
q64 0 97 32.5t33 92.5v380q0 60 -33 92.5t-97 32.5h-170q-64 0 -97 -32.5t-33 -92.5v-380z" />
    <glyph glyph-name="afii10049" unicode="&#x42f;" horiz-adv-x="712" 
d="M267 260l-135 -250q-2 -4 -4.5 -7t-10.5 -3h-30q-4 0 -5.5 3t0.5 7l140 255q-39 5 -70 24q-13 8 -25.5 20t-22.5 29.5t-16 40t-6 51.5v100q0 79 46 124.5t129 45.5h335q10 0 10 -10v-680q0 -10 -10 -10h-25q-10 0 -10 10v250h-290zM257 655q-64 0 -97 -32.5t-33 -92.5
v-100q0 -60 33 -92.5t97 -32.5h300v350h-300z" />
    <glyph glyph-name="afii10065" unicode="&#x430;" horiz-adv-x="550" 
d="M95 370q0 72 40 111t115 39h55q75 0 115 -39t40 -111v-360q0 -10 -10 -10h-20q-10 0 -10 10v55h-5q-8 -21 -25 -38q-14 -14 -38 -25.5t-62 -11.5h-65q-75 0 -115 39t-40 111t40 111t115 39h195v80q0 53 -29 81.5t-86 28.5h-55q-57 0 -86 -28.5t-29 -81.5v-5
q0 -10 -10 -10h-20q-10 0 -10 10v5zM110 140q0 -53 29 -81.5t86 -28.5h65q60 0 95 34t35 91v95h-195q-57 0 -86 -28.5t-29 -81.5z" />
    <glyph glyph-name="afii10066" unicode="&#x431;" horiz-adv-x="550" 
d="M440 265q0 53 -29 81.5t-86 28.5h-205v-235q0 -53 29 -81.5t86 -28.5h90q57 0 86 28.5t29 81.5v125zM480 140q0 -72 -40 -111t-115 -39h-90q-75 0 -115 39t-40 111v325q0 72 35 108t110 42l120 10q75 6 75 75q0 10 10 10h20q10 0 10 -10q0 -106 -115 -115l-120 -10
q-53 -5 -79 -31t-26 -79v-50h205q75 0 115 -39t40 -111v-125z" />
    <glyph glyph-name="afii10067" unicode="&#x432;" horiz-adv-x="545" 
d="M345 40q49 0 74.5 25t25.5 70v10q0 45 -25.5 70t-74.5 25h-215v-200h215zM315 280q49 0 74.5 25t25.5 70t-25.5 70t-74.5 25h-185v-190h185zM100 0q-10 0 -10 10v490q0 10 10 10h215q68 0 104 -35.5t36 -99.5q0 -34 -11 -55t-24 -33q-16 -14 -35 -20v-4q28 -6 50 -20
q19 -12 34.5 -35.5t15.5 -62.5v-10q0 -64 -36 -99.5t-104 -35.5h-245z" />
    <glyph glyph-name="afii10068" unicode="&#x433;" horiz-adv-x="430" 
d="M430 480q0 -10 -10 -10h-290v-460q0 -10 -10 -10h-20q-10 0 -10 10v490q0 10 10 10h320q10 0 10 -10v-20z" />
    <glyph glyph-name="afii10069" unicode="&#x434;" horiz-adv-x="545" 
d="M0 30q0 10 10 10h50l95 460q2 10 15 10h265q10 0 10 -10v-460h60q10 0 10 -10v-135q0 -10 -10 -10h-20q-10 0 -10 10v105h-435v-105q0 -10 -10 -10h-20q-10 0 -10 10v135zM405 470h-215l-90 -430h305v430z" />
    <glyph glyph-name="afii10070" unicode="&#x435;" 
d="M490 245q0 -10 -10 -10h-360v-95q0 -53 29 -81.5t86 -28.5h100q57 0 86 28.5t29 81.5q0 10 10 10h20q10 0 10 -10q0 -72 -40 -111t-115 -39h-100q-75 0 -115 39t-40 111v230q0 72 40 111t115 39h100q75 0 115 -39t40 -111v-125zM120 275h330v95q0 53 -29 81.5t-86 28.5
h-100q-57 0 -86 -28.5t-29 -81.5v-95z" />
    <glyph glyph-name="afii10072" unicode="&#x436;" horiz-adv-x="724" 
d="M382 290h130l120 210q2 4 4.5 7t10.5 3h25q4 0 5.5 -3t-0.5 -7l-130 -230l145 -260q2 -4 0.5 -7t-5.5 -3h-25q-8 0 -10.5 3t-4.5 7l-135 240h-130v-240q0 -10 -10 -10h-20q-10 0 -10 10v240h-130l-135 -240q-2 -4 -4.5 -7t-10.5 -3h-25q-4 0 -5.5 3t0.5 7l145 260
l-130 230q-2 4 -0.5 7t5.5 3h25q8 0 10.5 -3t4.5 -7l120 -210h130v210q0 10 10 10h20q10 0 10 -10v-210z" />
    <glyph glyph-name="afii10073" unicode="&#x437;" horiz-adv-x="550" 
d="M470 375q0 -36 -12.5 -57.5t-27.5 -33.5q-18 -14 -40 -19v-5q25 -6 45 -20q17 -12 31 -34.5t14 -60.5v-20q0 -64 -36 -99.5t-104 -35.5h-115q-75 0 -115 39t-40 111v20q0 10 10 10h20q10 0 10 -10v-20q0 -53 29 -81.5t86 -28.5h115q49 0 74.5 25t25.5 70v20
q0 45 -25.5 70t-74.5 25h-75q-10 0 -10 10v20q0 10 10 10h65q49 0 74.5 25t25.5 70v10q0 45 -25.5 70t-74.5 25h-95q-57 0 -86 -28.5t-29 -81.5v-20q0 -10 -10 -10h-20q-10 0 -10 10v20q0 72 40 111t115 39h95q68 0 104 -35.5t36 -99.5v-10z" />
    <glyph glyph-name="afii10074" unicode="&#x438;" horiz-adv-x="585" 
d="M485 510q10 0 10 -10v-490q0 -10 -10 -10h-20q-10 0 -10 10v440h-5l-300 -440q-4 -4 -8 -7t-12 -3h-30q-10 0 -10 10v490q0 10 10 10h20q10 0 10 -10v-440h5l300 440q3 4 7.5 7t12.5 3h30z" />
    <glyph glyph-name="afii10075" unicode="&#x439;" horiz-adv-x="585" 
d="M485 510q10 0 10 -10v-490q0 -10 -10 -10h-20q-10 0 -10 10v440h-5l-300 -440q-4 -4 -8 -7t-12 -3h-30q-10 0 -10 10v490q0 10 10 10h20q10 0 10 -10v-440h5l300 440q3 4 7.5 7t12.5 3h30zM315 635q38 0 54 16t16 54v10q0 10 10 10h20q10 0 10 -10v-10q0 -110 -110 -110
h-45q-110 0 -110 110v10q0 10 10 10h20q10 0 10 -10v-10q0 -38 16 -54t54 -16h45z" />
    <glyph glyph-name="afii10076" unicode="&#x43a;" horiz-adv-x="507" 
d="M130 290h165l120 210q2 4 4.5 7t10.5 3h25q4 0 5.5 -3t-0.5 -7l-130 -230l145 -260q2 -4 0.5 -7t-5.5 -3h-25q-8 0 -10.5 3t-4.5 7l-135 240h-165v-240q0 -10 -10 -10h-20q-10 0 -10 10v490q0 10 10 10h20q10 0 10 -10v-210z" />
    <glyph glyph-name="afii10077" unicode="&#x43b;" horiz-adv-x="565" 
d="M145 110q-13 -60 -43 -90t-87 -30h-5q-10 0 -10 10v20q0 10 10 10h5q38 0 60 21t30 59l80 390q2 10 15 10h265q10 0 10 -10v-490q0 -10 -10 -10h-20q-10 0 -10 10v460h-215z" />
    <glyph glyph-name="afii10078" unicode="&#x43c;" horiz-adv-x="730" 
d="M360 0q-8 0 -13 3t-7 7l-205 420h-5v-420q0 -10 -10 -10h-20q-10 0 -10 10v490q0 10 10 10h25q8 0 13 -3t7 -7l218 -445h4l218 445q2 4 7 7t13 3h25q10 0 10 -10v-490q0 -10 -10 -10h-20q-10 0 -10 10v420h-5l-205 -420q-2 -4 -7 -7t-13 -3h-10z" />
    <glyph glyph-name="afii10079" unicode="&#x43d;" 
d="M90 500q0 10 10 10h20q10 0 10 -10v-220h310v220q0 10 10 10h20q10 0 10 -10v-490q0 -10 -10 -10h-20q-10 0 -10 10v230h-310v-230q0 -10 -10 -10h-20q-10 0 -10 10v490z" />
    <glyph glyph-name="afii10080" unicode="&#x43e;" horiz-adv-x="575" 
d="M495 140q0 -72 -40 -111t-115 -39h-105q-75 0 -115 39t-40 111v230q0 72 40 111t115 39h105q75 0 115 -39t40 -111v-230zM455 370q0 53 -29 81.5t-86 28.5h-105q-57 0 -86 -28.5t-29 -81.5v-230q0 -53 29 -81.5t86 -28.5h105q57 0 86 28.5t29 81.5v230z" />
    <glyph glyph-name="afii10081" unicode="&#x43f;" 
d="M90 500q0 10 10 10h370q10 0 10 -10v-490q0 -10 -10 -10h-20q-10 0 -10 10v460h-310v-460q0 -10 -10 -10h-20q-10 0 -10 10v490z" />
    <glyph glyph-name="afii10082" unicode="&#x440;" 
d="M130 0v-180q0 -10 -10 -10h-20q-10 0 -10 10v680q0 10 10 10h20q10 0 10 -10v-55h5q8 20 25 37q14 14 38 26t62 12h75q75 0 115 -39t40 -111v-220q0 -72 -40 -111t-115 -39h-205zM130 40h205q57 0 86 28.5t29 81.5v220q0 53 -29 81.5t-86 28.5h-75q-60 0 -95 -34t-35 -91
v-315z" />
    <glyph glyph-name="afii10083" unicode="&#x441;" horiz-adv-x="560" 
d="M490 350q0 -10 -10 -10h-20q-10 0 -10 10v20q0 53 -29 81.5t-86 28.5h-100q-57 0 -86 -28.5t-29 -81.5v-230q0 -53 29 -81.5t86 -28.5h100q57 0 86 28.5t29 81.5v20q0 10 10 10h20q10 0 10 -10v-20q0 -72 -40 -111t-115 -39h-100q-75 0 -115 39t-40 111v230q0 72 40 111
t115 39h100q75 0 115 -39t40 -111v-20z" />
    <glyph glyph-name="afii10084" unicode="&#x442;" horiz-adv-x="430" 
d="M420 480q0 -10 -10 -10h-175v-460q0 -10 -10 -10h-20q-10 0 -10 10v460h-175q-10 0 -10 10v20q0 10 10 10h390q10 0 10 -10v-20z" />
    <glyph glyph-name="afii10085" unicode="&#x443;" horiz-adv-x="482" 
d="M416 500q2 4 4.5 7t10.5 3h20q14 0 10 -10l-195 -500q-22 -56 -41.5 -93t-40 -58.5t-43 -30t-50.5 -8.5h-20q-10 0 -10 10v20q0 10 10 10h20q19 0 35 7.5t31.5 24.5t31 46t32.5 72l-200 500q-4 10 10 10h20q8 0 10.5 -3t4.5 -7l175 -440h5z" />
    <glyph glyph-name="afii10086" unicode="&#x444;" horiz-adv-x="730" 
d="M80 360q0 72 40 111t115 39h110v180q0 10 10 10h20q10 0 10 -10v-180h110q75 0 115 -39t40 -111v-210q0 -72 -40 -111t-115 -39h-110v-180q0 -10 -10 -10h-20q-10 0 -10 10v180h-110q-75 0 -115 39t-40 111v210zM120 150q0 -53 29 -81.5t86 -28.5h110v430h-110
q-57 0 -86 -28.5t-29 -81.5v-210zM610 360q0 53 -29 81.5t-86 28.5h-110v-430h110q57 0 86 28.5t29 81.5v210z" />
    <glyph glyph-name="afii10087" unicode="&#x445;" horiz-adv-x="466" 
d="M233 295l140 205q1 2 4 5q5 5 11 5h25q8 0 7.5 -3t-2.5 -7l-160 -235l175 -255q2 -4 2.5 -7t-7.5 -3h-25q-8 0 -11 5q-3 2 -4 5l-155 225l-155 -225q-2 -3 -4 -5q-5 -5 -11 -5h-25q-8 0 -7.5 3t2.5 7l175 255l-160 235q-2 4 -2.5 7t7.5 3h25q4 0 6.5 -1.5t4.5 -3.5
q2 -3 4 -5z" />
    <glyph glyph-name="afii10088" unicode="&#x446;" horiz-adv-x="569" 
d="M470 30l85 -95q7 -8 0 -15l-15 -15q-8 -8 -15 0l-85 95h-340q-10 0 -10 10v490q0 10 10 10h20q10 0 10 -10v-460h300v460q0 10 10 10h20q10 0 10 -10v-470z" />
    <glyph glyph-name="afii10089" unicode="&#x447;" horiz-adv-x="550" 
d="M80 500q0 10 10 10h20q10 0 10 -10v-175q0 -53 29 -81.5t86 -28.5h185v285q0 10 10 10h20q10 0 10 -10v-490q0 -10 -10 -10h-20q-10 0 -10 10v165h-185q-75 0 -115 39t-40 111v175z" />
    <glyph glyph-name="afii10090" unicode="&#x448;" horiz-adv-x="790" 
d="M700 10q0 -10 -10 -10h-590q-10 0 -10 10v490q0 10 10 10h20q10 0 10 -10v-460h245v460q0 10 10 10h20q10 0 10 -10v-460h245v460q0 10 10 10h20q10 0 10 -10v-490z" />
    <glyph glyph-name="afii10091" unicode="&#x449;" horiz-adv-x="799" 
d="M785 -65q7 -8 0 -15l-15 -15q-8 -8 -15 0l-85 95h-570q-10 0 -10 10v490q0 10 10 10h20q10 0 10 -10v-460h245v460q0 10 10 10h20q10 0 10 -10v-460h245v460q0 10 10 10h20q10 0 10 -10v-470z" />
    <glyph glyph-name="afii10092" unicode="&#x44a;" horiz-adv-x="560" 
d="M0 500q0 10 10 10h155q10 0 10 -10v-175h170q75 0 115 -39t40 -111v-25q0 -72 -40 -111t-115 -39h-200q-10 0 -10 10v460h-125q-10 0 -10 10v20zM175 285v-245h170q57 0 86 28.5t29 81.5v25q0 53 -29 81.5t-86 28.5h-170z" />
    <glyph glyph-name="afii10093" unicode="&#x44b;" horiz-adv-x="695" 
d="M90 500q0 10 10 10h20q10 0 10 -10v-175h170q75 0 115 -39t40 -111v-25q0 -72 -40 -111t-115 -39h-200q-10 0 -10 10v490zM130 285v-245h170q57 0 86 28.5t29 81.5v25q0 53 -29 81.5t-86 28.5h-170zM565 500q0 10 10 10h20q10 0 10 -10v-490q0 -10 -10 -10h-20
q-10 0 -10 10v490z" />
    <glyph glyph-name="afii10094" unicode="&#x44c;" horiz-adv-x="535" 
d="M90 500q0 10 10 10h20q10 0 10 -10v-175h190q75 0 115 -39t40 -111v-25q0 -72 -40 -111t-115 -39h-220q-10 0 -10 10v490zM130 285v-245h190q57 0 86 28.5t29 81.5v25q0 53 -29 81.5t-86 28.5h-190z" />
    <glyph glyph-name="afii10095" unicode="&#x44d;" horiz-adv-x="560" 
d="M70 370q0 72 40 111t115 39h100q75 0 115 -39t40 -111v-230q0 -72 -40 -111t-115 -39h-100q-75 0 -115 39t-40 111v20q0 10 10 10h20q10 0 10 -10v-20q0 -53 29 -81.5t86 -28.5h100q57 0 86 28.5t29 81.5v100h-155q-10 0 -10 10v20q0 10 10 10h155v90q0 53 -29 81.5
t-86 28.5h-100q-57 0 -86 -28.5t-29 -81.5v-20q0 -10 -10 -10h-20q-10 0 -10 10v20z" />
    <glyph glyph-name="afii10096" unicode="&#x44e;" horiz-adv-x="755" 
d="M675 140q0 -72 -40 -111t-115 -39h-75q-75 0 -115 39t-40 111v100h-160v-230q0 -10 -10 -10h-20q-10 0 -10 10v490q0 10 10 10h20q10 0 10 -10v-220h160v90q0 72 40 111t115 39h75q75 0 115 -39t40 -111v-230zM635 370q0 53 -29 81.5t-86 28.5h-75q-57 0 -86 -28.5
t-29 -81.5v-230q0 -53 29 -81.5t86 -28.5h75q57 0 86 28.5t29 81.5v230z" />
    <glyph glyph-name="afii10097" unicode="&#x44f;" horiz-adv-x="535" 
d="M445 10q0 -10 -10 -10h-20q-10 0 -10 10v175h-195l-95 -175q-2 -4 -4.5 -7t-10.5 -3h-25q-4 0 -5.5 3t0.5 7l100 180q-31 5 -55 22q-21 14 -38 43t-17 80v25q0 72 40 111t115 39h220q10 0 10 -10v-490zM405 225v245h-190q-57 0 -86 -28.5t-29 -81.5v-25q0 -53 29 -81.5
t86 -28.5h190z" />
    <glyph glyph-name="afii10071" unicode="&#x451;" 
d="M490 245q0 -10 -10 -10h-360v-95q0 -53 29 -81.5t86 -28.5h100q57 0 86 28.5t29 81.5q0 10 10 10h20q10 0 10 -10q0 -72 -40 -111t-115 -39h-100q-75 0 -115 39t-40 111v230q0 72 40 111t115 39h100q75 0 115 -39t40 -111v-125zM120 275h330v95q0 53 -29 81.5t-86 28.5
h-100q-57 0 -86 -28.5t-29 -81.5v-95zM185 650q-10 0 -10 10v30q0 10 10 10h30q10 0 10 -10v-30q0 -10 -10 -10h-30zM350 650q-10 0 -10 10v30q0 10 10 10h30q10 0 10 -10v-30q0 -10 -10 -10h-30z" />
    <glyph glyph-name="afii10099" unicode="&#x452;" horiz-adv-x="580" 
d="M500 110q0 -68 -36.5 -104t-108.5 -36h-25q-10 0 -10 10v20q0 10 10 10h25q105 0 105 100v150q0 53 -29 81.5t-86 28.5h-205v-360q0 -10 -10 -10h-20q-10 0 -10 10v530h-90q-10 0 -10 10v20q0 10 10 10h90v110q0 10 10 10h20q10 0 10 -10v-110h125q10 0 10 -10v-20
q0 -10 -10 -10h-125v-130h205q75 0 115 -39t40 -111v-150z" />
    <glyph glyph-name="afii10100" unicode="&#x453;" horiz-adv-x="430" 
d="M430 480q0 -10 -10 -10h-290v-460q0 -10 -10 -10h-20q-10 0 -10 10v490q0 10 10 10h320q10 0 10 -10v-20zM270 600q-2 -4 -4.5 -7t-10.5 -3h-15q-4 0 -5.5 3t0.5 7l75 135q2 4 4.5 7t10.5 3h30q4 0 5.5 -3t-0.5 -7z" />
    <glyph glyph-name="afii10101" unicode="&#x454;" horiz-adv-x="560" 
d="M490 350q0 -10 -10 -10h-20q-10 0 -10 10v20q0 53 -29 81.5t-86 28.5h-100q-57 0 -86 -28.5t-29 -81.5v-90h155q10 0 10 -10v-20q0 -10 -10 -10h-155v-100q0 -53 29 -81.5t86 -28.5h100q57 0 86 28.5t29 81.5v20q0 10 10 10h20q10 0 10 -10v-20q0 -72 -40 -111t-115 -39
h-100q-75 0 -115 39t-40 111v230q0 72 40 111t115 39h100q75 0 115 -39t40 -111v-20z" />
    <glyph glyph-name="afii10102" unicode="&#x455;" horiz-adv-x="530" 
d="M460 135q0 -69 -39 -107t-111 -38h-95q-75 0 -115 39t-40 111v10q0 10 10 10h20q10 0 10 -10v-10q0 -53 29 -81.5t86 -28.5h95q53 0 81.5 28t28.5 77q0 26 -13.5 41.5t-36.5 23.5l-225 75q-34 11 -54.5 34.5t-20.5 65.5q0 69 39 107t111 38h85q75 0 115 -39t40 -111v-10
q0 -10 -10 -10h-20q-10 0 -10 10v10q0 53 -29 81.5t-86 28.5h-85q-53 0 -81.5 -28t-28.5 -77q0 -26 13.5 -41.5t36.5 -23.5l225 -75q34 -11 54.5 -34.5t20.5 -65.5z" />
    <glyph glyph-name="afii10103" unicode="&#x456;" horiz-adv-x="230" 
d="M135 10q0 -10 -10 -10h-20q-10 0 -10 10v490q0 10 10 10h20q10 0 10 -10v-490zM130 700q10 0 10 -10v-30q0 -10 -10 -10h-30q-10 0 -10 10v30q0 10 10 10h30z" />
    <glyph glyph-name="afii10104" unicode="&#x457;" horiz-adv-x="235" 
d="M135 10q0 -10 -10 -10h-20q-10 0 -10 10v490q0 10 10 10h20q10 0 10 -10v-490zM50 700q10 0 10 -10v-30q0 -10 -10 -10h-30q-10 0 -10 10v30q0 10 10 10h30zM215 700q10 0 10 -10v-30q0 -10 -10 -10h-30q-10 0 -10 10v30q0 10 10 10h30z" />
    <glyph glyph-name="afii10105" unicode="&#x458;" horiz-adv-x="230" 
d="M135 -60q0 -68 -36.5 -104t-108.5 -36h-30q-10 0 -10 10v20q0 10 10 10h30q105 0 105 100v560q0 10 10 10h20q10 0 10 -10v-560zM130 700q10 0 10 -10v-30q0 -10 -10 -10h-30q-10 0 -10 10v30q0 10 10 10h30z" />
    <glyph glyph-name="afii10106" unicode="&#x459;" horiz-adv-x="820" 
d="M145 110q-13 -60 -43 -90t-87 -30h-5q-10 0 -10 10v20q0 10 10 10h5q38 0 60 21t30 59l80 390q2 10 15 10h245q10 0 10 -10v-175h150q75 0 115 -39t40 -111v-25q0 -72 -40 -111t-115 -39h-180q-10 0 -10 10v460h-195zM455 285v-245h150q57 0 86 28.5t29 81.5v25
q0 53 -29 81.5t-86 28.5h-150z" />
    <glyph glyph-name="afii10107" unicode="&#x45a;" horiz-adv-x="805" 
d="M400 270h-270v-260q0 -10 -10 -10h-20q-10 0 -10 10v490q0 10 10 10h20q10 0 10 -10v-190h270v190q0 10 10 10h20q10 0 10 -10v-190h150q75 0 115 -39t40 -111v-10q0 -72 -40 -111t-115 -39h-180q-10 0 -10 10v260zM440 270v-230h150q57 0 86 28.5t29 81.5v10
q0 53 -29 81.5t-86 28.5h-150z" />
    <glyph glyph-name="afii10108" unicode="&#x45b;" horiz-adv-x="590" 
d="M345 410q75 0 115 -39t40 -111v-250q0 -10 -10 -10h-20q-10 0 -10 10v250q0 53 -29 81.5t-86 28.5h-205v-360q0 -10 -10 -10h-20q-10 0 -10 10v530h-90q-10 0 -10 10v20q0 10 10 10h90v110q0 10 10 10h20q10 0 10 -10v-110h125q10 0 10 -10v-20q0 -10 -10 -10h-125v-130
h205z" />
    <glyph glyph-name="afii10109" unicode="&#x45c;" horiz-adv-x="507" 
d="M130 290h165l120 210q2 4 4.5 7t10.5 3h25q4 0 5.5 -3t-0.5 -7l-130 -230l145 -260q2 -4 0.5 -7t-5.5 -3h-25q-8 0 -10.5 3t-4.5 7l-135 240h-165v-240q0 -10 -10 -10h-20q-10 0 -10 10v490q0 10 10 10h20q10 0 10 -10v-210zM276 600q-2 -4 -4.5 -7t-10.5 -3h-15
q-4 0 -5.5 3t0.5 7l75 135q2 4 4.5 7t10.5 3h30q4 0 5.5 -3t-0.5 -7z" />
    <glyph glyph-name="afii10110" unicode="&#x45e;" horiz-adv-x="482" 
d="M416 500q2 4 4.5 7t10.5 3h20q14 0 10 -10l-195 -500q-22 -56 -41.5 -93t-40 -58.5t-43 -30t-50.5 -8.5h-20q-10 0 -10 10v20q0 10 10 10h20q19 0 35 7.5t31.5 24.5t31 46t32.5 72l-200 500q-4 10 10 10h20q8 0 10.5 -3t4.5 -7l175 -440h5zM265 635q38 0 54 16t16 54v10
q0 10 10 10h20q10 0 10 -10v-10q0 -110 -110 -110h-45q-110 0 -110 110v10q0 10 10 10h20q10 0 10 -10v-10q0 -38 16 -54t54 -16h45z" />
    <glyph glyph-name="afii10193" unicode="&#x45f;" 
d="M90 500q0 10 10 10h20q10 0 10 -10v-460h310v460q0 10 10 10h20q10 0 10 -10v-490q0 -10 -10 -10h-165v-105q0 -10 -10 -10h-20q-10 0 -10 10v105h-165q-10 0 -10 10v490z" />
    <glyph glyph-name="afii10050" unicode="&#x490;" horiz-adv-x="565" 
d="M155 10q0 -10 -10 -10h-25q-10 0 -10 10v680q0 10 10 10h400v105q0 10 10 10h25q10 0 10 -10v-140q0 -10 -10 -10h-400v-645z" />
    <glyph glyph-name="afii10098" unicode="&#x491;" horiz-adv-x="430" 
d="M430 480q0 -10 -10 -10h-290v-460q0 -10 -10 -10h-20q-10 0 -10 10v490q0 10 10 10h290v85q0 10 10 10h20q10 0 10 -10v-115z" />
    <glyph glyph-name="uni1E9E" unicode="&#x1e9e;" horiz-adv-x="740" 
d="M110 0q-10 0 -10 10v520q1 79 46.5 124.5t128.5 45.5h365q10 0 10 -10v-15q0 -4 -1.5 -7.5t-3.5 -6.5q-3 -4 -5 -6l-260 -240v-5h105q83 0 129 -45.5t46 -124.5v-70q0 -79 -46 -124.5t-129 -45.5h-150q-10 0 -10 10v25q0 10 10 10h150q64 0 97 32.5t33 92.5v70
q0 60 -33 92.5t-97 32.5h-170q-10 0 -10 10v15q0 7 5 14q2 4 5 6l260 240v5h-300q-64 0 -97 -32.5t-33 -92.5v-520q0 -10 -10 -10h-25z" />
    <glyph glyph-name="endash" unicode="&#x2013;" 
d="M40 280q-10 0 -10 10v25q0 10 10 10h490q10 0 10 -10v-25q0 -10 -10 -10h-490z" />
    <glyph glyph-name="emdash" unicode="&#x2014;" horiz-adv-x="760" 
d="M40 280q-10 0 -10 10v25q0 10 10 10h680q10 0 10 -10v-25q0 -10 -10 -10h-680z" />
    <glyph glyph-name="quoteleft" unicode="&#x2018;" horiz-adv-x="157" 
d="M50 580q0 6 2 14q1 4 3 6l45 90q2 4 4.5 7t10.5 3t10 -3t0 -7l-45 -90h10q10 0 10 -10v-30q0 -10 -10 -10h-30q-10 0 -10 10v20z" />
    <glyph glyph-name="quoteright" unicode="&#x2019;" horiz-adv-x="157" 
d="M107 670q0 -4 -1 -7.5t-2 -6.5q-1 -4 -2 -6l-45 -90q-2 -4 -4.5 -7t-10.5 -3t-10 3t0 7l45 90h-10q-10 0 -10 10v30q0 10 10 10h30q10 0 10 -10v-20z" />
    <glyph glyph-name="quotesinglbase" unicode="&#x201a;" horiz-adv-x="157" 
d="M107 20q0 -4 -1 -7.5t-2 -6.5q-1 -4 -2 -6l-45 -90q-2 -4 -4.5 -7t-10.5 -3t-10 3t0 7l45 90h-10q-10 0 -10 10v30q0 10 10 10h30q10 0 10 -10v-20z" />
    <glyph glyph-name="quotedblleft" unicode="&#x201c;" horiz-adv-x="277" 
d="M170 580q0 6 2 14q1 4 3 6l45 90q2 4 4.5 7t10.5 3t10 -3t0 -7l-45 -90h10q10 0 10 -10v-30q0 -10 -10 -10h-30q-10 0 -10 10v20zM50 580q0 6 2 14q1 4 3 6l45 90q2 4 4.5 7t10.5 3t10 -3t0 -7l-45 -90h10q10 0 10 -10v-30q0 -10 -10 -10h-30q-10 0 -10 10v20z" />
    <glyph glyph-name="quotedblright" unicode="&#x201d;" horiz-adv-x="277" 
d="M107 670q0 -4 -1 -7.5t-2 -6.5q-1 -4 -2 -6l-45 -90q-2 -4 -4.5 -7t-10.5 -3t-10 3t0 7l45 90h-10q-10 0 -10 10v30q0 10 10 10h30q10 0 10 -10v-20zM227 670q0 -4 -1 -7.5t-2 -6.5q-1 -4 -2 -6l-45 -90q-2 -4 -4.5 -7t-10.5 -3t-10 3t0 7l45 90h-10q-10 0 -10 10v30
q0 10 10 10h30q10 0 10 -10v-20z" />
    <glyph glyph-name="quotedblbase" unicode="&#x201e;" horiz-adv-x="277" 
d="M107 20q0 -4 -1 -7.5t-2 -6.5q-1 -4 -2 -6l-45 -90q-2 -4 -4.5 -7t-10.5 -3t-10 3t0 7l45 90h-10q-10 0 -10 10v30q0 10 10 10h30q10 0 10 -10v-20zM227 20q0 -4 -1 -7.5t-2 -6.5q-1 -4 -2 -6l-45 -90q-2 -4 -4.5 -7t-10.5 -3t-10 3t0 7l45 90h-10q-10 0 -10 10v30
q0 10 10 10h30q10 0 10 -10v-20z" />
    <glyph glyph-name="dagger" unicode="&#x2020;" horiz-adv-x="485" 
d="M220 690q0 10 10 10h25q10 0 10 -10v-175h160q10 0 10 -10v-25q0 -10 -10 -10h-160v-460q0 -10 -10 -10h-25q-10 0 -10 10v460h-160q-10 0 -10 10v25q0 10 10 10h160v175z" />
    <glyph glyph-name="daggerdbl" unicode="&#x2021;" horiz-adv-x="485" 
d="M265 10q0 -10 -10 -10h-25q-10 0 -10 10v160h-160q-10 0 -10 10v25q0 10 10 10h160v270h-160q-10 0 -10 10v25q0 10 10 10h160v160q0 10 10 10h25q10 0 10 -10v-160h160q10 0 10 -10v-25q0 -10 -10 -10h-160v-270h160q10 0 10 -10v-25q0 -10 -10 -10h-160v-160z" />
    <glyph glyph-name="bullet" unicode="&#x2022;" horiz-adv-x="310" 
d="M100 325q0 45 45 45h20q45 0 45 -45v-20q0 -45 -45 -45h-20q-45 0 -45 45v20z" />
    <glyph glyph-name="ellipsis" unicode="&#x2026;" horiz-adv-x="530" 
d="M60 0q-10 0 -10 10v30q0 10 10 10h30q10 0 10 -10v-30q0 -10 -10 -10h-30zM250 0q-10 0 -10 10v30q0 10 10 10h30q10 0 10 -10v-30q0 -10 -10 -10h-30zM440 0q-10 0 -10 10v30q0 10 10 10h30q10 0 10 -10v-30q0 -10 -10 -10h-30z" />
    <glyph glyph-name="perthousand" unicode="&#x2030;" horiz-adv-x="1045" 
d="M245 10q-2 -4 -4.5 -7t-10.5 -3h-25q-9 0 -5 10l310 680q2 4 4.5 7t10.5 3h25q9 0 5 -10zM50 590q0 53 29 81.5t86 28.5h40q57 0 86 -28.5t29 -81.5v-90q0 -53 -29 -81.5t-86 -28.5h-40q-57 0 -86 28.5t-29 81.5v90zM280 590q0 70 -75 70h-40q-75 0 -75 -70v-90
q0 -70 75 -70h40q75 0 75 70v90zM415 200q0 53 29 81.5t86 28.5h40q57 0 86 -28.5t29 -81.5v-90q0 -53 -29 -81.5t-86 -28.5h-40q-57 0 -86 28.5t-29 81.5v90zM645 200q0 70 -75 70h-40q-75 0 -75 -70v-90q0 -70 75 -70h40q75 0 75 70v90zM725 200q0 53 29 81.5t86 28.5h40
q57 0 86 -28.5t29 -81.5v-90q0 -53 -29 -81.5t-86 -28.5h-40q-57 0 -86 28.5t-29 81.5v90zM955 200q0 70 -75 70h-40q-75 0 -75 -70v-90q0 -70 75 -70h40q75 0 75 70v90z" />
    <glyph glyph-name="guilsinglleft" unicode="&#x2039;" horiz-adv-x="282" 
d="M230 50q2 -4 0.5 -7t-5.5 -3h-25q-11 0 -16 5q-3 2 -4 5l-130 205l130 205q1 2 4 5q2 2 6 3.5t10 1.5h25q4 0 5.5 -3t-0.5 -7l-130 -205z" />
    <glyph glyph-name="guilsinglright" unicode="&#x203a;" horiz-adv-x="282" 
d="M182 255l-130 205q-2 4 -0.5 7t5.5 3h25q5 0 9.5 -1.5t6.5 -3.5q3 -3 4 -5l130 -205l-130 -205q-1 -3 -4 -5q-5 -5 -16 -5h-25q-4 0 -5.5 3t0.5 7z" />
    <glyph glyph-name="fraction" unicode="&#x2044;" horiz-adv-x="122" 
d="M-74 10q-2 -4 -4.5 -7t-10.5 -3h-25q-9 0 -5 10l315 680q2 4 4.5 7t10.5 3h25q9 0 5 -10z" />
    <glyph glyph-name="zerosuperior" unicode="&#x2070;" horiz-adv-x="370" 
d="M50 690q0 53 29 81.5t86 28.5h40q57 0 86 -28.5t29 -81.5v-90q0 -53 -29 -81.5t-86 -28.5h-40q-57 0 -86 28.5t-29 81.5v90zM280 690q0 70 -75 70h-40q-75 0 -75 -70v-90q0 -70 75 -70h40q75 0 75 70v90z" />
    <glyph glyph-name="foursuperior" unicode="&#x2074;" horiz-adv-x="305" 
d="M225 600h40q10 0 10 -10v-20q0 -10 -10 -10h-40v-60q0 -10 -10 -10h-20q-10 0 -10 10v60h-165q-10 0 -10 10v20q0 7 5 14q2 4 5 6l140 180q2 2 6 5q3 2 6.5 3.5t7.5 1.5h35q10 0 10 -10v-190zM185 600v160h-5q-31 -41 -60 -77.5t-60 -77.5v-5h125z" />
    <glyph glyph-name="fivesuperior" unicode="&#x2075;" horiz-adv-x="315" 
d="M285 580q0 -90 -95 -90h-55q-95 0 -95 90q0 10 10 10h20q10 0 10 -10q0 -26 12.5 -38t42.5 -12h55q30 0 42.5 12t12.5 38v15q0 26 -12.5 38t-42.5 12h-125q-10 0 -10 10v135q0 10 10 10h200q10 0 10 -10v-20q0 -10 -10 -10h-170v-75h95q95 0 95 -90v-15z" />
    <glyph glyph-name="sixsuperior" unicode="&#x2076;" horiz-adv-x="310" 
d="M80 585q0 -55 60 -55h45q30 0 42.5 12t12.5 38v5q0 26 -12.5 38t-42.5 12h-105v-50zM280 580q0 -90 -95 -90h-45q-49 0 -74.5 25t-25.5 70v115q0 100 105 100h35q95 0 95 -90q0 -10 -10 -10h-20q-10 0 -10 10q0 26 -12.5 38t-42.5 12h-35q-65 0 -65 -60v-25h105
q95 0 95 -90v-5z" />
    <glyph glyph-name="sevensuperior" unicode="&#x2077;" horiz-adv-x="255" 
d="M20 790q0 10 10 10h215q10 0 10 -10v-15q0 -11 -3 -19t-7 -16l-110 -240q-2 -4 -4.5 -7t-10.5 -3h-25q-8 0 -7.5 3t2.5 7l120 260h-180q-10 0 -10 10v20z" />
    <glyph glyph-name="eightsuperior" unicode="&#x2078;" horiz-adv-x="325" 
d="M130 630q-30 0 -42.5 -12t-12.5 -38t12.5 -38t42.5 -12h65q30 0 42.5 12t12.5 38t-12.5 38t-42.5 12h-65zM190 670q50 0 50 45t-50 45h-55q-50 0 -50 -45t50 -45h55zM45 715q0 85 90 85h55q90 0 90 -85q0 -21 -6 -33.5t-14 -19.5q-9 -8 -20 -12q14 -4 25 -13q9 -8 17 -21
t8 -36q0 -90 -95 -90h-65q-95 0 -95 90q0 23 7.5 36t17.5 21q11 9 25 13q-11 4 -20 12q-8 7 -14 19.5t-6 33.5z" />
    <glyph glyph-name="ninesuperior" unicode="&#x2079;" horiz-adv-x="310" 
d="M230 705q0 55 -60 55h-45q-30 0 -42.5 -12t-12.5 -38v-5q0 -26 12.5 -38t42.5 -12h105v50zM30 710q0 90 95 90h45q49 0 74.5 -25t25.5 -70v-115q0 -100 -105 -100h-35q-95 0 -95 90q0 10 10 10h20q10 0 10 -10q0 -26 12.5 -38t42.5 -12h35q65 0 65 60v25h-105
q-95 0 -95 90v5z" />
    <glyph glyph-name="zeroinferior" unicode="&#x2080;" horiz-adv-x="370" 
d="M50 100q0 53 29 81.5t86 28.5h40q57 0 86 -28.5t29 -81.5v-90q0 -53 -29 -81.5t-86 -28.5h-40q-57 0 -86 28.5t-29 81.5v90zM280 100q0 70 -75 70h-40q-75 0 -75 -70v-90q0 -70 75 -70h40q75 0 75 70v90z" />
    <glyph glyph-name="oneinferior" unicode="&#x2081;" horiz-adv-x="230" 
d="M50 200q0 10 10 10h110q10 0 10 -10v-290q0 -10 -10 -10h-20q-10 0 -10 10v260h-80q-10 0 -10 10v20z" />
    <glyph glyph-name="twoinferior" unicode="&#x2082;" horiz-adv-x="315" 
d="M235 110q0 60 -65 60h-25q-65 0 -65 -60q0 -10 -10 -10h-20q-10 0 -10 10q0 100 105 100h25q105 0 105 -100q0 -30 -16.5 -50t-39.5 -35l-124 -80v-5h170q10 0 10 -10v-20q0 -10 -10 -10h-215q-10 0 -10 10v35q0 4 3 8t7 7l155 100q11 8 20.5 19.5t9.5 30.5z" />
    <glyph glyph-name="threeinferior" unicode="&#x2083;" horiz-adv-x="325" 
d="M175 100v-5h5q53 0 79 -25t26 -70q0 -100 -105 -100h-35q-105 0 -105 100q0 10 10 10h20q10 0 10 -10q0 -60 65 -60h35q65 0 65 60t-65 60h-75q-10 0 -10 10v5q0 4 3 8t7 7l115 75v5h-170q-10 0 -10 10v20q0 10 10 10h215q10 0 10 -10v-25q0 -4 -3 -8.5t-7 -6.5z" />
    <glyph glyph-name="fourinferior" unicode="&#x2084;" horiz-adv-x="305" 
d="M225 10h40q10 0 10 -10v-20q0 -10 -10 -10h-40v-60q0 -10 -10 -10h-20q-10 0 -10 10v60h-165q-10 0 -10 10v20q0 7 5 14q2 4 5 6l140 180q2 2 6 5q3 2 6.5 3.5t7.5 1.5h35q10 0 10 -10v-190zM185 10v160h-5q-31 -41 -60 -77.5t-60 -77.5v-5h125z" />
    <glyph glyph-name="fiveinferior" unicode="&#x2085;" horiz-adv-x="315" 
d="M285 -10q0 -90 -95 -90h-55q-95 0 -95 90q0 10 10 10h20q10 0 10 -10q0 -26 12.5 -38t42.5 -12h55q30 0 42.5 12t12.5 38v15q0 26 -12.5 38t-42.5 12h-125q-10 0 -10 10v135q0 10 10 10h200q10 0 10 -10v-20q0 -10 -10 -10h-170v-75h95q95 0 95 -90v-15z" />
    <glyph glyph-name="sixinferior" unicode="&#x2086;" horiz-adv-x="310" 
d="M80 -5q0 -55 60 -55h45q30 0 42.5 12t12.5 38v5q0 26 -12.5 38t-42.5 12h-105v-50zM280 -10q0 -90 -95 -90h-45q-49 0 -74.5 25t-25.5 70v115q0 100 105 100h35q95 0 95 -90q0 -10 -10 -10h-20q-10 0 -10 10q0 26 -12.5 38t-42.5 12h-35q-65 0 -65 -60v-25h105
q95 0 95 -90v-5z" />
    <glyph glyph-name="seveninferior" unicode="&#x2087;" horiz-adv-x="255" 
d="M20 200q0 10 10 10h215q10 0 10 -10v-15q0 -11 -3 -19t-7 -16l-110 -240q-2 -4 -4.5 -7t-10.5 -3h-25q-8 0 -7.5 3t2.5 7l120 260h-180q-10 0 -10 10v20z" />
    <glyph glyph-name="eightinferior" unicode="&#x2088;" horiz-adv-x="325" 
d="M130 40q-30 0 -42.5 -12t-12.5 -38t12.5 -38t42.5 -12h65q30 0 42.5 12t12.5 38t-12.5 38t-42.5 12h-65zM190 80q50 0 50 45t-50 45h-55q-50 0 -50 -45t50 -45h55zM45 125q0 85 90 85h55q90 0 90 -85q0 -21 -6 -33.5t-14 -19.5q-9 -8 -20 -12q14 -4 25 -13q9 -8 17 -21
t8 -36q0 -90 -95 -90h-65q-95 0 -95 90q0 23 7.5 36t17.5 21q11 9 25 13q-11 4 -20 12q-8 7 -14 19.5t-6 33.5z" />
    <glyph glyph-name="nineinferior" unicode="&#x2089;" horiz-adv-x="310" 
d="M230 115q0 55 -60 55h-45q-30 0 -42.5 -12t-12.5 -38v-5q0 -26 12.5 -38t42.5 -12h105v50zM30 120q0 90 95 90h45q49 0 74.5 -25t25.5 -70v-115q0 -100 -105 -100h-35q-95 0 -95 90q0 10 10 10h20q10 0 10 -10q0 -26 12.5 -38t42.5 -12h35q65 0 65 60v25h-105
q-95 0 -95 90v5z" />
    <glyph glyph-name="Euro" unicode="&#x20ac;" horiz-adv-x="790" 
d="M180 260v-100q0 -60 33 -92.5t97 -32.5h215q64 0 97 32.5t33 92.5v35q0 10 10 10h25q10 0 10 -10v-35q0 -79 -46 -124.5t-129 -45.5h-215q-83 0 -129 45.5t-46 124.5v100h-75q-10 0 -10 10v20q0 10 10 10h75v100h-75q-10 0 -10 10v20q0 10 10 10h75v100q0 79 46 124.5
t129 45.5h215q83 0 129 -45.5t46 -124.5v-35q0 -10 -10 -10h-25q-10 0 -10 10v35q0 60 -33 92.5t-97 32.5h-215q-64 0 -97 -32.5t-33 -92.5v-100h260q10 0 10 -10v-20q0 -10 -10 -10h-260v-100h260q10 0 10 -10v-20q0 -10 -10 -10h-260z" />
    <glyph glyph-name="uni20B4" unicode="&#x20b4;" horiz-adv-x="760" 
d="M670 310q10 0 10 -10v-25q0 -10 -10 -10h-490v-105q0 -60 33 -92.5t97 -32.5h140q64 0 97 32.5t33 92.5v30q0 10 10 10h25q10 0 10 -10v-30q0 -79 -46 -124.5t-129 -45.5h-140q-83 0 -129 45.5t-46 124.5v105h-45q-10 0 -10 10v25q0 10 10 10h580zM90 390q-10 0 -10 10
v25q0 10 10 10h490v105q0 60 -33 92.5t-97 32.5h-140q-64 0 -97 -32.5t-33 -92.5v-30q0 -10 -10 -10h-25q-10 0 -10 10v30q0 79 46 124.5t129 45.5h140q83 0 129 -45.5t46 -124.5v-105h45q10 0 10 -10v-25q0 -10 -10 -10h-580z" />
    <glyph glyph-name="uni20BD" unicode="&#x20bd;" horiz-adv-x="685" 
d="M170 155v-145q0 -10 -10 -10h-25q-10 0 -10 10v145h-75q-10 0 -10 10v25q0 10 10 10h75v105h-75q-10 0 -10 10v25q0 10 10 10h75v340q0 10 10 10h295q83 0 129 -45.5t46 -124.5v-55q0 -79 -46 -124.5t-129 -45.5h-260v-105h330q10 0 10 -10v-25q0 -10 -10 -10h-330z
M170 655v-305h260q64 0 97 32.5t33 92.5v55q0 60 -33 92.5t-97 32.5h-260z" />
    <glyph glyph-name="afii61352" unicode="&#x2116;" horiz-adv-x="1105" 
d="M620 690q0 10 10 10h25q10 0 10 -10v-680q0 -10 -10 -10h-35q-8 0 -12.5 3t-7.5 7l-440 625h-5v-625q0 -10 -10 -10h-25q-10 0 -10 10v680q0 10 10 10h35q8 0 12.5 -3t7.5 -7l440 -625h5v625zM765 400q0 53 29 81.5t86 28.5h40q57 0 86 -28.5t29 -81.5v-90
q0 -53 -29 -81.5t-86 -28.5h-40q-57 0 -86 28.5t-29 81.5v90zM995 400q0 70 -75 70h-40q-75 0 -75 -70v-90q0 -70 75 -70h40q75 0 75 70v90zM780 40q-10 0 -10 10v25q0 10 10 10h240q10 0 10 -10v-25q0 -10 -10 -10h-240z" />
    <glyph glyph-name="trademark" unicode="&#x2122;" horiz-adv-x="725" 
d="M270 670q0 -10 -10 -10h-105v-280q0 -10 -10 -10h-20q-10 0 -10 10v280h-105q-10 0 -10 10v20q0 10 10 10h250q10 0 10 -10v-20zM480 370q-8 0 -10.5 3t-4.5 7l-105 245h-5v-245q0 -10 -10 -10h-20q-10 0 -10 10v310q0 10 10 10h25q8 0 12.5 -3t6.5 -7l119 -275h4
l119 275q2 4 6.5 7t12.5 3h25q10 0 10 -10v-310q0 -10 -10 -10h-20q-10 0 -10 10v245h-5l-105 -245q-2 -4 -4.5 -7t-10.5 -3h-20z" />
    <glyph glyph-name="minus" unicode="&#x2212;" horiz-adv-x="420" 
d="M40 280q-10 0 -10 10v25q0 10 10 10h340q10 0 10 -10v-25q0 -10 -10 -10h-340z" />
    <glyph glyph-name="zero.dnom" unicode="&#xf643;" horiz-adv-x="370" 
d="M50 200q0 53 29 81.5t86 28.5h40q57 0 86 -28.5t29 -81.5v-90q0 -53 -29 -81.5t-86 -28.5h-40q-57 0 -86 28.5t-29 81.5v90zM280 200q0 70 -75 70h-40q-75 0 -75 -70v-90q0 -70 75 -70h40q75 0 75 70v90z" />
    <glyph glyph-name="one.dnom" unicode="&#xf644;" horiz-adv-x="230" 
d="M50 300q0 10 10 10h110q10 0 10 -10v-290q0 -10 -10 -10h-20q-10 0 -10 10v260h-80q-10 0 -10 10v20z" />
    <glyph glyph-name="two.dnom" unicode="&#xf645;" horiz-adv-x="315" 
d="M235 210q0 60 -65 60h-25q-65 0 -65 -60q0 -10 -10 -10h-20q-10 0 -10 10q0 100 105 100h25q105 0 105 -100q0 -30 -16.5 -50t-39.5 -35l-124 -80v-5h170q10 0 10 -10v-20q0 -10 -10 -10h-215q-10 0 -10 10v35q0 4 3 8t7 7l155 100q11 8 20.5 19.5t9.5 30.5z" />
    <glyph glyph-name="three.dnom" unicode="&#xf646;" horiz-adv-x="325" 
d="M175 200v-5h5q53 0 79 -25t26 -70q0 -100 -105 -100h-35q-105 0 -105 100q0 10 10 10h20q10 0 10 -10q0 -60 65 -60h35q65 0 65 60t-65 60h-75q-10 0 -10 10v5q0 4 3 8t7 7l115 75v5h-170q-10 0 -10 10v20q0 10 10 10h215q10 0 10 -10v-25q0 -4 -3 -8.5t-7 -6.5z" />
    <glyph glyph-name="four.dnom" unicode="&#xf647;" horiz-adv-x="305" 
d="M225 110h40q10 0 10 -10v-20q0 -10 -10 -10h-40v-60q0 -10 -10 -10h-20q-10 0 -10 10v60h-165q-10 0 -10 10v20q0 7 5 14q2 4 5 6l140 180q2 2 6 5q3 2 6.5 3.5t7.5 1.5h35q10 0 10 -10v-190zM185 110v160h-5q-31 -41 -60 -77.5t-60 -77.5v-5h125z" />
    <glyph glyph-name="five.dnom" unicode="&#xf648;" horiz-adv-x="315" 
d="M285 90q0 -90 -95 -90h-55q-95 0 -95 90q0 10 10 10h20q10 0 10 -10q0 -26 12.5 -38t42.5 -12h55q30 0 42.5 12t12.5 38v15q0 26 -12.5 38t-42.5 12h-125q-10 0 -10 10v135q0 10 10 10h200q10 0 10 -10v-20q0 -10 -10 -10h-170v-75h95q95 0 95 -90v-15z" />
    <glyph glyph-name="six.dnom" unicode="&#xf649;" horiz-adv-x="310" 
d="M80 95q0 -55 60 -55h45q30 0 42.5 12t12.5 38v5q0 26 -12.5 38t-42.5 12h-105v-50zM280 90q0 -90 -95 -90h-45q-49 0 -74.5 25t-25.5 70v115q0 100 105 100h35q95 0 95 -90q0 -10 -10 -10h-20q-10 0 -10 10q0 26 -12.5 38t-42.5 12h-35q-65 0 -65 -60v-25h105
q95 0 95 -90v-5z" />
    <glyph glyph-name="seven.dnom" unicode="&#xf64a;" horiz-adv-x="255" 
d="M20 300q0 10 10 10h215q10 0 10 -10v-15q0 -11 -3 -19t-7 -16l-110 -240q-2 -4 -4.5 -7t-10.5 -3h-25q-8 0 -7.5 3t2.5 7l120 260h-180q-10 0 -10 10v20z" />
    <glyph glyph-name="eight.dnom" unicode="&#xf64b;" horiz-adv-x="325" 
d="M130 140q-30 0 -42.5 -12t-12.5 -38t12.5 -38t42.5 -12h65q30 0 42.5 12t12.5 38t-12.5 38t-42.5 12h-65zM190 180q50 0 50 45t-50 45h-55q-50 0 -50 -45t50 -45h55zM45 225q0 85 90 85h55q90 0 90 -85q0 -21 -6 -33.5t-14 -19.5q-9 -8 -20 -12q14 -4 25 -13q9 -8 17 -21
t8 -36q0 -90 -95 -90h-65q-95 0 -95 90q0 23 7.5 36t17.5 21q11 9 25 13q-11 4 -20 12q-8 7 -14 19.5t-6 33.5z" />
    <glyph glyph-name="nine.dnom" unicode="&#xf64c;" horiz-adv-x="310" 
d="M230 215q0 55 -60 55h-45q-30 0 -42.5 -12t-12.5 -38v-5q0 -26 12.5 -38t42.5 -12h105v50zM30 220q0 90 95 90h45q49 0 74.5 -25t25.5 -70v-115q0 -100 -105 -100h-35q-95 0 -95 90q0 10 10 10h20q10 0 10 -10q0 -26 12.5 -38t42.5 -12h35q65 0 65 60v25h-105
q-95 0 -95 90v5z" />
    <glyph glyph-name="zero.numr" unicode="&#xf64d;" horiz-adv-x="370" 
d="M50 590q0 53 29 81.5t86 28.5h40q57 0 86 -28.5t29 -81.5v-90q0 -53 -29 -81.5t-86 -28.5h-40q-57 0 -86 28.5t-29 81.5v90zM280 590q0 70 -75 70h-40q-75 0 -75 -70v-90q0 -70 75 -70h40q75 0 75 70v90z" />
    <glyph glyph-name="one.numr" unicode="&#xf64e;" horiz-adv-x="230" 
d="M50 690q0 10 10 10h110q10 0 10 -10v-290q0 -10 -10 -10h-20q-10 0 -10 10v260h-80q-10 0 -10 10v20z" />
    <glyph glyph-name="two.numr" unicode="&#xf64f;" horiz-adv-x="315" 
d="M235 600q0 60 -65 60h-25q-65 0 -65 -60q0 -10 -10 -10h-20q-10 0 -10 10q0 100 105 100h25q105 0 105 -100q0 -30 -16.5 -50t-39.5 -35l-124 -80v-5h170q10 0 10 -10v-20q0 -10 -10 -10h-215q-10 0 -10 10v35q0 4 3 8t7 7l155 100q11 8 20.5 19.5t9.5 30.5z" />
    <glyph glyph-name="three.numr" unicode="&#xf650;" horiz-adv-x="325" 
d="M175 590v-5h5q53 0 79 -25t26 -70q0 -100 -105 -100h-35q-105 0 -105 100q0 10 10 10h20q10 0 10 -10q0 -60 65 -60h35q65 0 65 60t-65 60h-75q-10 0 -10 10v5q0 4 3 8t7 7l115 75v5h-170q-10 0 -10 10v20q0 10 10 10h215q10 0 10 -10v-25q0 -4 -3 -8.5t-7 -6.5z" />
    <glyph glyph-name="four.numr" unicode="&#xf651;" horiz-adv-x="305" 
d="M225 500h40q10 0 10 -10v-20q0 -10 -10 -10h-40v-60q0 -10 -10 -10h-20q-10 0 -10 10v60h-165q-10 0 -10 10v20q0 7 5 14q2 4 5 6l140 180q2 2 6 5q3 2 6.5 3.5t7.5 1.5h35q10 0 10 -10v-190zM185 500v160h-5q-31 -41 -60 -77.5t-60 -77.5v-5h125z" />
    <glyph glyph-name="five.numr" unicode="&#xf652;" horiz-adv-x="315" 
d="M285 480q0 -90 -95 -90h-55q-95 0 -95 90q0 10 10 10h20q10 0 10 -10q0 -26 12.5 -38t42.5 -12h55q30 0 42.5 12t12.5 38v15q0 26 -12.5 38t-42.5 12h-125q-10 0 -10 10v135q0 10 10 10h200q10 0 10 -10v-20q0 -10 -10 -10h-170v-75h95q95 0 95 -90v-15z" />
    <glyph glyph-name="six.numr" unicode="&#xf653;" horiz-adv-x="310" 
d="M80 485q0 -55 60 -55h45q30 0 42.5 12t12.5 38v5q0 26 -12.5 38t-42.5 12h-105v-50zM280 480q0 -90 -95 -90h-45q-49 0 -74.5 25t-25.5 70v115q0 100 105 100h35q95 0 95 -90q0 -10 -10 -10h-20q-10 0 -10 10q0 26 -12.5 38t-42.5 12h-35q-65 0 -65 -60v-25h105
q95 0 95 -90v-5z" />
    <glyph glyph-name="seven.numr" unicode="&#xf654;" horiz-adv-x="255" 
d="M20 690q0 10 10 10h215q10 0 10 -10v-15q0 -11 -3 -19t-7 -16l-110 -240q-2 -4 -4.5 -7t-10.5 -3h-25q-8 0 -7.5 3t2.5 7l120 260h-180q-10 0 -10 10v20z" />
    <glyph glyph-name="eight.numr" unicode="&#xf655;" horiz-adv-x="325" 
d="M130 530q-30 0 -42.5 -12t-12.5 -38t12.5 -38t42.5 -12h65q30 0 42.5 12t12.5 38t-12.5 38t-42.5 12h-65zM190 570q50 0 50 45t-50 45h-55q-50 0 -50 -45t50 -45h55zM45 615q0 85 90 85h55q90 0 90 -85q0 -21 -6 -33.5t-14 -19.5q-9 -8 -20 -12q14 -4 25 -13q9 -8 17 -21
t8 -36q0 -90 -95 -90h-65q-95 0 -95 90q0 23 7.5 36t17.5 21q11 9 25 13q-11 4 -20 12q-8 7 -14 19.5t-6 33.5z" />
    <glyph glyph-name="nine.numr" unicode="&#xf656;" horiz-adv-x="310" 
d="M230 605q0 55 -60 55h-45q-30 0 -42.5 -12t-12.5 -38v-5q0 -26 12.5 -38t42.5 -12h105v50zM30 610q0 90 95 90h45q49 0 74.5 -25t25.5 -70v-115q0 -100 -105 -100h-35q-95 0 -95 90q0 10 10 10h20q10 0 10 -10q0 -26 12.5 -38t42.5 -12h35q65 0 65 60v25h-105
q-95 0 -95 90v5z" />
    <glyph glyph-name="commaaccent" unicode="&#xf6c3;" horiz-adv-x="137" 
d="M107 -135q0 -4 -1 -7.5t-2 -6.5q-1 -4 -2 -6l-45 -90q-2 -4 -4.5 -7t-10.5 -3t-10 3t0 7l45 90h-10q-10 0 -10 10v30q0 10 10 10h30q10 0 10 -10v-20z" />
    <glyph glyph-name="cyrBreve" unicode="&#xf6d1;" horiz-adv-x="355" 
d="M215 835q38 0 54 16t16 54v20q0 10 10 10h20q10 0 10 -10v-20q0 -110 -110 -110h-75q-110 0 -110 110v20q0 10 10 10h20q10 0 10 -10v-20q0 -38 16 -54t54 -16h75z" />
    <glyph glyph-name="cyrbreve" unicode="&#xf6d4;" horiz-adv-x="325" 
d="M185 635q38 0 54 16t16 54v10q0 10 10 10h20q10 0 10 -10v-10q0 -110 -110 -110h-45q-110 0 -110 110v10q0 10 10 10h20q10 0 10 -10v-10q0 -38 16 -54t54 -16h45z" />
    <glyph glyph-name="Germandbls" horiz-adv-x="740" 
d="M110 0q-10 0 -10 10v520q1 79 46.5 124.5t128.5 45.5h365q10 0 10 -10v-15q0 -4 -1.5 -7.5t-3.5 -6.5q-3 -4 -5 -6l-260 -240v-5h105q83 0 129 -45.5t46 -124.5v-70q0 -79 -46 -124.5t-129 -45.5h-150q-10 0 -10 10v25q0 10 10 10h150q64 0 97 32.5t33 92.5v70
q0 60 -33 92.5t-97 32.5h-170q-10 0 -10 10v15q0 7 5 14q2 4 5 6l260 240v5h-300q-64 0 -97 -32.5t-33 -92.5v-520q0 -10 -10 -10h-25z" />
    <glyph glyph-name="foundryicon" horiz-adv-x="1230" 
d="M100 810h1030v-920h-1030v920zM1110 790h-990v-880h990v880zM745 610q38 0 59 -19.5t21 -45.5t-21 -45.5t-59 -19.5h-55v-80h-55v210h110zM745 300q38 0 59 -19.5t21 -45.5t-21 -45.5t-59 -19.5h-55v-80h-55v210h110zM420 300h60l40 -75h5l40 75h65l-80 -130v-80h-55v80z
M420 610h60l40 -75h5l40 75h65l-80 -130v-80h-55v80zM235 255v45h165l25 -45h-70v-165h-55v165h-65zM235 565v45h165l25 -45h-70v-165h-55v165h-65zM790 465q19 4 37.5 20.5t22.5 39.5h80v-45h-85v-35h120v-45h-175v65zM790 155q19 4 37.5 20.5t22.5 39.5h80v-45h-85v-35
h120v-45h-175v65zM965 300v-45h-115q-4 15 -14.5 28t-25.5 17h155zM965 610v-45h-115q-4 15 -14.5 28t-25.5 17h155zM765 545q0 8 -6 14t-14 6h-55v-40h55q8 0 14 6t6 14zM765 235q0 8 -6 14t-14 6h-55v-40h55q8 0 14 6t6 14z" />
    <glyph glyph-name="zero.tab" horiz-adv-x="720" 
d="M620 160q0 -79 -46 -124.5t-129 -45.5h-170q-83 0 -129 45.5t-46 124.5v380q0 79 46 124.5t129 45.5h170q83 0 129 -45.5t46 -124.5v-380zM575 540q0 60 -33 92.5t-97 32.5h-170q-64 0 -97 -32.5t-33 -92.5v-380q0 -60 33 -92.5t97 -32.5h170q64 0 97 32.5t33 92.5v380z
" />
    <glyph glyph-name="one.tab" horiz-adv-x="720" 
d="M385 45h190q10 0 10 -10v-25q0 -10 -10 -10h-425q-10 0 -10 10v25q0 10 10 10h190v610h-155q-10 0 -10 10v25q0 10 10 10h190q10 0 10 -10v-645z" />
    <glyph glyph-name="two.tab" horiz-adv-x="720" 
d="M595 500q0 -26 -8 -48t-21 -41t-30 -36.5t-36 -34.5l-315 -290v-5h400q10 0 10 -10v-25q0 -10 -10 -10h-455q-10 0 -10 10v25q0 7 5 14q2 4 5 6l340 315q33 30 56.5 59.5t23.5 70.5v40q0 60 -33 92.5t-97 32.5h-125q-64 0 -97 -32.5t-33 -92.5v-35q0 -10 -10 -10h-25
q-10 0 -10 10v35q0 79 46 124.5t129 45.5h125q83 0 129 -45.5t46 -124.5v-40z" />
    <glyph glyph-name="three.tab" horiz-adv-x="720" 
d="M140 655q-10 0 -10 10v25q0 10 10 10h440q10 0 10 -10v-15q0 -4 -1.5 -7.5t-3.5 -6.5q-3 -4 -5 -6l-260 -240v-5h105q83 0 129 -45.5t46 -124.5v-80q0 -79 -46 -124.5t-129 -45.5h-140q-83 0 -129 45.5t-46 124.5v35q0 10 10 10h25q10 0 10 -10v-35q0 -60 33 -92.5
t97 -32.5h140q64 0 97 32.5t33 92.5v80q0 60 -33 92.5t-97 32.5h-170q-10 0 -10 10v15q0 7 5 14q2 4 5 6l260 240v5h-375z" />
    <glyph glyph-name="four.tab" horiz-adv-x="720" 
d="M630 200q0 -10 -10 -10h-85v-180q0 -10 -10 -10h-25q-10 0 -10 10v180h-390q-10 0 -10 10v20q0 7 5 14q2 4 5 6l365 450q1 2 4 5q2 2 6 3.5t10 1.5h40q10 0 10 -10v-455h85q10 0 10 -10v-25zM485 650q-83 -103 -164.5 -205t-165.5 -205v-5h335v415h-5z" />
    <glyph glyph-name="five.tab" horiz-adv-x="720" 
d="M185 410h240q83 0 129 -45.5t46 -124.5v-80q0 -79 -46 -124.5t-129 -45.5h-140q-83 0 -129 45.5t-46 124.5v35q0 10 10 10h25q10 0 10 -10v-35q0 -60 33 -92.5t97 -32.5h140q64 0 97 32.5t33 92.5v80q0 60 -33 92.5t-97 32.5h-275q-10 0 -10 10v315q0 10 10 10h415
q10 0 10 -10v-25q0 -10 -10 -10h-380v-245z" />
    <glyph glyph-name="six.tab" horiz-adv-x="720" 
d="M605 160q0 -79 -46 -124.5t-129 -45.5h-145q-83 0 -129 45.5t-46 124.5v380q0 79 46 124.5t129 45.5h125q83 0 129 -45.5t46 -124.5v-25q0 -10 -10 -10h-25q-10 0 -10 10v25q0 60 -33 92.5t-97 32.5h-125q-64 0 -97 -32.5t-33 -92.5v-135h275q83 0 129 -45.5t46 -124.5
v-75zM560 235q0 60 -33 92.5t-97 32.5h-275v-200q0 -60 33 -92.5t97 -32.5h145q64 0 97 32.5t33 92.5v75z" />
    <glyph glyph-name="seven.tab" horiz-adv-x="720" 
d="M595 675q0 -4 -1.5 -9t-3.5 -10q-3 -5 -5 -11l-290 -635q-2 -4 -4.5 -7t-10.5 -3h-30q-4 0 -5.5 3t0.5 7l295 645h-410q-10 0 -10 10v25q0 10 10 10h455q10 0 10 -10v-15z" />
    <glyph glyph-name="eight.tab" horiz-adv-x="720" 
d="M615 160q0 -79 -46 -124.5t-129 -45.5h-160q-83 0 -129 45.5t-46 124.5v50q0 49 17 78t38 45q24 18 55 25v4q-28 7 -50 25q-19 15 -34.5 42.5t-15.5 75.5v35q0 79 46 124.5t129 45.5h140q83 0 129 -45.5t46 -124.5v-35q0 -48 -15.5 -75.5t-34.5 -42.5q-22 -18 -50 -25v-4
q30 -7 55 -25q20 -16 37.5 -45t17.5 -78v-50zM280 335q-64 0 -97 -32.5t-33 -92.5v-50q0 -60 33 -92.5t97 -32.5h160q64 0 97 32.5t33 92.5v50q0 60 -33 92.5t-97 32.5h-160zM290 665q-64 0 -97 -32.5t-33 -92.5v-35q0 -60 33 -92.5t97 -32.5h140q64 0 97 32.5t33 92.5v35
q0 60 -33 92.5t-97 32.5h-140z" />
    <glyph glyph-name="nine.tab" horiz-adv-x="720" 
d="M110 540q0 79 46 124.5t129 45.5h145q83 0 129 -45.5t46 -124.5v-380q0 -79 -46 -124.5t-129 -45.5h-125q-83 0 -129 45.5t-46 124.5v25q0 10 10 10h25q10 0 10 -10v-25q0 -60 33 -92.5t97 -32.5h125q64 0 97 32.5t33 92.5v135h-275q-83 0 -129 45.5t-46 124.5v75z
M155 465q0 -60 33 -92.5t97 -32.5h275v200q0 60 -33 92.5t-97 32.5h-145q-64 0 -97 -32.5t-33 -92.5v-75z" />
    <glyph glyph-name="at.cap" horiz-adv-x="990" 
d="M805 -60q10 0 10 -10v-25q0 -10 -10 -10h-530q-83 0 -129 45.5t-46 124.5v490q0 79 46 124.5t129 45.5h440q83 0 129 -45.5t46 -124.5v-285q0 -75 -43 -117.5t-122 -42.5h-100q-10 0 -10 10v25h-5q-6 -13 -17 -23q-10 -8 -27.5 -15t-45.5 -7h-65q-64 0 -97 32.5t-33 92.5
v165q0 60 33 92.5t97 32.5h65q28 0 45.5 -7.5t27.5 -15.5q11 -10 17 -22h5v25q0 10 10 10h25q10 0 10 -10v-340h65q120 0 120 115v285q0 60 -33 92.5t-97 32.5h-440q-64 0 -97 -32.5t-33 -92.5v-490q0 -60 33 -92.5t97 -32.5h530zM615 380q0 90 -95 90h-65q-45 0 -65 -19
t-20 -61v-165q0 -42 20 -61t65 -19h65q95 0 95 90v145z" />
    <glyph glyph-name="parenleft.cap" horiz-adv-x="345" 
d="M100 610q0 79 46 124.5t129 45.5h20q10 0 10 -10v-25q0 -10 -10 -10h-20q-64 0 -97 -32.5t-33 -92.5v-560q0 -60 33 -92.5t97 -32.5h20q10 0 10 -10v-25q0 -10 -10 -10h-20q-83 0 -129 45.5t-46 124.5v560z" />
    <glyph glyph-name="parenright.cap" horiz-adv-x="345" 
d="M245 50q0 -79 -46 -124.5t-129 -45.5h-20q-10 0 -10 10v25q0 10 10 10h20q64 0 97 32.5t33 92.5v560q0 60 -33 92.5t-97 32.5h-20q-10 0 -10 10v25q0 10 10 10h20q83 0 129 -45.5t46 -124.5v-560z" />
    <glyph glyph-name="bracketleft.cap" horiz-adv-x="340" 
d="M155 -75h135q10 0 10 -10v-25q0 -10 -10 -10h-170q-10 0 -10 10v880q0 10 10 10h170q10 0 10 -10v-25q0 -10 -10 -10h-135v-810z" />
    <glyph glyph-name="bracketright.cap" horiz-adv-x="340" 
d="M185 735h-135q-10 0 -10 10v25q0 10 10 10h170q10 0 10 -10v-880q0 -10 -10 -10h-170q-10 0 -10 10v25q0 10 10 10h135v810z" />
    <glyph glyph-name="braceleft.cap" horiz-adv-x="370" 
d="M130 328q20 -5 37 -19q14 -12 26 -34t12 -60v-190q0 -100 105 -100h10q10 0 10 -10v-25q0 -10 -10 -10h-10q-150 0 -150 145v190q0 45 -25.5 70t-74.5 25q-10 0 -10 10v20q0 10 10 10q49 0 74.5 25t25.5 70v190q0 145 150 145h10q10 0 10 -10v-25q0 -10 -10 -10h-10
q-105 0 -105 -100v-190q0 -38 -12 -60t-26 -34q-17 -14 -37 -19v-4z" />
    <glyph glyph-name="braceright.cap" horiz-adv-x="370" 
d="M240 332q-21 5 -38 19q-14 12 -25.5 34t-11.5 60v190q0 100 -105 100h-10q-10 0 -10 10v25q0 10 10 10h10q150 0 150 -145v-190q0 -45 25.5 -70t74.5 -25q10 0 10 -10v-20q0 -10 -10 -10q-49 0 -74.5 -25t-25.5 -70v-190q0 -145 -150 -145h-10q-10 0 -10 10v25
q0 10 10 10h10q105 0 105 100v190q0 38 11.5 60t25.5 34q17 14 38 19v4z" />
    <glyph glyph-name="exclamdown.cap" horiz-adv-x="270" 
d="M150 700q10 0 10 -10v-30q0 -10 -10 -10h-30q-10 0 -10 10v30q0 10 10 10h30zM115 350l5 160q0 10 10 10h10q10 0 10 -10l5 -160v-340q0 -10 -10 -10h-20q-10 0 -10 10v340z" />
    <glyph glyph-name="questiondown.cap" horiz-adv-x="595" 
d="M295 430l5 80q0 10 10 10h10q10 0 10 -10l5 -115q0 -10 -10 -10h-80q-64 0 -97 -32.5t-33 -92.5v-100q0 -60 33 -92.5t97 -32.5h125q64 0 97 32.5t33 92.5v35q0 10 10 10h25q10 0 10 -10v-35q0 -79 -46 -124.5t-129 -45.5h-125q-83 0 -129 45.5t-46 124.5v100
q0 79 46 124.5t129 45.5h50zM330 700q10 0 10 -10v-30q0 -10 -10 -10h-30q-10 0 -10 10v30q0 10 10 10h30z" />
    <glyph glyph-name="guillemotleft.cap" horiz-adv-x="447" 
d="M100 305l120 -190q2 -4 0.5 -7t-5.5 -3h-25q-11 0 -16 5q-3 2 -4 5l-120 190l120 190q1 2 4 5q2 2 6 3.5t10 1.5h25q4 0 5.5 -3t-0.5 -7zM275 305l120 -190q2 -4 0.5 -7t-5.5 -3h-25q-11 0 -16 5q-3 2 -4 5l-120 190l120 190q1 2 4 5q2 2 6 3.5t10 1.5h25q4 0 5.5 -3
t-0.5 -7z" />
    <glyph glyph-name="guillemotright.cap" horiz-adv-x="447" 
d="M227 495q-2 4 -0.5 7t5.5 3h25q5 0 9.5 -1.5t6.5 -3.5q3 -3 4 -5l120 -190l-120 -190q-1 -3 -4 -5q-5 -5 -16 -5h-25q-4 0 -5.5 3t0.5 7l120 190zM52 495q-2 4 -0.5 7t5.5 3h25q5 0 9.5 -1.5t6.5 -3.5q3 -3 4 -5l120 -190l-120 -190q-1 -3 -4 -5q-5 -5 -16 -5h-25
q-4 0 -5.5 3t0.5 7l120 190z" />
    <glyph glyph-name="guilsinglleft.cap" horiz-adv-x="282" 
d="M230 100q2 -4 0.5 -7t-5.5 -3h-25q-11 0 -16 5q-3 2 -4 5l-130 205l130 205q1 2 4 5q2 2 6 3.5t10 1.5h25q4 0 5.5 -3t-0.5 -7l-130 -205z" />
    <glyph glyph-name="guilsinglright.cap" horiz-adv-x="282" 
d="M182 305l-130 205q-2 4 -0.5 7t5.5 3h25q5 0 9.5 -1.5t6.5 -3.5q3 -3 4 -5l130 -205l-130 -205q-1 -3 -4 -5q-5 -5 -16 -5h-25q-4 0 -5.5 3t0.5 7z" />
    <glyph glyph-name="hyphen.cap" horiz-adv-x="420" 
d="M40 330q-10 0 -10 10v25q0 10 10 10h340q10 0 10 -10v-25q0 -10 -10 -10h-340z" />
    <glyph glyph-name="endash.cap" 
d="M40 330q-10 0 -10 10v25q0 10 10 10h490q10 0 10 -10v-25q0 -10 -10 -10h-490z" />
    <glyph glyph-name="emdash.cap" horiz-adv-x="760" 
d="M40 330q-10 0 -10 10v25q0 10 10 10h680q10 0 10 -10v-25q0 -10 -10 -10h-680z" />
    <glyph glyph-name="periodcentered.cap" horiz-adv-x="190" 
d="M80 325q-10 0 -10 10v30q0 10 10 10h30q10 0 10 -10v-30q0 -10 -10 -10h-30z" />
    </font>
</defs>
</svg>
